<?xml version="1.0" encoding="utf-8"?>
<!-- Generator: Adobe Illustrator 19.0.0, SVG Export Plug-In . SVG Version: 6.00 Build 0)  -->
<svg version="1.1" id="Layer_1" xmlns="http://www.w3.org/2000/svg" xmlns:xlink="http://www.w3.org/1999/xlink" x="0px" y="0px"
	 viewBox="-3 6.1 588.1 829.8" style="enable-background:new -3 6.1 588.1 829.8;" xml:space="preserve">
<style type="text/css">
	.st0{fill:#0778A5;}
	.st1{fill:#04A1C6;}
	.st2{fill:#FFFFFF;}
	.st3{fill:#FCE74F;}
	.st4{fill:#DDBE05;}
	.st5{fill:#FCF059;}
	.st6{opacity:0.31;fill:#FFFFFF;enable-background:new    ;}
	.st7{fill:#896C4D;}
	.st8{fill:#F4F0ED;}
	.st9{fill:#010101;}
	.st10{fill:#DDDDDD;}
	.st11{fill:none;stroke:#000000;stroke-miterlimit:10;}
	.st12{fill:#04A2C7;}
</style>
<title>Asset 13</title>
<g id="Layer_2">
	<g id="Layer_1-2">
		<g id="_Group_">
			<polyline id="_Rectangle__1_" class="st0" points="585.1,33 585.1,45.6 -3,45.6 -3,33 			"/>
			<polyline id="_Rectangle_2_1_" class="st1" points="585.1,8.6 585.1,40.6 -3,40.6 -3,8.6 			"/>
		</g>
		<rect id="_Rectangle_3" x="2.4" y="814.7" class="st1" width="582.8" height="15.5"/>
		<rect id="_Rectangle_4" x="2.4" y="814.7" class="st1" width="582.8" height="15.5"/>
		<rect id="_Rectangle_5" x="2.4" y="814.7" class="st1" width="582.8" height="15.5"/>
		<rect id="_Rectangle_6" x="2.4" y="814.7" class="st1" width="582.8" height="15.5"/>
		<g id="_Group_2">
			<rect id="_Rectangle_7" x="-3" y="809" class="st0" width="38.1" height="26.9"/>
			<path class="st2" d="M9.2,827.3c-0.4,0-0.8-0.1-1.2-0.3c-0.4-0.3-0.6-0.7-0.6-1.2c0.1-0.7,0.3-1.3,0.8-1.8
				c0.3-0.3,0.4-0.7,0.6-1.1c0-0.3-0.2-0.3-0.4-0.4s-0.7-0.2-0.7-1.1c0-0.1,0-0.2,0-0.2c0.4-1.4,1.3-2.7,2.6-3.4
				c0.1,0,0.1,0,0.1,0.1c0,0.3-0.1,0.6-0.3,0.9c-0.2,0.4-0.6,0.8-1,1c-0.3,0.2-0.5,0.3-0.5,0.5s0.3,0.4,0.5,0.5c0.4,0.2,1,0.3,1,1
				c-0.1,0.6-0.3,1.2-0.7,1.7c-0.3,0.4-0.6,0.8-0.7,1.3v0.1c0,0.5,0.4,0.7,1.1,0.7c0.4,0,0.8,0,1.3-0.1h0.1c0.2,0,0.2,0,0.2,0.1
				c0,0.1-0.1,0.2-0.1,0.3C10.6,827,10.2,827.3,9.2,827.3z"/>
			<path class="st2" d="M17.1,816.7c-0.1,0.3-3.5,9-4.2,10.4c-0.2,0.2-0.4,0.3-0.7,0.3c-0.1,0-0.1-0.1-0.1-0.1
				c1-2.1,3.8-9.4,4.2-10.5C16.6,816.7,16.8,816.6,17.1,816.7C17.1,816.6,17.1,816.6,17.1,816.7z"/>
			<path class="st2" d="M22.7,819.9c-0.4,0.7-1.1,1.2-1.9,1.3h-0.1c0.3,1.2,0.5,2.5,0.5,3.8c0.1,0.7-0.1,1.3-0.3,1.9
				c-0.2,0.3-0.3,0.4-0.3,0.4s-0.1-0.2-0.1-0.5c0-1.2-0.2-2.5-0.5-3.7c-0.6-2.1-1.4-3.1-1.4-3.7c0,0,0-0.1,0-0.1
				c0.1-0.4,0.3-0.7,0.5-1.1c0.1-0.2,0.1-0.2,0.2-0.2s0.2,0.1,0.3,0.3c0.4,0.7,0.8,1.1,1.6,1.1c0.8,0,1.5-0.6,1.8-1.4
				c0-0.1,0.1-0.1,0.1-0.1s0.2,0.2,0.2,0.4C23.2,818.9,23,819.5,22.7,819.9z"/>
		</g>
		<g id="م">
			<path id="ميم" class="st3" d="M265.1,143.6c14.9-15.6,27.5-49.4,58.3-44.7c28.5,6.2,43.3,38.7,49.8,40.5
				c1.2,7.7-3.9,29.1-5.6,32.2c-7.1-1.1-97.2-4.9-120.2,7.6c-6.4,4.4-31.6,17.6-20,41.9c6.3,11.2,21.8,34.8,31.7,64.7
				s14.7,56.9,18.6,93.2c-1.2,2-2.2,9.7-3.8,10c-3.9-4.7-9.6-16.2-11.6-21.7c-1.9-14.1-13.8-63.2-16.9-70.8
				c-9.3-26.5-33.9-62.9-35.8-79c-2.1-16.9,0-39.2,10.5-50.1C230.9,156.8,246.6,147.1,265.1,143.6z M334,139.1
				c-11.8-11.7-27.1-11-30.2-9.6s-9.7,6.7-14.4,11C290.8,139.2,330.8,141.6,334,139.1z"/>
			<path class="st4" d="M370.6,160.5c-0.4,1.4-3.1,11-3.1,11s-95.2-2.7-120.2,7.6c-22.2,9.7-26,31.6-20,41.9s23.8,38.8,31.7,64.7
				c7.9,26,16.9,63.9,18.6,93.2c-1.1,3.4-2.3,6.7-3.8,10l-4.8-8.3c0,0-2.3-66.8-23.4-115.9c-12.1-24.6-26.4-50.7-26.4-50.7
				s-12-37.7,32.8-49.7c3-1,19-4.8,36.5-5.6C321.4,157.3,366.2,161.1,370.6,160.5z"/>
			<path class="st5" d="M336.4,108.1c1.3,12.6-9.1,19.4-19,19.4s-17.3-9-16.6-19.4c0-3.7,7-9.8,17.8-9.8S336.4,105.4,336.4,108.1z"
				/>
			<path class="st6" d="M328.3,103.7c0,2.7-4.5,7.9-9.9,7.9s-9.4-5.2-9.4-7.9s4.3-4.9,9.7-4.9S328.3,101.1,328.3,103.7z"/>
			
				<ellipse transform="matrix(-0.4673 -0.8841 0.8841 -0.4673 394.7071 493.1354)" class="st2" cx="345.9" cy="127.7" rx="11.4" ry="6.6"/>
			<path d="M351.7,124.6c-1.1-2.1-2.7-3.9-4.7-5.3c-0.9-0.6-2-1.1-3.1-1.5c-1-0.3-2.1-0.3-3.1,0.2c-1,0.5-1.7,1.4-2.1,2.4
				c-0.4,1.1-0.6,2.3-0.5,3.4c0.2,2.4,0.9,4.7,2.1,6.7c1.2,2,2.7,3.8,4.6,5.2c0.9,0.7,1.9,1.2,3,1.5c2,0.7,4.1-0.3,4.8-2.2
				c0-0.1,0.1-0.2,0.1-0.3c0.4-1.1,0.5-2.2,0.5-3.3C353.4,129.1,352.8,126.7,351.7,124.6z M351.8,124.6c1.2,2.1,2,4.4,2.4,6.8
				c0.2,1.3,0.1,2.5-0.2,3.8c-0.6,2.6-3.2,4.2-5.7,3.6c-0.2,0-0.4-0.1-0.6-0.2c-1.2-0.4-2.3-1-3.3-1.8c-1.9-1.6-3.4-3.6-4.5-5.8
				c-1.1-2.2-1.7-4.6-1.9-7c-0.1-1.2,0-2.5,0.3-3.7c0.3-1.3,1.1-2.4,2.2-3.1c1.2-0.6,2.6-0.7,3.9-0.3c1.2,0.4,2.3,1,3.2,1.9
				C349.2,120.4,350.7,122.4,351.8,124.6z"/>
			
				<ellipse transform="matrix(-0.4673 -0.8841 0.8841 -0.4673 391.5899 495.629)" class="st7" cx="345.1" cy="129.8" rx="6.6" ry="4.1"/>
			<ellipse transform="matrix(-0.4673 -0.8841 0.8841 -0.4673 391.8071 495.6309)" cx="345.2" cy="129.8" rx="2.5" ry="1.6"/>
			<circle class="st8" cx="342.2" cy="127.9" r="1.7"/>
			<circle class="st8" cx="347.3" cy="132.5" r="0.5"/>
			<path class="st9" d="M347.5,117.8c0,0-10-3.3-9.2,8.5C337,121.3,338.6,111.7,347.5,117.8z"/>
			<path class="st2" d="M348.8,170.1c1.2,0.4,9.3,2,9.6-3.3c-0.5-6.6-17.4-4.4-17.4-4.4s-8.5,0.6-7,14.4s14.5,17.6,16.5,13.5
				c0,0,9.5,0.4,7-6.8C364,181.1,354.2,171.6,348.8,170.1z"/>
			<path d="M348.9,170.1c0.1,0,0.1-0.1,0.1,0h0.2l0.4,0.1l0.7,0.1c0.5,0.1,1,0.1,1.4,0.1c1,0,1.9,0,2.9-0.2c0.9-0.1,1.7-0.5,2.4-1.1
				c0.6-0.6,1-1.5,1-2.4v0.1c-0.2-1.2-0.9-2.2-2-2.7c-1.1-0.6-2.3-1-3.5-1.1c-2.5-0.4-5.1-0.5-7.7-0.4c-1.3,0-2.6,0.1-3.9,0.2
				c-1.2,0.2-2.4,0.7-3.4,1.5c-1.9,1.7-3.1,4.1-3.3,6.7c-0.5,5.1,0.5,10.6,3.6,14.6c1.5,2,3.5,3.7,5.8,4.7c1.1,0.5,2.3,0.8,3.6,0.9
				c1.2,0,2.4-0.3,2.8-1.2l0.2-0.4h0.4c1.9,0.1,3.8-0.4,5.4-1.3c0.7-0.5,1.2-1.2,1.4-2.1c0.1-0.9,0-1.8-0.3-2.7l-0.2-0.6l0.5-0.2
				c0.7-0.2,1.2-0.6,1.5-1.2c0.3-0.6,0.3-1.4,0-2c-0.6-1.4-1.4-2.8-2.5-3.9c-1.1-1.2-2.2-2.3-3.5-3.3c-0.6-0.5-1.3-0.9-2-1.4
				c-0.4-0.2-0.7-0.4-1.1-0.6l-0.5-0.3l-0.3-0.1C349,170.2,349,170.1,348.9,170.1z M348.8,170.1c0.1,0,0.2,0,0.4,0l0.3,0.1l0.6,0.2
				c0.4,0.1,0.8,0.3,1.1,0.5c0.7,0.4,1.4,0.8,2.1,1.2c1.4,0.9,2.6,2,3.8,3.1c1.2,1.2,2.2,2.6,2.9,4.1c0.4,0.9,0.4,1.9,0.1,2.8
				c-0.4,0.9-1.2,1.5-2.1,1.8l0.4-0.7c0.4,1,0.5,2.2,0.4,3.3c-0.2,1.2-0.9,2.2-1.8,2.9c-0.9,0.6-1.9,1-3,1.2c-1,0.2-2.1,0.3-3.2,0.3
				l0.6-0.4c-0.4,0.7-1,1.3-1.8,1.5c-0.7,0.2-1.4,0.3-2.2,0.3c-1.4-0.1-2.7-0.4-4-1c-2.4-1.2-4.5-3-6.1-5.2c-1.5-2.2-2.5-4.7-3-7.3
				c-0.5-2.6-0.6-5.2-0.3-7.9c0.2-2.7,1.4-5.2,3.3-7.1c1-0.9,2.3-1.5,3.6-1.8c1.3-0.2,2.6-0.3,3.9-0.4c2.6-0.2,5.3-0.1,7.9,0.4
				c1.3,0.2,2.6,0.7,3.8,1.3c0.6,0.4,1.2,0.8,1.6,1.4c0.4,0.6,0.7,1.3,0.7,2v0.1c-0.1,1.1-0.6,2.1-1.4,2.8c-0.8,0.6-1.8,1.1-2.8,1.2
				c-1,0.1-2,0.1-3,0c-0.5-0.1-1-0.1-1.5-0.2l-0.7-0.2l-0.4-0.1l-0.2-0.1C348.9,170.1,348.8,170.1,348.8,170.1z"/>
			<path class="st10" d="M348.8,170.1c0,0,14.5,11.1,5.6,13.2c3.8,2.5-0.6,6-5.1,6.3c-0.7,1-0.8,1.7-6.9,0.4
				c5.6,3.1,7.9,0.9,7.9,0.1c1.9,0.3,9.6-0.6,7.3-6.7C361.8,182.5,359.3,174.7,348.8,170.1z"/>
			<path class="st10" d="M346.9,162.3c0,0,18.5,0.4,1.9,7.8C362.1,172.8,361.4,160.7,346.9,162.3z"/>
			<path d="M357.6,183.4c-1,0.4-2.1,0.5-3.2,0.5c-1.1-0.1-2.2-0.5-3.1-1c-1-0.5-1.9-1.1-2.7-1.8c-0.8-0.7-1.5-1.5-2.1-2.4
				c0,0,0-0.1,0-0.1c0,0,0.1,0,0.1,0c1.4,1.5,3.2,2.6,5.1,3.4c0.9,0.3,1.9,0.5,2.9,0.7c1,0.2,2,0.3,3,0.6
				C357.6,183.3,357.6,183.3,357.6,183.4C357.6,183.3,357.6,183.3,357.6,183.4C357.6,183.4,357.6,183.4,357.6,183.4z"/>
			<path d="M350.6,190.2c-0.9-0.1-1.8-0.4-2.6-0.8c-0.8-0.4-1.5-1-2.2-1.6c-0.7-0.6-1.3-1.3-1.9-2c-0.5-0.7-0.9-1.6-1-2.5
				c0,0,0,0,0.1,0c0,0,0,0,0,0c0.3,0.8,0.8,1.5,1.4,2.1c0.6,0.6,1.3,1.1,2,1.6c0.7,0.5,1.5,0.9,2.2,1.4c0.7,0.5,1.4,1.1,2.1,1.7
				C350.6,190.2,350.6,190.2,350.6,190.2C350.6,190.2,350.6,190.2,350.6,190.2L350.6,190.2z"/>
			<path d="M339.2,145.8c0,0-2,1.1-1.6,1.9c8.7,5.8,26.3,7.5,33.4,7.3c0.1,0.4,0.1,0.9,0.2,1.3c-21.6,0-32.7-7.6-33.3-8
				c-0.8-0.6-1.1,0.7-1.1,2.5C335.5,146.3,339.2,145.8,339.2,145.8z"/>
		</g>
		<path id="ميم-2" class="st11" d="M273.8,775.3c-3.9-4.7-9.6-16.2-11.6-21.7c-1.9-14.1-13.8-63.2-16.9-70.8
			c-9.3-26.5-33.9-62.9-35.8-79c-2.1-16.9,0-39.2,10.5-50.1c10.9-10.5,26.6-20.2,45.1-23.7c14.9-15.6,27.5-49.4,58.3-44.7
			c28.5,6.2,43.3,38.7,49.8,40.5c1.2,7.7-3.9,29.1-5.6,32.2 M227.3,607.4c6.3,11.2,21.8,34.8,31.7,64.6s14.7,56.9,18.6,93.2l-3.8,10
			 M334,525.5c-11.8-11.7-27.1-11-30.2-9.6s-9.7,6.7-14.4,11C290.8,525.6,330.8,528.1,334,525.5z"/>
		<path class="st11" d="M273.8,775.3"/>
		<path class="st11" d="M259,672.1"/>
		<path class="st11" d="M370.6,546.9c-0.4,1.4-3.1,11-3.1,11s-95.2-2.7-120.2,7.6c-22.2,9.7-26,31.7-20,41.9"/>
		
			<ellipse transform="matrix(-0.4673 -0.8841 0.8841 -0.4673 53.1698 1060.0642)" class="st2" cx="345.9" cy="514" rx="11.4" ry="6.6"/>
		<path d="M351.7,511.1c-1.1-2.1-2.7-3.9-4.7-5.3c-0.9-0.6-2-1.1-3.1-1.5c-1-0.3-2.1-0.3-3.1,0.2c-1,0.5-1.7,1.4-2.1,2.4
			c-0.4,1.1-0.6,2.3-0.5,3.4c0.2,2.4,0.9,4.7,2.1,6.7c1.2,2,2.7,3.8,4.6,5.3c0.9,0.7,1.9,1.2,3,1.5c2,0.7,4.1-0.3,4.8-2.2
			c0-0.1,0.1-0.2,0.1-0.3c0.4-1.1,0.5-2.2,0.5-3.4C353.4,515.5,352.8,513.2,351.7,511.1z M351.8,511c1.2,2.1,2,4.4,2.4,6.8
			c0.2,1.3,0.1,2.5-0.2,3.8c-0.6,2.6-3.2,4.2-5.7,3.6c-0.2,0-0.4-0.1-0.6-0.2c-1.2-0.4-2.3-1-3.3-1.8c-1.9-1.6-3.4-3.6-4.5-5.8
			c-1.1-2.2-1.7-4.6-1.9-7c-0.1-1.2,0-2.5,0.3-3.7c0.3-1.3,1.1-2.4,2.2-3.1c1.2-0.6,2.6-0.7,3.9-0.3c1.2,0.4,2.3,1,3.2,1.9
			C349.2,506.8,350.7,508.8,351.8,511L351.8,511z"/>
		
			<ellipse transform="matrix(-0.4673 -0.8841 0.8841 -0.4673 50.0526 1062.5576)" class="st7" cx="345.1" cy="516.2" rx="6.6" ry="4.1"/>
		<ellipse transform="matrix(-0.4673 -0.8841 0.8841 -0.4673 50.2699 1062.5597)" cx="345.2" cy="516.1" rx="2.5" ry="1.6"/>
		<circle class="st8" cx="342.3" cy="514.3" r="1.7"/>
		<circle class="st8" cx="347.3" cy="518.8" r="0.5"/>
		<path class="st9" d="M347.5,504.2c0,0-10-3.3-9.2,8.5C337,507.7,338.6,498.1,347.5,504.2z"/>
		<path class="st2" d="M348.8,556.4c1.2,0.4,9.3,2,9.6-3.3c-0.5-6.6-17.4-4.4-17.4-4.4s-8.5,0.6-7,14.4s14.5,17.5,16.5,13.5
			c0,0,9.5,0.4,7-6.8C364,567.5,354.2,558,348.8,556.4z"/>
		<path d="M348.9,556.5c0.1,0,0.1-0.1,0.1,0h0.2l0.4,0.1l0.7,0.1c0.5,0.1,1,0.1,1.4,0.1c1,0,1.9,0,2.9-0.2c0.9-0.1,1.8-0.5,2.5-1.1
			c0.6-0.6,1-1.5,1-2.4v0.1c-0.2-1.2-0.9-2.2-2-2.7c-1.1-0.6-2.3-1-3.5-1.2c-2.5-0.4-5.1-0.5-7.7-0.4c-1.3,0-2.6,0.1-3.9,0.2
			c-1.2,0.2-2.4,0.7-3.4,1.5c-1.9,1.7-3.1,4.1-3.3,6.7c-0.5,5.1,0.5,10.6,3.6,14.7c1.5,2,3.5,3.7,5.8,4.7c1.1,0.5,2.3,0.8,3.6,0.9
			c1.2,0,2.4-0.3,2.8-1.2l0.2-0.3h0.4c1.9,0.1,3.8-0.4,5.4-1.3c0.7-0.5,1.2-1.2,1.4-2c0.1-0.9,0-1.8-0.3-2.7l-0.2-0.5l0.5-0.2
			c0.7-0.1,1.2-0.6,1.6-1.1c0.3-0.6,0.3-1.4,0-2c-0.6-1.4-1.4-2.8-2.5-3.9c-1.1-1.2-2.2-2.3-3.5-3.3c-0.6-0.5-1.3-0.9-2-1.4
			c-0.4-0.2-0.7-0.4-1.1-0.6l-0.5-0.3l-0.3-0.1C349,556.6,349,556.5,348.9,556.5z M348.8,556.5c0.1,0,0.2,0,0.4,0l0.3,0.1l0.6,0.2
			c0.4,0.2,0.8,0.3,1.1,0.5c0.7,0.4,1.4,0.8,2.1,1.2c1.4,0.9,2.6,2,3.8,3.1c1.2,1.2,2.2,2.6,2.9,4.1c0.4,0.9,0.4,1.9,0.1,2.8
			c-0.4,0.9-1.2,1.5-2.1,1.8l0.4-0.7c0.4,1,0.5,2.2,0.4,3.3c-0.2,1.2-0.9,2.2-1.8,2.9c-0.9,0.6-1.9,1-3,1.2c-1,0.2-2.1,0.3-3.2,0.3
			l0.6-0.3c-0.4,0.7-1,1.3-1.8,1.5c-0.7,0.2-1.4,0.3-2.2,0.3c-1.4-0.1-2.7-0.4-4-1c-2.4-1.2-4.5-3-6.1-5.2c-1.5-2.2-2.5-4.7-3-7.3
			c-0.5-2.6-0.6-5.2-0.3-7.9c0.2-2.7,1.4-5.2,3.3-7.1c1-0.9,2.3-1.5,3.6-1.8c1.3-0.2,2.6-0.3,3.9-0.4c2.6-0.2,5.3-0.1,7.9,0.4
			c1.3,0.2,2.6,0.7,3.8,1.3c0.6,0.4,1.2,0.8,1.6,1.4c0.4,0.6,0.7,1.3,0.7,2v0.1c-0.1,1.1-0.6,2.1-1.4,2.8c-0.8,0.6-1.8,1.1-2.8,1.2
			c-1,0.1-2,0.1-3,0c-0.5-0.1-1-0.1-1.5-0.2l-0.7-0.2l-0.4-0.1l-0.2-0.1C348.8,556.5,348.8,556.5,348.8,556.5L348.8,556.5z"/>
		<path class="st10" d="M348.8,556.4c0,0,14.5,11.2,5.6,13.2c3.8,2.5-0.6,6-5.1,6.3c-0.7,1-0.8,1.7-6.9,0.4c5.6,3.1,7.9,0.9,7.9,0.1
			c1.9,0.3,9.6-0.6,7.3-6.7C361.8,568.9,359.3,561.1,348.8,556.4z"/>
		<path class="st10" d="M346.9,548.7c0,0,18.5,0.4,1.9,7.8C362.1,559.2,361.4,547.1,346.9,548.7z"/>
		<path d="M357.6,569.8c-1,0.4-2.1,0.5-3.2,0.5c-1.1-0.1-2.2-0.5-3.1-1c-1-0.5-1.9-1.1-2.7-1.8c-0.8-0.7-1.5-1.5-2.1-2.4
			c0,0,0-0.1,0-0.1c0,0,0.1,0,0.1,0c1.4,1.5,3.2,2.6,5.1,3.4c0.9,0.3,1.9,0.5,2.9,0.7c1,0.2,2,0.3,3,0.6
			C357.6,569.7,357.6,569.7,357.6,569.8C357.6,569.7,357.6,569.7,357.6,569.8C357.6,569.8,357.6,569.8,357.6,569.8z"/>
		<path d="M350.6,576.6c-0.9-0.1-1.8-0.4-2.6-0.8c-0.8-0.4-1.5-1-2.2-1.6c-0.7-0.6-1.3-1.3-1.9-2c-0.5-0.7-0.9-1.6-1-2.5
			c0,0,0,0,0.1,0c0,0,0,0,0,0c0.3,0.8,0.8,1.5,1.4,2.1c0.6,0.6,1.3,1.1,2,1.6c0.7,0.5,1.5,0.9,2.2,1.4c0.7,0.5,1.4,1.1,2.1,1.7
			C350.6,576.5,350.6,576.6,350.6,576.6C350.6,576.6,350.6,576.6,350.6,576.6L350.6,576.6z"/>
		<path d="M339.2,532.2c0,0-2,1.1-1.6,1.9c8.7,5.8,26.3,7.5,33.4,7.3c0.1,0.4,0.1,0.9,0.2,1.3c-21.6,0-32.7-7.6-33.3-8
			c-0.8-0.6-1.1,0.7-1.1,2.5C335.5,532.7,339.2,532.2,339.2,532.2z"/>
		<path class="st2" d="M259.9,17.5l2,1.2c-2.6,4.7-2.6,10.4,0,15.2l-2,1.2c-1.7-2.6-2.6-5.7-2.7-8.8
			C257.3,23.2,258.2,20.2,259.9,17.5z"/>
		<path class="st2" d="M270.8,24.1c0.6,0,1.2,0.2,1.7,0.6c0.5,0.4,0.9,1,1.2,1.6c0.3,0.7,0.5,1.4,0.7,2.1c0.2,0.8,0.2,1.5,0.2,2.3
			c0,3.7-1.6,5.5-4.7,5.5c-0.8,0-1.6-0.2-2.3-0.5l-0.4-2.3l0.1-0.1c0.9,0.3,1.9,0.4,2.8,0.4c0.5,0,1.1-0.1,1.5-0.3
			c0.4-0.3,0.6-0.7,0.7-1.1c-2.1-0.1-4.1-1.1-5.5-2.7c0.2-1.4,0.8-2.8,1.6-4C268.9,24.7,269.8,24.1,270.8,24.1z M270.6,26.8
			c-0.3,0-0.6,0.2-0.8,0.4c-0.3,0.4-0.5,0.8-0.7,1.2c1,0.7,2.1,1.1,3.3,1.2c-0.1-0.7-0.3-1.5-0.7-2.1
			C271.5,27.1,271.1,26.8,270.6,26.8L270.6,26.8z"/>
		<path class="st2" d="M279.6,27.3h4.4v2h-4.4L279.6,27.3z"/>
		<path class="st2" d="M300.4,22.1c0.8,0,1.5,0.3,2,0.9c0.6,0.6,1,1.3,1.2,2.1c0.3,0.8,0.4,1.7,0.4,2.6c0,1.6-0.2,3.1-0.6,4.7h-9.6
			c-1.3,0.1-2.6-0.3-3.6-1.2c-0.9-0.9-1.3-2-1.2-3.3c0-0.8,0.2-1.5,0.4-2.2l1.8-0.4l0.2,0.2c-0.2,0.6-0.3,1.2-0.3,1.9
			c-0.1,0.7,0.2,1.3,0.7,1.7c0.8,0.4,1.6,0.6,2.5,0.6h7.5v-0.3c-1,0-1.9-0.2-2.9-0.4c-0.8-0.3-1.6-0.7-2.3-1.2
			c0.2-1.4,0.7-2.8,1.5-3.9C298.5,22.7,299.4,22.2,300.4,22.1z M300,21.3l-1.5-1.8l1.9-1.6l1.5,1.8L300,21.3z M300.2,24.8
			c-0.3,0-0.6,0.2-0.8,0.4c-0.3,0.3-0.5,0.8-0.6,1.2c0.9,0.4,2,0.6,3,0.6c-0.1-0.6-0.3-1.1-0.6-1.6
			C300.9,25.1,300.6,24.9,300.2,24.8L300.2,24.8z"/>
		<path class="st2" d="M308.8,27.3h6.8v2h-6.8V27.3z"/>
		<path class="st2" d="M325.8,24.7c0.8,0,1.5,0.4,1.9,1.1c0.5,0.8,0.8,1.8,0.8,2.7c0,0.9-0.2,1.7-0.6,2.5l-1.7,1.7l-3.7-1.5
			l-0.1,0.2l1.6,4.5l-2.1,0.9h-0.1l-1.7-5.2l0.6-1.3c0.1-0.3,0.4-0.8,0.6-1.3c0.3-0.5,0.5-1,0.7-1.3c0.2-0.3,0.5-0.7,0.8-1.1
			c0.3-0.4,0.6-0.7,0.9-1c0.3-0.2,0.6-0.4,1-0.6C325.1,24.7,325.4,24.7,325.8,24.7z M325.3,27.4c-0.3,0-0.6,0.2-0.8,0.4
			c-0.4,0.4-0.7,0.9-0.9,1.4l2.5,1c0.1-0.4,0.2-0.9,0.2-1.3c0-0.4-0.1-0.8-0.3-1.1C325.8,27.5,325.5,27.4,325.3,27.4L325.3,27.4z"/>
		<path class="st2" d="M333.6,27.3h6.8v2h-6.8V27.3z"/>
		<path class="st2" d="M358.5,24.7v7.6h-8.3c-1.3,0.1-2.6-0.3-3.6-1.2c-0.9-0.9-1.3-2.1-1.3-3.3c0-0.8,0.2-1.5,0.4-2.2l1.8-0.4
			l0.2,0.2c-0.2,0.6-0.3,1.2-0.3,1.9c-0.1,0.7,0.2,1.3,0.7,1.7c0.8,0.4,1.6,0.6,2.5,0.6h5.4v-4.8H358.5z M352.5,33.1l1.5,1.8
			l-1.9,1.6l-1.6-1.8L352.5,33.1z"/>
		<path class="st2" d="M365.7,35.1l-2-1.2c2.6-4.7,2.6-10.4,0-15.1l2-1.2c1.7,2.6,2.6,5.6,2.7,8.7C368.3,29.5,367.4,32.5,365.7,35.1
			z"/>
		<path class="st2" d="M385.5,35.9l-4.5,1.7v-1.1l4.4-1.7L385.5,35.9z"/>
		<path class="st2" d="M386.7,29.6l0.3,2.3c-1,0.3-2.1,0.4-3.1,0.4h-3.4v-2.4h1.4c-0.3-0.5-0.5-1-0.6-1.6c0-0.3,0-0.7,0.1-1
			c0-0.2,0.1-0.5,0.2-0.7c0.1-0.2,0.2-0.4,0.4-0.7c0.7-0.5,1.6-0.7,2.5-0.7c0.6,0,1.3,0.1,1.9,0.3v2.2l-0.1,0.1
			c-0.7-0.1-1.3-0.2-2-0.2c-0.3,0-0.6,0-0.9,0.1c0,0.1,0,0.2,0,0.3c0,0.6,0.2,1.3,0.6,1.8C384.8,29.8,385.8,29.8,386.7,29.6z"/>
		<path class="st2" d="M393.1,29.7v2.3l-0.2,0.2h-3.8V19.5h2.4v10h1.4L393.1,29.7z"/>
		<path class="st2" d="M399.6,19.1l-4.4,1.7v-1.1l4.4-1.7V19.1z"/>
		<path class="st2" d="M403.6,29.7v2.4l-0.2,0.1h-0.3c-1.1,0-2.1-0.5-2.6-1.5c-1.9,1-4,1.5-6.1,1.5h-1.6l-0.3-0.3v-2l0.3-0.3h2.1
			c0.9,0,1.8-0.1,2.6-0.2c0.7-0.2,1.4-0.4,2.1-0.8c-0.7-0.4-1.4-0.8-2.1-1.1c-0.6-0.2-1.1-0.2-1.7-0.2c-0.6,0-1.3,0.1-1.9,0.3
			l-0.2-0.1v-2.4c0.7-0.4,1.5-0.6,2.3-0.6c0.9,0,1.8,0.3,2.6,0.8c1.3,0.8,2.5,1.7,3.6,2.8l-0.4,1.3c0.3,0.1,0.5,0.2,0.8,0.1h0.6
			L403.6,29.7z M399.1,32.7l1.5,1.8l-1.9,1.6l-1.5-1.8L399.1,32.7z"/>
		<path class="st2" d="M410.7,35.9l-4.4,1.7v-1.1l4.4-1.7V35.9z"/>
		<path class="st2" d="M416.5,29.7v2.4l-0.2,0.2h-0.1c-0.8-0.1-1.5-0.6-2.1-1.2c-0.2,0.6-0.5,1.1-0.8,1.7c-1.8-0.3-3.5-0.8-5.1-1.6
			c-0.7,0.4-1.4,0.7-2.2,0.9c-0.8,0.1-1.6,0.2-2.4,0.2h-0.3l-0.2-0.2v-2.2l0.2-0.2h2.5c-0.6-0.5-1.1-1.1-1.5-1.7
			c0.3-0.3,0.6-0.7,0.9-1l-0.9,0.2l-0.2-0.1v-2.2c1.5-0.3,2.9-0.5,4.4-0.5c1.6-0.1,3.2,0.4,4.5,1.3c1,0.9,1.6,2.1,1.5,3.4
			c0,0.1,0,0.3,0,0.4c0.5,0.2,1.1,0.3,1.6,0.3h0.1L416.5,29.7z M409.3,27.8c0-0.3-0.1-0.7-0.3-0.9c-0.2-0.3-0.6-0.4-0.9-0.4
			c-0.6,0.1-1.1,0.4-1.4,0.9c0.4,0.7,1.1,1.3,1.9,1.7C408.9,28.8,409.2,28.3,409.3,27.8L409.3,27.8z M412.5,29.2
			c0-0.5-0.1-0.9-0.4-1.4c-0.2-0.4-0.6-0.8-1-1c0.2,0.3,0.3,0.6,0.3,0.9c0,0.8-0.4,1.6-1,2.1c0.6,0.2,1.3,0.4,1.9,0.5
			C412.4,29.9,412.5,29.6,412.5,29.2L412.5,29.2z"/>
		<path class="st2" d="M418.6,17.9c-0.3,0-0.6-0.1-0.8-0.3c-0.2-0.2-0.4-0.5-0.4-0.8c0-0.5,0.2-1,0.6-1.4c0.4-0.5,0.7-0.7,0.9-0.7
			c0.4,0,0.7,0.2,0.9,0.5c0.3,0.3,0.4,0.7,0.5,1.1c0,0.4-0.2,0.8-0.5,1.1C419.4,17.7,419,17.9,418.6,17.9z M419.3,16.5
			c0-0.1-0.1-0.3-0.2-0.4c-0.1-0.1-0.2-0.2-0.4-0.2c0,0-0.1,0-0.1,0.1c-0.1,0.1-0.1,0.1-0.1,0.2c0,0.1-0.1,0.2-0.1,0.3
			c0,0.2,0.1,0.2,0.4,0.2C419.1,16.7,419.3,16.6,419.3,16.5L419.3,16.5z"/>
		<path class="st2" d="M420.6,19.5v12.8h-4.3l-0.2-0.2v-2.3l0.2-0.2h1.8v-10L420.6,19.5z"/>
		<path class="st2" d="M425.2,32.2h-2.4V19.5h2.4V32.2z"/>
		<path class="st2" d="M440.6,12.4c0.3-0.4,0.6-0.6,1.1-0.6c0.3,0,0.7,0.2,0.8,0.5c0.2,0.3,0.3,0.7,0.3,1.1c0,0.7-0.4,1.4-1,1.8
			c-0.8,0.6-1.7,0.9-2.7,1l-0.4-1.1l0.1-0.1c0.8,0,1.6-0.2,2.3-0.5c-0.3,0-0.6-0.1-0.8-0.3c-0.2-0.1-0.3-0.3-0.3-0.6
			C440,13.2,440.3,12.7,440.6,12.4z M441,13.4c0,0.1,0,0.1,0.1,0.1c0.1,0.1,0.2,0.1,0.3,0.1c0.2,0,0.3,0,0.5,0c0-0.1,0-0.1,0-0.2
			c0-0.1,0-0.3-0.1-0.4c-0.1-0.1-0.1-0.2-0.2-0.2c-0.1,0-0.3,0.1-0.4,0.2C441.1,13.2,441,13.3,441,13.4L441,13.4z"/>
		<path class="st2" d="M441.5,22.1c0.8,0,1.5,0.3,2,0.9c0.6,0.6,1,1.3,1.2,2.1c0.3,0.8,0.4,1.7,0.4,2.6c0,1.6-0.2,3.1-0.6,4.6H435
			c-1.3,0.1-2.6-0.4-3.5-1.2c-0.9-0.9-1.3-2.1-1.2-3.3c0-0.8,0.2-1.5,0.4-2.2l1.8-0.4l0.2,0.2c-0.2,0.6-0.3,1.2-0.3,1.9
			c-0.1,0.7,0.2,1.3,0.7,1.8c0.8,0.4,1.6,0.6,2.5,0.5h7.5v-0.3c-1,0-1.9-0.2-2.9-0.4c-0.8-0.3-1.6-0.7-2.3-1.2
			c0.2-1.4,0.7-2.7,1.4-3.9C439.7,22.8,440.5,22.2,441.5,22.1z M441.2,21.3l-1.5-1.8l1.9-1.6l1.5,1.8L441.2,21.3z M441.3,24.9
			c-0.3,0-0.6,0.2-0.8,0.4c-0.3,0.3-0.5,0.8-0.6,1.2c0.9,0.4,2,0.6,3,0.6c-0.1-0.6-0.3-1.1-0.6-1.6
			C442.1,25.1,441.7,24.9,441.3,24.9L441.3,24.9z"/>
		<path class="st2" d="M450.3,24.1c0.6,0,1.2,0.2,1.7,0.6c0.5,0.4,0.9,1,1.2,1.6c0.3,0.7,0.5,1.4,0.7,2.1c0.2,0.8,0.2,1.5,0.2,2.3
			c0,3.7-1.6,5.5-4.7,5.5c-0.8,0-1.6-0.2-2.3-0.5l-0.4-2.3l0.1-0.1c0.9,0.3,1.9,0.4,2.8,0.4c0.5,0,1-0.1,1.5-0.3
			c0.4-0.2,0.6-0.6,0.7-1.1c-2.1-0.1-4.1-1.1-5.5-2.6c0.2-1.4,0.8-2.7,1.5-3.9C448.4,24.7,449.3,24.1,450.3,24.1z M450.1,26.8
			c-0.3,0-0.6,0.2-0.8,0.4c-0.3,0.4-0.5,0.8-0.7,1.2c1,0.7,2.1,1.1,3.3,1.2c-0.1-0.7-0.3-1.4-0.7-2.1
			C451,27.1,450.6,26.9,450.1,26.8L450.1,26.8z"/>
		<path class="st2" d="M457.7,18.5c0.3-0.4,0.6-0.6,1.1-0.6c0.3,0,0.7,0.2,0.8,0.5c0.2,0.3,0.3,0.7,0.3,1c0,0.7-0.4,1.4-1,1.8
			c-0.8,0.6-1.7,0.9-2.7,1l-0.4-1.1l0.1-0.1c0.8,0,1.6-0.2,2.3-0.5c-0.3,0-0.6-0.1-0.8-0.3c-0.2-0.1-0.3-0.3-0.3-0.6
			C457.1,19.2,457.3,18.8,457.7,18.5z M458.1,19.5c0,0.1,0,0.1,0.1,0.1c0.1,0.1,0.2,0.1,0.3,0.1c0.2,0,0.3,0,0.5,0
			c0-0.1,0-0.1,0-0.2c0-0.1,0-0.3-0.1-0.4c-0.1-0.1-0.1-0.2-0.2-0.2c-0.1,0-0.3,0.1-0.4,0.2C458.1,19.2,458.1,19.4,458.1,19.5
			L458.1,19.5z"/>
		<path class="st2" d="M461.7,29.7v2.4l-0.2,0.2h-0.1c-0.6-0.1-1.3-0.4-1.7-0.8c0.1,1.2-0.3,2.4-1,3.5c-0.7,0.8-1.7,1.3-2.8,1.2
			c-0.5,0-1-0.1-1.5-0.3l-0.4-2.3l0.1-0.1c0.6,0.2,1.2,0.2,1.8,0.2c1,0,1.4-0.6,1.4-1.8v-6.5h2.4v4c0.5,0.2,1.1,0.3,1.7,0.3h0.1
			L461.7,29.7z"/>
		<path class="st2" d="M466,17.1c0.3-0.4,0.6-0.6,1.1-0.6c0.3,0,0.7,0.2,0.8,0.5c0.2,0.3,0.3,0.7,0.3,1c0,0.7-0.4,1.4-1,1.8
			c-0.8,0.6-1.7,0.9-2.7,1l-0.4-1.1l0.1-0.1c0.8,0,1.6-0.2,2.3-0.5c-0.3,0-0.6-0.1-0.8-0.3c-0.2-0.1-0.3-0.3-0.3-0.6
			C465.4,17.9,465.6,17.4,466,17.1z M466.4,18.1c0,0.1,0,0.1,0.1,0.1c0.1,0.1,0.2,0.1,0.3,0.1c0.2,0,0.3,0,0.5,0c0-0.1,0-0.1,0-0.2
			c0-0.1,0-0.3-0.1-0.4c-0.1-0.1-0.1-0.2-0.2-0.2c-0.1,0-0.3,0.1-0.4,0.2C466.5,17.9,466.4,18,466.4,18.1L466.4,18.1z"/>
		<path class="st2" d="M464.8,24.5c0.9,0,1.8,0.3,2.6,0.8c1.3,0.8,2.5,1.7,3.7,2.8l-0.6,2c-1.1,0.7-2.3,1.2-3.5,1.6
			c-1.2,0.4-2.5,0.6-3.8,0.6h-1.6l-0.3-0.3v-2.1l0.3-0.3h2.1c0.9,0,1.8-0.1,2.6-0.2c0.7-0.2,1.4-0.4,2.1-0.8
			c-0.7-0.4-1.4-0.8-2.1-1.1c-0.6-0.2-1.1-0.2-1.7-0.2c-0.6,0-1.3,0.1-1.9,0.3l-0.2-0.1v-2.4C463.2,24.7,464,24.5,464.8,24.5z"/>
		<g id="_Group_3">
			<g id="_Rectangle_8">
				<path class="st2" d="M493.4,6.6h74.8c2.1,0,3.8,1.7,3.8,3.8v33.5c0,2.1-1.7,3.8-3.8,3.8h-74.8c-2.1,0-3.8-1.7-3.8-3.8V10.3
					C489.7,8.3,491.4,6.6,493.4,6.6z"/>
				<path class="st12" d="M568.2,47.6l-15,0.1l-15,0.2c-10,0.1-20,0.2-30,0.1l-15-0.2c-1.4-0.1-2.6-0.9-3.2-2.1
					c-0.3-0.6-0.5-1.2-0.5-1.9v-1.9v-7.5c0-5,0-10,0-15v-7.5c0-0.6,0-1.2,0-1.9c0-0.7,0.3-1.3,0.6-1.9c0.7-1.1,2-1.8,3.3-1.9
					c20-0.2,40-0.3,60-0.2c5,0,10,0,15,0c1.4,0.1,2.7,0.9,3.4,2.2c0.3,0.6,0.5,1.3,0.5,2v1.9l-0.1,7.5l-0.2,15l0,7.5
					c0,0.6,0,1.3,0,1.9c0,0.6-0.3,1.3-0.6,1.8C570.7,47,569.5,47.6,568.2,47.6z M568.2,47.5c1.3,0,2.4-0.7,3.1-1.7
					c0.3-0.5,0.5-1.1,0.6-1.7c0-0.6,0-1.3,0-1.9l0-7.5l-0.2-15l-0.1-7.5v-1.9c0-0.6-0.2-1.1-0.4-1.6c-0.5-1-1.6-1.6-2.7-1.7h-15
					c-20,0-40-0.1-60-0.2c-1.2,0-2.3,0.6-3,1.6c-0.3,0.5-0.5,1.1-0.5,1.7c0,0.6,0,1.2,0,1.9v7.5c0,5,0,10,0,15v7.5v1.9
					c0,0.6,0.2,1.2,0.5,1.7c0.6,1,1.6,1.7,2.8,1.8l15-0.1c10,0,20,0,30,0.1l15,0.2L568.2,47.5z"/>
			</g>
		</g>
		<path class="st12" d="M499.3,24.1c2,0.2,3.3,2.3,3.5,4.1c0.2,1.2-0.1,2.5-0.9,3.5c-2.1,2.4-9.3,1.4-8.9-2.6c0.2-1,0.8-2,1.6-2.6
			c0.5-0.4,0.4,0.3,0.3,0.6c-0.1,0.5-0.1,1.1,0,1.6c0.2,1.9,2,3.3,3.9,3.1c0.4,0,0.8-0.2,1.2-0.3c0.5-0.3,0.9-0.9,0.9-1.5
			c0-0.1-0.1-0.2-0.2-0.2c-1.3,0.2-3.3-0.3-3.8-1.7c-0.5-1.6-0.1-3.5,1.8-4C498.9,24,499.1,24,499.3,24.1z M498.3,21.7
			c0.3,0.5,0.2,1.1-0.3,1.4c0,0,0,0,0,0c-0.5,0.2-1.2-0.1-1.4-0.6c-0.3-0.5-0.2-1.1,0.3-1.4c0,0,0.1,0,0.1,0
			C497.5,20.9,498.1,21.1,498.3,21.7L498.3,21.7z M498.8,27.8c0.4,0.5,1,0.9,1.7,0.9c0.2,0,0.3-0.1,0.3-0.3c0,0,0,0,0,0
			c-0.1-0.8-0.5-3.1-1.6-3.3C498.1,25.4,498.4,27,498.8,27.8L498.8,27.8z M500.5,21.7c0.3,0.5,0.2,1.1-0.3,1.4c0,0,0,0,0,0
			c-0.5,0.2-1.2-0.1-1.4-0.6c-0.3-0.5-0.2-1.1,0.3-1.4c0,0,0,0,0,0C499.7,20.9,500.3,21.1,500.5,21.7L500.5,21.7z"/>
		<path class="st12" d="M506.2,24.4c-0.4,0-0.4,0.1-0.3,0.5c0,1.5,1.4,5.5,0.5,7.1c-0.9,1.5-2.8,1-3.5-0.3c0-0.1-0.1-0.2,0-0.2
			c0.3,0,0.6,0.3,1,0.3c1.3,0,1.1-1.6,0.9-2.4c-0.3-1.3-1.1-4.4-0.7-5.1c0.4-0.7,1.3-0.8,2-0.4c0.1,0.1,0.2,0.2,0.3,0.3
			C506.3,24.2,506.3,24.4,506.2,24.4z"/>
		<path class="st12" d="M510.2,20.6c0.3,2,0.5,4,0.8,6c0.1,0.9,0.2,2,1.5,1.8v1.5c-0.9,0.1-1.9-0.2-2.6-0.8
			c-0.9-1.3-1.1-6.9-1.7-8.3c0-0.1-0.2-0.2-0.3-0.2s-0.1-0.1-0.1-0.2c0.1-0.2,0.3-0.4,0.5-0.5c0.4-0.5,1.2-0.5,1.6,0
			C510.1,20,510.2,20.3,510.2,20.6z"/>
		<path class="st12" d="M512.5,28.5c0.6,0,1-0.4,1.2-0.9c-0.1-0.9-0.8-3.1-0.4-3.7c0.7-1,2.5-0.2,2.2,0.2c-0.1,0.1-0.3,0.2-0.3,0.3
			c-0.2,0.8,0.2,2,0.3,2.9c0.1,0.8-0.2,1.6-0.9,2.1c-0.6,0.4-1.4,0.6-2.1,0.6L512.5,28.5z M514.8,31.5c0.3,0.5,0.2,1.1-0.2,1.4
			c0,0,0,0,0,0c-0.5,0.2-1.2-0.1-1.4-0.6c-0.3-0.5-0.2-1.1,0.3-1.4c0,0,0,0,0,0C514,30.7,514.6,31,514.8,31.5L514.8,31.5z"/>
		<path class="st12" d="M527.7,23.8c0.3,1.7-0.8,3-1.6,3.9c0.9,0.7,2.1,1,3.3,0.7v1.5c-1.9,0.2-3.2,0-4.3-1.3
			c-0.7,0.7-1.6,1.7-2,2.1c-0.2,0.2-0.1,0.3,0,0.3c2.2,0,5.1-0.2,6.4,1.8c0.5,0.7,0.5,1.7-0.1,2.4c-1.1,1-2.5,1.4-3.9,1.3
			c-2.1,0-4.5-1.2-5-3.4c0-0.4,0-0.8,0-1.2c0-0.1-0.1-0.2-0.2-0.2c-1.7-0.8-1.3-1.5-1.1-1.3c0.4,0.3,0.8,0.4,1.2,0.5
			c0.2,0,0.3,0,0.3-0.2c0.2-0.8,1.7-2.3,2.9-3.3c-1-0.8-2.2-1.4-3.5-1.8c-0.4-0.1-0.5-1.8,0.2-2.1c1.4-0.6,2.7-0.6,3.8-1.1
			c0.2-0.1,0.4-0.1,0.5-0.2C526,22,527.3,22.6,527.7,23.8C527.7,23.8,527.7,23.8,527.7,23.8z M522.3,24.7c1,0.5,1.9,1.1,2.7,1.9
			c0.7-0.6,0.9-1.6,0.5-2.4c-0.3-0.5-1-0.5-1.5-0.3C523.4,24.1,523,24.5,522.3,24.7z M522.6,32.1c-0.1,0.9,0.1,1.8,0.7,2.5
			c1.2,1,3.8,1.8,4.5-0.2c0.2-0.6-0.5-1.4-0.9-1.7c-1.2-0.7-2.6-0.9-4-0.7C522.8,31.9,522.6,32,522.6,32.1L522.6,32.1z"/>
		<path class="st12" d="M535.7,29.3L535.7,29.3L535.7,29.3c-1,0.9-2.6,0.9-3.5-0.1c-0.4-0.5-1.1,0.6-2.8,0.7v-1.5
			c0.8,0,1.1-0.4,0.9-1.1c-0.3-1.3,0-3.1,1.5-3.5c1-0.2,2.1,0,3,0.6C536.3,25.5,536.7,27.6,535.7,29.3L535.7,29.3z M532.4,25.3
			c-0.4,1-0.3,2.1,0.3,3c0.1,0.2,0.8,0.6,1,0.5c1.3-0.8,0.5-4-1-3.8C532.6,25,532.5,25.1,532.4,25.3L532.4,25.3z"/>
		<path class="st12" d="M549.8,29.9c-0.8,0.1-1.6-0.1-2.3-0.5c-1,0.9-2.5,0.8-3.5-0.1c-0.1-0.1-0.3,0-0.3,0.1
			c0.1,2.6-2.8,2.4-3.9,0.9c0-0.1,0-0.2,0.1-0.2c0,0,0,0,0,0c0.1,0,0.3,0,0.4,0.1c0.4,0.2,0.9,0.2,1.3-0.1c0.8-0.6,0.5-1.8,0.5-2.7
			c-0.1-1.3,0-3.1,1.5-3.5c1-0.2,2.1,0,3,0.6c1,0.7,1.6,1.9,1.6,3.2c0.3,0.6,1,0.9,1.7,0.8L549.8,29.9z M544.3,25.3
			c-0.4,1-0.3,2.1,0.3,3c0.1,0.2,0.8,0.6,1,0.5c1.3-0.7,0.5-4-1-3.8C544.4,25,544.3,25.1,544.3,25.3L544.3,25.3z"/>
		<path class="st12" d="M552.2,19.6c0,0,0.1,0.2,0,0.2S552,20,552,20.1c0.2,2.1,0.6,4,0.9,6c0.1,1.4,1.2,2.4,2.6,2.4v1.5
			c-1.6-0.1-2.3-0.4-2.8-1.1c-0.8,0.7-1.8,1.1-2.8,1.1v-1.5c0.5,0,1.7-0.4,1.4-1.2c0-0.3-0.1-0.5-0.2-0.7c-0.4-2-0.8-4-1.1-6
			c-0.1-0.6,0.3-1.2,0.9-1.4c0.3-0.1,0.6,0,0.8,0.1C551.9,19.3,552.1,19.4,552.2,19.6z"/>
		<path class="st12" d="M563.2,23.8c0.2,1.2-0.2,2.4-1.1,3.3l0,0c-0.2,0.2-0.4,0.4-0.5,0.6c0.9,0.7,2.1,1,3.2,0.8v1.5
			c-1.6,0.2-3.2-0.2-4.4-1.2c-1.6,0.7-3.3,1.1-5,1.2v-1.5c1.3-0.1,2.6-0.4,3.8-0.9c-1-0.8-2.2-1.4-3.5-1.7c-0.4-0.1-0.5-1.8,0.2-2.1
			c1.4-0.6,2.7-0.6,3.8-1.1l0.5-0.2C561.5,22,562.8,22.6,563.2,23.8C563.2,23.8,563.2,23.8,563.2,23.8z M557.8,24.7
			c1,0.5,1.9,1.2,2.6,2.1c0.8-0.6,1-1.6,0.7-2.5c-0.3-0.6-1-0.5-1.5-0.3C558.9,24.1,558.5,24.5,557.8,24.7z"/>
		<path class="st12" d="M566.3,20.7c0.3,0.5,0.2,1.1-0.3,1.4c0,0,0,0,0,0c-0.5,0.2-1.2-0.1-1.4-0.6c-0.3-0.5-0.2-1.1,0.3-1.4
			c0,0,0,0,0,0C565.5,19.9,566.1,20.2,566.3,20.7z M564.9,28.5c0.6,0,1-0.4,1.2-0.9c-0.1-0.9-0.8-3.1-0.4-3.7c0.7-1,2.5-0.2,2.2,0.2
			c-0.1,0.1-0.3,0.2-0.3,0.3c-0.2,0.8,0.2,2,0.3,2.9c0.1,0.8-0.2,1.6-0.9,2.1c-0.6,0.4-1.4,0.6-2.1,0.6L564.9,28.5z M568.5,20.7
			c0.3,0.5,0.2,1.1-0.3,1.4c0,0,0,0,0,0c-0.5,0.2-1.2-0.1-1.4-0.6c-0.3-0.5-0.2-1.1,0.3-1.4c0,0,0,0,0,0
			C567.6,19.9,568.2,20.2,568.5,20.7L568.5,20.7z"/>
	</g>
</g>
</svg>
