<?xml version="1.0" encoding="utf-8"?>
<!-- Generator: Adobe Illustrator 19.0.0, SVG Export Plug-In . SVG Version: 6.00 Build 0)  -->
<svg version="1.1" id="Layer_1" xmlns="http://www.w3.org/2000/svg" xmlns:xlink="http://www.w3.org/1999/xlink" x="0px" y="0px"
	 viewBox="-3 6.1 588.1 829.8" style="enable-background:new -3 6.1 588.1 829.8;" xml:space="preserve">
<style type="text/css">
	.st0{fill:#0778A5;}
	.st1{fill:#04A1C6;}
	.st2{fill:#FCE74F;}
	.st3{fill:#FCF059;}
	.st4{opacity:0.31;fill:#FFFFFF;enable-background:new    ;}
	.st5{fill:#FFFFFF;}
	.st6{fill:#DDDDDD;}
	.st7{fill:#896C4D;}
	.st8{fill:#F4F0ED;}
	.st9{fill:#010101;}
	.st10{fill:#DDBE05;}
	.st11{fill:none;stroke:#000000;stroke-miterlimit:10;}
	.st12{fill:#04A2C7;}
</style>
<title>Asset 14</title>
<g id="Layer_2">
	<g id="Layer_1-2">
		<g id="_Group_">
			<polyline id="_Rectangle__1_" class="st0" points="585.1,33 585.1,45.6 -3,45.6 -3,33 			"/>
			<polyline id="_Rectangle_2_1_" class="st1" points="585.1,8.6 585.1,40.6 -3,40.6 -3,8.6 			"/>
		</g>
		<rect id="_Rectangle_3" x="2.4" y="814.7" class="st1" width="582.8" height="15.5"/>
		<rect id="_Rectangle_4" x="2.4" y="814.7" class="st1" width="582.8" height="15.5"/>
		<rect id="_Rectangle_5" x="2.4" y="814.7" class="st1" width="582.8" height="15.5"/>
		<rect id="_Rectangle_6" x="2.4" y="814.7" class="st1" width="582.8" height="15.5"/>
		<g id="пе">
			<path class="st2" d="M284,324.2c0,0-7.3-7.3-12.8,0S256.6,347,256.6,347s-8.5,10.6-0.3,16.1c8.2,5.5,22.6,14,22.6,14
				s10.3,4.9,14.9-2.7s11.5-21.5,11.5-21.5s6.7-7.6-1.5-13.7S284,324.2,284,324.2z"/>
			<path class="st2" d="M454.6,177.9c0.2-2.8,0-37.9,0-37.9s1.1-30.8-37.8-30.8c-30.2,0-35.5,18.5-36.3,26.8
				c-0.2,1.5-0.3,3.1-0.3,4.6l0.2,9.4v29.6c-0.1,2.1,0.1,4.3,0.6,6.3c0.3,3.2,0.8,10.9,0.8,16.8c-4.4,14.8-147.3,19.6-156.1,18.2
				c-10.2-1.6-42.4-3-64.4-25.7c-18-18.7-1.9-63.3-0.2-69.5c0.8-2.8-2.5-6.1-4.7-6c-3,0.2-12.8,16.8-18.3,27.7
				c-1.9,3.8-10.8,30.8-10.8,41.6c0,17.5,6.4,55,65.9,71.4c45.5,12.5,190.5-10.3,225.6-36.5c17.9-13.4,27.1-23,31.6-31.6
				C455,186,454.6,177.9,454.6,177.9z"/>
			<path class="st3" d="M386.5,123.3c-2.1,17.8,15.7,27.6,32.6,27.6s29.8-12.8,28.6-27.6c0-5.2-12-13.9-30.6-13.9
				S386.5,119.6,386.5,123.3z"/>
			<path class="st4" d="M400.5,117.1c0,3.8,7.8,11.2,17,11.2s16.3-7.4,16.3-11.2s-7.4-6.9-16.6-6.9S400.5,113.3,400.5,117.1z"/>
			<path class="st5" d="M395.7,198.8c-0.9,1.1-7.9,6.9-11,1.9c-3-6.6,14.4-13.5,14.4-13.5s8.5-4,14.3,10.1s-4.6,24.6-8.7,21.7
				c0,0-9,5.4-10.4-2.8C387,217.5,391.3,203.1,395.7,198.8z"/>
			<path d="M395.7,198.8c0,0.2-0.2,0.3-0.3,0.4l-0.3,0.3c-0.2,0.2-0.4,0.4-0.6,0.5c-0.4,0.3-0.8,0.7-1.3,1c-0.9,0.6-1.9,1.2-2.9,1.6
				c-1,0.4-2.2,0.6-3.3,0.4c-1.1-0.3-2.1-1-2.8-2l0,0c-0.3-0.7-0.5-1.5-0.4-2.3c0.1-0.8,0.4-1.5,0.8-2.2c0.8-1.3,1.8-2.4,3-3.3
				c2.3-1.8,4.7-3.3,7.4-4.6c1.3-0.6,2.6-1.2,4-1.7c1.4-0.5,2.9-0.5,4.4-0.2c2.8,0.8,5.3,2.5,6.9,5c1.7,2.4,3,5,3.9,7.7
				c0.9,2.8,1.3,5.7,1,8.6c-0.3,2.9-1.4,5.8-3.1,8.2c-0.9,1.2-2,2.3-3.2,3.1c-0.7,0.4-1.4,0.7-2.2,0.8c-0.8,0.1-1.7,0-2.4-0.5h0.6
				c-1,0.6-2.1,1-3.2,1.4c-1.1,0.4-2.3,0.5-3.5,0.4c-1.3-0.1-2.4-0.7-3.2-1.7c-0.7-1-1.2-2.1-1.3-3.3l0.6,0.4c-1,0.2-2.1,0-2.9-0.6
				c-0.8-0.7-1.2-1.6-1.4-2.6c-0.2-1.8,0-3.7,0.5-5.4c0.5-1.7,1.1-3.4,2-5c0.4-0.8,0.9-1.6,1.4-2.3c0.3-0.4,0.5-0.7,0.8-1.1
				c0.1-0.2,0.3-0.3,0.4-0.5l0.2-0.2C395.5,198.9,395.6,198.8,395.7,198.8z M395.6,198.8c-1.1,1.4-2,2.9-2.7,4.5
				c-0.7,1.6-1.3,3.3-1.7,5c-0.4,1.7-0.6,3.4-0.4,5.1c0.1,0.8,0.5,1.5,1.1,2c0.7,0.4,1.5,0.5,2.2,0.3l0.5-0.1l0.1,0.5
				c0.2,1,0.6,2,1.2,2.8c0.6,0.8,1.5,1.2,2.5,1.3c1,0.1,2.1-0.1,3.1-0.4c1-0.3,2-0.7,2.9-1.3l0.3-0.2l0.3,0.2
				c0.9,0.7,2.4,0.4,3.5-0.3c1.2-0.7,2.2-1.7,3-2.8c1.7-2.3,2.7-4.9,3.1-7.7c0.8-5.6-1.2-11.4-4.4-16c-1.7-2.3-4-4.2-6.8-4.7
				c-1.4-0.2-2.8-0.1-4.1,0.3c-1.3,0.6-2.6,1.2-3.9,1.8c-2.5,1.2-5,2.8-7.2,4.5c-1.1,0.8-2.1,1.9-2.8,3c-0.8,1.1-0.9,2.5-0.5,3.8
				l0,0c0.5,0.9,1.3,1.5,2.3,1.8c1,0.2,2,0.1,3-0.2c1-0.3,2-0.8,2.9-1.4C394,200.2,394.8,199.5,395.6,198.8L395.6,198.8z"/>
			<path class="st6" d="M395.7,198.8c0,0-8,18.4,1.6,15.7c-2.3,4.4,3.8,5.4,8.3,3.3c1.2,0.6,1.7,1.2,6.8-3.3c-3.8,5.9-7,5.1-7.5,4.4
				c-1.6,1.3-9.5,4.5-10.6-2.6C389.8,217.7,388,208.9,395.7,198.8z"/>
			<path class="st6" d="M393.4,190.3c0,0-17.5,10.2,2.3,8.5C384.4,208.5,378.6,196.5,393.4,190.3z"/>
			<path d="M394.2,216.2c0.9-0.7,1.8-1.4,2.7-2.1c0.9-0.7,1.7-1.4,2.4-2.2c1.4-1.8,2.4-3.8,3-6c0,0,0-0.1,0.1-0.1c0,0,0,0,0,0.1
				c-0.2,1.1-0.5,2.3-0.8,3.4c-0.4,1.1-0.9,2.2-1.6,3.1c-1.3,2-3.4,3.4-5.7,3.9c0,0,0,0-0.1,0C394.2,216.3,394.2,216.3,394.2,216.2
				C394.2,216.2,394.2,216.2,394.2,216.2z"/>
			<path d="M404.6,219.1c0.4-0.9,0.8-1.8,1.2-2.6s0.9-1.7,1.4-2.5c0.4-0.8,0.8-1.7,1.1-2.6c0.3-0.9,0.3-1.9,0.1-2.8c0,0,0-0.1,0-0.1
				c0,0,0.1,0,0.1,0.1l0,0c0.3,1,0.4,2,0.3,3c-0.2,1-0.5,1.9-0.8,2.9c-0.3,0.9-0.7,1.8-1.3,2.7c-0.5,0.8-1.2,1.6-2,2.2
				c0,0-0.1,0-0.1,0C404.6,219.2,404.5,219.2,404.6,219.1C404.5,219.1,404.6,219.1,404.6,219.1z"/>
			<ellipse class="st5" cx="395.7" cy="149.6" rx="7.2" ry="12.5"/>
			<path d="M388.4,149.6c0-2.7,0.4-5.3,1.3-7.8c0.5-1.3,1.2-2.5,2.2-3.4c1-1,2.4-1.7,3.8-1.7c1.4,0.1,2.7,0.7,3.7,1.8
				c0.9,1,1.6,2.1,2.1,3.4c1,2.5,1.6,5.1,1.7,7.8c0.1,2.7-0.3,5.4-1.4,7.9c-0.5,1.3-1.3,2.4-2.3,3.4c-1.9,2.1-5.1,2.3-7.2,0.5
				c-0.2-0.2-0.3-0.3-0.5-0.5c-0.9-1-1.7-2.2-2.2-3.5C388.8,154.9,388.3,152.3,388.4,149.6z M388.5,149.6c0,2.6,0.6,5.2,1.8,7.6
				c0.6,1.1,1.3,2.1,2.2,3c1.6,1.7,4.3,1.9,6,0.3c0.1-0.1,0.2-0.2,0.3-0.3c0.9-0.9,1.6-1.9,2.1-3.1c1-2.4,1.6-4.9,1.7-7.5
				c0.1-2.6-0.4-5.2-1.4-7.6c-0.5-1.2-1.3-2.2-2.2-3.1c-0.9-0.9-2.1-1.3-3.3-1.4c-1.2,0.1-2.4,0.6-3.2,1.5c-0.9,0.9-1.6,1.9-2.2,3.1
				C389.1,144.4,388.5,147,388.5,149.6L388.5,149.6z"/>
			<ellipse class="st7" cx="393.4" cy="150.2" rx="4.5" ry="7.2"/>
			<ellipse cx="393.3" cy="150.2" rx="1.7" ry="2.8"/>
			<circle class="st8" cx="395.3" cy="146.9" r="1.8"/>
			<circle class="st8" cx="392.7" cy="153.9" r="0.5"/>
			<path class="st9" d="M389,140.8c0,0,8-8.3,13.3,3.5C401.1,138.8,394.5,130.3,389,140.8z"/>
			<path class="st10" d="M291.1,256.1c-158.9,0-160.7-50.1-160.7-50.1s0,67.6,160.7,65.9c152.9-14.8,163.6-88.8,163.6-93.9
				C450.3,185.9,437,247.6,291.1,256.1z"/>
			<path d="M415.4,167.3c0,0,2.2,1.2,1.8,2.1c-9.6,6.4-28.9,8.2-36.6,8c-0.1,0.5-0.1,1-0.2,1.4c23.7,0,35.9-8.3,36.5-8.8
				c0.9-0.6,1.2,0.7,1.2,2.7C419.6,167.9,415.4,167.3,415.4,167.3z"/>
		</g>
		<path class="st11" d="M284,702.2c0,0-7.3-7.3-12.8,0S256.6,725,256.6,725s-8.5,10.6-0.3,16.1c8.2,5.5,22.6,14,22.6,14
			s10.3,4.9,14.9-2.7s11.5-21.5,11.5-21.5s6.7-7.6-1.5-13.7S284,702.2,284,702.2z"/>
		<path class="st4" d="M400.5,495.1c0,3.8,7.8,11.2,17,11.2s16.3-7.4,16.3-11.2s-7.4-6.9-16.6-6.9S400.5,491.3,400.5,495.1z"/>
		<path class="st5" d="M395.7,576.8c-0.9,1.1-7.9,6.8-11,1.9c-3-6.6,14.4-13.5,14.4-13.5s8.5-4,14.3,10.1s-4.6,24.6-8.7,21.7
			c0,0-9,5.4-10.4-2.8C387,595.5,391.3,581.1,395.7,576.8z"/>
		<path d="M395.7,576.8c0,0.2-0.2,0.3-0.3,0.4l-0.3,0.3c-0.2,0.2-0.4,0.4-0.6,0.5c-0.4,0.3-0.8,0.7-1.3,1c-0.9,0.6-1.9,1.2-2.9,1.5
			c-1,0.4-2.2,0.6-3.3,0.4c-1.1-0.3-2.1-1-2.8-2l0,0c-0.3-0.7-0.5-1.5-0.4-2.3c0.1-0.8,0.4-1.5,0.8-2.2c0.8-1.3,1.8-2.4,3-3.3
			c2.3-1.8,4.7-3.3,7.4-4.6c1.3-0.6,2.6-1.2,4-1.7c1.4-0.5,2.9-0.5,4.4-0.2c2.8,0.8,5.3,2.5,6.9,5c1.7,2.4,3,5,3.9,7.7
			c0.9,2.8,1.3,5.7,1,8.6c-0.3,2.9-1.4,5.8-3.1,8.2c-0.9,1.2-2,2.3-3.2,3.1c-0.7,0.4-1.4,0.7-2.2,0.8c-0.8,0.1-1.7,0-2.4-0.5h0.6
			c-1,0.6-2.1,1-3.2,1.4c-1.1,0.4-2.3,0.5-3.5,0.4c-1.2-0.1-2.4-0.7-3.2-1.7c-0.7-1-1.2-2.1-1.3-3.3l0.6,0.4c-1,0.2-2.1,0-2.9-0.6
			c-0.8-0.7-1.2-1.6-1.4-2.6c-0.2-1.8,0-3.7,0.5-5.4c0.5-1.7,1.1-3.4,2-5c0.4-0.8,0.9-1.6,1.4-2.3c0.3-0.4,0.5-0.7,0.8-1.1
			c0.1-0.2,0.3-0.3,0.4-0.5l0.2-0.2C395.5,576.9,395.6,576.8,395.7,576.8z M395.6,576.8c-1.1,1.4-2,2.9-2.7,4.5
			c-0.7,1.6-1.3,3.3-1.7,5c-0.4,1.7-0.6,3.4-0.4,5.1c0.1,0.8,0.5,1.5,1.1,2c0.7,0.4,1.5,0.5,2.2,0.3l0.5-0.1l0.1,0.5
			c0.2,1,0.6,2,1.2,2.8c0.6,0.8,1.5,1.2,2.5,1.3c1,0.1,2.1-0.1,3.1-0.4c1-0.3,2-0.7,2.9-1.3l0.3-0.2l0.3,0.2
			c0.9,0.7,2.4,0.4,3.5-0.3c1.2-0.7,2.2-1.7,3-2.8c1.7-2.3,2.7-4.9,3.1-7.7c0.8-5.6-1.2-11.4-4.4-16c-1.7-2.3-4-4.2-6.8-4.7
			c-1.4-0.2-2.8-0.1-4.1,0.3c-1.3,0.5-2.6,1.2-3.9,1.8c-2.5,1.2-5,2.8-7.2,4.5c-1.1,0.8-2.1,1.9-2.8,3c-0.8,1.1-0.9,2.5-0.5,3.8l0,0
			c0.5,0.9,1.3,1.5,2.3,1.8c1,0.2,2,0.1,3-0.2c1-0.3,2-0.8,2.9-1.3C394,578.2,394.8,577.5,395.6,576.8z"/>
		<path class="st6" d="M395.7,576.8c0,0-8,18.4,1.6,15.7c-2.3,4.4,3.8,5.5,8.3,3.3c1.2,0.6,1.7,1.2,6.8-3.3c-3.8,5.9-7,5.1-7.5,4.3
			c-1.6,1.3-9.5,4.5-10.6-2.6C389.8,595.7,388.1,586.9,395.7,576.8z"/>
		<path class="st6" d="M393.4,568.3c0,0-17.5,10.2,2.3,8.5C384.4,586.5,378.6,574.5,393.4,568.3z"/>
		<path d="M394.2,594.2c0.9-0.7,1.8-1.4,2.7-2.1c0.9-0.7,1.7-1.4,2.4-2.2c1.4-1.8,2.4-3.8,3-6c0,0,0,0,0.1,0c0,0,0,0,0,0
			c-0.2,1.1-0.5,2.3-0.8,3.4c-0.4,1.1-0.9,2.2-1.6,3.1C398.7,592.4,396.6,593.8,394.2,594.2C394.3,594.3,394.2,594.3,394.2,594.2
			C394.2,594.3,394.2,594.3,394.2,594.2C394.2,594.2,394.2,594.2,394.2,594.2z"/>
		<path d="M404.6,597.1c0.4-0.9,0.8-1.8,1.2-2.6s0.9-1.7,1.4-2.5c0.4-0.8,0.8-1.7,1.1-2.6c0.3-0.9,0.3-1.9,0.1-2.8c0,0,0,0,0,0
			c0,0,0.1,0,0.1,0c0.3,1,0.4,2,0.3,3c-0.2,1-0.5,1.9-0.8,2.9c-0.3,0.9-0.7,1.8-1.3,2.7c-0.5,0.8-1.2,1.6-2,2.2c0,0-0.1,0-0.1,0
			C404.6,597.2,404.5,597.2,404.6,597.1C404.5,597.1,404.6,597.1,404.6,597.1L404.6,597.1z"/>
		<ellipse class="st5" cx="395.7" cy="527.6" rx="7.2" ry="12.5"/>
		<path d="M388.4,527.6c0-2.7,0.4-5.3,1.3-7.8c0.5-1.3,1.2-2.5,2.2-3.4c1-1,2.4-1.7,3.8-1.7c1.4,0.1,2.7,0.7,3.7,1.8
			c0.9,1,1.6,2.1,2.1,3.4c1,2.5,1.6,5.1,1.7,7.8c0.1,2.7-0.3,5.4-1.4,7.9c-0.5,1.3-1.3,2.4-2.3,3.4c-1.9,2.1-5.1,2.3-7.2,0.5
			c-0.2-0.2-0.3-0.3-0.5-0.5c-0.9-1-1.7-2.2-2.2-3.5C388.8,532.9,388.3,530.3,388.4,527.6z M388.5,527.6c0,2.6,0.6,5.2,1.8,7.5
			c0.6,1.1,1.3,2.1,2.2,3c1.6,1.7,4.3,1.9,6,0.3c0.1-0.1,0.2-0.2,0.3-0.3c0.9-0.9,1.6-1.9,2.1-3.1c1-2.4,1.6-4.9,1.7-7.5
			c0.1-2.6-0.4-5.2-1.4-7.6c-0.5-1.2-1.3-2.2-2.2-3.1c-0.9-0.9-2.1-1.3-3.3-1.4c-1.2,0.1-2.4,0.6-3.2,1.5c-0.9,0.9-1.6,1.9-2.2,3.1
			C389.1,522.4,388.5,525,388.5,527.6L388.5,527.6z"/>
		<ellipse class="st7" cx="393.4" cy="528.2" rx="4.5" ry="7.2"/>
		<ellipse cx="393.3" cy="528.2" rx="1.7" ry="2.8"/>
		<circle class="st8" cx="395.3" cy="524.9" r="1.8"/>
		<circle class="st8" cx="392.7" cy="531.9" r="0.5"/>
		<path class="st9" d="M389,518.8c0,0,8-8.3,13.3,3.5C401.1,516.8,394.5,508.3,389,518.8z"/>
		<path class="st11" d="M131.2,589.1c0.2,0.5,0.3,1.1,0.5,1.7c5,17.2,30.6,60.4,159.4,59c152.9-14.7,163.6-88.7,163.6-93.8
			c0.2-2.8,0-37.9,0-37.9s1.1-30.8-37.8-30.8c-30.2,0-35.5,18.5-36.3,26.8c-0.2,1.5-0.3,3.1-0.3,4.7l0.2,9.4v29.6
			c-0.1,2.1,0.1,4.3,0.6,6.3c0.3,3.2,0.8,10.9,0.8,16.8c-4.4,14.8-147.3,19.6-156.1,18.2c-10.2-1.6-42.4-3-64.4-25.7
			c-18-18.7-1.9-63.3-0.2-69.5c0.8-2.8-2.5-6.1-4.7-6c-3,0.2-12.8,16.8-18.3,27.7c-1.9,3.8-10.8,30.8-10.8,41.6
			C127.4,567.1,127.1,578.7,131.2,589.1z"/>
		<path d="M415.4,545.3c0,0,2.2,1.2,1.8,2.1c-9.6,6.4-28.9,8.2-36.6,8c-0.1,0.5-0.1,1-0.2,1.5c23.7,0,35.9-8.3,36.5-8.8
			c0.9-0.6,1.2,0.7,1.2,2.7C419.6,545.9,415.4,545.3,415.4,545.3z"/>
		<g id="_Group_2">
			<rect id="_Rectangle_7" x="-3" y="809" class="st0" width="38.1" height="26.9"/>
			<path class="st5" d="M10,827.3c-0.4,0-0.8-0.1-1.2-0.3c-0.4-0.3-0.6-0.7-0.6-1.2c0.1-0.7,0.3-1.3,0.8-1.8
				c0.3-0.3,0.4-0.7,0.6-1.1c0-0.3-0.2-0.3-0.4-0.4s-0.7-0.2-0.7-1.1c0-0.1,0-0.2,0-0.2c0.4-1.4,1.3-2.7,2.6-3.4
				c0.1,0,0.1,0,0.1,0.1c0,0.3-0.1,0.6-0.3,0.9c-0.2,0.4-0.6,0.8-1,1c-0.3,0.2-0.5,0.3-0.5,0.5s0.3,0.4,0.5,0.5c0.4,0.2,1,0.3,1,1
				c-0.1,0.6-0.3,1.2-0.7,1.7c-0.3,0.4-0.6,0.8-0.7,1.3v0.1c0,0.5,0.4,0.7,1.1,0.7c0.4,0,0.8,0,1.3-0.1h0.1c0.2,0,0.2,0,0.2,0.1
				c0,0.1-0.1,0.2-0.1,0.3C11.5,827,11,827.3,10,827.3z"/>
			<path class="st5" d="M18,816.7c-0.1,0.3-3.5,9-4.2,10.4c-0.2,0.2-0.4,0.3-0.7,0.3c0,0-0.1-0.1-0.1-0.1c1-2.1,3.8-9.4,4.2-10.5
				C17.5,816.7,17.7,816.6,18,816.7C17.9,816.6,18,816.6,18,816.7z"/>
			<path class="st5" d="M21.1,827.1c-0.1,0.2-0.1,0.3-0.2,0.3s-0.1,0-0.1-0.2c0-1.3-0.2-2.5-0.4-3.8c-0.2-1.2-0.5-2.4-0.9-3.6
				c0-0.1,0-0.2,0-0.3c0.1-0.5,0.3-0.9,0.5-1.4c0-0.1,0.1-0.2,0.1-0.2c0.2,0,0.6,0.9,0.6,1.1c0.5,1.7,0.7,3.5,0.7,5.4
				c0,0.3,0,0.6,0,0.9C21.4,825.9,21.3,826.5,21.1,827.1z"/>
		</g>
		<path class="st5" d="M259.9,17.5l2,1.2c-2.6,4.7-2.6,10.4,0,15.2l-2,1.2c-1.7-2.6-2.6-5.7-2.7-8.8
			C257.3,23.2,258.2,20.2,259.9,17.5z"/>
		<path class="st5" d="M270.8,24.1c0.6,0,1.2,0.2,1.7,0.6c0.5,0.4,0.9,1,1.2,1.6c0.3,0.7,0.5,1.4,0.7,2.1c0.2,0.8,0.2,1.5,0.2,2.3
			c0,3.7-1.6,5.5-4.7,5.5c-0.8,0-1.6-0.2-2.3-0.5l-0.4-2.3l0.1-0.1c0.9,0.3,1.9,0.4,2.8,0.4c0.5,0,1.1-0.1,1.5-0.3
			c0.4-0.3,0.6-0.7,0.7-1.1c-2.1-0.1-4.1-1.1-5.5-2.7c0.2-1.4,0.8-2.8,1.6-4C268.9,24.7,269.8,24.1,270.8,24.1z M270.6,26.8
			c-0.3,0-0.6,0.2-0.8,0.4c-0.3,0.4-0.5,0.8-0.7,1.2c1,0.7,2.1,1.1,3.3,1.2c-0.1-0.7-0.3-1.5-0.7-2.1
			C271.5,27.1,271.1,26.8,270.6,26.8L270.6,26.8z"/>
		<path class="st5" d="M279.6,27.3h4.4v2h-4.4L279.6,27.3z"/>
		<path class="st5" d="M300.4,22.1c0.8,0,1.5,0.3,2,0.9c0.6,0.6,1,1.3,1.2,2.1c0.3,0.8,0.4,1.7,0.4,2.6c0,1.6-0.2,3.1-0.6,4.7h-9.6
			c-1.3,0.1-2.6-0.3-3.6-1.2c-0.9-0.9-1.3-2-1.2-3.3c0-0.8,0.2-1.5,0.4-2.2l1.8-0.4l0.2,0.2c-0.2,0.6-0.3,1.2-0.3,1.9
			c-0.1,0.7,0.2,1.3,0.7,1.7c0.8,0.4,1.6,0.6,2.5,0.6h7.5v-0.3c-1,0-1.9-0.2-2.9-0.4c-0.8-0.3-1.6-0.7-2.3-1.2
			c0.2-1.4,0.7-2.8,1.5-3.9C298.5,22.7,299.4,22.2,300.4,22.1z M300,21.3l-1.5-1.8l1.9-1.6l1.5,1.8L300,21.3z M300.2,24.8
			c-0.3,0-0.6,0.2-0.8,0.4c-0.3,0.3-0.5,0.8-0.6,1.2c0.9,0.4,2,0.6,3,0.6c-0.1-0.6-0.3-1.1-0.6-1.6
			C300.9,25.1,300.6,24.9,300.2,24.8L300.2,24.8z"/>
		<path class="st5" d="M308.8,27.3h6.8v2h-6.8V27.3z"/>
		<path class="st5" d="M325.8,24.7c0.8,0,1.5,0.4,1.9,1.1c0.5,0.8,0.8,1.8,0.8,2.7c0,0.9-0.2,1.7-0.6,2.5l-1.7,1.7l-3.7-1.5
			l-0.1,0.2l1.6,4.5l-2.1,0.9h-0.1l-1.7-5.2l0.6-1.3c0.1-0.3,0.4-0.8,0.6-1.3c0.3-0.5,0.5-1,0.7-1.3c0.2-0.3,0.5-0.7,0.8-1.1
			c0.3-0.4,0.6-0.7,0.9-1c0.3-0.2,0.6-0.4,1-0.6C325.1,24.7,325.4,24.7,325.8,24.7z M325.3,27.4c-0.3,0-0.6,0.2-0.8,0.4
			c-0.4,0.4-0.7,0.9-0.9,1.4l2.5,1c0.1-0.4,0.2-0.9,0.2-1.3c0-0.4-0.1-0.8-0.3-1.1C325.8,27.5,325.5,27.4,325.3,27.4L325.3,27.4z"/>
		<path class="st5" d="M333.6,27.3h6.8v2h-6.8V27.3z"/>
		<path class="st5" d="M358.5,24.7v7.6h-8.3c-1.3,0.1-2.6-0.3-3.6-1.2c-0.9-0.9-1.3-2.1-1.3-3.3c0-0.8,0.2-1.5,0.4-2.2l1.8-0.4
			l0.2,0.2c-0.2,0.6-0.3,1.2-0.3,1.9c-0.1,0.7,0.2,1.3,0.7,1.7c0.8,0.4,1.6,0.6,2.5,0.6h5.4v-4.8H358.5z M352.5,33.1l1.5,1.8
			l-1.9,1.6l-1.6-1.8L352.5,33.1z"/>
		<path class="st5" d="M365.7,35.1l-2-1.2c2.6-4.7,2.6-10.4,0-15.1l2-1.2c1.7,2.6,2.6,5.6,2.7,8.7C368.3,29.5,367.4,32.5,365.7,35.1
			z"/>
		<path class="st5" d="M385.5,35.9l-4.5,1.7v-1.1l4.4-1.7L385.5,35.9z"/>
		<path class="st5" d="M386.7,29.6l0.3,2.3c-1,0.3-2.1,0.4-3.1,0.4h-3.4v-2.4h1.4c-0.3-0.5-0.5-1-0.6-1.6c0-0.3,0-0.7,0.1-1
			c0-0.2,0.1-0.5,0.2-0.7c0.1-0.2,0.2-0.4,0.4-0.7c0.7-0.5,1.6-0.7,2.5-0.7c0.6,0,1.3,0.1,1.9,0.3v2.2l-0.1,0.1
			c-0.7-0.1-1.3-0.2-2-0.2c-0.3,0-0.6,0-0.9,0.1c0,0.1,0,0.2,0,0.3c0,0.6,0.2,1.3,0.6,1.8C384.8,29.8,385.8,29.8,386.7,29.6z"/>
		<path class="st5" d="M393.1,29.7v2.3l-0.2,0.2h-3.8V19.5h2.4v10h1.4L393.1,29.7z"/>
		<path class="st5" d="M399.6,19.1l-4.4,1.7v-1.1l4.4-1.7V19.1z"/>
		<path class="st5" d="M403.6,29.7v2.4l-0.2,0.1h-0.3c-1.1,0-2.1-0.5-2.6-1.5c-1.9,1-4,1.5-6.1,1.5h-1.6l-0.3-0.3v-2l0.3-0.3h2.1
			c0.9,0,1.8-0.1,2.6-0.2c0.7-0.2,1.4-0.4,2.1-0.8c-0.7-0.4-1.4-0.8-2.1-1.1c-0.6-0.2-1.1-0.2-1.7-0.2c-0.6,0-1.3,0.1-1.9,0.3
			l-0.2-0.1v-2.4c0.7-0.4,1.5-0.6,2.3-0.6c0.9,0,1.8,0.3,2.6,0.8c1.3,0.8,2.5,1.7,3.6,2.8l-0.4,1.3c0.3,0.1,0.5,0.2,0.8,0.1h0.6
			L403.6,29.7z M399.1,32.7l1.5,1.8l-1.9,1.6l-1.5-1.8L399.1,32.7z"/>
		<path class="st5" d="M410.7,35.9l-4.4,1.7v-1.1l4.4-1.7V35.9z"/>
		<path class="st5" d="M416.5,29.7v2.4l-0.2,0.2h-0.1c-0.8-0.1-1.5-0.6-2.1-1.2c-0.2,0.6-0.5,1.1-0.8,1.7c-1.8-0.3-3.5-0.8-5.1-1.6
			c-0.7,0.4-1.4,0.7-2.2,0.9c-0.8,0.1-1.6,0.2-2.4,0.2h-0.3l-0.2-0.2v-2.2l0.2-0.2h2.5c-0.6-0.5-1.1-1.1-1.5-1.7
			c0.3-0.3,0.6-0.7,0.9-1l-0.9,0.2l-0.2-0.1v-2.2c1.5-0.3,2.9-0.5,4.4-0.5c1.6-0.1,3.2,0.4,4.5,1.3c1,0.9,1.6,2.1,1.5,3.4
			c0,0.1,0,0.3,0,0.4c0.5,0.2,1.1,0.3,1.6,0.3h0.1L416.5,29.7z M409.3,27.8c0-0.3-0.1-0.7-0.3-0.9c-0.2-0.3-0.6-0.4-0.9-0.4
			c-0.6,0.1-1.1,0.4-1.4,0.9c0.4,0.7,1.1,1.3,1.9,1.7C408.9,28.8,409.2,28.3,409.3,27.8L409.3,27.8z M412.5,29.2
			c0-0.5-0.1-0.9-0.4-1.4c-0.2-0.4-0.6-0.8-1-1c0.2,0.3,0.3,0.6,0.3,0.9c0,0.8-0.4,1.6-1,2.1c0.6,0.2,1.3,0.4,1.9,0.5
			C412.4,29.9,412.5,29.6,412.5,29.2L412.5,29.2z"/>
		<path class="st5" d="M418.6,17.9c-0.3,0-0.6-0.1-0.8-0.3c-0.2-0.2-0.4-0.5-0.4-0.8c0-0.5,0.2-1,0.6-1.4c0.4-0.5,0.7-0.7,0.9-0.7
			c0.4,0,0.7,0.2,0.9,0.5c0.3,0.3,0.4,0.7,0.5,1.1c0,0.4-0.2,0.8-0.5,1.1C419.4,17.7,419,17.9,418.6,17.9z M419.3,16.5
			c0-0.1-0.1-0.3-0.2-0.4c-0.1-0.1-0.2-0.2-0.4-0.2c0,0-0.1,0-0.1,0.1c-0.1,0.1-0.1,0.1-0.1,0.2c0,0.1-0.1,0.2-0.1,0.3
			c0,0.2,0.1,0.2,0.4,0.2C419.1,16.7,419.3,16.6,419.3,16.5L419.3,16.5z"/>
		<path class="st5" d="M420.6,19.5v12.8h-4.3l-0.2-0.2v-2.3l0.2-0.2h1.8v-10L420.6,19.5z"/>
		<path class="st5" d="M425.2,32.2h-2.4V19.5h2.4V32.2z"/>
		<path class="st5" d="M440.6,12.4c0.3-0.4,0.6-0.6,1.1-0.6c0.3,0,0.7,0.2,0.8,0.5c0.2,0.3,0.3,0.7,0.3,1.1c0,0.7-0.4,1.4-1,1.8
			c-0.8,0.6-1.7,0.9-2.7,1l-0.4-1.1l0.1-0.1c0.8,0,1.6-0.2,2.3-0.5c-0.3,0-0.6-0.1-0.8-0.3c-0.2-0.1-0.3-0.3-0.3-0.6
			C440,13.2,440.3,12.7,440.6,12.4z M441,13.4c0,0.1,0,0.1,0.1,0.1c0.1,0.1,0.2,0.1,0.3,0.1c0.2,0,0.3,0,0.5,0c0-0.1,0-0.1,0-0.2
			c0-0.1,0-0.3-0.1-0.4c-0.1-0.1-0.1-0.2-0.2-0.2c-0.1,0-0.3,0.1-0.4,0.2C441.1,13.2,441,13.3,441,13.4L441,13.4z"/>
		<path class="st5" d="M441.5,22.1c0.8,0,1.5,0.3,2,0.9c0.6,0.6,1,1.3,1.2,2.1c0.3,0.8,0.4,1.7,0.4,2.6c0,1.6-0.2,3.1-0.6,4.6H435
			c-1.3,0.1-2.6-0.4-3.5-1.2c-0.9-0.9-1.3-2.1-1.2-3.3c0-0.8,0.2-1.5,0.4-2.2l1.8-0.4l0.2,0.2c-0.2,0.6-0.3,1.2-0.3,1.9
			c-0.1,0.7,0.2,1.3,0.7,1.8c0.8,0.4,1.6,0.6,2.5,0.5h7.5v-0.3c-1,0-1.9-0.2-2.9-0.4c-0.8-0.3-1.6-0.7-2.3-1.2
			c0.2-1.4,0.7-2.7,1.4-3.9C439.7,22.8,440.5,22.2,441.5,22.1z M441.2,21.3l-1.5-1.8l1.9-1.6l1.5,1.8L441.2,21.3z M441.3,24.9
			c-0.3,0-0.6,0.2-0.8,0.4c-0.3,0.3-0.5,0.8-0.6,1.2c0.9,0.4,2,0.6,3,0.6c-0.1-0.6-0.3-1.1-0.6-1.6
			C442.1,25.1,441.7,24.9,441.3,24.9L441.3,24.9z"/>
		<path class="st5" d="M450.3,24.1c0.6,0,1.2,0.2,1.7,0.6c0.5,0.4,0.9,1,1.2,1.6c0.3,0.7,0.5,1.4,0.7,2.1c0.2,0.8,0.2,1.5,0.2,2.3
			c0,3.7-1.6,5.5-4.7,5.5c-0.8,0-1.6-0.2-2.3-0.5l-0.4-2.3l0.1-0.1c0.9,0.3,1.9,0.4,2.8,0.4c0.5,0,1-0.1,1.5-0.3
			c0.4-0.2,0.6-0.6,0.7-1.1c-2.1-0.1-4.1-1.1-5.5-2.6c0.2-1.4,0.8-2.7,1.5-3.9C448.4,24.7,449.3,24.1,450.3,24.1z M450.1,26.8
			c-0.3,0-0.6,0.2-0.8,0.4c-0.3,0.4-0.5,0.8-0.7,1.2c1,0.7,2.1,1.1,3.3,1.2c-0.1-0.7-0.3-1.4-0.7-2.1
			C451,27.1,450.6,26.9,450.1,26.8L450.1,26.8z"/>
		<path class="st5" d="M457.7,18.5c0.3-0.4,0.6-0.6,1.1-0.6c0.3,0,0.7,0.2,0.8,0.5c0.2,0.3,0.3,0.7,0.3,1c0,0.7-0.4,1.4-1,1.8
			c-0.8,0.6-1.7,0.9-2.7,1l-0.4-1.1l0.1-0.1c0.8,0,1.6-0.2,2.3-0.5c-0.3,0-0.6-0.1-0.8-0.3c-0.2-0.1-0.3-0.3-0.3-0.6
			C457.1,19.2,457.3,18.8,457.7,18.5z M458.1,19.5c0,0.1,0,0.1,0.1,0.1c0.1,0.1,0.2,0.1,0.3,0.1c0.2,0,0.3,0,0.5,0
			c0-0.1,0-0.1,0-0.2c0-0.1,0-0.3-0.1-0.4c-0.1-0.1-0.1-0.2-0.2-0.2c-0.1,0-0.3,0.1-0.4,0.2C458.1,19.2,458.1,19.4,458.1,19.5
			L458.1,19.5z"/>
		<path class="st5" d="M461.7,29.7v2.4l-0.2,0.2h-0.1c-0.6-0.1-1.3-0.4-1.7-0.8c0.1,1.2-0.3,2.4-1,3.5c-0.7,0.8-1.7,1.3-2.8,1.2
			c-0.5,0-1-0.1-1.5-0.3l-0.4-2.3l0.1-0.1c0.6,0.2,1.2,0.2,1.8,0.2c1,0,1.4-0.6,1.4-1.8v-6.5h2.4v4c0.5,0.2,1.1,0.3,1.7,0.3h0.1
			L461.7,29.7z"/>
		<path class="st5" d="M466,17.1c0.3-0.4,0.6-0.6,1.1-0.6c0.3,0,0.7,0.2,0.8,0.5c0.2,0.3,0.3,0.7,0.3,1c0,0.7-0.4,1.4-1,1.8
			c-0.8,0.6-1.7,0.9-2.7,1l-0.4-1.1l0.1-0.1c0.8,0,1.6-0.2,2.3-0.5c-0.3,0-0.6-0.1-0.8-0.3c-0.2-0.1-0.3-0.3-0.3-0.6
			C465.4,17.9,465.6,17.4,466,17.1z M466.4,18.1c0,0.1,0,0.1,0.1,0.1c0.1,0.1,0.2,0.1,0.3,0.1c0.2,0,0.3,0,0.5,0c0-0.1,0-0.1,0-0.2
			c0-0.1,0-0.3-0.1-0.4c-0.1-0.1-0.1-0.2-0.2-0.2c-0.1,0-0.3,0.1-0.4,0.2C466.5,17.9,466.4,18,466.4,18.1L466.4,18.1z"/>
		<path class="st5" d="M464.8,24.5c0.9,0,1.8,0.3,2.6,0.8c1.3,0.8,2.5,1.7,3.7,2.8l-0.6,2c-1.1,0.7-2.3,1.2-3.5,1.6
			c-1.2,0.4-2.5,0.6-3.8,0.6h-1.6l-0.3-0.3v-2.1l0.3-0.3h2.1c0.9,0,1.8-0.1,2.6-0.2c0.7-0.2,1.4-0.4,2.1-0.8
			c-0.7-0.4-1.4-0.8-2.1-1.1c-0.6-0.2-1.1-0.2-1.7-0.2c-0.6,0-1.3,0.1-1.9,0.3l-0.2-0.1v-2.4C463.2,24.7,464,24.5,464.8,24.5z"/>
		<g id="_Group_3">
			<g id="_Rectangle_8">
				<path class="st5" d="M493.4,6.6h74.8c2.1,0,3.8,1.7,3.8,3.8v33.5c0,2.1-1.7,3.8-3.8,3.8h-74.8c-2.1,0-3.8-1.7-3.8-3.8V10.3
					C489.7,8.3,491.4,6.6,493.4,6.6z"/>
				<path class="st12" d="M568.2,47.6l-15,0.1l-15,0.2c-10,0.1-20,0.2-30,0.1l-15-0.2c-1.4-0.1-2.6-0.9-3.2-2.1
					c-0.3-0.6-0.5-1.2-0.5-1.9v-1.9v-7.5c0-5,0-10,0-15v-7.5c0-0.6,0-1.2,0-1.9c0-0.7,0.3-1.3,0.6-1.9c0.7-1.1,2-1.8,3.3-1.9
					c20-0.2,40-0.3,60-0.2c5,0,10,0,15,0c1.4,0.1,2.7,0.9,3.4,2.2c0.3,0.6,0.5,1.3,0.5,2v1.9l-0.1,7.5l-0.2,15l0,7.5
					c0,0.6,0,1.3,0,1.9c0,0.6-0.3,1.3-0.6,1.8C570.7,47,569.5,47.6,568.2,47.6z M568.2,47.5c1.3,0,2.4-0.7,3.1-1.7
					c0.3-0.5,0.5-1.1,0.6-1.7c0-0.6,0-1.3,0-1.9l0-7.5l-0.2-15l-0.1-7.5v-1.9c0-0.6-0.2-1.1-0.4-1.6c-0.5-1-1.6-1.6-2.7-1.7h-15
					c-20,0-40-0.1-60-0.2c-1.2,0-2.3,0.6-3,1.6c-0.3,0.5-0.5,1.1-0.5,1.7c0,0.6,0,1.2,0,1.9v7.5c0,5,0,10,0,15v7.5v1.9
					c0,0.6,0.2,1.2,0.5,1.7c0.6,1,1.6,1.7,2.8,1.8l15-0.1c10,0,20,0,30,0.1l15,0.2L568.2,47.5z"/>
			</g>
		</g>
		<path class="st12" d="M499.3,24.1c2,0.2,3.3,2.3,3.5,4.1c0.2,1.2-0.1,2.5-0.9,3.5c-2.1,2.4-9.3,1.4-8.9-2.6c0.2-1,0.8-2,1.6-2.6
			c0.5-0.4,0.4,0.3,0.3,0.6c-0.1,0.5-0.1,1.1,0,1.6c0.2,1.9,2,3.3,3.9,3.1c0.4,0,0.8-0.2,1.2-0.3c0.5-0.3,0.9-0.9,0.9-1.5
			c0-0.1-0.1-0.2-0.2-0.2c-1.3,0.2-3.3-0.3-3.8-1.7c-0.5-1.6-0.1-3.5,1.8-4C498.9,24,499.1,24,499.3,24.1z M498.3,21.7
			c0.3,0.5,0.2,1.1-0.3,1.4c0,0,0,0,0,0c-0.5,0.2-1.2-0.1-1.4-0.6c-0.3-0.5-0.2-1.1,0.3-1.4c0,0,0.1,0,0.1,0
			C497.5,20.9,498.1,21.1,498.3,21.7L498.3,21.7z M498.8,27.8c0.4,0.5,1,0.9,1.7,0.9c0.2,0,0.3-0.1,0.3-0.3c0,0,0,0,0,0
			c-0.1-0.8-0.5-3.1-1.6-3.3C498.1,25.4,498.4,27,498.8,27.8L498.8,27.8z M500.5,21.7c0.3,0.5,0.2,1.1-0.3,1.4c0,0,0,0,0,0
			c-0.5,0.2-1.2-0.1-1.4-0.6c-0.3-0.5-0.2-1.1,0.3-1.4c0,0,0,0,0,0C499.7,20.9,500.3,21.1,500.5,21.7L500.5,21.7z"/>
		<path class="st12" d="M506.2,24.4c-0.4,0-0.4,0.1-0.3,0.5c0,1.5,1.4,5.5,0.5,7.1c-0.9,1.5-2.8,1-3.5-0.3c0-0.1-0.1-0.2,0-0.2
			c0.3,0,0.6,0.3,1,0.3c1.3,0,1.1-1.6,0.9-2.4c-0.3-1.3-1.1-4.4-0.7-5.1c0.4-0.7,1.3-0.8,2-0.4c0.1,0.1,0.2,0.2,0.3,0.3
			C506.3,24.2,506.3,24.4,506.2,24.4z"/>
		<path class="st12" d="M510.2,20.6c0.3,2,0.5,4,0.8,6c0.1,0.9,0.2,2,1.5,1.8v1.5c-0.9,0.1-1.9-0.2-2.6-0.8
			c-0.9-1.3-1.1-6.9-1.7-8.3c0-0.1-0.2-0.2-0.3-0.2s-0.1-0.1-0.1-0.2c0.1-0.2,0.3-0.4,0.5-0.5c0.4-0.5,1.2-0.5,1.6,0
			C510.1,20,510.2,20.3,510.2,20.6z"/>
		<path class="st12" d="M512.5,28.5c0.6,0,1-0.4,1.2-0.9c-0.1-0.9-0.8-3.1-0.4-3.7c0.7-1,2.5-0.2,2.2,0.2c-0.1,0.1-0.3,0.2-0.3,0.3
			c-0.2,0.8,0.2,2,0.3,2.9c0.1,0.8-0.2,1.6-0.9,2.1c-0.6,0.4-1.4,0.6-2.1,0.6L512.5,28.5z M514.8,31.5c0.3,0.5,0.2,1.1-0.2,1.4
			c0,0,0,0,0,0c-0.5,0.2-1.2-0.1-1.4-0.6c-0.3-0.5-0.2-1.1,0.3-1.4c0,0,0,0,0,0C514,30.7,514.6,31,514.8,31.5L514.8,31.5z"/>
		<path class="st12" d="M527.7,23.8c0.3,1.7-0.8,3-1.6,3.9c0.9,0.7,2.1,1,3.3,0.7v1.5c-1.9,0.2-3.2,0-4.3-1.3
			c-0.7,0.7-1.6,1.7-2,2.1c-0.2,0.2-0.1,0.3,0,0.3c2.2,0,5.1-0.2,6.5,1.8c0.5,0.7,0.5,1.7-0.1,2.4c-1.1,1-2.5,1.4-3.9,1.3
			c-2.1,0-4.5-1.2-5-3.4c0-0.4,0-0.8,0-1.2c0-0.1-0.1-0.2-0.2-0.2c-1.7-0.8-1.3-1.5-1.1-1.3c0.4,0.3,0.8,0.4,1.2,0.5
			c0.2,0,0.3,0,0.3-0.2c0.2-0.8,1.7-2.3,2.9-3.3c-1-0.8-2.2-1.4-3.5-1.8c-0.4-0.1-0.5-1.8,0.2-2.1c1.4-0.6,2.7-0.6,3.8-1.1
			c0.2-0.1,0.4-0.1,0.5-0.2C526,22,527.3,22.6,527.7,23.8C527.7,23.8,527.7,23.8,527.7,23.8z M522.3,24.7c1,0.5,1.9,1.1,2.7,1.9
			c0.7-0.6,0.9-1.6,0.5-2.4c-0.3-0.5-1-0.5-1.5-0.3C523.4,24.1,523,24.5,522.3,24.7z M522.6,32.1c-0.1,0.9,0.1,1.8,0.7,2.5
			c1.2,1,3.8,1.8,4.5-0.2c0.2-0.6-0.5-1.4-0.9-1.7c-1.2-0.7-2.6-0.9-4-0.7C522.8,31.9,522.6,32,522.6,32.1L522.6,32.1z"/>
		<path class="st12" d="M535.7,29.3L535.7,29.3L535.7,29.3c-1,0.9-2.6,0.9-3.5-0.1c-0.4-0.5-1.1,0.6-2.8,0.7v-1.5
			c0.8,0,1.1-0.4,0.9-1.1c-0.3-1.3,0-3.1,1.5-3.5c1-0.2,2.1,0,3,0.6C536.3,25.5,536.7,27.6,535.7,29.3L535.7,29.3z M532.4,25.3
			c-0.4,1-0.3,2.1,0.3,3c0.1,0.2,0.8,0.6,1,0.5c1.3-0.8,0.5-4-1-3.8C532.6,25,532.5,25.1,532.4,25.3L532.4,25.3z"/>
		<path class="st12" d="M549.8,29.9c-0.8,0.1-1.6-0.1-2.3-0.5c-1,0.9-2.5,0.8-3.5-0.1c-0.1-0.1-0.3,0-0.3,0.1
			c0.1,2.6-2.8,2.4-3.9,0.9c0-0.1,0-0.2,0.1-0.2c0,0,0,0,0,0c0.1,0,0.3,0,0.4,0.1c0.4,0.2,0.9,0.2,1.3-0.1c0.8-0.6,0.5-1.8,0.5-2.7
			c-0.1-1.3,0-3.1,1.5-3.5c1-0.2,2.1,0,3,0.6c1,0.7,1.6,1.9,1.6,3.2c0.3,0.6,1,0.9,1.7,0.8L549.8,29.9z M544.3,25.3
			c-0.4,1-0.3,2.1,0.3,3c0.1,0.2,0.8,0.6,1,0.5c1.3-0.7,0.5-4-1-3.8C544.4,25,544.3,25.1,544.3,25.3L544.3,25.3z"/>
		<path class="st12" d="M552.2,19.6c0,0,0.1,0.2,0,0.2S552,20,552,20.1c0.2,2.1,0.6,4,0.9,6c0.1,1.4,1.2,2.4,2.6,2.4v1.5
			c-1.6-0.1-2.3-0.4-2.8-1.1c-0.8,0.7-1.8,1.1-2.8,1.1v-1.5c0.5,0,1.7-0.4,1.4-1.2c0-0.3-0.1-0.5-0.1-0.7c-0.4-2-0.8-4-1.1-6
			c-0.1-0.6,0.3-1.2,0.9-1.4c0.3-0.1,0.5,0,0.8,0.1C551.9,19.3,552.1,19.4,552.2,19.6z"/>
		<path class="st12" d="M563.2,23.8c0.2,1.2-0.2,2.4-1.1,3.3l0,0c-0.2,0.2-0.4,0.4-0.5,0.6c0.9,0.7,2.1,1,3.2,0.8v1.5
			c-1.6,0.2-3.2-0.2-4.4-1.2c-1.6,0.7-3.3,1.1-5,1.2v-1.5c1.3-0.1,2.6-0.4,3.8-0.9c-1-0.8-2.2-1.4-3.5-1.7c-0.4-0.1-0.5-1.8,0.2-2.1
			c1.4-0.6,2.7-0.6,3.8-1.1l0.5-0.2C561.5,22,562.8,22.6,563.2,23.8C563.2,23.8,563.2,23.8,563.2,23.8z M557.8,24.7
			c1,0.5,1.9,1.2,2.6,2.1c0.8-0.6,1-1.6,0.7-2.5c-0.3-0.6-1-0.5-1.5-0.3C558.9,24.1,558.5,24.5,557.8,24.7z"/>
		<path class="st12" d="M566.3,20.7c0.3,0.5,0.2,1.1-0.3,1.4c0,0,0,0,0,0c-0.5,0.2-1.2-0.1-1.4-0.6c-0.3-0.5-0.2-1.1,0.3-1.4
			c0,0,0,0,0,0C565.5,19.9,566.1,20.2,566.3,20.7z M564.9,28.5c0.6,0,1-0.4,1.2-0.9c-0.1-0.9-0.8-3.1-0.4-3.7c0.7-1,2.5-0.2,2.2,0.2
			c-0.1,0.1-0.3,0.2-0.3,0.3c-0.2,0.8,0.2,2,0.3,2.9c0.1,0.8-0.2,1.6-0.9,2.1c-0.6,0.4-1.4,0.6-2.1,0.6L564.9,28.5z M568.5,20.7
			c0.3,0.5,0.2,1.1-0.3,1.4c0,0,0,0,0,0c-0.5,0.2-1.2-0.1-1.4-0.6c-0.3-0.5-0.2-1.1,0.3-1.4c0,0,0,0,0,0
			C567.6,19.9,568.2,20.2,568.5,20.7z"/>
	</g>
</g>
</svg>
