<?xml version="1.0" encoding="utf-8"?>
<!-- Generator: Adobe Illustrator 19.0.0, SVG Export Plug-In . SVG Version: 6.00 Build 0)  -->
<svg version="1.1" id="Layer_1" xmlns="http://www.w3.org/2000/svg" xmlns:xlink="http://www.w3.org/1999/xlink" x="0px" y="0px"
	 viewBox="-3 6.1 588.1 829.8" style="enable-background:new -3 6.1 588.1 829.8;" xml:space="preserve">
<style type="text/css">
	.st0{fill:#0778A5;}
	.st1{fill:#04A1C6;}
	.st2{fill:#FFFFFF;}
	.st3{fill:#FCE74F;}
	.st4{fill:#FCF059;}
	.st5{opacity:0.31;fill:#FFFFFF;enable-background:new    ;}
	.st6{fill:#DDDDDD;}
	.st7{fill:#896C4D;}
	.st8{fill:#F4F0ED;}
	.st9{fill:#010101;}
	.st10{fill:#DDBE05;}
	.st11{fill:none;stroke:#000000;stroke-miterlimit:10;}
	.st12{fill:#0578A5;}
	.st13{fill:#04A2C7;}
</style>
<title>Asset 11</title>
<g id="Layer_2">
	<g id="Layer_1-2">
		<g id="_Group_">
			<polyline id="_Rectangle__1_" class="st0" points="585.1,33 585.1,45.6 -3,45.6 -3,33 			"/>
			<polyline id="_Rectangle_2_1_" class="st1" points="585.1,8.6 585.1,40.6 -3,40.6 -3,8.6 			"/>
		</g>
		<rect id="_Rectangle_3" x="2.4" y="814.7" class="st1" width="582.8" height="15.5"/>
		<rect id="_Rectangle_4" x="2.4" y="814.7" class="st1" width="582.8" height="15.5"/>
		<rect id="_Rectangle_5" x="2.4" y="814.7" class="st1" width="582.8" height="15.5"/>
		<rect id="_Rectangle_6" x="2.4" y="814.7" class="st1" width="582.8" height="15.5"/>
		<g id="_Group_2">
			<rect id="_Rectangle_7" x="-3" y="809" class="st0" width="38.1" height="26.9"/>
			<path class="st2" d="M9.5,827.3c-0.4,0-0.8-0.1-1.2-0.3c-0.4-0.3-0.6-0.7-0.6-1.2c0.1-0.7,0.3-1.3,0.8-1.8
				c0.3-0.3,0.4-0.7,0.6-1.1c0-0.3-0.2-0.3-0.4-0.4S8,822.4,8,821.4c0-0.1,0-0.2,0-0.2c0.4-1.4,1.3-2.7,2.7-3.4c0.1,0,0.1,0,0.1,0.1
				c0,0.3-0.1,0.6-0.3,0.9c-0.2,0.4-0.6,0.8-1,1C9.2,820,9,820.1,9,820.3s0.3,0.4,0.5,0.5c0.4,0.2,1,0.3,1,1
				c-0.1,0.6-0.3,1.2-0.7,1.7c-0.3,0.4-0.6,0.8-0.7,1.3v0.1c0,0.5,0.4,0.7,1.1,0.7c0.4,0,0.8,0,1.3-0.1h0.1c0.2,0,0.2,0,0.2,0.1
				c0,0.1-0.1,0.2-0.1,0.3C11,827,10.6,827.3,9.5,827.3z"/>
			<path class="st2" d="M17.5,816.7c-0.1,0.3-3.5,9-4.2,10.4c-0.2,0.2-0.4,0.3-0.7,0.3c-0.1,0-0.1-0.1-0.1-0.1
				c1-2.1,3.8-9.4,4.2-10.5C17,816.7,17.2,816.6,17.5,816.7C17.5,816.6,17.5,816.6,17.5,816.7z"/>
			<path class="st2" d="M21,827.3c-0.4,0-0.8-0.1-1.2-0.3c-0.4-0.3-0.6-0.7-0.6-1.2c0.1-0.7,0.3-1.3,0.8-1.8
				c0.3-0.3,0.4-0.7,0.5-1.1c0-0.3-0.2-0.3-0.4-0.4s-0.7-0.2-0.7-1.1c0-0.1,0-0.2,0-0.2c0.4-1.4,1.3-2.7,2.6-3.4
				c0.1,0,0.1,0,0.1,0.1c0,0.3-0.1,0.6-0.3,0.9c-0.2,0.4-0.6,0.8-1,1c-0.3,0.2-0.5,0.3-0.5,0.5s0.3,0.4,0.5,0.5c0.4,0.2,1,0.3,1,1
				c-0.1,0.6-0.3,1.2-0.7,1.7c-0.3,0.4-0.6,0.8-0.7,1.3v0.1c0,0.5,0.4,0.7,1.1,0.7c0.4,0,0.8,0,1.3-0.1h0c0.2,0,0.2,0,0.2,0.1
				c0,0.1-0.1,0.2-0.1,0.3C22.5,827,22,827.3,21,827.3z"/>
		</g>
		<g id="و">
			<path class="st3" d="M144.6,294.8c0-2.3,40.2,15.5,89.5,11.3c70.9-8.4,216.7-100.3,168.3-141.3c-10.8,12.5-24.8,21.9-39.2,25.8
				c-16,4.4-36.8,1.3-46.6-12.9C301.4,137.8,345.4,72.1,379,72.1c28.4,6.1,50.7,47.5,57.9,77.2c6.3,77.2-49.3,171.6-178.1,202.7
				C203.2,349,144.6,297.1,144.6,294.8z M363.8,119.7c-4.9-1-20.2,10.5-21.3,14.8c7.6,8.7,33.7,9,39.5,1.9
				C383.2,133.6,371.3,122.7,363.8,119.7z"/>
			<path class="st4" d="M354.9,85.3c-1.5,15.4,11.1,23.7,23.2,23.7s21.2-11,20.4-23.8c0-4.5-8.5-12-21.8-12S354.9,82.1,354.9,85.3z"
				/>
			<path class="st5" d="M364.8,80c0,3.3,5.5,9.6,12.1,9.6s11.6-6.3,11.6-9.6s-5.3-6-11.8-6S364.8,76.7,364.8,80z"/>
			<path class="st2" d="M363.2,179.7c-1.5,0.5-11.4,2.4-11.8-4.1c0.7-8.1,21.3-5.4,21.3-5.4s10.5,0.8,8.5,17.6s-17.8,21.5-20.2,16.5
				c0,0-11.7,0.5-8.6-8.4C344.6,193.2,356.6,181.5,363.2,179.7z"/>
			<path d="M363.2,179.7c-0.1,0.1-0.2,0.1-0.3,0.2l-0.2,0.1l-0.4,0.1c-0.3,0.1-0.6,0.1-0.9,0.2c-0.6,0.1-1.2,0.2-1.8,0.3
				c-1.2,0.2-2.4,0.2-3.6,0c-1.3-0.1-2.5-0.6-3.5-1.4c-1-0.9-1.6-2.1-1.6-3.4v-0.1c0.1-0.9,0.4-1.7,0.9-2.5c0.5-0.7,1.2-1.3,1.9-1.7
				c1.5-0.8,3-1.3,4.7-1.6c3.2-0.5,6.4-0.7,9.7-0.5c1.6,0.1,3.2,0.3,4.8,0.5c1.6,0.3,3.2,1.1,4.4,2.2c2.3,2.3,3.8,5.4,4,8.6
				c0.4,3.2,0.2,6.4-0.3,9.6c-0.6,3.2-1.8,6.3-3.7,9c-1.9,2.7-4.4,4.9-7.4,6.3c-1.5,0.7-3.2,1.2-4.8,1.3c-0.9,0-1.8-0.1-2.6-0.4
				c-0.9-0.3-1.7-1-2.1-1.8l0.6,0.4c-1.3,0-2.6-0.1-3.8-0.4c-1.3-0.2-2.5-0.7-3.6-1.5c-1.2-0.8-2-2-2.2-3.4c-0.2-1.3,0-2.7,0.5-3.9
				l0.4,0.8c-1.1-0.3-2-1.1-2.6-2.1c-0.4-1.1-0.4-2.3,0.1-3.3c0.8-1.9,2-3.6,3.5-5c1.4-1.4,3-2.7,4.6-3.8c0.8-0.6,1.7-1.1,2.6-1.5
				c0.5-0.2,0.9-0.4,1.4-0.6l0.7-0.3l0.4-0.1C362.9,179.7,363.1,179.7,363.2,179.7z M363.1,179.7c-0.1,0.1-0.1,0.1-0.3,0.2l-0.3,0.1
				l-0.7,0.3c-0.4,0.2-0.9,0.4-1.3,0.7c-0.8,0.5-1.7,1-2.4,1.6c-1.6,1.2-3,2.5-4.3,4c-1.3,1.4-2.4,3-3.1,4.8c-0.3,0.8-0.3,1.7,0,2.5
				c0.4,0.7,1.1,1.3,1.9,1.5l0.6,0.2l-0.2,0.6c-0.4,1.1-0.5,2.2-0.4,3.3c0.2,1.1,0.8,2,1.7,2.6c2,1.2,4.3,1.7,6.7,1.6h0.5l0.2,0.4
				c0.5,1.1,2,1.6,3.5,1.5c1.5-0.1,3-0.4,4.4-1.1c2.8-1.3,5.3-3.3,7.1-5.8c1.9-2.5,3.2-5.4,3.9-8.5c0.3-1.5,0.6-3.1,0.6-4.7
				c0.1-1.6,0.1-3.2-0.1-4.8c-0.4-3.1-1.6-6.3-4.1-8.2c-1.2-1-2.6-1.6-4.1-1.8c-1.5-0.2-3.2-0.3-4.7-0.3c-3.2-0.1-6.3,0-9.4,0.5
				c-1.5,0.2-3,0.7-4.4,1.4c-1.3,0.6-2.2,1.9-2.4,3.4v-0.1c0,1.1,0.5,2.1,1.2,2.9c0.9,0.7,1.9,1.2,3,1.4c1.2,0.2,2.3,0.3,3.5,0.2
				c0.6,0,1.2-0.1,1.8-0.2l0.9-0.1l0.4-0.1l0.2-0.1C363,179.6,363,179.7,363.1,179.7L363.1,179.7z"/>
			<path class="st6" d="M363.2,179.7c0,0-17.7,13.6-6.9,16.2c-4.6,3,0.8,7.4,6.3,7.7c0.9,1.2,1,2.1,8.4,0.4
				c-6.9,3.8-9.6,1.1-9.7,0.2c-2.3,0.4-11.7-0.7-8.9-8.2C347.3,194.9,350.3,185.4,363.2,179.7z"/>
			<path class="st6" d="M365.5,170.2c0,0-22.6,0.5-2.3,9.5C346.9,183.1,347.8,168.3,365.5,170.2z"/>
			<path d="M352.4,195.9c1.3-0.3,2.5-0.4,3.7-0.6c1.2-0.2,2.4-0.5,3.6-0.8c2.3-1,4.4-2.4,6.2-4.2c0,0,0.1,0,0.1,0s0,0.1,0,0.1
				c-0.8,1-1.7,2-2.6,2.9c-1,0.9-2.1,1.6-3.3,2.2c-1.2,0.6-2.5,1-3.8,1.2c-1.3,0.1-2.7-0.1-3.9-0.5
				C352.4,196,352.4,195.9,352.4,195.9C352.4,195.9,352.4,195.9,352.4,195.9z"/>
			<path d="M361,204.2c0.9-0.7,1.7-1.4,2.6-2s1.8-1.1,2.7-1.7c0.9-0.6,1.7-1.3,2.5-2c0.8-0.7,1.3-1.6,1.7-2.6c0,0,0-0.1,0.1-0.1
				c0,0,0.1,0,0.1,0.1c-0.2,1.1-0.6,2.1-1.3,3c-0.7,0.9-1.5,1.7-2.3,2.4c-0.8,0.8-1.7,1.4-2.7,1.9c-1,0.6-2.1,1-3.2,1.2
				C361,204.4,360.9,204.3,361,204.2C360.9,204.3,361,204.2,361,204.2z"/>
			
				<ellipse transform="matrix(-0.8841 -0.4673 0.4673 -0.8841 601.9897 367.9771)" class="st2" cx="346.6" cy="109.3" rx="8.1" ry="13.9"/>
			<path d="M339.4,105.5c1.3-2.6,3.1-5,5.3-7.1c1.1-1,2.5-1.8,3.9-2.3c1.5-0.5,3.2-0.4,4.7,0.3c1.4,0.8,2.3,2.2,2.7,3.7
				c0.4,1.5,0.5,3,0.3,4.5c-0.3,3-1.1,5.8-2.4,8.5c-1.3,2.7-3.1,5.2-5.5,7.1c-1.2,1-2.5,1.7-4,2.2c-3,1.1-6.3-0.4-7.4-3.4
				c-0.1-0.2-0.2-0.5-0.2-0.7c-0.4-1.5-0.5-3-0.3-4.6C337,111,338,108.1,339.4,105.5z M339.5,105.6c-1.4,2.6-2.1,5.4-2.1,8.4
				c0,1.4,0.2,2.8,0.6,4.1c0.6,2.5,3.2,4,5.7,3.4c0.2,0,0.3-0.1,0.5-0.1c1.3-0.4,2.6-1,3.7-1.9c2.3-1.8,4.1-4,5.6-6.5
				c1.5-2.5,2.4-5.3,2.6-8.2c0.1-1.4-0.1-2.9-0.6-4.2c-0.4-1.3-1.4-2.4-2.5-3c-1.2-0.5-2.6-0.6-3.9-0.2c-1.3,0.4-2.6,1-3.7,1.8
				C342.9,100.8,340.9,103,339.5,105.6L339.5,105.6z"/>
			
				<ellipse transform="matrix(-0.8841 -0.4673 0.4673 -0.8841 596.6304 369.1883)" class="st7" cx="344.1" cy="110.6" rx="5" ry="8"/>
			<ellipse transform="matrix(-0.8841 -0.4673 0.4673 -0.8841 596.4039 368.9943)" cx="344" cy="110.5" rx="1.9" ry="3.1"/>
			<circle class="st8" cx="347.6" cy="108.3" r="2"/>
			<circle class="st8" cx="341.5" cy="113.8" r="0.6"/>
			<path class="st9" d="M344.6,97.2c0,0,12.2-4,11.2,10.4C357.6,101.5,355.5,89.7,344.6,97.2z"/>
			<path d="M352.8,154.1c0,0,2.4,1.4,2,2.3c-10.7,7.1-32.1,9.2-40.8,8.9c-0.1,0.5-0.1,1.1-0.2,1.6c26.4,0,40-9.3,40.7-9.8
				c1-0.7,1.4,0.8,1.4,3C357.4,154.7,352.8,154.1,352.8,154.1z"/>
			<path class="st10" d="M272,332.8c-56.6,16-82-4.2-82-4.2s8.5,6.4,26.3,12.9c10.7,3.9,36.1,11.9,42.5,10.4
				c9.8-1.3,23.6-6.4,32.2-9.6c132-49,150.1-144.9,145.9-193.1C437.5,202.2,415.2,278.2,272,332.8z"/>
		</g>
		<path class="st11" d="M144.6,720.3c0-2.3,40.2,15.5,89.5,11.3c70.9-8.4,216.7-100.3,168.3-141.3c-10.8,12.5-24.8,21.9-39.2,25.8
			c-16,4.4-36.8,1.3-46.6-12.8c-15.3-39.9,28.7-105.6,62.4-105.6c28.4,6.1,50.7,47.5,57.9,77.2c6.3,77.2-49.3,171.6-178.1,202.7
			C203.2,774.5,144.6,722.6,144.6,720.3z M363.8,545.3c-4.9-1-20.2,10.5-21.3,14.8c7.6,8.7,33.7,9,39.5,1.9
			C383.2,559.2,371.3,548.2,363.8,545.3z"/>
		<path class="st2" d="M363.2,605.2c-1.5,0.5-11.4,2.4-11.8-4.1c0.7-8.1,21.3-5.4,21.3-5.4s10.5,0.8,8.5,17.6s-17.8,21.5-20.2,16.5
			c0,0-11.7,0.5-8.6-8.4C344.6,618.8,356.6,607.1,363.2,605.2z"/>
		<path d="M363.2,605.2c-0.1,0.1-0.2,0.1-0.3,0.2l-0.2,0.1l-0.4,0.1c-0.3,0.1-0.6,0.2-0.9,0.2c-0.6,0.1-1.2,0.2-1.8,0.3
			c-1.2,0.2-2.4,0.2-3.6,0c-1.3-0.1-2.5-0.6-3.5-1.4c-1-0.9-1.6-2.1-1.6-3.4v-0.1c0.1-0.9,0.4-1.7,0.9-2.5c0.5-0.7,1.2-1.3,1.9-1.7
			c1.5-0.8,3-1.3,4.7-1.6c3.2-0.6,6.4-0.7,9.7-0.5c1.6,0.1,3.2,0.3,4.8,0.5c1.6,0.3,3.2,1.1,4.4,2.2c2.3,2.3,3.8,5.4,4,8.7
			c0.4,3.2,0.2,6.4-0.3,9.6c-0.6,3.2-1.8,6.3-3.7,9c-1.9,2.7-4.4,4.9-7.3,6.3c-1.5,0.7-3.2,1.2-4.8,1.3c-0.9,0-1.8-0.1-2.6-0.4
			c-0.9-0.3-1.7-1-2.1-1.8l0.6,0.4c-1.3,0-2.6-0.1-3.8-0.4c-1.3-0.2-2.5-0.7-3.6-1.5c-1.2-0.8-2-2-2.2-3.4c-0.2-1.3,0-2.7,0.5-4
			l0.4,0.8c-1.1-0.3-2-1.1-2.6-2.2c-0.4-1.1-0.4-2.3,0.1-3.3c0.8-1.9,2-3.6,3.5-5c1.4-1.4,3-2.7,4.6-3.8c0.8-0.6,1.7-1.1,2.6-1.5
			c0.5-0.2,0.9-0.4,1.4-0.6l0.7-0.3l0.4-0.1C363,605.2,363.1,605.2,363.2,605.2z M363.1,605.2c-0.1,0.1-0.1,0.1-0.3,0.2l-0.3,0.1
			l-0.7,0.3c-0.4,0.2-0.9,0.4-1.3,0.7c-0.8,0.5-1.7,1-2.4,1.6c-1.6,1.2-3,2.5-4.3,4c-1.3,1.4-2.4,3-3.1,4.8c-0.3,0.8-0.3,1.7,0,2.5
			c0.4,0.7,1.1,1.3,1.9,1.5l0.6,0.2l-0.2,0.6c-0.4,1.1-0.5,2.2-0.4,3.3c0.2,1.1,0.8,2,1.7,2.6c2,1.2,4.3,1.7,6.7,1.6h0.5l0.2,0.4
			c0.5,1.1,2,1.6,3.5,1.5c1.5-0.1,3-0.4,4.4-1.1c2.8-1.3,5.3-3.3,7.1-5.8c1.9-2.5,3.2-5.4,3.9-8.5c0.3-1.5,0.6-3.1,0.6-4.7
			c0.1-1.6,0.1-3.2-0.1-4.8c-0.4-3.1-1.6-6.3-4.1-8.2c-1.2-1-2.6-1.6-4.1-1.8c-1.5-0.2-3.2-0.3-4.7-0.3c-3.2-0.1-6.3,0-9.4,0.5
			c-1.5,0.2-3,0.7-4.4,1.4c-1.3,0.6-2.2,1.9-2.4,3.4v-0.1c0,1.1,0.5,2.1,1.2,2.9c0.9,0.7,1.9,1.2,3,1.4c1.2,0.2,2.3,0.3,3.5,0.2
			c0.6,0,1.2-0.1,1.8-0.2l0.9-0.1l0.4-0.1l0.2,0C363,605.2,363,605.2,363.1,605.2L363.1,605.2z"/>
		<path class="st6" d="M363.2,605.2c0,0-17.7,13.6-6.9,16.2c-4.6,3,0.8,7.4,6.3,7.7c0.9,1.2,1,2.1,8.4,0.4c-6.9,3.8-9.6,1.2-9.7,0.2
			c-2.3,0.4-11.7-0.7-8.9-8.2C347.3,620.5,350.3,610.9,363.2,605.2z"/>
		<path class="st6" d="M365.5,595.7c0,0-22.6,0.5-2.3,9.5C346.9,608.6,347.8,593.8,365.5,595.7z"/>
		<path d="M352.4,621.4c1.3-0.3,2.5-0.4,3.7-0.6c1.2-0.2,2.4-0.5,3.6-0.8c2.3-1,4.4-2.4,6.2-4.2c0,0,0.1,0,0.1,0c0,0,0,0.1,0,0.1
			c-0.8,1-1.7,2-2.6,2.9c-1,0.9-2.1,1.6-3.3,2.2c-1.2,0.6-2.5,1-3.8,1.2c-1.3,0.1-2.7-0.1-3.9-0.5
			C352.4,621.5,352.4,621.5,352.4,621.4C352.4,621.4,352.4,621.4,352.4,621.4z"/>
		<path d="M361,629.8c0.9-0.7,1.7-1.3,2.6-2s1.8-1.1,2.7-1.7c0.9-0.6,1.7-1.3,2.5-2c0.8-0.7,1.3-1.6,1.7-2.6c0,0,0-0.1,0.1-0.1
			c0,0,0.1,0,0.1,0.1c-0.2,1.1-0.6,2.1-1.3,3c-0.7,0.9-1.5,1.7-2.3,2.4c-0.8,0.8-1.7,1.4-2.7,1.9C363.2,629.2,362.2,629.6,361,629.8
			C361,629.8,361,629.7,361,629.8C361,629.7,361,629.8,361,629.8z"/>
		
			<ellipse transform="matrix(-0.8841 -0.4673 0.4673 -0.8841 403.09 1169.7844)" class="st2" cx="346.6" cy="534.9" rx="8.1" ry="13.9"/>
		<path d="M339.4,531.1c1.3-2.6,3.1-5,5.3-7c1.1-1,2.5-1.8,3.9-2.3c1.5-0.5,3.2-0.4,4.7,0.3c1.4,0.8,2.3,2.2,2.7,3.7
			c0.4,1.5,0.5,3,0.3,4.5c-0.3,3-1.1,5.8-2.4,8.5c-1.3,2.7-3.1,5.2-5.5,7.1c-1.2,1-2.5,1.7-4,2.2c-3,1.1-6.3-0.4-7.4-3.4
			c-0.1-0.2-0.2-0.5-0.2-0.7c-0.4-1.5-0.5-3-0.3-4.6C337,536.5,338,533.7,339.4,531.1z M339.5,531.1c-1.4,2.6-2.1,5.4-2.1,8.4
			c0,1.4,0.2,2.8,0.6,4.1c0.6,2.5,3.2,4,5.7,3.4c0.2,0,0.3-0.1,0.5-0.1c1.3-0.4,2.6-1,3.7-1.9c2.3-1.8,4.1-4,5.6-6.5
			c1.5-2.5,2.4-5.3,2.6-8.2c0.1-1.4-0.1-2.9-0.6-4.2c-0.4-1.3-1.4-2.4-2.5-3c-1.2-0.5-2.6-0.6-3.9-0.2c-1.3,0.4-2.6,1-3.8,1.8
			C342.9,526.3,340.9,528.6,339.5,531.1L339.5,531.1z"/>
		
			<ellipse transform="matrix(-0.8841 -0.4673 0.4673 -0.8841 397.7118 1170.991)" class="st7" cx="344.1" cy="536.2" rx="5" ry="8"/>
		<ellipse transform="matrix(-0.8841 -0.4673 0.4673 -0.8841 397.5088 1170.7827)" cx="343.9" cy="536.1" rx="1.9" ry="3.1"/>
		<circle class="st8" cx="347.6" cy="533.9" r="2"/>
		<circle class="st8" cx="341.4" cy="539.4" r="0.6"/>
		<path class="st9" d="M344.6,522.8c0,0,12.2-4,11.2,10.4C357.6,527.1,355.5,515.3,344.6,522.8z"/>
		<path d="M352.8,579.6c0,0,2.4,1.3,2,2.3c-10.7,7.1-32.1,9.2-40.8,8.9c-0.1,0.5-0.1,1.1-0.2,1.6c26.4,0,40-9.3,40.7-9.8
			c1-0.7,1.4,0.8,1.4,3C357.4,580.2,352.8,579.6,352.8,579.6z"/>
		<path class="st2" d="M259.9,17.5l2,1.2c-2.6,4.7-2.6,10.4,0,15.2l-2,1.2c-1.7-2.6-2.6-5.7-2.7-8.8
			C257.3,23.2,258.2,20.2,259.9,17.5z"/>
		<path class="st2" d="M270.8,24.1c0.6,0,1.2,0.2,1.7,0.6c0.5,0.4,0.9,1,1.2,1.6c0.3,0.7,0.5,1.4,0.7,2.1c0.2,0.8,0.2,1.5,0.2,2.3
			c0,3.7-1.6,5.5-4.7,5.5c-0.8,0-1.6-0.2-2.3-0.5l-0.4-2.3l0.1-0.1c0.9,0.3,1.9,0.4,2.8,0.4c0.5,0,1.1-0.1,1.5-0.3
			c0.4-0.3,0.6-0.7,0.7-1.1c-2.1-0.1-4.1-1.1-5.5-2.7c0.2-1.4,0.8-2.8,1.6-4C268.9,24.7,269.8,24.1,270.8,24.1z M270.6,26.8
			c-0.3,0-0.6,0.2-0.8,0.4c-0.3,0.4-0.5,0.8-0.7,1.2c1,0.7,2.1,1.1,3.3,1.2c-0.1-0.7-0.3-1.5-0.7-2.1
			C271.5,27.1,271.1,26.8,270.6,26.8L270.6,26.8z"/>
		<path class="st2" d="M279.6,27.3h4.4v2h-4.4L279.6,27.3z"/>
		<path class="st2" d="M300.4,22.1c0.8,0,1.5,0.3,2,0.9c0.6,0.6,1,1.3,1.2,2.1c0.3,0.8,0.4,1.7,0.4,2.6c0,1.6-0.2,3.1-0.6,4.7h-9.6
			c-1.3,0.1-2.6-0.3-3.6-1.2c-0.9-0.9-1.3-2-1.2-3.3c0-0.8,0.2-1.5,0.4-2.2l1.8-0.4l0.2,0.2c-0.2,0.6-0.3,1.2-0.3,1.9
			c-0.1,0.7,0.2,1.3,0.7,1.7c0.8,0.4,1.6,0.6,2.5,0.6h7.5v-0.3c-1,0-1.9-0.2-2.9-0.4c-0.8-0.3-1.6-0.7-2.3-1.2
			c0.2-1.4,0.7-2.8,1.5-3.9C298.5,22.7,299.4,22.2,300.4,22.1z M300,21.3l-1.5-1.8l1.9-1.6l1.5,1.8L300,21.3z M300.2,24.8
			c-0.3,0-0.6,0.2-0.8,0.4c-0.3,0.3-0.5,0.8-0.6,1.2c0.9,0.4,2,0.6,3,0.6c-0.1-0.6-0.3-1.1-0.6-1.6
			C300.9,25.1,300.6,24.9,300.2,24.8L300.2,24.8z"/>
		<path class="st2" d="M308.8,27.3h6.8v2h-6.8V27.3z"/>
		<path class="st2" d="M325.8,24.7c0.8,0,1.5,0.4,1.9,1.1c0.5,0.8,0.8,1.8,0.8,2.7c0,0.9-0.2,1.7-0.6,2.5l-1.7,1.7l-3.7-1.5
			l-0.1,0.2l1.6,4.5l-2.1,0.9h-0.1l-1.7-5.2l0.6-1.3c0.1-0.3,0.4-0.8,0.6-1.3c0.3-0.5,0.5-1,0.7-1.3c0.2-0.3,0.5-0.7,0.8-1.1
			c0.3-0.4,0.6-0.7,0.9-1c0.3-0.2,0.6-0.4,1-0.6C325.1,24.7,325.4,24.7,325.8,24.7z M325.3,27.4c-0.3,0-0.6,0.2-0.8,0.4
			c-0.4,0.4-0.7,0.9-0.9,1.4l2.5,1c0.1-0.4,0.2-0.9,0.2-1.3c0-0.4-0.1-0.8-0.3-1.1C325.8,27.5,325.5,27.4,325.3,27.4L325.3,27.4z"/>
		<path class="st2" d="M333.6,27.3h6.8v2h-6.8V27.3z"/>
		<path class="st2" d="M358.5,24.7v7.6h-8.3c-1.3,0.1-2.6-0.3-3.6-1.2c-0.9-0.9-1.3-2.1-1.3-3.3c0-0.8,0.2-1.5,0.4-2.2l1.8-0.4
			l0.2,0.2c-0.2,0.6-0.3,1.2-0.3,1.9c-0.1,0.7,0.2,1.3,0.7,1.7c0.8,0.4,1.6,0.6,2.5,0.6h5.4v-4.8H358.5z M352.5,33.1l1.5,1.8
			l-1.9,1.6l-1.6-1.8L352.5,33.1z"/>
		<path class="st2" d="M365.7,35.1l-2-1.2c2.6-4.7,2.6-10.4,0-15.1l2-1.2c1.7,2.6,2.6,5.6,2.7,8.7C368.3,29.5,367.4,32.5,365.7,35.1
			z"/>
		<path class="st2" d="M385.5,35.9l-4.5,1.7v-1.1l4.4-1.7L385.5,35.9z"/>
		<path class="st2" d="M386.7,29.6l0.3,2.3c-1,0.3-2.1,0.4-3.1,0.4h-3.4v-2.4h1.4c-0.3-0.5-0.5-1-0.6-1.6c0-0.3,0-0.7,0.1-1
			c0-0.2,0.1-0.5,0.2-0.7c0.1-0.2,0.2-0.4,0.4-0.7c0.7-0.5,1.6-0.7,2.5-0.7c0.6,0,1.3,0.1,1.9,0.3v2.2l-0.1,0.1
			c-0.7-0.1-1.3-0.2-2-0.2c-0.3,0-0.6,0-0.9,0.1c0,0.1,0,0.2,0,0.3c0,0.6,0.2,1.3,0.6,1.8C384.8,29.8,385.8,29.8,386.7,29.6z"/>
		<path class="st2" d="M393.1,29.7v2.3l-0.2,0.2h-3.8V19.5h2.4v10h1.4L393.1,29.7z"/>
		<path class="st2" d="M399.6,19.1l-4.4,1.7v-1.1l4.4-1.7V19.1z"/>
		<path class="st2" d="M403.6,29.7v2.4l-0.2,0.1h-0.3c-1.1,0-2.1-0.5-2.6-1.5c-1.9,1-4,1.5-6.1,1.5h-1.6l-0.3-0.3v-2l0.3-0.3h2.1
			c0.9,0,1.8-0.1,2.6-0.2c0.7-0.2,1.4-0.4,2.1-0.8c-0.7-0.4-1.4-0.8-2.1-1.1c-0.6-0.2-1.1-0.2-1.7-0.2c-0.6,0-1.3,0.1-1.9,0.3
			l-0.2-0.1v-2.4c0.7-0.4,1.5-0.6,2.3-0.6c0.9,0,1.8,0.3,2.6,0.8c1.3,0.8,2.5,1.7,3.6,2.8l-0.4,1.3c0.3,0.1,0.5,0.2,0.8,0.1h0.6
			L403.6,29.7z M399.1,32.7l1.5,1.8l-1.9,1.6l-1.5-1.8L399.1,32.7z"/>
		<path class="st2" d="M410.7,35.9l-4.4,1.7v-1.1l4.4-1.7V35.9z"/>
		<path class="st2" d="M416.5,29.7v2.4l-0.2,0.2h-0.1c-0.8-0.1-1.5-0.6-2.1-1.2c-0.2,0.6-0.5,1.1-0.8,1.7c-1.8-0.3-3.5-0.8-5.1-1.6
			c-0.7,0.4-1.4,0.7-2.2,0.9c-0.8,0.1-1.6,0.2-2.4,0.2h-0.3l-0.2-0.2v-2.2l0.2-0.2h2.5c-0.6-0.5-1.1-1.1-1.5-1.7
			c0.3-0.3,0.6-0.7,0.9-1l-0.9,0.2l-0.2-0.1v-2.2c1.5-0.3,2.9-0.5,4.4-0.5c1.6-0.1,3.2,0.4,4.5,1.3c1,0.9,1.6,2.1,1.5,3.4
			c0,0.1,0,0.3,0,0.4c0.5,0.2,1.1,0.3,1.6,0.3h0.1L416.5,29.7z M409.3,27.8c0-0.3-0.1-0.7-0.3-0.9c-0.2-0.3-0.6-0.4-0.9-0.4
			c-0.6,0.1-1.1,0.4-1.4,0.9c0.4,0.7,1.1,1.3,1.9,1.7C408.9,28.8,409.2,28.3,409.3,27.8L409.3,27.8z M412.5,29.2
			c0-0.5-0.1-0.9-0.4-1.4c-0.2-0.4-0.6-0.8-1-1c0.2,0.3,0.3,0.6,0.3,0.9c0,0.8-0.4,1.6-1,2.1c0.6,0.2,1.3,0.4,1.9,0.5
			C412.4,29.9,412.5,29.6,412.5,29.2L412.5,29.2z"/>
		<path class="st2" d="M418.6,17.9c-0.3,0-0.6-0.1-0.8-0.3c-0.2-0.2-0.4-0.5-0.4-0.8c0-0.5,0.2-1,0.6-1.4c0.4-0.5,0.7-0.7,0.9-0.7
			c0.4,0,0.7,0.2,0.9,0.5c0.3,0.3,0.4,0.7,0.5,1.1c0,0.4-0.2,0.8-0.5,1.1C419.4,17.7,419,17.9,418.6,17.9z M419.3,16.5
			c0-0.1-0.1-0.3-0.2-0.4c-0.1-0.1-0.2-0.2-0.4-0.2c0,0-0.1,0-0.1,0.1c-0.1,0.1-0.1,0.1-0.1,0.2c0,0.1-0.1,0.2-0.1,0.3
			c0,0.2,0.1,0.2,0.4,0.2C419.1,16.7,419.3,16.6,419.3,16.5L419.3,16.5z"/>
		<path class="st2" d="M420.6,19.5v12.8h-4.3l-0.2-0.2v-2.3l0.2-0.2h1.8v-10L420.6,19.5z"/>
		<path class="st2" d="M425.2,32.2h-2.4V19.5h2.4V32.2z"/>
		<path class="st2" d="M440.6,12.4c0.3-0.4,0.6-0.6,1.1-0.6c0.3,0,0.7,0.2,0.8,0.5c0.2,0.3,0.3,0.7,0.3,1.1c0,0.7-0.4,1.4-1,1.8
			c-0.8,0.6-1.7,0.9-2.7,1l-0.4-1.1l0.1-0.1c0.8,0,1.6-0.2,2.3-0.5c-0.3,0-0.6-0.1-0.8-0.3c-0.2-0.1-0.3-0.3-0.3-0.6
			C440,13.2,440.3,12.7,440.6,12.4z M441,13.4c0,0.1,0,0.1,0.1,0.1c0.1,0.1,0.2,0.1,0.3,0.1c0.2,0,0.3,0,0.5,0c0-0.1,0-0.1,0-0.2
			c0-0.1,0-0.3-0.1-0.4c-0.1-0.1-0.1-0.2-0.2-0.2c-0.1,0-0.3,0.1-0.4,0.2C441.1,13.2,441,13.3,441,13.4L441,13.4z"/>
		<path class="st2" d="M441.5,22.1c0.8,0,1.5,0.3,2,0.9c0.6,0.6,1,1.3,1.2,2.1c0.3,0.8,0.4,1.7,0.4,2.6c0,1.6-0.2,3.1-0.6,4.6H435
			c-1.3,0.1-2.6-0.4-3.5-1.2c-0.9-0.9-1.3-2.1-1.2-3.3c0-0.8,0.2-1.5,0.4-2.2l1.8-0.4l0.2,0.2c-0.2,0.6-0.3,1.2-0.3,1.9
			c-0.1,0.7,0.2,1.3,0.7,1.8c0.8,0.4,1.6,0.6,2.5,0.5h7.5v-0.3c-1,0-1.9-0.2-2.9-0.4c-0.8-0.3-1.6-0.7-2.3-1.2
			c0.2-1.4,0.7-2.7,1.4-3.9C439.7,22.8,440.5,22.2,441.5,22.1z M441.2,21.3l-1.5-1.8l1.9-1.6l1.5,1.8L441.2,21.3z M441.3,24.9
			c-0.3,0-0.6,0.2-0.8,0.4c-0.3,0.3-0.5,0.8-0.6,1.2c0.9,0.4,2,0.6,3,0.6c-0.1-0.6-0.3-1.1-0.6-1.6
			C442.1,25.1,441.7,24.9,441.3,24.9L441.3,24.9z"/>
		<path class="st2" d="M450.3,24.1c0.6,0,1.2,0.2,1.7,0.6c0.5,0.4,0.9,1,1.2,1.6c0.3,0.7,0.5,1.4,0.7,2.1c0.2,0.8,0.2,1.5,0.2,2.3
			c0,3.7-1.6,5.5-4.7,5.5c-0.8,0-1.6-0.2-2.3-0.5l-0.4-2.3l0.1-0.1c0.9,0.3,1.9,0.4,2.8,0.4c0.5,0,1-0.1,1.5-0.3
			c0.4-0.2,0.6-0.6,0.7-1.1c-2.1-0.1-4.1-1.1-5.5-2.6c0.2-1.4,0.8-2.7,1.5-3.9C448.4,24.7,449.3,24.1,450.3,24.1z M450.1,26.8
			c-0.3,0-0.6,0.2-0.8,0.4c-0.3,0.4-0.5,0.8-0.7,1.2c1,0.7,2.1,1.1,3.3,1.2c-0.1-0.7-0.3-1.4-0.7-2.1
			C451,27.1,450.6,26.9,450.1,26.8L450.1,26.8z"/>
		<path class="st2" d="M457.7,18.5c0.3-0.4,0.6-0.6,1.1-0.6c0.3,0,0.7,0.2,0.8,0.5c0.2,0.3,0.3,0.7,0.3,1c0,0.7-0.4,1.4-1,1.8
			c-0.8,0.6-1.7,0.9-2.7,1l-0.4-1.1l0.1-0.1c0.8,0,1.6-0.2,2.3-0.5c-0.3,0-0.6-0.1-0.8-0.3c-0.2-0.1-0.3-0.3-0.3-0.6
			C457.1,19.2,457.3,18.8,457.7,18.5z M458.1,19.5c0,0.1,0,0.1,0.1,0.1c0.1,0.1,0.2,0.1,0.3,0.1c0.2,0,0.3,0,0.5,0
			c0-0.1,0-0.1,0-0.2c0-0.1,0-0.3-0.1-0.4c-0.1-0.1-0.1-0.2-0.2-0.2c-0.1,0-0.3,0.1-0.4,0.2C458.1,19.2,458.1,19.4,458.1,19.5
			L458.1,19.5z"/>
		<path class="st2" d="M461.7,29.7v2.4l-0.2,0.2h-0.1c-0.6-0.1-1.3-0.4-1.7-0.8c0.1,1.2-0.3,2.4-1,3.5c-0.7,0.8-1.7,1.3-2.8,1.2
			c-0.5,0-1-0.1-1.5-0.3l-0.4-2.3l0.1-0.1c0.6,0.2,1.2,0.2,1.8,0.2c1,0,1.4-0.6,1.4-1.8v-6.5h2.4v4c0.5,0.2,1.1,0.3,1.7,0.3h0.1
			L461.7,29.7z"/>
		<path class="st2" d="M466,17.1c0.3-0.4,0.6-0.6,1.1-0.6c0.3,0,0.7,0.2,0.8,0.5c0.2,0.3,0.3,0.7,0.3,1c0,0.7-0.4,1.4-1,1.8
			c-0.8,0.6-1.7,0.9-2.7,1l-0.4-1.1l0.1-0.1c0.8,0,1.6-0.2,2.3-0.5c-0.3,0-0.6-0.1-0.8-0.3c-0.2-0.1-0.3-0.3-0.3-0.6
			C465.4,17.9,465.6,17.4,466,17.1z M466.4,18.1c0,0.1,0,0.1,0.1,0.1c0.1,0.1,0.2,0.1,0.3,0.1c0.2,0,0.3,0,0.5,0c0-0.1,0-0.1,0-0.2
			c0-0.1,0-0.3-0.1-0.4c-0.1-0.1-0.1-0.2-0.2-0.2c-0.1,0-0.3,0.1-0.4,0.2C466.5,17.9,466.4,18,466.4,18.1L466.4,18.1z"/>
		<path class="st2" d="M464.8,24.5c0.9,0,1.8,0.3,2.6,0.8c1.3,0.8,2.5,1.7,3.7,2.8l-0.6,2c-1.1,0.7-2.3,1.2-3.5,1.6
			c-1.2,0.4-2.5,0.6-3.8,0.6h-1.6l-0.3-0.3v-2.1l0.3-0.3h2.1c0.9,0,1.8-0.1,2.6-0.2c0.7-0.2,1.4-0.4,2.1-0.8
			c-0.7-0.4-1.4-0.8-2.1-1.1c-0.6-0.2-1.1-0.2-1.7-0.2c-0.6,0-1.3,0.1-1.9,0.3l-0.2-0.1v-2.4C463.2,24.7,464,24.5,464.8,24.5z"/>
		<g id="_Group_3">
			<path id="_Path_" class="st12" d="M491.7,9.6h74.8c2.1,0,3.8,1.7,3.8,3.8v33.5c0,2.1-1.7,3.8-3.8,3.8h-74.8
				c-2.1,0-3.8-1.7-3.8-3.8V13.3C487.9,11.3,489.6,9.6,491.7,9.6z"/>
		</g>
		<g id="_Group_4">
			<g id="_Rectangle_8">
				<path class="st2" d="M493.4,6.6h74.8c2.1,0,3.8,1.7,3.8,3.8v33.5c0,2.1-1.7,3.8-3.8,3.8h-74.8c-2.1,0-3.8-1.7-3.8-3.8V10.3
					C489.7,8.3,491.4,6.6,493.4,6.6z"/>
				<path class="st13" d="M568.2,47.6l-15,0.1l-15,0.2c-10,0.1-20,0.2-30,0.1l-15-0.2c-1.4-0.1-2.6-0.9-3.2-2.1
					c-0.3-0.6-0.5-1.2-0.5-1.9v-1.9v-7.5c0-5,0-10,0-15v-7.5c0-0.6,0-1.2,0-1.9c0-0.7,0.3-1.3,0.6-1.9c0.7-1.1,2-1.8,3.3-1.9
					c20-0.2,40-0.3,60-0.2c5,0,10,0,15,0c1.4,0.1,2.7,0.9,3.4,2.2c0.3,0.6,0.5,1.3,0.5,2v1.9l-0.1,7.5l-0.2,15l0,7.5
					c0,0.6,0,1.3,0,1.9c0,0.6-0.3,1.3-0.6,1.8C570.7,47,569.5,47.6,568.2,47.6z M568.2,47.5c1.3,0,2.4-0.7,3.1-1.7
					c0.3-0.5,0.5-1.1,0.6-1.7c0-0.6,0-1.3,0-1.9l0-7.5l-0.2-15l-0.1-7.5v-1.9c0-0.6-0.2-1.1-0.4-1.6c-0.5-1-1.6-1.6-2.7-1.7h-15
					c-20,0-40-0.1-60-0.2c-1.2,0-2.3,0.6-3,1.6c-0.3,0.5-0.5,1.1-0.5,1.7c0,0.6,0,1.2,0,1.9v7.5c0,5,0,10,0,15v7.5v1.9
					c0,0.6,0.2,1.2,0.5,1.7c0.6,1,1.6,1.7,2.8,1.8l15-0.1c10,0,20,0,30,0.1l15,0.2L568.2,47.5z"/>
			</g>
		</g>
		<path class="st13" d="M499.3,24.1c2,0.2,3.3,2.3,3.5,4.1c0.2,1.2-0.1,2.5-0.9,3.5c-2.1,2.4-9.3,1.4-8.9-2.6c0.2-1,0.8-2,1.6-2.6
			c0.5-0.4,0.4,0.3,0.3,0.6c-0.1,0.5-0.1,1.1,0,1.6c0.2,1.9,2,3.3,3.9,3.1c0.4,0,0.8-0.2,1.2-0.3c0.5-0.3,0.9-0.9,0.9-1.5
			c0-0.1-0.1-0.2-0.2-0.2c-1.3,0.2-3.3-0.3-3.8-1.7c-0.5-1.6-0.1-3.5,1.8-4C498.9,24,499.1,24,499.3,24.1z M498.3,21.7
			c0.3,0.5,0.2,1.1-0.3,1.4c0,0,0,0,0,0c-0.5,0.2-1.2-0.1-1.4-0.6c-0.3-0.5-0.2-1.1,0.3-1.4c0,0,0.1,0,0.1,0
			C497.5,20.9,498.1,21.1,498.3,21.7L498.3,21.7z M498.8,27.8c0.4,0.5,1,0.9,1.7,0.9c0.2,0,0.3-0.1,0.3-0.3c0,0,0,0,0,0
			c-0.1-0.8-0.5-3.1-1.6-3.3C498.1,25.4,498.4,27,498.8,27.8L498.8,27.8z M500.5,21.7c0.3,0.5,0.2,1.1-0.3,1.4c0,0,0,0,0,0
			c-0.5,0.2-1.2-0.1-1.4-0.6c-0.3-0.5-0.2-1.1,0.3-1.4c0,0,0,0,0,0C499.7,20.9,500.3,21.1,500.5,21.7L500.5,21.7z"/>
		<path class="st13" d="M506.2,24.4c-0.4,0-0.4,0.1-0.3,0.5c0,1.5,1.4,5.5,0.5,7.1c-0.9,1.5-2.8,1-3.5-0.3c0-0.1-0.1-0.2,0-0.2
			c0.3,0,0.6,0.3,1,0.3c1.3,0,1.1-1.6,0.9-2.4c-0.3-1.3-1.1-4.4-0.7-5.1c0.4-0.7,1.3-0.8,2-0.4c0.1,0.1,0.2,0.2,0.3,0.3
			C506.3,24.2,506.3,24.4,506.2,24.4z"/>
		<path class="st13" d="M510.2,20.6c0.3,2,0.5,4,0.8,6c0.1,0.9,0.2,2,1.5,1.8v1.5c-0.9,0.1-1.9-0.2-2.6-0.8
			c-0.9-1.3-1.1-6.9-1.7-8.3c0-0.1-0.2-0.2-0.3-0.2s-0.1-0.1-0.1-0.2c0.1-0.2,0.3-0.4,0.5-0.5c0.4-0.5,1.2-0.5,1.6,0
			C510.1,20,510.2,20.3,510.2,20.6z"/>
		<path class="st13" d="M512.5,28.5c0.6,0,1-0.4,1.2-0.9c-0.1-0.9-0.8-3.1-0.4-3.7c0.7-1,2.5-0.2,2.2,0.2c-0.1,0.1-0.3,0.2-0.3,0.3
			c-0.2,0.8,0.2,2,0.3,2.9c0.1,0.8-0.2,1.6-0.9,2.1c-0.6,0.4-1.4,0.6-2.1,0.6L512.5,28.5z M514.8,31.5c0.3,0.5,0.2,1.1-0.2,1.4
			c0,0,0,0,0,0c-0.5,0.2-1.2-0.1-1.4-0.6c-0.3-0.5-0.2-1.1,0.3-1.4c0,0,0,0,0,0C514,30.7,514.6,31,514.8,31.5L514.8,31.5z"/>
		<path class="st13" d="M527.7,23.8c0.3,1.7-0.8,3-1.6,3.9c0.9,0.7,2.1,1,3.3,0.7v1.5c-1.9,0.2-3.2,0-4.3-1.3
			c-0.7,0.7-1.6,1.7-2,2.1c-0.2,0.2-0.1,0.3,0,0.3c2.2,0,5.1-0.2,6.4,1.8c0.5,0.7,0.5,1.7-0.1,2.4c-1.1,1-2.5,1.4-3.9,1.3
			c-2.1,0-4.5-1.2-5-3.4c0-0.4,0-0.8,0-1.2c0-0.1-0.1-0.2-0.2-0.2c-1.7-0.8-1.3-1.5-1.1-1.3c0.4,0.3,0.8,0.4,1.2,0.5
			c0.2,0,0.3,0,0.3-0.2c0.2-0.8,1.7-2.3,2.9-3.3c-1-0.8-2.2-1.4-3.5-1.8c-0.4-0.1-0.5-1.8,0.2-2.1c1.4-0.6,2.7-0.6,3.8-1.1
			c0.2-0.1,0.4-0.1,0.5-0.2C526,22,527.3,22.6,527.7,23.8C527.7,23.8,527.7,23.8,527.7,23.8z M522.3,24.7c1,0.5,1.9,1.1,2.7,1.9
			c0.7-0.6,0.9-1.6,0.5-2.4c-0.3-0.5-1-0.5-1.5-0.3C523.4,24.1,523,24.5,522.3,24.7z M522.6,32.1c-0.1,0.9,0.1,1.8,0.7,2.5
			c1.2,1,3.8,1.8,4.5-0.2c0.2-0.6-0.5-1.4-0.9-1.7c-1.2-0.7-2.6-0.9-4-0.7C522.8,31.9,522.6,32,522.6,32.1L522.6,32.1z"/>
		<path class="st13" d="M535.7,29.3L535.7,29.3L535.7,29.3c-1,0.9-2.6,0.9-3.5-0.1c-0.4-0.5-1.1,0.6-2.8,0.7v-1.5
			c0.8,0,1.1-0.4,0.9-1.1c-0.3-1.3,0-3.1,1.5-3.5c1-0.2,2.1,0,3,0.6C536.3,25.5,536.7,27.6,535.7,29.3L535.7,29.3z M532.4,25.3
			c-0.4,1-0.3,2.1,0.3,3c0.1,0.2,0.8,0.6,1,0.5c1.3-0.8,0.5-4-1-3.8C532.6,25,532.5,25.1,532.4,25.3L532.4,25.3z"/>
		<path class="st13" d="M549.8,29.9c-0.8,0.1-1.6-0.1-2.3-0.5c-1,0.9-2.5,0.8-3.5-0.1c-0.1-0.1-0.3,0-0.3,0.1
			c0.1,2.6-2.8,2.4-3.9,0.9c0-0.1,0-0.2,0.1-0.2c0,0,0,0,0,0c0.1,0,0.3,0,0.4,0.1c0.4,0.2,0.9,0.2,1.3-0.1c0.8-0.6,0.5-1.8,0.5-2.7
			c-0.1-1.3,0-3.1,1.5-3.5c1-0.2,2.1,0,3,0.6c1,0.7,1.6,1.9,1.6,3.2c0.3,0.6,1,0.9,1.7,0.8L549.8,29.9z M544.3,25.3
			c-0.4,1-0.3,2.1,0.3,3c0.1,0.2,0.8,0.6,1,0.5c1.3-0.7,0.5-4-1-3.8C544.4,25,544.3,25.1,544.3,25.3L544.3,25.3z"/>
		<path class="st13" d="M552.2,19.6c0,0,0.1,0.2,0,0.2S552,20,552,20.1c0.2,2.1,0.6,4,0.9,6c0.1,1.4,1.2,2.4,2.6,2.4v1.5
			c-1.6-0.1-2.3-0.4-2.8-1.1c-0.8,0.7-1.8,1.1-2.8,1.1v-1.5c0.5,0,1.7-0.4,1.4-1.2c0-0.3-0.1-0.5-0.2-0.7c-0.4-2-0.8-4-1.1-6
			c-0.1-0.6,0.3-1.2,0.9-1.4c0.3-0.1,0.6,0,0.8,0.1C551.9,19.3,552.1,19.4,552.2,19.6z"/>
		<path class="st13" d="M563.2,23.8c0.2,1.2-0.2,2.4-1.1,3.3l0,0c-0.2,0.2-0.4,0.4-0.5,0.6c0.9,0.7,2.1,1,3.2,0.8v1.5
			c-1.6,0.2-3.2-0.2-4.4-1.2c-1.6,0.7-3.3,1.1-5,1.2v-1.5c1.3-0.1,2.6-0.4,3.8-0.9c-1-0.8-2.2-1.4-3.5-1.7c-0.4-0.1-0.5-1.8,0.2-2.1
			c1.4-0.6,2.7-0.6,3.8-1.1l0.5-0.2C561.5,22,562.8,22.6,563.2,23.8C563.2,23.8,563.2,23.8,563.2,23.8z M557.8,24.7
			c1,0.5,1.9,1.2,2.6,2.1c0.8-0.6,1-1.6,0.7-2.5c-0.3-0.6-1-0.5-1.5-0.3C558.9,24.1,558.5,24.5,557.8,24.7z"/>
		<path class="st13" d="M566.3,20.7c0.3,0.5,0.2,1.1-0.3,1.4c0,0,0,0,0,0c-0.5,0.2-1.2-0.1-1.4-0.6c-0.3-0.5-0.2-1.1,0.3-1.4
			c0,0,0,0,0,0C565.5,19.9,566.1,20.2,566.3,20.7z M564.9,28.5c0.6,0,1-0.4,1.2-0.9c-0.1-0.9-0.8-3.1-0.4-3.7c0.7-1,2.5-0.2,2.2,0.2
			c-0.1,0.1-0.3,0.2-0.3,0.3c-0.2,0.8,0.2,2,0.3,2.9c0.1,0.8-0.2,1.6-0.9,2.1c-0.6,0.4-1.4,0.6-2.1,0.6L564.9,28.5z M568.5,20.7
			c0.3,0.5,0.2,1.1-0.3,1.4c0,0,0,0,0,0c-0.5,0.2-1.2-0.1-1.4-0.6c-0.3-0.5-0.2-1.1,0.3-1.4c0,0,0,0,0,0
			C567.6,19.9,568.2,20.2,568.5,20.7L568.5,20.7z"/>
	</g>
</g>
</svg>
