<?xml version="1.0" encoding="utf-8"?>
<!-- Generator: Adobe Illustrator 19.0.0, SVG Export Plug-In . SVG Version: 6.00 Build 0)  -->
<svg version="1.1" id="Layer_1" xmlns="http://www.w3.org/2000/svg" xmlns:xlink="http://www.w3.org/1999/xlink" x="0px" y="0px"
	 viewBox="-3 6.1 588.1 829.8" style="enable-background:new -3 6.1 588.1 829.8;" xml:space="preserve">
<style type="text/css">
	.st0{fill:#0778A5;}
	.st1{fill:#04A1C6;}
	.st2{fill:#FFFFFF;}
	.st3{fill:#FCE74F;}
	.st4{fill:#DDDDDD;}
	.st5{fill:#FCF059;}
	.st6{opacity:0.31;fill:#FFFFFF;enable-background:new    ;}
	.st7{fill:#896C4D;}
	.st8{fill:#F4F0ED;}
	.st9{fill:#010101;}
	.st10{fill:#DDBE05;}
	.st11{fill:none;stroke:#000000;stroke-miterlimit:10;}
	.st12{fill:#04A2C7;}
</style>
<title>Asset 12</title>
<g id="Layer_2">
	<g id="Layer_1-2">
		<g id="_Group_">
			<rect id="_Rectangle_" x="-3" y="33" class="st0" width="588.1" height="12.6"/>
			<polyline id="_Rectangle_2_1_" class="st1" points="585.1,8.6 585.1,40.6 -3,40.6 -3,8.6 			"/>
		</g>
		<rect id="_Rectangle_3" x="2.4" y="814.7" class="st1" width="582.8" height="15.5"/>
		<rect id="_Rectangle_4" x="2.4" y="814.7" class="st1" width="582.8" height="15.5"/>
		<rect id="_Rectangle_5" x="2.4" y="814.7" class="st1" width="582.8" height="15.5"/>
		<rect id="_Rectangle_6" x="2.4" y="814.7" class="st1" width="582.8" height="15.5"/>
		<g id="_Group_2">
			<rect id="_Rectangle_7" x="-3" y="809" class="st0" width="38.1" height="26.9"/>
			<path class="st2" d="M8.4,827.3c-0.4,0-0.8-0.1-1.2-0.3c-0.4-0.3-0.6-0.7-0.6-1.2c0.1-0.7,0.3-1.3,0.8-1.8
				c0.3-0.3,0.4-0.7,0.6-1.1c0-0.3-0.2-0.3-0.4-0.4s-0.7-0.2-0.7-1.1c0-0.1,0-0.2,0-0.2c0.4-1.4,1.3-2.7,2.7-3.4
				c0.1,0,0.1,0,0.1,0.1c0,0.3-0.1,0.6-0.3,0.9c-0.2,0.4-0.6,0.8-1,1c-0.3,0.2-0.5,0.3-0.5,0.5s0.3,0.4,0.5,0.5c0.4,0.2,1,0.3,1,1
				c-0.1,0.6-0.3,1.2-0.7,1.7c-0.3,0.4-0.6,0.8-0.7,1.3v0.1c0,0.5,0.4,0.7,1.1,0.7c0.4,0,0.8,0,1.3-0.1h0.1c0.2,0,0.2,0,0.2,0.1
				c0,0.1-0.1,0.2-0.1,0.3C9.9,827,9.4,827.3,8.4,827.3z"/>
			<path class="st2" d="M16.4,816.7c-0.1,0.3-3.4,9-4.2,10.4c-0.2,0.2-0.4,0.3-0.7,0.3c-0.1,0-0.1-0.1-0.1-0.1
				c1-2.1,3.8-9.4,4.2-10.5C15.8,816.7,16.1,816.6,16.4,816.7C16.3,816.6,16.4,816.6,16.4,816.7z"/>
			<path class="st2" d="M22.1,820.9c-0.5,0-0.9-0.3-1.1-0.7c-0.2,0.5-0.5,0.9-1.2,0.9l0,0c0.5,1.4,0.7,2.9,0.8,4.4
				c0,0.5-0.2,1.8-0.4,1.8s-0.1-0.1-0.1-0.3s-0.1-0.9-0.2-1.5c-0.2-1.2-0.5-2.3-1-3.4c-0.5-1.1-1.1-2-1.1-2.2s0.3-1.8,0.6-1.8
				c0,0,0.1,0,0.1,0.1c0.6,1.1,0.9,1.3,1.3,1.3l0,0c0.8,0,1.1-0.5,1.6-1.5c0-0.1,0.1-0.1,0.1-0.1c0.1,0,0.2,0.1,0.2,0.3
				c0,0.1,0,0.2,0,0.3c0,0.4,0.3,0.7,0.7,0.8c0,0,0,0,0.1,0h0.1c0.4,0,0.7-0.1,1-1.2c0-0.1,0.1-0.1,0.1-0.1s0.2,0.2,0.2,0.4l0,0
				C23.9,820,22.9,820.9,22.1,820.9z"/>
		</g>
		<g id="فاء">
			<path class="st3" d="M382.7,89.8c0,0-5.1-2.8-8.8,0.4c-6.1,8.2-14.3,23.4-14.3,23.4s-8.3,12.7-1.5,17c9.2,6.1,24.6,11,24.6,11
				s3,1.7,6.5-4.5c6.5-9,14.1-28.4,14.1-28.4s3.4-8.2,0.8-10.1C394.9,91.7,382.7,89.8,382.7,89.8z"/>
			<path class="st3" d="M479.4,250.8c-2.1,27.7-6.2,39.3-19.5,57.3c-36.5,55.2-229.6,64.2-280.8,50.1c-66.9-18.4-77.4-59.3-77.4-79
				c0-12.2,1.1-45.9,13.5-72.8c2.6-3,13.1-11.1,13.5,7.7c-1.9,7-18.9,46.8,15.8,79.7c64.3,45.4,272.2,23.3,312.5-27.7
				c0.1-5.6-1-10.6-3.5-17.3c-36.9,22.9-82.1,13.7-87.2-13c-6-31.2,34.5-88.4,52.9-88.4C463,147.4,485.6,228.4,479.4,250.8z
				 M410.1,197.6c-7,0-17.4,6.2-15.2,13.4c3.6,6.2,34.2,10.3,40.1,3.2C432,207.8,420.6,196.4,410.1,197.6z"/>
			<path class="st2" d="M368.9,269.8c-1.5,0.5-11.5,2.5-11.9-4.1c0.7-8.2,21.5-5.5,21.5-5.5s10.6,0.8,8.6,17.8
				c-2,17-18,21.7-20.4,16.7c0,0-11.8,0.5-8.7-8.5C350.1,283.5,362.2,271.6,368.9,269.8z"/>
			<path d="M368.9,269.8c-0.1,0.1-0.2,0.1-0.3,0.1l-0.2,0.1l-0.4,0.1c-0.3,0.1-0.6,0.1-0.9,0.2c-0.6,0.1-1.2,0.2-1.8,0.3
				c-1.2,0.2-2.5,0.2-3.7,0c-1.3-0.2-2.5-0.6-3.5-1.4c-1-0.9-1.6-2.1-1.6-3.5v-0.1c0.1-0.9,0.4-1.7,0.9-2.5c0.5-0.7,1.2-1.3,2-1.7
				c1.5-0.8,3.1-1.4,4.7-1.6c3.2-0.5,6.5-0.7,9.8-0.5c1.6,0.1,3.2,0.3,4.9,0.5c1.7,0.3,3.2,1.1,4.5,2.2c2.4,2.3,3.8,5.4,4.1,8.7
				c0.4,3.2,0.2,6.5-0.4,9.7c-0.6,3.2-1.9,6.3-3.7,9c-1.9,2.7-4.5,4.9-7.5,6.4c-1.5,0.7-3.2,1.2-4.9,1.3c-0.9,0-1.8-0.1-2.6-0.4
				c-0.9-0.3-1.7-1-2.1-1.8l0.6,0.4c-1.3,0-2.6-0.1-3.9-0.4c-1.3-0.2-2.6-0.7-3.7-1.5c-1.2-0.8-2-2-2.2-3.4c-0.2-1.4,0-2.7,0.5-4
				l0.4,0.7c-1.1-0.3-2-1.1-2.6-2.1c-0.4-1.1-0.4-2.3,0.1-3.3c0.8-1.9,2-3.6,3.5-5.1c1.4-1.4,3-2.7,4.6-3.9c0.8-0.6,1.7-1.1,2.6-1.5
				c0.5-0.2,0.9-0.4,1.4-0.6l0.7-0.3l0.4-0.1C368.6,269.7,368.8,269.7,368.9,269.8z M368.8,269.8c-0.1,0.1-0.2,0.1-0.3,0.2l-0.4,0.1
				l-0.7,0.3c-0.5,0.2-0.9,0.5-1.3,0.7c-0.9,0.5-1.7,1.1-2.5,1.7c-1.6,1.2-3.1,2.5-4.4,4c-1.3,1.4-2.4,3.1-3.1,4.9
				c-0.3,0.8-0.3,1.7,0,2.5c0.4,0.8,1.2,1.3,2,1.5l0.5,0.2l-0.2,0.5c-0.4,1.1-0.5,2.2-0.4,3.4c0.2,1.1,0.8,2,1.8,2.6
				c2,1.2,4.4,1.8,6.8,1.6h0.3l0.2,0.4c0.5,1.2,2.1,1.6,3.6,1.6c1.5-0.1,3.1-0.4,4.5-1.1c2.9-1.3,5.4-3.3,7.2-5.9
				c1.9-2.6,3.2-5.5,3.9-8.6c0.3-1.6,0.6-3.2,0.6-4.8c0.1-1.6,0.1-3.2-0.1-4.8c-0.2-1.6-0.6-3.1-1.3-4.6c-0.6-1.4-1.6-2.7-2.8-3.7
				c-1.2-1-2.7-1.6-4.2-1.9c-1.6-0.2-3.2-0.3-4.8-0.3c-3.2-0.2-6.4,0-9.5,0.5c-1.5,0.2-3,0.7-4.4,1.4c-1.4,0.7-2.3,1.9-2.5,3.4v-0.1
				c0,1.1,0.5,2.2,1.3,3c0.9,0.7,2,1.2,3.1,1.4c1.2,0.2,2.4,0.3,3.5,0.2C366.4,270.1,367.6,270,368.8,269.8L368.8,269.8z"/>
			<path class="st4" d="M368.9,269.8c0,0-17.9,13.8-7,16.3c-4.7,3,0.8,7.4,6.4,7.8c0.9,1.2,1,2.1,8.5,0.5c-7,3.8-9.7,1.2-9.8,0.2
				c-2.3,0.4-11.8-0.7-9-8.3C352.8,285.1,355.9,275.5,368.9,269.8z"/>
			<path class="st4" d="M371.2,260.2c0,0-22.8,0.5-2.4,9.6C352.5,273.1,353.3,258.3,371.2,260.2z"/>
			<path d="M358,286.1c1.3-0.2,2.6-0.4,3.8-0.6c1.2-0.2,2.4-0.5,3.6-0.9c2.4-1,4.5-2.4,6.2-4.3c0,0,0.1,0,0.1,0s0,0.1,0,0.1
				c-0.8,1-1.7,2-2.6,2.9c-1,0.9-2.1,1.6-3.3,2.2c-2.4,1.3-5.2,1.6-7.8,0.7C358,286.2,358,286.2,358,286.1
				C358,286.1,358,286.1,358,286.1z"/>
			<path d="M366.6,294.6c0.9-0.7,1.7-1.3,2.6-2s1.8-1.1,2.7-1.8c0.9-0.6,1.7-1.3,2.5-2c0.8-0.7,1.3-1.7,1.7-2.7c0,0,0,0,0.1,0
				c0,0,0,0,0,0c-0.2,1.1-0.6,2.2-1.3,3.1c-0.7,0.9-1.5,1.7-2.4,2.4c-0.8,0.8-1.7,1.4-2.7,1.9C368.9,294.1,367.8,294.4,366.6,294.6
				C366.6,294.6,366.6,294.6,366.6,294.6C366.6,294.6,366.6,294.6,366.6,294.6C366.6,294.6,366.6,294.6,366.6,294.6z"/>
			<path class="st5" d="M399.6,161.9c-1.7,15.5,12.2,24,25.4,24c12.3,0,22.3-9.9,22.3-22.3c0-0.6,0-1.2-0.1-1.7
				c0-4.6-9.3-12.1-23.8-12.1S399.6,158.7,399.6,161.9z"/>
			<path class="st6" d="M410.5,156.5c0,3.3,6.1,9.7,13.2,9.7s12.6-6.4,12.6-9.7s-5.8-6-12.9-6S410.5,153.2,410.5,156.5z"/>
			
				<ellipse transform="matrix(-0.9221 -0.3869 0.3869 -0.9221 687.6447 508.618)" class="st2" cx="395" cy="185.1" rx="8.1" ry="14.1"/>
			<path d="M387.4,181.9c1.1-2.8,2.7-5.3,4.7-7.6c1.1-1.1,2.3-2,3.8-2.6c1.5-0.7,3.2-0.7,4.7-0.1c1.4,0.7,2.5,2,3.1,3.5
				c0.5,1.4,0.8,2.9,0.8,4.4c0,3-0.6,6-1.6,8.8c-1,2.9-2.7,5.4-4.9,7.6c-1.1,1.1-2.4,2-3.8,2.6c-2.9,1.4-6.3,0.2-7.7-2.7
				c-0.1-0.2-0.2-0.4-0.3-0.7c-0.5-1.4-0.8-3-0.7-4.5C385.5,187.6,386.2,184.6,387.4,181.9z M387.5,181.9c-1.1,2.7-1.6,5.7-1.4,8.6
				c0.1,1.4,0.4,2.8,1,4.1c0.9,2.5,3.6,3.8,6.1,2.9c0.2-0.1,0.3-0.1,0.5-0.2c1.3-0.5,2.5-1.3,3.5-2.3c2.1-2,3.8-4.4,5-7
				c1.3-2.7,1.9-5.6,1.9-8.5c-0.1-1.5-0.4-2.9-1-4.2c-0.6-1.3-1.6-2.3-2.8-2.9c-1.3-0.4-2.7-0.4-4,0.1c-1.3,0.5-2.5,1.3-3.6,2.2
				C390.4,176.8,388.7,179.2,387.5,181.9L387.5,181.9z"/>
			
				<ellipse transform="matrix(-0.9221 -0.3869 0.3869 -0.9221 683.2047 509.4103)" class="st7" cx="392.9" cy="186" rx="5" ry="8.1"/>
			<ellipse transform="matrix(-0.9221 -0.3869 0.3869 -0.9221 682.9504 509.2493)" cx="392.7" cy="185.9" rx="1.9" ry="3.1"/>
			<circle class="st8" cx="396.2" cy="183.3" r="2.1"/>
			<circle class="st8" cx="390.5" cy="189.4" r="0.6"/>
			<path class="st9" d="M391.9,173.1c0,0,11.9-5.1,12.2,9.4C405.3,176.2,402.2,164.6,391.9,173.1z"/>
			<path d="M406.6,224.2c0,0,2.4,1.4,2,2.3c-10.8,7.2-32.5,9.3-41.2,9c-0.1,0.5-0.1,1.1-0.2,1.6c26.6,0,40.4-9.4,41.1-9.8
				c1-0.7,1.4,0.8,1.4,3.1C411.2,224.8,406.6,224.2,406.6,224.2z"/>
			<path class="st10" d="M289.1,344.2c-178.8,0-180.8-39.5-180.8-39.5s13.2,70.2,180.8,59.5c184-11.4,188.1-88.9,188.1-94.7
				C472.4,278.5,453.3,334.8,289.1,344.2z"/>
		</g>
		<path class="st11" d="M382.7,482.8c0,0-5.1-2.8-8.8,0.4c-6.1,8.2-14.3,23.4-14.3,23.4s-8.3,12.7-1.5,17c9.2,6.2,24.6,11,24.6,11
			s3,1.7,6.5-4.5c6.5-9,14.1-28.4,14.1-28.4s3.4-8.2,0.8-10.1C394.9,484.7,382.7,482.8,382.7,482.8z"/>
		<path class="st11" d="M479.4,643.8c-2.1,27.7-6.2,39.3-19.5,57.3c-36.5,55.2-229.6,64.2-280.8,50.1c-66.9-18.4-77.4-59.3-77.4-79
			c0-12.2,1.1-45.9,13.5-72.8c2.6-3,13.1-11.1,13.5,7.7c-1.9,7-18.9,46.8,15.8,79.7c64.3,45.4,272.2,23.3,312.5-27.7
			c0.1-5.6-1-10.6-3.5-17.3c-36.9,22.9-82.1,13.7-87.2-13c-6-31.2,34.5-88.4,52.9-88.4C463,540.4,485.6,621.4,479.4,643.8z
			 M410.1,590.6c-7,0-17.4,6.2-15.2,13.4c3.6,6.2,34.2,10.3,40.1,3.2C432,600.7,420.6,589.3,410.1,590.6L410.1,590.6z"/>
		<path class="st2" d="M368.9,662.7c-1.5,0.5-11.5,2.5-11.9-4.1c0.7-8.2,21.5-5.5,21.5-5.5s10.6,0.8,8.6,17.8s-18,21.7-20.4,16.7
			c0,0-11.8,0.5-8.7-8.5C350.1,676.4,362.2,664.5,368.9,662.7z"/>
		<path d="M368.9,662.7c-0.1,0.1-0.2,0.1-0.3,0.2l-0.2,0.1l-0.4,0.2c-0.3,0.1-0.6,0.2-0.9,0.2c-0.6,0.1-1.2,0.2-1.8,0.3
			c-1.2,0.2-2.5,0.2-3.7,0c-1.3-0.2-2.5-0.6-3.5-1.4c-1-0.9-1.6-2.1-1.6-3.5v-0.1c0.1-0.9,0.4-1.7,0.9-2.5c0.5-0.7,1.2-1.3,2-1.7
			c1.5-0.8,3.1-1.4,4.7-1.6c3.2-0.5,6.5-0.7,9.8-0.5c1.6,0.1,3.2,0.3,4.9,0.5c1.7,0.3,3.2,1.1,4.5,2.2c2.4,2.3,3.8,5.4,4.1,8.7
			c0.4,3.2,0.2,6.5-0.4,9.7c-0.6,3.2-1.9,6.3-3.7,9c-1.9,2.7-4.5,4.9-7.5,6.4c-1.5,0.7-3.2,1.2-4.9,1.3c-0.9,0-1.8-0.1-2.6-0.4
			c-0.9-0.3-1.7-1-2.1-1.8l0.6,0.3c-1.3,0-2.6-0.1-3.9-0.4c-1.3-0.2-2.6-0.7-3.7-1.5c-1.2-0.8-2-2-2.2-3.4c-0.2-1.4,0-2.7,0.5-4
			l0.4,0.7c-1.1-0.3-2-1.1-2.6-2.1c-0.4-1.1-0.4-2.3,0.1-3.3c0.8-1.9,2-3.6,3.5-5.1c1.4-1.4,3-2.7,4.6-3.9c0.8-0.6,1.7-1.1,2.6-1.5
			c0.5-0.2,0.9-0.4,1.4-0.6l0.7-0.3l0.4-0.1C368.6,662.7,368.8,662.7,368.9,662.7z M368.8,662.7c-0.1,0.1-0.2,0.1-0.3,0.2l-0.4,0.1
			l-0.7,0.3c-0.5,0.2-0.9,0.5-1.3,0.7c-0.9,0.5-1.7,1.1-2.5,1.7c-1.6,1.2-3.1,2.5-4.4,4c-1.3,1.4-2.4,3.1-3.1,4.9
			c-0.3,0.8-0.3,1.7,0,2.5c0.4,0.8,1.2,1.3,2,1.5l0.5,0.2l-0.2,0.5c-0.4,1.1-0.5,2.2-0.4,3.4c0.2,1.1,0.8,2,1.8,2.6
			c2,1.2,4.4,1.8,6.8,1.6h0.3l0.2,0.3c0.5,1.2,2.1,1.6,3.6,1.6c1.5-0.1,3.1-0.4,4.5-1.1c2.9-1.3,5.4-3.3,7.2-5.9
			c1.9-2.6,3.2-5.5,3.9-8.6c0.3-1.6,0.6-3.2,0.6-4.8c0.1-1.6,0.1-3.2-0.1-4.8c-0.2-1.6-0.6-3.1-1.3-4.6c-0.6-1.4-1.6-2.7-2.8-3.7
			c-1.2-1-2.7-1.6-4.2-1.9c-1.6-0.2-3.2-0.3-4.8-0.3c-3.2-0.2-6.4,0-9.5,0.5c-1.5,0.2-3,0.7-4.4,1.4c-1.4,0.7-2.3,1.9-2.5,3.4v-0.1
			c0,1.1,0.5,2.2,1.3,3c0.9,0.7,2,1.2,3.1,1.4c1.2,0.2,2.4,0.3,3.5,0.2C366.4,663.1,367.6,662.9,368.8,662.7L368.8,662.7z"/>
		<path class="st4" d="M368.9,662.7c0,0-17.9,13.8-7,16.3c-4.7,3,0.8,7.4,6.4,7.8c0.9,1.2,1,2.1,8.5,0.5c-7,3.8-9.7,1.2-9.8,0.2
			c-2.3,0.4-11.8-0.7-9-8.3C352.8,678.1,355.9,668.5,368.9,662.7z"/>
		<path class="st4" d="M371.2,653.1c0,0-22.8,0.5-2.4,9.6C352.5,666.1,353.3,651.2,371.2,653.1z"/>
		<path d="M358,679.1c1.3-0.2,2.6-0.4,3.8-0.6c1.2-0.2,2.4-0.5,3.6-0.9c2.4-1,4.5-2.4,6.2-4.3c0,0,0.1,0,0.1,0c0,0,0,0.1,0,0.1
			c-0.8,1-1.7,2-2.6,2.9c-1,0.9-2.1,1.6-3.3,2.2c-2.4,1.3-5.2,1.6-7.8,0.7C358,679.1,358,679.1,358,679.1
			C358,679.1,358,679.1,358,679.1z"/>
		<path d="M366.6,687.5c0.9-0.7,1.7-1.3,2.6-2s1.8-1.2,2.7-1.8c0.9-0.6,1.7-1.3,2.5-2c0.8-0.7,1.3-1.7,1.7-2.7c0,0,0,0,0.1,0
			c0,0,0,0,0,0c-0.2,1.1-0.6,2.2-1.3,3.1c-0.7,0.9-1.5,1.7-2.4,2.4c-0.8,0.8-1.7,1.4-2.7,1.9C368.9,687,367.8,687.3,366.6,687.5
			C366.6,687.5,366.6,687.5,366.6,687.5C366.6,687.5,366.6,687.5,366.6,687.5C366.6,687.5,366.6,687.5,366.6,687.5z"/>
		
			<ellipse transform="matrix(-0.9221 -0.3869 0.3869 -0.9221 535.5978 1263.8947)" class="st2" cx="395" cy="578" rx="8.1" ry="14.1"/>
		<path d="M387.4,574.8c1.1-2.8,2.7-5.3,4.7-7.5c1.1-1.1,2.3-2,3.8-2.6c1.5-0.7,3.2-0.7,4.7-0.1c1.4,0.7,2.5,2,3.1,3.5
			c0.5,1.4,0.8,2.9,0.8,4.5c0,3-0.6,6-1.6,8.8c-1,2.9-2.7,5.4-4.9,7.6c-1.1,1.1-2.4,2-3.8,2.6c-2.9,1.4-6.3,0.2-7.7-2.7
			c-0.1-0.2-0.2-0.4-0.3-0.7c-0.5-1.4-0.8-3-0.7-4.5C385.5,580.5,386.2,577.6,387.4,574.8z M387.5,574.8c-1.1,2.7-1.6,5.7-1.4,8.6
			c0.1,1.4,0.4,2.8,1,4.1c0.9,2.5,3.6,3.8,6.1,2.9c0.2-0.1,0.3-0.1,0.5-0.2c1.3-0.5,2.5-1.3,3.5-2.3c2.1-2,3.8-4.4,5-7
			c1.3-2.7,1.9-5.6,1.9-8.5c-0.1-1.5-0.4-2.9-1-4.2c-0.6-1.3-1.6-2.3-2.8-2.8c-1.3-0.4-2.7-0.4-4,0.1c-1.3,0.5-2.5,1.3-3.6,2.2
			C390.4,569.7,388.7,572.1,387.5,574.8L387.5,574.8z"/>
		
			<ellipse transform="matrix(-0.9221 -0.3869 0.3869 -0.9221 531.1732 1264.7101)" class="st7" cx="392.9" cy="578.9" rx="5" ry="8.1"/>
		<ellipse transform="matrix(-0.9221 -0.3869 0.3869 -0.9221 530.9189 1264.549)" cx="392.7" cy="578.8" rx="1.9" ry="3.1"/>
		<circle class="st8" cx="396.2" cy="576.3" r="2"/>
		<circle class="st8" cx="390.5" cy="582.4" r="0.6"/>
		<path class="st9" d="M391.9,566c0,0,11.9-5.1,12.2,9.4C405.3,569.1,402.2,557.5,391.9,566z"/>
		<path d="M406.6,617.1c0,0,2.4,1.4,2,2.3c-10.8,7.2-32.5,9.3-41.2,9c-0.1,0.5-0.1,1.1-0.2,1.6c26.6,0,40.4-9.4,41.1-9.8
			c1-0.7,1.4,0.8,1.4,3.1C411.2,617.8,406.6,617.1,406.6,617.1z"/>
		<path class="st2" d="M259.9,17.5l2,1.2c-2.6,4.7-2.6,10.4,0,15.2l-2,1.2c-1.7-2.6-2.6-5.7-2.7-8.8
			C257.3,23.2,258.2,20.2,259.9,17.5z"/>
		<path class="st2" d="M270.8,24.1c0.6,0,1.2,0.2,1.7,0.6c0.5,0.4,0.9,1,1.2,1.6c0.3,0.7,0.5,1.4,0.7,2.1c0.2,0.8,0.2,1.5,0.2,2.3
			c0,3.7-1.6,5.5-4.7,5.5c-0.8,0-1.6-0.2-2.3-0.5l-0.4-2.3l0.1-0.1c0.9,0.3,1.9,0.4,2.8,0.4c0.5,0,1.1-0.1,1.5-0.3
			c0.4-0.3,0.6-0.7,0.7-1.1c-2.1-0.1-4.1-1.1-5.5-2.7c0.2-1.4,0.8-2.8,1.6-4C268.9,24.7,269.8,24.1,270.8,24.1z M270.6,26.8
			c-0.3,0-0.6,0.2-0.8,0.4c-0.3,0.4-0.5,0.8-0.7,1.2c1,0.7,2.1,1.1,3.3,1.2c-0.1-0.7-0.3-1.5-0.7-2.1
			C271.5,27.1,271.1,26.8,270.6,26.8L270.6,26.8z"/>
		<path class="st2" d="M279.6,27.3h4.4v2h-4.4L279.6,27.3z"/>
		<path class="st2" d="M300.4,22.1c0.8,0,1.5,0.3,2,0.9c0.6,0.6,1,1.3,1.2,2.1c0.3,0.8,0.4,1.7,0.4,2.6c0,1.6-0.2,3.1-0.6,4.7h-9.6
			c-1.3,0.1-2.6-0.3-3.6-1.2c-0.9-0.9-1.3-2-1.2-3.3c0-0.8,0.2-1.5,0.4-2.2l1.8-0.4l0.2,0.2c-0.2,0.6-0.3,1.2-0.3,1.9
			c-0.1,0.7,0.2,1.3,0.7,1.7c0.8,0.4,1.6,0.6,2.5,0.6h7.5v-0.3c-1,0-1.9-0.2-2.9-0.4c-0.8-0.3-1.6-0.7-2.3-1.2
			c0.2-1.4,0.7-2.8,1.5-3.9C298.5,22.7,299.4,22.2,300.4,22.1z M300,21.3l-1.5-1.8l1.9-1.6l1.5,1.8L300,21.3z M300.2,24.8
			c-0.3,0-0.6,0.2-0.8,0.4c-0.3,0.3-0.5,0.8-0.6,1.2c0.9,0.4,2,0.6,3,0.6c-0.1-0.6-0.3-1.1-0.6-1.6
			C300.9,25.1,300.6,24.9,300.2,24.8L300.2,24.8z"/>
		<path class="st2" d="M308.8,27.3h6.8v2h-6.8V27.3z"/>
		<path class="st2" d="M325.8,24.7c0.8,0,1.5,0.4,1.9,1.1c0.5,0.8,0.8,1.8,0.8,2.7c0,0.9-0.2,1.7-0.6,2.5l-1.7,1.7l-3.7-1.5
			l-0.1,0.2l1.6,4.5l-2.1,0.9h-0.1l-1.7-5.2l0.6-1.3c0.1-0.3,0.4-0.8,0.6-1.3c0.3-0.5,0.5-1,0.7-1.3c0.2-0.3,0.5-0.7,0.8-1.1
			c0.3-0.4,0.6-0.7,0.9-1c0.3-0.2,0.6-0.4,1-0.6C325.1,24.7,325.4,24.7,325.8,24.7z M325.3,27.4c-0.3,0-0.6,0.2-0.8,0.4
			c-0.4,0.4-0.7,0.9-0.9,1.4l2.5,1c0.1-0.4,0.2-0.9,0.2-1.3c0-0.4-0.1-0.8-0.3-1.1C325.8,27.5,325.5,27.4,325.3,27.4L325.3,27.4z"/>
		<path class="st2" d="M333.6,27.3h6.8v2h-6.8V27.3z"/>
		<path class="st2" d="M358.5,24.7v7.6h-8.3c-1.3,0.1-2.6-0.3-3.6-1.2c-0.9-0.9-1.3-2.1-1.3-3.3c0-0.8,0.2-1.5,0.4-2.2l1.8-0.4
			l0.2,0.2c-0.2,0.6-0.3,1.2-0.3,1.9c-0.1,0.7,0.2,1.3,0.7,1.7c0.8,0.4,1.6,0.6,2.5,0.6h5.4v-4.8H358.5z M352.5,33.1l1.5,1.8
			l-1.9,1.6l-1.6-1.8L352.5,33.1z"/>
		<path class="st2" d="M365.7,35.1l-2-1.2c2.6-4.7,2.6-10.4,0-15.1l2-1.2c1.7,2.6,2.6,5.6,2.7,8.7C368.3,29.5,367.4,32.5,365.7,35.1
			z"/>
		<path class="st2" d="M385.5,35.9l-4.5,1.7v-1.1l4.4-1.7L385.5,35.9z"/>
		<path class="st2" d="M386.7,29.6l0.3,2.3c-1,0.3-2.1,0.4-3.1,0.4h-3.4v-2.4h1.4c-0.3-0.5-0.5-1-0.6-1.6c0-0.3,0-0.7,0.1-1
			c0-0.2,0.1-0.5,0.2-0.7c0.1-0.2,0.2-0.4,0.4-0.7c0.7-0.5,1.6-0.7,2.5-0.7c0.6,0,1.3,0.1,1.9,0.3v2.2l-0.1,0.1
			c-0.7-0.1-1.3-0.2-2-0.2c-0.3,0-0.6,0-0.9,0.1c0,0.1,0,0.2,0,0.3c0,0.6,0.2,1.3,0.6,1.8C384.8,29.8,385.8,29.8,386.7,29.6z"/>
		<path class="st2" d="M393.1,29.7v2.3l-0.2,0.2h-3.8V19.5h2.4v10h1.4L393.1,29.7z"/>
		<path class="st2" d="M399.6,19.1l-4.4,1.7v-1.1l4.4-1.7V19.1z"/>
		<path class="st2" d="M403.6,29.7v2.4l-0.2,0.1h-0.3c-1.1,0-2.1-0.5-2.6-1.5c-1.9,1-4,1.5-6.1,1.5h-1.6l-0.3-0.3v-2l0.3-0.3h2.1
			c0.9,0,1.8-0.1,2.6-0.2c0.7-0.2,1.4-0.4,2.1-0.8c-0.7-0.4-1.4-0.8-2.1-1.1c-0.6-0.2-1.1-0.2-1.7-0.2c-0.6,0-1.3,0.1-1.9,0.3
			l-0.2-0.1v-2.4c0.7-0.4,1.5-0.6,2.3-0.6c0.9,0,1.8,0.3,2.6,0.8c1.3,0.8,2.5,1.7,3.6,2.8l-0.4,1.3c0.3,0.1,0.5,0.2,0.8,0.1h0.6
			L403.6,29.7z M399.1,32.7l1.5,1.8l-1.9,1.6l-1.5-1.8L399.1,32.7z"/>
		<path class="st2" d="M410.7,35.9l-4.4,1.7v-1.1l4.4-1.7V35.9z"/>
		<path class="st2" d="M416.5,29.7v2.4l-0.2,0.2h-0.1c-0.8-0.1-1.5-0.6-2.1-1.2c-0.2,0.6-0.5,1.1-0.8,1.7c-1.8-0.3-3.5-0.8-5.1-1.6
			c-0.7,0.4-1.4,0.7-2.2,0.9c-0.8,0.1-1.6,0.2-2.4,0.2h-0.3l-0.2-0.2v-2.2l0.2-0.2h2.5c-0.6-0.5-1.1-1.1-1.5-1.7
			c0.3-0.3,0.6-0.7,0.9-1l-0.9,0.2l-0.2-0.1v-2.2c1.5-0.3,2.9-0.5,4.4-0.5c1.6-0.1,3.2,0.4,4.5,1.3c1,0.9,1.6,2.1,1.5,3.4
			c0,0.1,0,0.3,0,0.4c0.5,0.2,1.1,0.3,1.6,0.3h0.1L416.5,29.7z M409.3,27.8c0-0.3-0.1-0.7-0.3-0.9c-0.2-0.3-0.6-0.4-0.9-0.4
			c-0.6,0.1-1.1,0.4-1.4,0.9c0.4,0.7,1.1,1.3,1.9,1.7C408.9,28.8,409.2,28.3,409.3,27.8L409.3,27.8z M412.5,29.2
			c0-0.5-0.1-0.9-0.4-1.4c-0.2-0.4-0.6-0.8-1-1c0.2,0.3,0.3,0.6,0.3,0.9c0,0.8-0.4,1.6-1,2.1c0.6,0.2,1.3,0.4,1.9,0.5
			C412.4,29.9,412.5,29.6,412.5,29.2L412.5,29.2z"/>
		<path class="st2" d="M418.6,17.9c-0.3,0-0.6-0.1-0.8-0.3c-0.2-0.2-0.4-0.5-0.4-0.8c0-0.5,0.2-1,0.6-1.4c0.4-0.5,0.7-0.7,0.9-0.7
			c0.4,0,0.7,0.2,0.9,0.5c0.3,0.3,0.4,0.7,0.5,1.1c0,0.4-0.2,0.8-0.5,1.1C419.4,17.7,419,17.9,418.6,17.9z M419.3,16.5
			c0-0.1-0.1-0.3-0.2-0.4c-0.1-0.1-0.2-0.2-0.4-0.2c0,0-0.1,0-0.1,0.1c-0.1,0.1-0.1,0.1-0.1,0.2c0,0.1-0.1,0.2-0.1,0.3
			c0,0.2,0.1,0.2,0.4,0.2C419.1,16.7,419.3,16.6,419.3,16.5L419.3,16.5z"/>
		<path class="st2" d="M420.6,19.5v12.8h-4.3l-0.2-0.2v-2.3l0.2-0.2h1.8v-10L420.6,19.5z"/>
		<path class="st2" d="M425.2,32.2h-2.4V19.5h2.4V32.2z"/>
		<path class="st2" d="M440.6,12.4c0.3-0.4,0.6-0.6,1.1-0.6c0.3,0,0.7,0.2,0.8,0.5c0.2,0.3,0.3,0.7,0.3,1.1c0,0.7-0.4,1.4-1,1.8
			c-0.8,0.6-1.7,0.9-2.7,1l-0.4-1.1l0.1-0.1c0.8,0,1.6-0.2,2.3-0.5c-0.3,0-0.6-0.1-0.8-0.3c-0.2-0.1-0.3-0.3-0.3-0.6
			C440,13.2,440.3,12.7,440.6,12.4z M441,13.4c0,0.1,0,0.1,0.1,0.1c0.1,0.1,0.2,0.1,0.3,0.1c0.2,0,0.3,0,0.5,0c0-0.1,0-0.1,0-0.2
			c0-0.1,0-0.3-0.1-0.4c-0.1-0.1-0.1-0.2-0.2-0.2c-0.1,0-0.3,0.1-0.4,0.2C441.1,13.2,441,13.3,441,13.4L441,13.4z"/>
		<path class="st2" d="M441.5,22.1c0.8,0,1.5,0.3,2,0.9c0.6,0.6,1,1.3,1.2,2.1c0.3,0.8,0.4,1.7,0.4,2.6c0,1.6-0.2,3.1-0.6,4.6H435
			c-1.3,0.1-2.6-0.4-3.5-1.2c-0.9-0.9-1.3-2.1-1.2-3.3c0-0.8,0.2-1.5,0.4-2.2l1.8-0.4l0.2,0.2c-0.2,0.6-0.3,1.2-0.3,1.9
			c-0.1,0.7,0.2,1.3,0.7,1.8c0.8,0.4,1.6,0.6,2.5,0.5h7.5v-0.3c-1,0-1.9-0.2-2.9-0.4c-0.8-0.3-1.6-0.7-2.3-1.2
			c0.2-1.4,0.7-2.7,1.4-3.9C439.7,22.8,440.5,22.2,441.5,22.1z M441.2,21.3l-1.5-1.8l1.9-1.6l1.5,1.8L441.2,21.3z M441.3,24.9
			c-0.3,0-0.6,0.2-0.8,0.4c-0.3,0.3-0.5,0.8-0.6,1.2c0.9,0.4,2,0.6,3,0.6c-0.1-0.6-0.3-1.1-0.6-1.6
			C442.1,25.1,441.7,24.9,441.3,24.9L441.3,24.9z"/>
		<path class="st2" d="M450.3,24.1c0.6,0,1.2,0.2,1.7,0.6c0.5,0.4,0.9,1,1.2,1.6c0.3,0.7,0.5,1.4,0.7,2.1c0.2,0.8,0.2,1.5,0.2,2.3
			c0,3.7-1.6,5.5-4.7,5.5c-0.8,0-1.6-0.2-2.3-0.5l-0.4-2.3l0.1-0.1c0.9,0.3,1.9,0.4,2.8,0.4c0.5,0,1-0.1,1.5-0.3
			c0.4-0.2,0.6-0.6,0.7-1.1c-2.1-0.1-4.1-1.1-5.5-2.6c0.2-1.4,0.8-2.7,1.5-3.9C448.4,24.7,449.3,24.1,450.3,24.1z M450.1,26.8
			c-0.3,0-0.6,0.2-0.8,0.4c-0.3,0.4-0.5,0.8-0.7,1.2c1,0.7,2.1,1.1,3.3,1.2c-0.1-0.7-0.3-1.4-0.7-2.1
			C451,27.1,450.6,26.9,450.1,26.8L450.1,26.8z"/>
		<path class="st2" d="M457.7,18.5c0.3-0.4,0.6-0.6,1.1-0.6c0.3,0,0.7,0.2,0.8,0.5c0.2,0.3,0.3,0.7,0.3,1c0,0.7-0.4,1.4-1,1.8
			c-0.8,0.6-1.7,0.9-2.7,1l-0.4-1.1l0.1-0.1c0.8,0,1.6-0.2,2.3-0.5c-0.3,0-0.6-0.1-0.8-0.3c-0.2-0.1-0.3-0.3-0.3-0.6
			C457.1,19.2,457.3,18.8,457.7,18.5z M458.1,19.5c0,0.1,0,0.1,0.1,0.1c0.1,0.1,0.2,0.1,0.3,0.1c0.2,0,0.3,0,0.5,0
			c0-0.1,0-0.1,0-0.2c0-0.1,0-0.3-0.1-0.4c-0.1-0.1-0.1-0.2-0.2-0.2c-0.1,0-0.3,0.1-0.4,0.2C458.1,19.2,458.1,19.4,458.1,19.5
			L458.1,19.5z"/>
		<path class="st2" d="M461.7,29.7v2.4l-0.2,0.2h-0.1c-0.6-0.1-1.3-0.4-1.7-0.8c0.1,1.2-0.3,2.4-1,3.5c-0.7,0.8-1.7,1.3-2.8,1.2
			c-0.5,0-1-0.1-1.5-0.3l-0.4-2.3l0.1-0.1c0.6,0.2,1.2,0.2,1.8,0.2c1,0,1.4-0.6,1.4-1.8v-6.5h2.4v4c0.5,0.2,1.1,0.3,1.7,0.3h0.1
			L461.7,29.7z"/>
		<path class="st2" d="M466,17.1c0.3-0.4,0.6-0.6,1.1-0.6c0.3,0,0.7,0.2,0.8,0.5c0.2,0.3,0.3,0.7,0.3,1c0,0.7-0.4,1.4-1,1.8
			c-0.8,0.6-1.7,0.9-2.7,1l-0.4-1.1l0.1-0.1c0.8,0,1.6-0.2,2.3-0.5c-0.3,0-0.6-0.1-0.8-0.3c-0.2-0.1-0.3-0.3-0.3-0.6
			C465.4,17.9,465.6,17.4,466,17.1z M466.4,18.1c0,0.1,0,0.1,0.1,0.1c0.1,0.1,0.2,0.1,0.3,0.1c0.2,0,0.3,0,0.5,0c0-0.1,0-0.1,0-0.2
			c0-0.1,0-0.3-0.1-0.4c-0.1-0.1-0.1-0.2-0.2-0.2c-0.1,0-0.3,0.1-0.4,0.2C466.5,17.9,466.4,18,466.4,18.1L466.4,18.1z"/>
		<path class="st2" d="M464.8,24.5c0.9,0,1.8,0.3,2.6,0.8c1.3,0.8,2.5,1.7,3.7,2.8l-0.6,2c-1.1,0.7-2.3,1.2-3.5,1.6
			c-1.2,0.4-2.5,0.6-3.8,0.6h-1.6l-0.3-0.3v-2.1l0.3-0.3h2.1c0.9,0,1.8-0.1,2.6-0.2c0.7-0.2,1.4-0.4,2.1-0.8
			c-0.7-0.4-1.4-0.8-2.1-1.1c-0.6-0.2-1.1-0.2-1.7-0.2c-0.6,0-1.3,0.1-1.9,0.3l-0.2-0.1v-2.4C463.2,24.7,464,24.5,464.8,24.5z"/>
		<g id="_Group_3">
			<g id="_Rectangle_8">
				<path class="st2" d="M493.4,6.6h74.8c2.1,0,3.8,1.7,3.8,3.8v33.5c0,2.1-1.7,3.8-3.8,3.8h-74.8c-2.1,0-3.8-1.7-3.8-3.8V10.3
					C489.7,8.3,491.4,6.6,493.4,6.6z"/>
				<path class="st12" d="M568.2,47.6l-15,0.1l-15,0.2c-10,0.1-20,0.2-30,0.1l-15-0.2c-1.4-0.1-2.6-0.9-3.2-2.1
					c-0.3-0.6-0.5-1.2-0.5-1.9v-1.9v-7.5c0-5,0-10,0-15v-7.5c0-0.6,0-1.2,0-1.9c0-0.7,0.3-1.3,0.6-1.9c0.7-1.1,2-1.8,3.3-1.9
					c20-0.2,40-0.3,60-0.2c5,0,10,0,15,0c1.4,0.1,2.7,0.9,3.4,2.2c0.3,0.6,0.5,1.3,0.5,2v1.9l-0.1,7.5l-0.2,15l0,7.5
					c0,0.6,0,1.3,0,1.9c0,0.6-0.3,1.3-0.6,1.8C570.7,47,569.5,47.6,568.2,47.6z M568.2,47.5c1.3,0,2.4-0.7,3.1-1.7
					c0.3-0.5,0.5-1.1,0.6-1.7c0-0.6,0-1.3,0-1.9l0-7.5l-0.2-15l-0.1-7.5v-1.9c0-0.6-0.2-1.1-0.4-1.6c-0.5-1-1.6-1.6-2.7-1.7h-15
					c-20,0-40-0.1-60-0.2c-1.2,0-2.3,0.6-3,1.6c-0.3,0.5-0.5,1.1-0.5,1.7c0,0.6,0,1.2,0,1.9v7.5c0,5,0,10,0,15v7.5v1.9
					c0,0.6,0.2,1.2,0.5,1.7c0.6,1,1.6,1.7,2.8,1.8l15-0.1c10,0,20,0,30,0.1l15,0.2L568.2,47.5z"/>
			</g>
		</g>
		<path class="st12" d="M499.3,24.1c2,0.2,3.3,2.3,3.5,4.1c0.2,1.2-0.1,2.5-0.9,3.5c-2.1,2.4-9.3,1.4-8.9-2.6c0.2-1,0.8-2,1.6-2.6
			c0.5-0.4,0.4,0.3,0.3,0.6c-0.1,0.5-0.1,1.1,0,1.6c0.2,1.9,2,3.3,3.9,3.1c0.4,0,0.8-0.2,1.2-0.3c0.5-0.3,0.9-0.9,0.9-1.5
			c0-0.1-0.1-0.2-0.2-0.2c-1.3,0.2-3.3-0.3-3.8-1.7c-0.5-1.6-0.1-3.5,1.8-4C498.9,24,499.1,24,499.3,24.1z M498.3,21.7
			c0.3,0.5,0.2,1.1-0.3,1.4c0,0,0,0,0,0c-0.5,0.2-1.2-0.1-1.4-0.6c-0.3-0.5-0.2-1.1,0.3-1.4c0,0,0.1,0,0.1,0
			C497.5,20.9,498.1,21.1,498.3,21.7L498.3,21.7z M498.8,27.8c0.4,0.5,1,0.9,1.7,0.9c0.2,0,0.3-0.1,0.3-0.3c0,0,0,0,0,0
			c-0.1-0.8-0.5-3.1-1.6-3.3C498.1,25.4,498.4,27,498.8,27.8L498.8,27.8z M500.5,21.7c0.3,0.5,0.2,1.1-0.3,1.4c0,0,0,0,0,0
			c-0.5,0.2-1.2-0.1-1.4-0.6c-0.3-0.5-0.2-1.1,0.3-1.4c0,0,0,0,0,0C499.7,20.9,500.3,21.1,500.5,21.7L500.5,21.7z"/>
		<path class="st12" d="M506.2,24.4c-0.4,0-0.4,0.1-0.3,0.5c0,1.5,1.4,5.5,0.5,7.1c-0.9,1.5-2.8,1-3.5-0.3c0-0.1-0.1-0.2,0-0.2
			c0.3,0,0.6,0.3,1,0.3c1.3,0,1.1-1.6,0.9-2.4c-0.3-1.3-1.1-4.4-0.7-5.1c0.4-0.7,1.3-0.8,2-0.4c0.1,0.1,0.2,0.2,0.3,0.3
			C506.3,24.2,506.3,24.4,506.2,24.4z"/>
		<path class="st12" d="M510.2,20.6c0.3,2,0.5,4,0.8,6c0.1,0.9,0.2,2,1.5,1.8v1.5c-0.9,0.1-1.9-0.2-2.6-0.8
			c-0.9-1.3-1.1-6.9-1.7-8.3c0-0.1-0.2-0.2-0.3-0.2s-0.1-0.1-0.1-0.2c0.1-0.2,0.3-0.4,0.5-0.5c0.4-0.5,1.2-0.5,1.6,0
			C510.1,20,510.2,20.3,510.2,20.6z"/>
		<path class="st12" d="M512.5,28.5c0.6,0,1-0.4,1.2-0.9c-0.1-0.9-0.8-3.1-0.4-3.7c0.7-1,2.5-0.2,2.2,0.2c-0.1,0.1-0.3,0.2-0.3,0.3
			c-0.2,0.8,0.2,2,0.3,2.9c0.1,0.8-0.2,1.6-0.9,2.1c-0.6,0.4-1.4,0.6-2.1,0.6L512.5,28.5z M514.8,31.5c0.3,0.5,0.2,1.1-0.2,1.4
			c0,0,0,0,0,0c-0.5,0.2-1.2-0.1-1.4-0.6c-0.3-0.5-0.2-1.1,0.3-1.4c0,0,0,0,0,0C514,30.7,514.6,31,514.8,31.5L514.8,31.5z"/>
		<path class="st12" d="M527.7,23.8c0.3,1.7-0.8,3-1.6,3.9c0.9,0.7,2.1,1,3.3,0.7v1.5c-1.9,0.2-3.2,0-4.3-1.3
			c-0.7,0.7-1.6,1.7-2,2.1c-0.2,0.2-0.1,0.3,0,0.3c2.2,0,5.1-0.2,6.4,1.8c0.5,0.7,0.5,1.7-0.1,2.4c-1.1,1-2.5,1.4-3.9,1.3
			c-2.1,0-4.5-1.2-5-3.4c0-0.4,0-0.8,0-1.2c0-0.1-0.1-0.2-0.2-0.2c-1.7-0.8-1.3-1.5-1.1-1.3c0.4,0.3,0.8,0.4,1.2,0.5
			c0.2,0,0.3,0,0.3-0.2c0.2-0.8,1.7-2.3,2.9-3.3c-1-0.8-2.2-1.4-3.5-1.8c-0.4-0.1-0.5-1.8,0.2-2.1c1.4-0.6,2.7-0.6,3.8-1.1
			c0.2-0.1,0.4-0.1,0.5-0.2C526,22,527.3,22.6,527.7,23.8C527.7,23.8,527.7,23.8,527.7,23.8z M522.3,24.7c1,0.5,1.9,1.1,2.7,1.9
			c0.7-0.6,0.9-1.6,0.5-2.4c-0.3-0.5-1-0.5-1.5-0.3C523.4,24.1,523,24.5,522.3,24.7z M522.6,32.1c-0.1,0.9,0.1,1.8,0.7,2.5
			c1.2,1,3.8,1.8,4.5-0.2c0.2-0.6-0.5-1.4-0.9-1.7c-1.2-0.7-2.6-0.9-4-0.7C522.8,31.9,522.6,32,522.6,32.1L522.6,32.1z"/>
		<path class="st12" d="M535.7,29.3L535.7,29.3L535.7,29.3c-1,0.9-2.6,0.9-3.5-0.1c-0.4-0.5-1.1,0.6-2.8,0.7v-1.5
			c0.8,0,1.1-0.4,0.9-1.1c-0.3-1.3,0-3.1,1.5-3.5c1-0.2,2.1,0,3,0.6C536.3,25.5,536.7,27.6,535.7,29.3L535.7,29.3z M532.4,25.3
			c-0.4,1-0.3,2.1,0.3,3c0.1,0.2,0.8,0.6,1,0.5c1.3-0.8,0.5-4-1-3.8C532.6,25,532.5,25.1,532.4,25.3L532.4,25.3z"/>
		<path class="st12" d="M549.8,29.9c-0.8,0.1-1.6-0.1-2.3-0.5c-1,0.9-2.5,0.8-3.5-0.1c-0.1-0.1-0.3,0-0.3,0.1
			c0.1,2.6-2.8,2.4-3.9,0.9c0-0.1,0-0.2,0.1-0.2c0,0,0,0,0,0c0.1,0,0.3,0,0.4,0.1c0.4,0.2,0.9,0.2,1.3-0.1c0.8-0.6,0.5-1.8,0.5-2.7
			c-0.1-1.3,0-3.1,1.5-3.5c1-0.2,2.1,0,3,0.6c1,0.7,1.6,1.9,1.6,3.2c0.3,0.6,1,0.9,1.7,0.8L549.8,29.9z M544.3,25.3
			c-0.4,1-0.3,2.1,0.3,3c0.1,0.2,0.8,0.6,1,0.5c1.3-0.7,0.5-4-1-3.8C544.4,25,544.3,25.1,544.3,25.3L544.3,25.3z"/>
		<path class="st12" d="M552.2,19.6c0,0,0.1,0.2,0,0.2S552,20,552,20.1c0.2,2.1,0.6,4,0.9,6c0.1,1.4,1.2,2.4,2.6,2.4v1.5
			c-1.6-0.1-2.3-0.4-2.8-1.1c-0.8,0.7-1.8,1.1-2.8,1.1v-1.5c0.5,0,1.7-0.4,1.4-1.2c0-0.3-0.1-0.5-0.2-0.7c-0.4-2-0.8-4-1.1-6
			c-0.1-0.6,0.3-1.2,0.9-1.4c0.3-0.1,0.6,0,0.8,0.1C551.9,19.3,552.1,19.4,552.2,19.6z"/>
		<path class="st12" d="M563.2,23.8c0.2,1.2-0.2,2.4-1.1,3.3l0,0c-0.2,0.2-0.4,0.4-0.5,0.6c0.9,0.7,2.1,1,3.2,0.8v1.5
			c-1.6,0.2-3.2-0.2-4.4-1.2c-1.6,0.7-3.3,1.1-5,1.2v-1.5c1.3-0.1,2.6-0.4,3.8-0.9c-1-0.8-2.2-1.4-3.5-1.7c-0.4-0.1-0.5-1.8,0.2-2.1
			c1.4-0.6,2.7-0.6,3.8-1.1l0.5-0.2C561.5,22,562.8,22.6,563.2,23.8C563.2,23.8,563.2,23.8,563.2,23.8z M557.8,24.7
			c1,0.5,1.9,1.2,2.6,2.1c0.8-0.6,1-1.6,0.7-2.5c-0.3-0.6-1-0.5-1.5-0.3C558.9,24.1,558.5,24.5,557.8,24.7z"/>
		<path class="st12" d="M566.3,20.7c0.3,0.5,0.2,1.1-0.3,1.4c0,0,0,0,0,0c-0.5,0.2-1.2-0.1-1.4-0.6c-0.3-0.5-0.2-1.1,0.3-1.4
			c0,0,0,0,0,0C565.5,19.9,566.1,20.2,566.3,20.7z M564.9,28.5c0.6,0,1-0.4,1.2-0.9c-0.1-0.9-0.8-3.1-0.4-3.7c0.7-1,2.5-0.2,2.2,0.2
			c-0.1,0.1-0.3,0.2-0.3,0.3c-0.2,0.8,0.2,2,0.3,2.9c0.1,0.8-0.2,1.6-0.9,2.1c-0.6,0.4-1.4,0.6-2.1,0.6L564.9,28.5z M568.5,20.7
			c0.3,0.5,0.2,1.1-0.3,1.4c0,0,0,0,0,0c-0.5,0.2-1.2-0.1-1.4-0.6c-0.3-0.5-0.2-1.1,0.3-1.4c0,0,0,0,0,0
			C567.6,19.9,568.2,20.2,568.5,20.7L568.5,20.7z"/>
	</g>
</g>
</svg>
