<svg xmlns="http://www.w3.org/2000/svg" viewBox="0 0 855 919.06"><defs><style>.cls-1{fill:#fce74f;}.cls-2{fill:#ddbe05;}.cls-3{fill:#fcf059;}.cls-4,.cls-5{fill:#fff;}.cls-4{opacity:0.31;}.cls-6{fill:#896c4d;}.cls-7{fill:#f4f0ed;}.cls-8{fill:#010101;}.cls-9{fill:#ddd;}.cls-10,.cls-11,.cls-12,.cls-13,.cls-15,.cls-16{fill:none;stroke-miterlimit:10;}.cls-10,.cls-11,.cls-12,.cls-13{stroke:#000;}.cls-10{stroke-width:0.6px;}.cls-11{stroke-width:0.47px;}.cls-12{stroke-width:0.42px;}.cls-13{stroke-width:0.56px;}.cls-14{fill:#cafdff;}.cls-15,.cls-16{stroke:#cafdff;}.cls-15{stroke-width:5px;}.cls-17{fill:#064172;}</style></defs><title>Asset 11</title><g id="Layer_2" data-name="Layer 2"><g id="Layer_1-2" data-name="Layer 1"><g id="م"><path id="ميم" class="cls-1" d="M599.64,349.08c8.92-9.34,16.47-29.62,34.93-26.78,17.1,3.71,26,23.2,29.84,24.26.7,4.64-2.34,17.41-3.38,19.29-4.27-.64-58.25-3-72,4.55-3.85,2.65-18.92,10.55-12,25.1,3.76,6.73,13.08,20.84,19,38.74s8.82,34.1,11.12,55.83c-.73,1.18-1.3,5.83-2.27,6-2.36-2.84-5.73-9.73-7-13-1.16-8.43-8.25-37.84-10.12-42.4-5.59-15.87-20.33-37.69-21.42-47.33-1.23-10.1,0-23.46,6.27-30A54.56,54.56,0,0,1,599.64,349.08Zm41.29-2.7c-7-7-16.26-6.62-18.1-5.73s-5.82,4-8.64,6.59C615.08,346.46,639,347.93,640.94,346.38Z"/><path class="cls-2" d="M662.86,359.22c-.24.83-1.83,6.62-1.83,6.62s-57-1.64-72,4.55c-13.28,5.82-15.55,19-12,25.1s14.28,23.19,19,38.74,10.15,38.27,11.12,55.83a53.54,53.54,0,0,1-2.27,6l-2.86-5s-1.38-40-14-69.41c-7.28-14.73-15.82-30.37-15.82-30.37s-7.16-22.57,19.62-29.76a103.62,103.62,0,0,1,21.9-3.37C633.41,357.3,660.24,359.57,662.86,359.22Z"/><path class="cls-3" d="M642.38,327.82c.75,7.53-5.47,11.64-11.37,11.64s-10.39-5.4-10-11.64c0-2.21,4.18-5.85,10.67-5.85S642.38,326.24,642.38,327.82Z"/><path class="cls-4" d="M637.52,325.2c0,1.62-2.72,4.72-5.92,4.72s-5.66-3.11-5.66-4.72,2.59-2.93,5.79-2.93S637.52,323.59,637.52,325.2Z"/><ellipse class="cls-5" cx="648.08" cy="339.56" rx="3.94" ry="6.83" transform="translate(-83.56 342.16) rotate(-27.86)"/><path d="M651.54,337.73a8.88,8.88,0,0,0-2.8-3.16c-1.13-.76-2.54-1.34-3.71-.79s-1.62,2.14-1.54,3.52a9,9,0,0,0,1.28,4,11,11,0,0,0,2.73,3.14c1.07.82,2.5,1.37,3.6.81s1.47-2.08,1.46-3.44A8.88,8.88,0,0,0,651.54,337.73Zm.06,0a12.44,12.44,0,0,1,1.42,4.1,5.57,5.57,0,0,1-.14,2.25,3.12,3.12,0,0,1-1.43,1.88,3.16,3.16,0,0,1-2.37.15,6.16,6.16,0,0,1-2-1.1,9.92,9.92,0,0,1-2.66-3.49,12.18,12.18,0,0,1-1.16-4.18,6.54,6.54,0,0,1,.15-2.2,3.06,3.06,0,0,1,1.34-1.85,3,3,0,0,1,2.32-.17,5.31,5.31,0,0,1,1.94,1.13A12.46,12.46,0,0,1,651.6,337.7Z"/><ellipse class="cls-6" cx="647.6" cy="340.86" rx="2.43" ry="3.94" transform="translate(-84.23 342.08) rotate(-27.86)"/><ellipse cx="647.66" cy="340.83" rx="0.93" ry="1.52" transform="translate(-84.2 342.11) rotate(-27.86)"/><circle class="cls-7" cx="645.87" cy="339.73" r="0.99" transform="translate(-83.9 341.15) rotate(-27.86)"/><circle class="cls-7" cx="648.89" cy="342.45" r="0.29" transform="translate(-84.82 342.87) rotate(-27.86)"/><path class="cls-8" d="M649,333.64s-6-2-5.5,5.08C642.72,335.73,643.71,330,649,333.64Z"/><path class="cls-5" d="M649.81,364.95c.72.26,5.56,1.2,5.77-2-.33-4-10.41-2.64-10.41-2.64s-5.12.37-4.17,8.62,8.71,10.51,9.88,8.08c0,0,5.72.22,4.22-4.1C658.88,371.59,653,365.85,649.81,364.95Z"/><path d="M649.84,365c.52.06,1.13.18,1.7.18a7.18,7.18,0,0,0,1.71-.12,3,3,0,0,0,1.48-.68,2,2,0,0,0,.59-1.41v0a2.13,2.13,0,0,0-1.18-1.62,6.75,6.75,0,0,0-2.13-.69,23.4,23.4,0,0,0-4.61-.24c-.77,0-1.56.06-2.32.14a4.23,4.23,0,0,0-2,.89,6,6,0,0,0-2,4,12.47,12.47,0,0,0,2.16,8.78,9.06,9.06,0,0,0,3.5,2.82,5.64,5.64,0,0,0,2.13.52,1.74,1.74,0,0,0,1.68-.73l.1-.21h.25a5.9,5.9,0,0,0,3.24-.77,1.88,1.88,0,0,0,.82-1.24,3.46,3.46,0,0,0-.18-1.61l-.11-.34.32-.1a1.51,1.51,0,0,0,.93-.69,1.64,1.64,0,0,0,0-1.19,7.5,7.5,0,0,0-1.5-2.34,14.64,14.64,0,0,0-2.11-1.94A11.14,11.14,0,0,0,649.84,365Zm-.07,0a7.85,7.85,0,0,1,2.69,1.23,14.4,14.4,0,0,1,2.27,1.87,7.41,7.41,0,0,1,1.71,2.47,2.23,2.23,0,0,1,0,1.65,2.15,2.15,0,0,1-1.28,1.08l.21-.44a3.89,3.89,0,0,1,.24,2,2.61,2.61,0,0,1-1.11,1.71,4.87,4.87,0,0,1-1.8.74,8.11,8.11,0,0,1-1.89.18l.35-.21a1.93,1.93,0,0,1-1.07.92,3.38,3.38,0,0,1-1.29.19,6.3,6.3,0,0,1-2.39-.62,9.19,9.19,0,0,1-3.63-3.13,11.13,11.13,0,0,1-1.8-4.39,15.93,15.93,0,0,1-.17-4.71,6.63,6.63,0,0,1,2-4.25,4.61,4.61,0,0,1,2.18-1.09c.79-.12,1.57-.2,2.36-.25a19.87,19.87,0,0,1,4.75.23,7.31,7.31,0,0,1,2.3.8,2.63,2.63,0,0,1,1.41,2.06v0h0a2.47,2.47,0,0,1-.82,1.7,3.37,3.37,0,0,1-1.7.7,7,7,0,0,1-1.79,0A5.44,5.44,0,0,1,649.78,364.94Z"/><path class="cls-9" d="M649.81,364.95s8.68,6.68,3.37,7.91c2.27,1.48-.38,3.61-3.08,3.77-.44.6-.47,1-4.12.22,3.37,1.84,4.7.56,4.75.09,1.13.19,5.73-.36,4.38-4C657.58,372.41,656.1,367.75,649.81,364.95Z"/><path class="cls-9" d="M648.67,360.29s11.07.25,1.14,4.65C657.76,366.59,657.36,359.37,648.67,360.29Z"/><path d="M655.1,372.94a4.69,4.69,0,0,1-1.92.28,4.87,4.87,0,0,1-1.87-.58,8.09,8.09,0,0,1-2.86-2.51,0,0,0,0,1,0,0,0,0,0,0,1,0,0,8.94,8.94,0,0,0,3,2,13.07,13.07,0,0,0,1.74.4c.59.12,1.19.2,1.82.35a0,0,0,0,1,0,0Z"/><path d="M650.86,377a4.43,4.43,0,0,1-1.57-.48,6,6,0,0,1-1.32-.94,7.87,7.87,0,0,1-1.14-1.18,3.33,3.33,0,0,1-.63-1.51,0,0,0,0,1,.07,0,4.65,4.65,0,0,0,2.06,2.22c.44.28.9.53,1.31.84s.83.63,1.24,1a0,0,0,0,1,0,.05Z"/><path d="M644.07,350.42s-1.18.66-1,1.12c5.23,3.49,15.74,4.49,20,4.34l.11.79c-12.92,0-19.59-4.54-19.92-4.77-.48-.34-.67.4-.67,1.48C641.81,350.73,644.07,350.42,644.07,350.42Z"/></g><path id="ميم-2" data-name="ميم" class="cls-10" d="M245.15,498.06c-2.36-2.84-5.73-9.73-7-13-1.16-8.43-8.25-37.84-10.12-42.4-5.59-15.87-20.33-37.69-21.42-47.33-1.23-10.1,0-23.46,6.27-30a54.56,54.56,0,0,1,27-14.22c8.92-9.34,16.47-29.62,34.93-26.78,17.1,3.71,26,23.2,29.84,24.26.7,4.64-2.34,17.41-3.38,19.29m-84,29.65c3.76,6.73,13.08,20.84,19,38.74s8.82,34.1,11.12,55.83l-2.27,6m36.07-149.68c-7-7-16.26-6.62-18.1-5.73s-5.82,4-8.64,6.59C255.36,348.46,279.3,349.93,281.21,348.38Z"/><path class="cls-10" d="M245.15,498.06"/><path class="cls-10" d="M236.29,436.23"/><path class="cls-10" d="M303.14,361.22c-.24.83-1.83,6.62-1.83,6.62s-57-1.64-72,4.55c-13.28,5.82-15.55,19-12,25.1"/><ellipse class="cls-5" cx="288.36" cy="341.56" rx="3.94" ry="6.83" transform="translate(-126.18 174.31) rotate(-27.86)"/><path d="M291.82,339.73a8.88,8.88,0,0,0-2.8-3.16c-1.13-.76-2.54-1.34-3.71-.79s-1.62,2.14-1.54,3.52a9,9,0,0,0,1.28,4,11,11,0,0,0,2.73,3.14c1.07.82,2.5,1.37,3.6.81s1.47-2.08,1.46-3.44A8.88,8.88,0,0,0,291.82,339.73Zm.06,0a12.44,12.44,0,0,1,1.42,4.1,5.57,5.57,0,0,1-.14,2.25,3.12,3.12,0,0,1-1.43,1.88,3.16,3.16,0,0,1-2.37.15,6.15,6.15,0,0,1-2-1.1,9.92,9.92,0,0,1-2.66-3.49,12.19,12.19,0,0,1-1.16-4.18,6.54,6.54,0,0,1,.15-2.2,3.06,3.06,0,0,1,1.34-1.85,3,3,0,0,1,2.32-.17,5.31,5.31,0,0,1,1.94,1.13A12.46,12.46,0,0,1,291.88,339.7Z"/><ellipse class="cls-6" cx="287.87" cy="342.86" rx="2.43" ry="3.94" transform="translate(-126.84 174.24) rotate(-27.86)"/><ellipse cx="287.94" cy="342.83" rx="0.93" ry="1.52" transform="translate(-126.82 174.26) rotate(-27.86)"/><circle class="cls-7" cx="286.15" cy="341.73" r="0.99" transform="translate(-126.52 173.3) rotate(-27.86)"/><circle class="cls-7" cx="289.17" cy="344.45" r="0.29" transform="translate(-127.43 175.02) rotate(-27.86)"/><path class="cls-8" d="M289.32,335.63s-6-2-5.5,5.08C283,337.73,284,332,289.32,335.63Z"/><path class="cls-5" d="M290.09,366.95c.72.26,5.56,1.2,5.77-2-.33-4-10.41-2.64-10.41-2.64s-5.12.37-4.17,8.62,8.71,10.51,9.88,8.08c0,0,5.72.22,4.22-4.1C299.16,373.59,293.3,367.85,290.09,366.95Z"/><path d="M290.12,367c.52.06,1.13.18,1.7.18a7.18,7.18,0,0,0,1.71-.12,3,3,0,0,0,1.48-.68,2,2,0,0,0,.59-1.41v0a2.12,2.12,0,0,0-1.18-1.62,6.75,6.75,0,0,0-2.13-.69,23.4,23.4,0,0,0-4.61-.24c-.77,0-1.56.06-2.32.14a4.23,4.23,0,0,0-2,.89,6,6,0,0,0-2,4,12.47,12.47,0,0,0,2.16,8.78,9.06,9.06,0,0,0,3.5,2.82,5.64,5.64,0,0,0,2.13.52,1.74,1.74,0,0,0,1.68-.73l.1-.21h.25a5.9,5.9,0,0,0,3.24-.77,1.88,1.88,0,0,0,.82-1.24,3.46,3.46,0,0,0-.18-1.61l-.11-.34.32-.1a1.51,1.51,0,0,0,.93-.69,1.64,1.64,0,0,0,0-1.19,7.5,7.5,0,0,0-1.5-2.34,14.65,14.65,0,0,0-2.11-1.94A11.14,11.14,0,0,0,290.12,367Zm-.07,0a7.85,7.85,0,0,1,2.69,1.23A14.4,14.4,0,0,1,295,370a7.41,7.41,0,0,1,1.71,2.47,2.23,2.23,0,0,1,0,1.65,2.15,2.15,0,0,1-1.28,1.08l.21-.44a3.89,3.89,0,0,1,.24,2,2.61,2.61,0,0,1-1.11,1.71,4.87,4.87,0,0,1-1.8.74,8.11,8.11,0,0,1-1.89.18l.35-.21a1.93,1.93,0,0,1-1.07.92,3.38,3.38,0,0,1-1.29.19,6.3,6.3,0,0,1-2.39-.62,9.19,9.19,0,0,1-3.63-3.13,11.12,11.12,0,0,1-1.8-4.39,15.93,15.93,0,0,1-.17-4.71,6.63,6.63,0,0,1,2-4.25,4.62,4.62,0,0,1,2.18-1.09c.79-.12,1.57-.2,2.36-.25a19.87,19.87,0,0,1,4.75.23,7.31,7.31,0,0,1,2.3.8,2.63,2.63,0,0,1,1.41,2.06v0h0a2.47,2.47,0,0,1-.82,1.7,3.37,3.37,0,0,1-1.7.7,7,7,0,0,1-1.79,0A5.44,5.44,0,0,1,290.06,366.93Z"/><path class="cls-9" d="M290.09,366.95s8.68,6.68,3.37,7.91c2.27,1.48-.38,3.61-3.08,3.77-.44.6-.47,1-4.12.22,3.37,1.84,4.7.56,4.75.09,1.13.19,5.73-.36,4.38-4C297.86,374.41,296.38,369.74,290.09,366.95Z"/><path class="cls-9" d="M288.95,362.29s11.07.25,1.14,4.65C298,368.59,297.64,361.37,288.95,362.29Z"/><path d="M295.38,374.94a4.69,4.69,0,0,1-1.92.28,4.87,4.87,0,0,1-1.87-.58,8.09,8.09,0,0,1-2.86-2.51,0,0,0,0,1,0,0,0,0,0,0,1,0,0,8.94,8.94,0,0,0,3,2,13.09,13.09,0,0,0,1.74.4c.59.12,1.19.2,1.82.35a0,0,0,0,1,0,0Z"/><path d="M291.14,379a4.43,4.43,0,0,1-1.57-.48,6,6,0,0,1-1.32-.94,7.87,7.87,0,0,1-1.14-1.18,3.33,3.33,0,0,1-.63-1.51,0,0,0,0,1,.07,0,4.65,4.65,0,0,0,2.06,2.22c.44.28.9.53,1.31.84s.83.63,1.24,1a0,0,0,0,1,0,.05Z"/><path d="M284.35,352.42s-1.18.66-1,1.12c5.23,3.49,15.74,4.49,20,4.34l.11.79c-12.92,0-19.59-4.54-19.92-4.77-.48-.34-.67.4-.67,1.48C282.09,352.73,284.35,352.42,284.35,352.42Z"/><g id="فاء"><path class="cls-1" d="M647.21,565.33s-2.41-1.32-4.13.18a110.78,110.78,0,0,0-6.67,10.92s-3.87,5.93-.7,7.92c4.31,2.87,11.49,5.15,11.49,5.15s1.4.79,3-2.1c3-4.21,6.57-13.27,6.57-13.27s1.57-3.81.39-4.73A25.73,25.73,0,0,0,647.21,565.33Z"/><path class="cls-1" d="M692.39,640.56c-1,12.93-2.9,18.36-9.11,26.77-17.06,25.78-107.29,30-131.19,23.41-31.25-8.59-36.15-27.7-36.15-36.9,0-5.7.53-21.47,6.31-34,1.23-1.4,6.13-5.18,6.31,3.59-.89,3.27-8.85,21.88,7.36,37.24,30.05,21.2,127.17,10.86,146-13a21.52,21.52,0,0,0-1.64-8.06c-17.24,10.69-38.36,6.38-40.74-6.08-2.79-14.59,16.14-41.33,24.71-41.33C684.73,592.24,695.28,630.09,692.39,640.56ZM660,615.7c-3.29,0-8.11,2.89-7.11,6.24,1.66,2.89,16,4.82,18.73,1.48C670.24,620.43,664.93,615.11,660,615.7Z"/><path class="cls-5" d="M640.74,649.4c-.69.25-5.36,1.15-5.55-1.93.32-3.81,10-2.55,10-2.55s4.94.35,4,8.3-8.39,10.13-9.52,7.79c0,0-5.51.22-4.07-3.95C632,655.8,637.65,650.27,640.74,649.4Z"/><path d="M640.76,649.39a5.83,5.83,0,0,1-1.68.38,6.76,6.76,0,0,1-1.71,0,3.22,3.22,0,0,1-1.62-.67,2.34,2.34,0,0,1-.77-1.61h0v0a2.49,2.49,0,0,1,1.33-1.95,7,7,0,0,1,2.2-.76,19.41,19.41,0,0,1,4.56-.22c.76,0,1.51.12,2.27.23a4.41,4.41,0,0,1,2.08,1,6.34,6.34,0,0,1,1.91,4.07,12.84,12.84,0,0,1-1.91,8.74,8.84,8.84,0,0,1-3.48,3,6,6,0,0,1-2.28.59,3.19,3.19,0,0,1-1.22-.18,1.79,1.79,0,0,1-1-.85l.27.16a7.82,7.82,0,0,1-1.8-.17,4.63,4.63,0,0,1-1.71-.7,2.44,2.44,0,0,1-1-1.6,3.67,3.67,0,0,1,.23-1.85l.16.34a2,2,0,0,1-1.19-1,2.08,2.08,0,0,1,0-1.54,7.35,7.35,0,0,1,1.62-2.36,13.77,13.77,0,0,1,2.17-1.82A7.75,7.75,0,0,1,640.76,649.39Zm-.05,0a10.24,10.24,0,0,0-2.38,1.38,14.23,14.23,0,0,0-2.06,1.86,7,7,0,0,0-1.46,2.27,1.64,1.64,0,0,0,0,1.2,1.51,1.51,0,0,0,.93.7l.24.08-.08.26a3.41,3.41,0,0,0-.18,1.58,1.88,1.88,0,0,0,.82,1.24,5.74,5.74,0,0,0,3.17.76h.19l.08.16a1.75,1.75,0,0,0,1.68.74,5.5,5.5,0,0,0,2.08-.51,8.74,8.74,0,0,0,3.38-2.75,12.11,12.11,0,0,0,2.06-8.49,5.88,5.88,0,0,0-1.92-3.89,4.11,4.11,0,0,0-2-.88c-.73-.08-1.49-.12-2.24-.14a22.15,22.15,0,0,0-4.45.23,6.55,6.55,0,0,0-2.06.68,2.09,2.09,0,0,0-1.16,1.6v0a2,2,0,0,0,.59,1.39,2.93,2.93,0,0,0,1.44.66,7,7,0,0,0,1.66.11A12.42,12.42,0,0,0,640.71,649.41Z"/><path class="cls-9" d="M640.74,649.4s-8.37,6.44-3.25,7.63c-2.18,1.42.36,3.48,3,3.63.42.58.45,1,4,.21-3.25,1.77-4.53.54-4.57.08-1.09.18-5.52-.35-4.22-3.89C633.25,656.59,634.67,652.09,640.74,649.4Z"/><path class="cls-9" d="M641.84,644.92s-10.67.24-1.1,4.48C633.08,651,633.47,644,641.84,644.92Z"/><path d="M635.65,657c.61-.12,1.2-.16,1.77-.28a10.52,10.52,0,0,0,1.69-.4,8.53,8.53,0,0,0,2.91-2,0,0,0,0,1,0,0,0,0,0,0,1,0,0,7.87,7.87,0,0,1-2.77,2.37,4.94,4.94,0,0,1-1.79.54,5.08,5.08,0,0,1-1.84-.21,0,0,0,0,1,0,0Z"/><path d="M639.7,661c.41-.33.82-.61,1.23-.91s.84-.54,1.26-.82a4.45,4.45,0,0,0,2-2.19,0,0,0,0,1,0,0,0,0,0,0,1,0,0,3.2,3.2,0,0,1-.62,1.43,7.57,7.57,0,0,1-1.11,1.11,6.44,6.44,0,0,1-1.27.9,4.79,4.79,0,0,1-1.48.52,0,0,0,0,1,0,0A0,0,0,0,1,639.7,661Z"/><path class="cls-3" d="M655.09,599c-.78,7.26,5.71,11.21,11.87,11.21A10.42,10.42,0,0,0,677.37,599c0-2.13-4.36-5.64-11.14-5.64S655.09,597.49,655.09,599Z"/><path class="cls-4" d="M660.19,596.49c0,1.56,2.84,4.55,6.18,4.55s5.91-3,5.91-4.55-2.71-2.82-6-2.82S660.19,594.94,660.19,596.49Z"/><ellipse class="cls-5" cx="652.95" cy="609.83" rx="6.58" ry="3.8" transform="translate(-161.97 976.07) rotate(-67.24)"/><path d="M649.42,608.35a11.42,11.42,0,0,1,2.21-3.53,5.3,5.3,0,0,1,1.75-1.23,2.6,2.6,0,0,1,3.63,1.59,6.32,6.32,0,0,1,.35,2.08,11.58,11.58,0,0,1-.78,4.1,9.64,9.64,0,0,1-2.27,3.54,5.87,5.87,0,0,1-1.79,1.21,3,3,0,0,1-2.23,0,2.93,2.93,0,0,1-1.51-1.64,5.41,5.41,0,0,1-.34-2.12A11.43,11.43,0,0,1,649.42,608.35Zm.05,0a8.9,8.9,0,0,0-.67,4c.1,1.31.56,2.74,1.71,3.25s2.5-.23,3.46-1.11a10.5,10.5,0,0,0,2.34-3.28,8.82,8.82,0,0,0,.86-4c0-1.33-.58-2.82-1.77-3.29s-2.54.25-3.54,1.1A8.9,8.9,0,0,0,649.47,608.37Z"/><ellipse class="cls-6" cx="651.95" cy="610.23" rx="3.8" ry="2.34" transform="translate(-162.95 975.39) rotate(-67.24)"/><ellipse cx="651.88" cy="610.2" rx="1.46" ry="0.9" transform="translate(-162.97 975.31) rotate(-67.24)"/><circle class="cls-7" cx="653.51" cy="608.99" r="0.96" transform="translate(-160.86 976.07) rotate(-67.24)"/><circle class="cls-7" cx="650.85" cy="611.85" r="0.28" transform="translate(-165.13 975.37) rotate(-67.24)"/><path class="cls-8" d="M651.52,604.22s5.58-2.39,5.71,4.4C657.77,605.69,656.32,600.26,651.52,604.22Z"/><path d="M658.36,628.11s1.14.64.94,1.08c-5,3.36-15.17,4.33-19.26,4.18l-.1.76c12.45,0,18.88-4.37,19.19-4.6s.65.39.65,1.43C660.54,628.41,658.36,628.11,658.36,628.11Z"/><path class="cls-2" d="M603.5,684.19C520,684.19,519,665.73,519,665.73s6.18,32.79,84.46,27.79c86-5.34,87.88-41.54,87.88-44.23C689.1,653.48,680.2,679.79,603.5,684.19Z"/></g><path class="cls-11" d="M297.08,565.44s-2.41-1.32-4.13.18a110.78,110.78,0,0,0-6.67,10.92s-3.87,5.93-.7,7.92c4.31,2.87,11.49,5.15,11.49,5.15s1.4.79,3-2.1c3-4.21,6.57-13.27,6.57-13.27s1.57-3.81.39-4.73A25.73,25.73,0,0,0,297.08,565.44Z"/><path class="cls-11" d="M342.25,640.67c-1,12.93-2.9,18.36-9.11,26.77-17.06,25.78-107.29,30-131.19,23.41-31.25-8.59-36.15-27.7-36.15-36.9,0-5.7.53-21.47,6.31-34,1.23-1.4,6.13-5.18,6.31,3.59-.89,3.27-8.85,21.88,7.36,37.24,30.05,21.2,127.17,10.86,146-13a21.52,21.52,0,0,0-1.64-8.06c-17.24,10.69-38.36,6.38-40.74-6.08-2.79-14.59,16.14-41.33,24.71-41.33C334.59,592.35,345.15,630.2,342.25,640.67Zm-32.39-24.86c-3.29,0-8.11,2.89-7.11,6.24,1.66,2.89,16,4.82,18.73,1.48C320.11,620.54,314.8,615.22,309.86,615.81Z"/><path class="cls-5" d="M290.61,649.51c-.69.25-5.36,1.15-5.55-1.93.32-3.81,10-2.55,10-2.55s4.94.35,4,8.3-8.39,10.13-9.52,7.79c0,0-5.51.22-4.07-3.95C281.87,655.91,287.51,650.38,290.61,649.51Z"/><path d="M290.63,649.5a5.82,5.82,0,0,1-1.68.38,6.76,6.76,0,0,1-1.71,0,3.22,3.22,0,0,1-1.62-.67,2.34,2.34,0,0,1-.77-1.61h0v0a2.49,2.49,0,0,1,1.33-1.95,7,7,0,0,1,2.2-.76,19.42,19.42,0,0,1,4.56-.22c.76,0,1.51.12,2.27.23a4.41,4.41,0,0,1,2.08,1A6.34,6.34,0,0,1,299.2,650a12.84,12.84,0,0,1-1.91,8.74,8.84,8.84,0,0,1-3.48,3,6,6,0,0,1-2.28.59,3.19,3.19,0,0,1-1.22-.18,1.79,1.79,0,0,1-1-.85l.27.16a7.81,7.81,0,0,1-1.8-.17,4.63,4.63,0,0,1-1.71-.7,2.44,2.44,0,0,1-1-1.6,3.67,3.67,0,0,1,.23-1.85l.16.34a2,2,0,0,1-1.19-1,2.08,2.08,0,0,1,0-1.54,7.35,7.35,0,0,1,1.62-2.36,13.78,13.78,0,0,1,2.17-1.82A7.75,7.75,0,0,1,290.63,649.5Zm-.05,0a10.24,10.24,0,0,0-2.38,1.38,14.23,14.23,0,0,0-2.06,1.86,7,7,0,0,0-1.46,2.27,1.64,1.64,0,0,0,0,1.2,1.51,1.51,0,0,0,.93.7l.24.08-.08.26a3.41,3.41,0,0,0-.18,1.58,1.88,1.88,0,0,0,.82,1.24,5.74,5.74,0,0,0,3.17.76h.19l.08.16a1.75,1.75,0,0,0,1.68.74,5.5,5.5,0,0,0,2.08-.51,8.74,8.74,0,0,0,3.38-2.75A12.11,12.11,0,0,0,299,650a5.88,5.88,0,0,0-1.92-3.89,4.11,4.11,0,0,0-2-.88c-.73-.08-1.49-.12-2.23-.14a22.15,22.15,0,0,0-4.45.23,6.55,6.55,0,0,0-2.06.68,2.09,2.09,0,0,0-1.16,1.6v0a2,2,0,0,0,.59,1.39,2.93,2.93,0,0,0,1.44.66,7,7,0,0,0,1.66.11A12.44,12.44,0,0,0,290.58,649.52Z"/><path class="cls-9" d="M290.61,649.51s-8.37,6.44-3.25,7.63c-2.18,1.42.36,3.48,3,3.63.42.58.45,1,4,.21-3.25,1.77-4.53.54-4.57.08-1.09.18-5.52-.35-4.22-3.89C283.12,656.7,284.54,652.2,290.61,649.51Z"/><path class="cls-9" d="M291.7,645s-10.67.24-1.1,4.48C282.95,651.09,283.33,644.13,291.7,645Z"/><path d="M285.51,657.15c.61-.12,1.2-.16,1.77-.28a10.52,10.52,0,0,0,1.69-.4,8.53,8.53,0,0,0,2.91-2,0,0,0,0,1,0,0,0,0,0,0,1,0,0,7.87,7.87,0,0,1-2.77,2.37,4.94,4.94,0,0,1-1.79.54,5.08,5.08,0,0,1-1.84-.21,0,0,0,0,1,0,0Z"/><path d="M289.57,661.1c.41-.33.82-.61,1.23-.91s.84-.54,1.26-.82a4.45,4.45,0,0,0,2-2.19,0,0,0,0,1,.05,0,3.2,3.2,0,0,1-.62,1.43,7.57,7.57,0,0,1-1.11,1.11,6.45,6.45,0,0,1-1.27.9,4.79,4.79,0,0,1-1.48.52,0,0,0,0,1,0,0A0,0,0,0,1,289.57,661.1Z"/><ellipse class="cls-5" cx="302.82" cy="609.94" rx="6.58" ry="3.8" transform="translate(-376.77 653.26) rotate(-67.24)"/><path d="M299.29,608.46a11.43,11.43,0,0,1,2.21-3.53,5.3,5.3,0,0,1,1.75-1.23,2.6,2.6,0,0,1,3.63,1.59,6.33,6.33,0,0,1,.35,2.08,11.58,11.58,0,0,1-.78,4.1,9.64,9.64,0,0,1-2.27,3.54,5.87,5.87,0,0,1-1.79,1.21,3,3,0,0,1-2.23,0,2.93,2.93,0,0,1-1.51-1.64,5.41,5.41,0,0,1-.34-2.12A11.43,11.43,0,0,1,299.29,608.46Zm.05,0a8.9,8.9,0,0,0-.67,4c.1,1.31.56,2.74,1.71,3.25s2.5-.23,3.46-1.11a10.51,10.51,0,0,0,2.34-3.28,8.82,8.82,0,0,0,.86-4c0-1.33-.58-2.82-1.77-3.29s-2.54.25-3.54,1.1A8.9,8.9,0,0,0,299.34,608.48Z"/><ellipse class="cls-6" cx="301.82" cy="610.34" rx="3.8" ry="2.34" transform="translate(-377.75 652.58) rotate(-67.24)"/><ellipse cx="301.75" cy="610.31" rx="1.46" ry="0.9" transform="translate(-377.77 652.5) rotate(-67.24)"/><circle class="cls-7" cx="303.38" cy="609.1" r="0.96" transform="translate(-375.66 653.26) rotate(-67.24)"/><circle class="cls-7" cx="300.71" cy="611.96" r="0.28" transform="translate(-379.93 652.56) rotate(-67.24)"/><path class="cls-8" d="M301.39,604.33s5.58-2.39,5.71,4.4C307.64,605.8,306.19,600.37,301.39,604.33Z"/><path d="M308.23,628.22s1.14.64.94,1.08c-5,3.36-15.17,4.33-19.26,4.18l-.1.76c12.45,0,18.88-4.37,19.19-4.6s.65.39.65,1.43C310.41,628.52,308.23,628.22,308.23,628.22Z"/><g id="و"><path class="cls-1" d="M541.12,864.41c0-1,16.78,6.47,37.35,4.73,29.6-3.49,90.44-41.85,70.21-59a34.08,34.08,0,0,1-16.34,10.76c-6.67,1.82-15.37.55-19.44-5.36-6.37-16.64,12-44.07,26-44.07,11.84,2.56,21.16,19.83,24.18,32.21,2.63,32.2-20.58,71.61-74.31,84.59C565.55,887,541.12,865.38,541.12,864.41Zm91.47-73c-2-.44-8.43,4.38-8.89,6.16,3.15,3.63,14.07,3.75,16.5.8C640.67,797.18,635.7,792.61,632.59,791.38Z"/><path class="cls-3" d="M628.85,777c-.64,6.42,4.67,9.92,9.69,9.92s8.85-4.6,8.5-9.92c0-1.88-3.56-5-9.09-5S628.85,775.67,628.85,777Z"/><path class="cls-4" d="M633,774.79c0,1.38,2.32,4,5,4s4.82-2.65,4.82-4-2.21-2.49-4.93-2.49S633,773.41,633,774.79Z"/><path class="cls-5" d="M632.31,816.39c-.61.22-4.74,1-4.91-1.71.28-3.37,8.87-2.25,8.87-2.25s4.37.31,3.56,7.34-7.42,9-8.42,6.89c0,0-4.88.19-3.6-3.49C624.58,822,629.58,817.16,632.31,816.39Z"/><path d="M632.34,816.38a5.06,5.06,0,0,1-1.49.35,6,6,0,0,1-1.52,0,2.86,2.86,0,0,1-1.44-.59,2.08,2.08,0,0,1-.69-1.43h0v0a2.21,2.21,0,0,1,1.19-1.73,6.19,6.19,0,0,1,1.95-.68,17.08,17.08,0,0,1,4-.19c.67,0,1.33.11,2,.21a3.87,3.87,0,0,1,1.84.92,5.56,5.56,0,0,1,1.68,3.61,11.34,11.34,0,0,1-1.67,7.74,7.82,7.82,0,0,1-3.09,2.65,5.34,5.34,0,0,1-2,.52,2,2,0,0,1-2-.92l.26.16a6.91,6.91,0,0,1-1.6-.15,4.12,4.12,0,0,1-1.52-.62,2.18,2.18,0,0,1-.93-1.43,3.26,3.26,0,0,1,.2-1.65l.16.32a1.8,1.8,0,0,1-1.07-.9,1.86,1.86,0,0,1,0-1.37,6.51,6.51,0,0,1,1.44-2.09,12.17,12.17,0,0,1,1.92-1.61A6.79,6.79,0,0,1,632.34,816.38Zm-.05,0a9.22,9.22,0,0,0-2.1,1.22,12.61,12.61,0,0,0-1.81,1.64,6.18,6.18,0,0,0-1.29,2,1.43,1.43,0,0,0,0,1,1.32,1.32,0,0,0,.81.61l.23.07-.08.25a3,3,0,0,0-.16,1.39,1.64,1.64,0,0,0,.72,1.08,5.06,5.06,0,0,0,2.79.67h.19l.07.16a1.52,1.52,0,0,0,1.47.64,4.84,4.84,0,0,0,1.83-.45,7.72,7.72,0,0,0,3-2.42,10.63,10.63,0,0,0,1.82-7.5,5.12,5.12,0,0,0-1.69-3.43,3.58,3.58,0,0,0-1.72-.77c-.65-.07-1.32-.1-2-.12a19.73,19.73,0,0,0-3.93.21,5.78,5.78,0,0,0-1.82.59,1.84,1.84,0,0,0-1,1.4v0a1.73,1.73,0,0,0,.52,1.22,2.58,2.58,0,0,0,1.27.58,6.16,6.16,0,0,0,1.46.1A11.73,11.73,0,0,0,632.29,816.4Z"/><path class="cls-9" d="M632.31,816.39s-7.4,5.69-2.87,6.75c-1.93,1.26.32,3.08,2.63,3.21.37.51.4.87,3.51.18-2.88,1.57-4,.48-4,.07-1,.16-4.88-.31-3.73-3.44C625.69,822.74,627,818.77,632.31,816.39Z"/><path class="cls-9" d="M633.29,812.42s-9.44.21-1,4C625.54,817.78,625.88,811.63,633.29,812.42Z"/><path d="M627.81,823.14c.54-.11,1.06-.15,1.56-.27a9.9,9.9,0,0,0,1.49-.35,7.57,7.57,0,0,0,2.58-1.76,0,0,0,0,1,0,0,0,0,0,0,1,0,0,6.93,6.93,0,0,1-2.45,2.11,4,4,0,0,1-3.22.28,0,0,0,0,1,0,0Z"/><path d="M631.4,826.64c.36-.3.72-.56,1.07-.82s.75-.48,1.12-.72a4,4,0,0,0,1.74-1.92,0,0,0,0,1,.05,0,2.83,2.83,0,0,1-.54,1.27,6.7,6.7,0,0,1-1,1,5.43,5.43,0,0,1-1.12.8,4.06,4.06,0,0,1-1.32.44,0,0,0,0,1,0,0A0,0,0,0,1,631.4,826.64Z"/><ellipse class="cls-5" cx="625.4" cy="787.02" rx="5.82" ry="3.36" transform="translate(-362.64 972.23) rotate(-62.14)"/><path d="M622.41,785.44a10.23,10.23,0,0,1,2.22-2.94,4.67,4.67,0,0,1,1.64-1,2.31,2.31,0,0,1,3.09,1.7,5.66,5.66,0,0,1,.14,1.86,10.39,10.39,0,0,1-1,3.55,8.74,8.74,0,0,1-2.27,3,5.21,5.21,0,0,1-1.68.93,2.65,2.65,0,0,1-2-.14,2.61,2.61,0,0,1-1.21-1.57,4.77,4.77,0,0,1-.13-1.9A10.23,10.23,0,0,1,622.41,785.44Zm0,0a7.79,7.79,0,0,0-.89,3.49,3.25,3.25,0,0,0,1.25,3,3.13,3.13,0,0,0,3.11-.7,9,9,0,0,0,2.32-2.7,7.71,7.71,0,0,0,1.08-3.43,3.09,3.09,0,0,0-1.3-3,3.33,3.33,0,0,0-3.19.69A7.8,7.8,0,0,0,622.46,785.46Z"/><ellipse class="cls-6" cx="624.35" cy="787.55" rx="3.36" ry="2.07" transform="translate(-363.67 971.57) rotate(-62.14)"/><ellipse cx="624.29" cy="787.52" rx="1.29" ry="0.8" transform="translate(-363.68 971.51) rotate(-62.14)"/><circle class="cls-7" cx="625.82" cy="786.59" r="0.85" transform="translate(-362.04 972.36) rotate(-62.14)"/><circle class="cls-7" cx="623.24" cy="788.9" r="0.24" transform="translate(-365.45 971.32) rotate(-62.14)"/><path class="cls-8" d="M624.59,782s5.1-1.67,4.69,4.33C630,783.75,629.13,778.85,624.59,782Z"/><path d="M628,805.68s1,.57.83,1c-4.46,3-13.42,3.83-17,3.7l-.09.67c11,0,16.7-3.87,17-4.07s.57.34.57,1.26C629.91,805.95,628,805.68,628,805.68Z"/><path class="cls-2" d="M594.29,880.3c-23.62,6.68-34.23-1.75-34.23-1.75s3.55,2.67,11,5.38c4.48,1.63,15,5,17.75,4.35,4.1-.54,9.85-2.67,13.42-4,55.1-20.44,62.63-60.48,60.89-80.59C663.33,825.78,654,857.51,594.29,880.3Z"/></g><path class="cls-12" d="M183.69,853.13c0-1,16.78,6.47,37.35,4.73,29.6-3.49,90.44-41.85,70.21-59a34.08,34.08,0,0,1-16.34,10.76c-6.67,1.82-15.37.55-19.44-5.36-6.37-16.64,12-44.07,26-44.07,11.84,2.56,21.16,19.83,24.18,32.21,2.63,32.2-20.58,71.61-74.31,84.59C208.12,875.76,183.69,854.1,183.69,853.13Zm91.47-73c-2-.44-8.43,4.38-8.89,6.16,3.15,3.63,14.07,3.75,16.5.8C283.24,785.9,278.27,781.33,275.16,780.1Z"/><path class="cls-5" d="M273.88,805.11c-.61.22-4.74,1-4.91-1.71.28-3.37,8.87-2.25,8.87-2.25s4.37.31,3.56,7.34-7.42,9-8.42,6.89c0,0-4.88.19-3.6-3.49C266.15,810.77,271.15,805.88,273.88,805.11Z"/><path d="M273.91,805.1a5.06,5.06,0,0,1-1.49.35,6,6,0,0,1-1.52,0,2.86,2.86,0,0,1-1.44-.59,2.08,2.08,0,0,1-.69-1.43h0v0a2.21,2.21,0,0,1,1.19-1.73,6.19,6.19,0,0,1,1.95-.68,17.08,17.08,0,0,1,4-.19c.67,0,1.33.11,2,.21a3.86,3.86,0,0,1,1.84.92,5.56,5.56,0,0,1,1.68,3.61,11.34,11.34,0,0,1-1.67,7.74,7.82,7.82,0,0,1-3.09,2.65,5.34,5.34,0,0,1-2,.52,2,2,0,0,1-2-.92l.26.16a6.9,6.9,0,0,1-1.6-.15,4.11,4.11,0,0,1-1.52-.62,2.18,2.18,0,0,1-.93-1.43,3.26,3.26,0,0,1,.2-1.65l.16.32a1.8,1.8,0,0,1-1.07-.9,1.86,1.86,0,0,1,0-1.37,6.51,6.51,0,0,1,1.44-2.09,12.17,12.17,0,0,1,1.92-1.61A6.79,6.79,0,0,1,273.91,805.1Zm-.05,0a9.21,9.21,0,0,0-2.1,1.22,12.61,12.61,0,0,0-1.81,1.64,6.18,6.18,0,0,0-1.29,2,1.43,1.43,0,0,0,0,1,1.32,1.32,0,0,0,.81.61l.23.07-.08.25a3,3,0,0,0-.16,1.39,1.64,1.64,0,0,0,.72,1.08,5.06,5.06,0,0,0,2.79.67h.19l.07.16a1.52,1.52,0,0,0,1.47.64,4.84,4.84,0,0,0,1.83-.45,7.73,7.73,0,0,0,3-2.42,10.63,10.63,0,0,0,1.82-7.5,5.12,5.12,0,0,0-1.69-3.43,3.58,3.58,0,0,0-1.72-.77c-.65-.07-1.32-.1-2-.12a19.73,19.73,0,0,0-3.93.21,5.78,5.78,0,0,0-1.82.59,1.84,1.84,0,0,0-1,1.4v0a1.73,1.73,0,0,0,.52,1.22,2.58,2.58,0,0,0,1.27.58,6.15,6.15,0,0,0,1.46.1A11.71,11.71,0,0,0,273.86,805.12Z"/><path class="cls-9" d="M273.88,805.11s-7.4,5.69-2.87,6.75c-1.93,1.26.32,3.08,2.63,3.21.37.51.4.87,3.51.18-2.88,1.57-4,.48-4,.07-1,.16-4.88-.31-3.73-3.44C267.26,811.47,268.52,807.49,273.88,805.11Z"/><path class="cls-9" d="M274.86,801.14s-9.44.21-1,4C267.11,806.51,267.45,800.35,274.86,801.14Z"/><path d="M269.38,811.86c.54-.11,1.06-.15,1.56-.27a9.91,9.91,0,0,0,1.49-.35,7.57,7.57,0,0,0,2.58-1.76,0,0,0,0,1,0,0,0,0,0,0,1,0,0,6.93,6.93,0,0,1-2.45,2.11,4,4,0,0,1-3.22.28,0,0,0,0,1,0,0Z"/><path d="M273,815.36c.36-.3.72-.56,1.07-.82s.75-.48,1.12-.72a4,4,0,0,0,1.74-1.92,0,0,0,0,1,.05,0,2.83,2.83,0,0,1-.54,1.27,6.7,6.7,0,0,1-1,1,5.42,5.42,0,0,1-1.12.8,4.06,4.06,0,0,1-1.32.44,0,0,0,0,1,0,0A0,0,0,0,1,273,815.36Z"/><ellipse class="cls-5" cx="266.97" cy="775.74" rx="5.82" ry="3.36" transform="translate(-543.62 649.32) rotate(-62.14)"/><path d="M264,774.16a10.23,10.23,0,0,1,2.22-2.94,4.67,4.67,0,0,1,1.64-1,2.31,2.31,0,0,1,3.09,1.7,5.66,5.66,0,0,1,.14,1.86,10.38,10.38,0,0,1-1,3.55,8.74,8.74,0,0,1-2.27,3,5.21,5.21,0,0,1-1.68.93,2.65,2.65,0,0,1-2-.14,2.61,2.61,0,0,1-1.21-1.57,4.77,4.77,0,0,1-.13-1.9A10.23,10.23,0,0,1,264,774.16Zm0,0a7.79,7.79,0,0,0-.89,3.49,3.25,3.25,0,0,0,1.25,3,3.13,3.13,0,0,0,3.11-.7,9,9,0,0,0,2.32-2.7,7.71,7.71,0,0,0,1.08-3.43,3.09,3.09,0,0,0-1.3-3,3.33,3.33,0,0,0-3.19.69A7.79,7.79,0,0,0,264,774.18Z"/><ellipse class="cls-6" cx="265.92" cy="776.27" rx="3.36" ry="2.07" transform="translate(-544.66 648.67) rotate(-62.14)"/><ellipse cx="265.86" cy="776.24" rx="1.29" ry="0.8" transform="translate(-544.66 648.6) rotate(-62.14)"/><circle class="cls-7" cx="267.39" cy="775.31" r="0.85" transform="translate(-543.02 649.45) rotate(-62.14)"/><circle class="cls-7" cx="264.81" cy="777.62" r="0.24" transform="translate(-546.44 648.41) rotate(-62.14)"/><path class="cls-8" d="M266.16,770.69s5.1-1.67,4.69,4.33C271.55,772.48,270.7,767.58,266.16,770.69Z"/><path d="M269.56,794.4s1,.57.83,1c-4.46,3-13.42,3.83-17,3.7l-.09.67c11,0,16.7-3.87,17-4.07s.57.34.57,1.26C271.48,794.67,269.56,794.4,269.56,794.4Z"/><g id="ب"><path class="cls-1" d="M595.62,260.14s-4.1-4.1-7.18,0S580.17,273,580.17,273s-4.8,6-.19,9,12.73,7.86,12.73,7.86,5.81,2.73,8.37-1.54,6.49-12.13,6.49-12.13,3.76-4.27-.85-7.69S595.62,260.14,595.62,260.14Z"/><path class="cls-1" d="M691.66,177.79c.12-1.58,0-21.36,0-21.36s.63-17.32-21.29-17.32c-17,0-20,10.44-20.42,15.11a14.26,14.26,0,0,0-.17,2.62l.12,5.29,0,16.64a10.91,10.91,0,0,0,.34,3.56c.15,1.81.46,6.13.46,9.44-2.45,8.35-82.94,11-87.89,10.27-5.74-.9-23.87-1.7-36.22-14.48-10.15-10.5-1.06-35.62-.11-39.12.43-1.56-1.4-3.45-2.63-3.38-1.69.09-7.19,9.46-10.33,15.58-1.08,2.11-6.1,17.34-6.1,23.44,0,9.86,3.62,31,37.08,40.18,25.6,7,107.26-5.82,127-20.57,10.08-7.52,15.25-12.94,17.82-17.79A14.64,14.64,0,0,0,691.66,177.79Z"/><path class="cls-3" d="M653.27,147.05c-1.21,10,8.85,15.52,18.37,15.52s16.79-7.2,16.11-15.52c0-2.94-6.75-7.81-17.24-7.81S653.27,144.94,653.27,147.05Z"/><path class="cls-4" d="M661.16,143.57c0,2.16,4.4,6.3,9.56,6.3s9.15-4.14,9.15-6.3-4.19-3.9-9.35-3.9S661.16,141.41,661.16,143.57Z"/><path class="cls-5" d="M658.46,189.54c-.52.6-4.43,3.86-6.21,1.07-1.68-3.74,8.08-7.58,8.08-7.58s4.81-2.23,8.07,5.7-2.61,13.84-4.89,12.23c0,0-5.06,3.06-5.86-1.59C653.58,200.07,656,192,658.46,189.54Z"/><path d="M658.48,189.52a6.28,6.28,0,0,1-1.38,1.23,7.24,7.24,0,0,1-1.61.88,3.44,3.44,0,0,1-1.86.21,2.49,2.49,0,0,1-1.55-1.11h0v0a2.65,2.65,0,0,1,.24-2.51,7.47,7.47,0,0,1,1.66-1.85,20.84,20.84,0,0,1,4.16-2.57c.74-.35,1.47-.67,2.24-1a4.72,4.72,0,0,1,2.48-.11,6.78,6.78,0,0,1,3.9,2.83,13.61,13.61,0,0,1,2.74,9.18,9.46,9.46,0,0,1-1.72,4.6,6.43,6.43,0,0,1-1.83,1.73,3.4,3.4,0,0,1-1.23.46,1.91,1.91,0,0,1-1.37-.28h.32a8.36,8.36,0,0,1-1.78.77,5,5,0,0,1-2,.23,2.6,2.6,0,0,1-1.8-1,3.93,3.93,0,0,1-.74-1.84l.31.22a2.14,2.14,0,0,1-1.63-.32,2.22,2.22,0,0,1-.75-1.46,7.86,7.86,0,0,1,.3-3.05A14.75,14.75,0,0,1,656.7,192,8.33,8.33,0,0,1,658.48,189.52Zm0,0a10.9,10.9,0,0,0-1.52,2.52,15.22,15.22,0,0,0-1,2.81,7.51,7.51,0,0,0-.19,2.89,1.77,1.77,0,0,0,.61,1.14,1.63,1.63,0,0,0,1.24.18l.26-.05.06.27a3.65,3.65,0,0,0,.65,1.58,2,2,0,0,0,1.42.74,6.15,6.15,0,0,0,3.37-.93l.17-.1.15.11a1.88,1.88,0,0,0,2-.18,5.9,5.9,0,0,0,1.69-1.56,9.36,9.36,0,0,0,1.74-4.33,13.1,13.1,0,0,0-2.47-9A6.3,6.3,0,0,0,662.8,183a4.41,4.41,0,0,0-2.29.19c-.73.31-1.46.66-2.17,1a23.66,23.66,0,0,0-4.05,2.53,7,7,0,0,0-1.58,1.71,2.25,2.25,0,0,0-.26,2.11v0a2.11,2.11,0,0,0,1.28,1,3.14,3.14,0,0,0,1.69-.13,7.44,7.44,0,0,0,1.61-.76A13,13,0,0,0,658.44,189.56Z"/><path class="cls-9" d="M658.46,189.54s-4.51,10.37.91,8.83c-1.31,2.46,2.14,3.07,4.67,1.87.7.33.94.69,3.83-1.86-2.13,3.34-4,2.86-4.24,2.45-.93.73-5.35,2.53-6-1.46C655.17,200.16,654.17,195.21,658.46,189.54Z"/><path class="cls-9" d="M657.16,184.77s-9.87,5.75,1.29,4.77C652.1,195,648.86,188.28,657.16,184.77Z"/><path d="M657.64,199.34c.52-.42,1-.76,1.52-1.17a11,11,0,0,0,1.37-1.25,9.13,9.13,0,0,0,1.68-3.39,0,0,0,0,1,0,0,0,0,0,0,1,0,0,8.44,8.44,0,0,1-1.38,3.66,5.33,5.33,0,0,1-1.4,1.43,5.52,5.52,0,0,1-1.83.77,0,0,0,0,1,0,0A0,0,0,0,1,657.64,199.34Z"/><path d="M663.49,200.94c.22-.52.46-1,.68-1.49s.51-.95.76-1.42a4.76,4.76,0,0,0,.69-3.07,0,0,0,0,1,0,0,0,0,0,0,1,0,0,3.43,3.43,0,0,1,.15,1.66,8.1,8.1,0,0,1-.46,1.61,7,7,0,0,1-.73,1.5,5.23,5.23,0,0,1-1.11,1.25,0,0,0,0,1,0,0A0,0,0,0,1,663.49,200.94Z"/><ellipse class="cls-5" cx="658.46" cy="161.83" rx="4.07" ry="7.04"/><path d="M654.36,161.83a12.17,12.17,0,0,1,.73-4.4,5.68,5.68,0,0,1,1.22-1.93,2.78,2.78,0,0,1,4.23.06,6.74,6.74,0,0,1,1.21,1.9,12.33,12.33,0,0,1,.93,4.36,10.6,10.6,0,0,1-.77,4.43,6.27,6.27,0,0,1-1.27,1.93,3.17,3.17,0,0,1-2.18,1,3.14,3.14,0,0,1-2.16-1,5.8,5.8,0,0,1-1.21-1.95A12.17,12.17,0,0,1,654.36,161.83Zm.06,0a9.57,9.57,0,0,0,1,4.25c.64,1.26,1.69,2.48,3,2.51s2.39-1.27,3-2.54a10.91,10.91,0,0,0,.95-4.22,9.49,9.49,0,0,0-.8-4.28c-.58-1.3-1.73-2.55-3.12-2.53s-2.41,1.3-3,2.56A9.58,9.58,0,0,0,654.42,161.83Z"/><ellipse class="cls-6" cx="657.2" cy="162.18" rx="2.51" ry="4.07"/><ellipse cx="657.12" cy="162.18" rx="0.96" ry="1.56"/><circle class="cls-7" cx="658.23" cy="160.32" r="1.03"/><circle class="cls-7" cx="656.79" cy="164.25" r="0.3"/><path class="cls-8" d="M654.73,156.89s4.52-4.67,7.46,2C661.5,155.75,657.82,151,654.73,156.89Z"/><path class="cls-2" d="M599.58,221.75c-89.46,0-90.45-28.22-90.45-28.22s0,38.05,90.45,37.08c86.07-8.3,92.08-49.94,92.08-52.82C689.21,182.28,681.71,217,599.58,221.75Z"/><path d="M669.58,171.83s1.22.68,1,1.16c-5.4,3.6-16.24,4.63-20.62,4.48l-.11.82c13.33,0,20.22-4.68,20.55-4.92.49-.35.7.42.7,1.53C671.91,172.14,669.58,171.83,669.58,171.83Z"/></g><path class="cls-13" d="M246.3,260.69s-4.1-4.1-7.18,0-8.27,12.82-8.27,12.82-4.8,6-.19,9,12.73,7.86,12.73,7.86,5.81,2.73,8.37-1.54,6.49-12.13,6.49-12.13,3.76-4.27-.85-7.69S246.3,260.69,246.3,260.69Z"/><path class="cls-4" d="M311.84,144.12c0,2.16,4.4,6.3,9.56,6.3s9.15-4.14,9.15-6.3-4.19-3.9-9.35-3.9S311.84,142,311.84,144.12Z"/><path class="cls-5" d="M309.14,190.09c-.52.6-4.43,3.86-6.21,1.07-1.68-3.74,8.08-7.58,8.08-7.58s4.81-2.23,8.07,5.7-2.61,13.84-4.89,12.23c0,0-5.06,3.06-5.86-1.59C304.27,200.62,306.7,192.51,309.14,190.09Z"/><path d="M309.16,190.07a6.29,6.29,0,0,1-1.38,1.23,7.24,7.24,0,0,1-1.61.88,3.44,3.44,0,0,1-1.86.21,2.49,2.49,0,0,1-1.55-1.11h0v0a2.65,2.65,0,0,1,.24-2.51,7.47,7.47,0,0,1,1.66-1.85,20.83,20.83,0,0,1,4.16-2.57c.74-.35,1.47-.67,2.24-1a4.72,4.72,0,0,1,2.48-.11,6.78,6.78,0,0,1,3.9,2.83,13.61,13.61,0,0,1,2.74,9.18,9.46,9.46,0,0,1-1.72,4.6,6.43,6.43,0,0,1-1.83,1.73,3.41,3.41,0,0,1-1.23.46,1.91,1.91,0,0,1-1.37-.28h.32a8.36,8.36,0,0,1-1.78.77,5,5,0,0,1-2,.23,2.6,2.6,0,0,1-1.8-1,3.93,3.93,0,0,1-.74-1.84l.31.22a2.14,2.14,0,0,1-1.63-.32,2.22,2.22,0,0,1-.75-1.46,7.86,7.86,0,0,1,.3-3.05,14.77,14.77,0,0,1,1.08-2.83A8.33,8.33,0,0,1,309.16,190.07Zm0,0a10.9,10.9,0,0,0-1.52,2.52,15.23,15.23,0,0,0-1,2.81,7.51,7.51,0,0,0-.19,2.89,1.77,1.77,0,0,0,.61,1.14,1.63,1.63,0,0,0,1.24.18l.26-.05.06.27a3.65,3.65,0,0,0,.65,1.58,2,2,0,0,0,1.42.74,6.15,6.15,0,0,0,3.37-.93l.17-.1.15.11a1.88,1.88,0,0,0,2-.18,5.9,5.9,0,0,0,1.69-1.56,9.36,9.36,0,0,0,1.74-4.33,13.1,13.1,0,0,0-2.47-9,6.3,6.3,0,0,0-3.81-2.65,4.41,4.41,0,0,0-2.29.19c-.73.31-1.46.66-2.17,1a23.65,23.65,0,0,0-4.05,2.53,7,7,0,0,0-1.58,1.71,2.25,2.25,0,0,0-.26,2.11v0a2.11,2.11,0,0,0,1.28,1,3.14,3.14,0,0,0,1.69-.13,7.44,7.44,0,0,0,1.61-.76A13,13,0,0,0,309.12,190.11Z"/><path class="cls-9" d="M309.14,190.09s-4.51,10.37.91,8.83c-1.31,2.46,2.14,3.07,4.67,1.87.7.33.94.69,3.83-1.86-2.13,3.34-4,2.86-4.24,2.45-.93.73-5.35,2.53-6-1.46C305.85,200.71,304.86,195.76,309.14,190.09Z"/><path class="cls-9" d="M307.85,185.32s-9.87,5.75,1.29,4.77C302.79,195.54,299.54,188.83,307.85,185.32Z"/><path d="M308.33,199.89c.52-.42,1-.76,1.52-1.17a11,11,0,0,0,1.37-1.25,9.12,9.12,0,0,0,1.68-3.39,0,0,0,0,1,0,0,0,0,0,0,1,0,0,8.44,8.44,0,0,1-1.38,3.66,5.33,5.33,0,0,1-1.4,1.43,5.52,5.52,0,0,1-1.83.77,0,0,0,0,1,0,0A0,0,0,0,1,308.33,199.89Z"/><path d="M314.18,201.49c.22-.52.46-1,.68-1.49s.51-.95.76-1.42a4.76,4.76,0,0,0,.69-3.07,0,0,0,0,1,0,0,0,0,0,0,1,0,0,3.43,3.43,0,0,1,.15,1.66,8.1,8.1,0,0,1-.46,1.61,7,7,0,0,1-.72,1.5,5.23,5.23,0,0,1-1.11,1.25,0,0,0,0,1,0,0A0,0,0,0,1,314.18,201.49Z"/><ellipse class="cls-5" cx="309.14" cy="162.38" rx="4.07" ry="7.04"/><path d="M305,162.38a12.17,12.17,0,0,1,.73-4.4,5.69,5.69,0,0,1,1.22-1.93,2.78,2.78,0,0,1,4.23.06,6.74,6.74,0,0,1,1.21,1.9,12.33,12.33,0,0,1,.93,4.36,10.6,10.6,0,0,1-.77,4.43,6.27,6.27,0,0,1-1.27,1.93,3.17,3.17,0,0,1-2.18,1,3.14,3.14,0,0,1-2.16-1,5.8,5.8,0,0,1-1.21-1.95A12.18,12.18,0,0,1,305,162.38Zm.06,0a9.57,9.57,0,0,0,1,4.25c.64,1.26,1.69,2.48,3,2.51s2.39-1.27,3-2.54a10.91,10.91,0,0,0,.95-4.22,9.49,9.49,0,0,0-.8-4.28c-.58-1.3-1.73-2.55-3.12-2.53s-2.41,1.3-3,2.56A9.58,9.58,0,0,0,305.1,162.38Z"/><ellipse class="cls-6" cx="307.89" cy="162.73" rx="2.51" ry="4.07"/><ellipse cx="307.81" cy="162.73" rx="0.96" ry="1.56"/><circle class="cls-7" cx="308.92" cy="160.87" r="1.03"/><circle class="cls-7" cx="307.47" cy="164.8" r="0.3"/><path class="cls-8" d="M305.41,157.44s4.52-4.67,7.46,2C312.19,156.3,308.51,151.54,305.41,157.44Z"/><path class="cls-13" d="M160.26,197c.11.29.16.62.26,1,2.84,9.66,17.2,34,89.75,33.21,86.07-8.3,92.08-49.94,92.08-52.82.12-1.58,0-21.36,0-21.36s.63-17.32-21.29-17.32c-17,0-20,10.44-20.42,15.11a14.26,14.26,0,0,0-.17,2.62l.12,5.29,0,16.64a10.91,10.91,0,0,0,.34,3.56c.15,1.81.46,6.13.46,9.44-2.45,8.35-82.94,11-87.89,10.27-5.74-.9-23.87-1.7-36.22-14.48-10.15-10.5-1.06-35.62-.11-39.12.43-1.56-1.4-3.45-2.63-3.38-1.69.09-7.19,9.46-10.33,15.58-1.08,2.11-6.1,17.34-6.1,23.44A35.9,35.9,0,0,0,160.26,197Z"/><path d="M320.26,172.38s1.22.68,1,1.16c-5.4,3.6-16.24,4.63-20.62,4.48l-.11.82c13.33,0,20.22-4.68,20.55-4.92.49-.35.7.42.7,1.53C322.59,172.69,320.26,172.38,320.26,172.38Z"/><rect class="cls-14" y="76.63" width="10.9" height="841.89"/><rect class="cls-14" x="844.1" y="76.63" width="10.9" height="841.89"/><rect class="cls-15" x="10.9" y="79.63" width="833.21" height="219.98"/><rect class="cls-15" x="10.9" y="299.02" width="833.21" height="219.98"/><rect class="cls-16" x="10.34" y="519.53" width="833.21" height="219.98"/><rect class="cls-15" x="11.34" y="739.51" width="833.21" height="177.05"/><line class="cls-15" x1="419.9" y1="917" x2="419.9" y2="78.18"/><rect class="cls-14" width="855" height="78"/><path class="cls-17" d="M698.5,55.83l-2.18-2.18,2.18-2.18,2.18,2.18Z"/><path class="cls-17" d="M711,41.31a1.37,1.37,0,0,1-1-.4,1.29,1.29,0,0,1-.41-1,2.44,2.44,0,0,1,.71-1.62q.71-.8,1.07-.8a1.44,1.44,0,0,1,1,.61,2,2,0,0,1,.53,1.31,1.71,1.71,0,0,1-.62,1.3A1.94,1.94,0,0,1,711,41.31Zm.82-1.68a.76.76,0,0,0-.24-.43.65.65,0,0,0-.46-.27A.28.28,0,0,0,711,39a.68.68,0,0,0-.17.23.8.8,0,0,0-.08.36c0,.19.15.28.44.28S711.84,39.79,711.84,39.63Z"/><path class="cls-17" d="M717,47.17v10a10.22,10.22,0,0,1-5.5,1.7,5.8,5.8,0,0,1-4.08-1.43,5.48,5.48,0,0,1-1.56-4.25,10.07,10.07,0,0,1,.68-3.54l2.12-.32.16.16a10.93,10.93,0,0,0-.46,2.84,3.46,3.46,0,0,0,.87,2.62,4,4,0,0,0,2.77.82,9.74,9.74,0,0,0,2.24-.26V47.17Zm-6.46,1.24-1.76-2.08,2.26-1.86,1.72,2.08Z"/><path class="cls-17" d="M721.54,40.27q-1.2,0-1.18-1.36a4.22,4.22,0,0,1,.44-1.52l.82-.2.12.08a2.87,2.87,0,0,0-.3,1.22q0,.36.42.36c.16,0,.33-.13.52-.39a2.16,2.16,0,0,0,.34-1.09l.76-.26.16.1a7.17,7.17,0,0,1-.14,1.22,1.51,1.51,0,0,0,.56.16q.48,0,.48-.44a2.71,2.71,0,0,0-.24-1.3l.94-.38a3.77,3.77,0,0,1,.36,1.5,2.09,2.09,0,0,1-.53,1.5,1.62,1.62,0,0,1-1.21.56,2,2,0,0,1-1.08-.4A1.63,1.63,0,0,1,721.54,40.27Zm4.12-.1v1.34l-5.22,2v-1.3Z"/><path class="cls-17" d="M729.58,52.27v2.56l-.2.38h-1.32q-.78,4.54-5.38,4.54a6.54,6.54,0,0,1-2.72-.66l-.32-2.64.18-.16a10.64,10.64,0,0,0,3.14.5,3.59,3.59,0,0,0,1.79-.36,1.83,1.83,0,0,0,.81-1.26,10.72,10.72,0,0,1-3.68-1A8.34,8.34,0,0,1,719.12,52a11.57,11.57,0,0,1,1.83-4.62,3.57,3.57,0,0,1,2.83-1.8,3.08,3.08,0,0,1,2.23,1,6.21,6.21,0,0,1,1.47,2.35,12.58,12.58,0,0,1,.66,3.07h1.24Zm-6.12-3.4a1.33,1.33,0,0,0-.9.5,3.85,3.85,0,0,0-.8,1.42,7.16,7.16,0,0,0,3.82,1.2,5.5,5.5,0,0,0-.79-2.29A1.62,1.62,0,0,0,723.46,48.87Z"/><path class="cls-17" d="M734.8,36.67l-5.22,2v-1.3l5.22-2Z"/><path class="cls-17" d="M734.42,40.21v15h-5l-.26-.22V52.25l.26-.24h2.08V40.21Z"/><path class="cls-17" d="M743.1,40.67l-5.22,2v-1.3l5.22-2Z"/><path class="cls-17" d="M741.27,45.63a3,3,0,0,1,2,.7,5.07,5.07,0,0,1,1.4,1.83,10.92,10.92,0,0,1,.8,2.45,13.36,13.36,0,0,1,.27,2.68q0,6.46-5.52,6.46a7.09,7.09,0,0,1-2.72-.6l-.5-2.7.18-.16a11.21,11.21,0,0,0,3.32.5,3.59,3.59,0,0,0,1.79-.36,1.91,1.91,0,0,0,.83-1.28,9.26,9.26,0,0,1-6.46-3.1,11.57,11.57,0,0,1,1.83-4.62A3.57,3.57,0,0,1,741.27,45.63ZM741,48.87a1.32,1.32,0,0,0-.9.51,4,4,0,0,0-.8,1.43,7.1,7.1,0,0,0,3.86,1.38,5.79,5.79,0,0,0-.78-2.44A1.66,1.66,0,0,0,741,48.87Z"/><path class="cls-17" d="M755.29,41.35a1.37,1.37,0,0,1-1-.4,1.29,1.29,0,0,1-.41-1,2.44,2.44,0,0,1,.71-1.62q.71-.8,1.07-.8a1.44,1.44,0,0,1,1,.61,2,2,0,0,1,.53,1.31,1.71,1.71,0,0,1-.62,1.3A1.94,1.94,0,0,1,755.29,41.35Zm.82-1.68a.76.76,0,0,0-.24-.43.65.65,0,0,0-.46-.27.28.28,0,0,0-.13.07.68.68,0,0,0-.17.23.8.8,0,0,0-.08.36c0,.19.15.28.44.28S756.11,39.83,756.11,39.67Z"/><path class="cls-17" d="M762.24,52.23v2.7l-.2.28H759.6a8,8,0,0,1-4.82-1.34,3.22,3.22,0,0,0-1,1.92,1.39,1.39,0,0,0,.7,1.28,4.85,4.85,0,0,0,2.36.42,13.7,13.7,0,0,0,4.24-.7l.18.12v2.56a12.28,12.28,0,0,1-4.8,1,6,6,0,0,1-3.84-1.09,3.69,3.69,0,0,1-1.34-3,6.56,6.56,0,0,1,2-4,10.89,10.89,0,0,1-1.64-4l-.76.16-.2-.16.24-2.66a18.15,18.15,0,0,1,4.94-.7,17.42,17.42,0,0,1,4.72.68l.42,3.16q-2.64,1.86-4,2.92a13.75,13.75,0,0,0,3.24.28H762Zm-4-4.12a15.49,15.49,0,0,0-2.74-.26,11.8,11.8,0,0,0-1.28.06,6.31,6.31,0,0,0,1,2.64Q756.24,49.59,758.2,48.11Z"/><path class="cls-17" d="M767.9,41.67l-5.22,2v-1.3l5.22-2Z"/><path class="cls-17" d="M769.48,52.23V55l-.2.2h-.2a2.78,2.78,0,0,1-.78-.1,2,2,0,0,1-.7-.39,7.12,7.12,0,0,1-.55-.48l-.61-.65-1,1.62H762l-.4-.4V52.29L762,52h2.76V47h2.8v4.62a2.61,2.61,0,0,0,1.56.42h.12Zm-3.44,4,1.78,2.16-2.22,1.86-1.82-2.16Z"/><path class="cls-17" d="M775.05,38.35a1.37,1.37,0,0,1-1-.4,1.29,1.29,0,0,1-.41-1,2.44,2.44,0,0,1,.71-1.62q.71-.8,1.07-.8a1.44,1.44,0,0,1,1,.61,2,2,0,0,1,.53,1.31,1.71,1.71,0,0,1-.62,1.3A1.94,1.94,0,0,1,775.05,38.35Zm.82-1.68a.76.76,0,0,0-.24-.43.65.65,0,0,0-.46-.27A.28.28,0,0,0,775,36a.68.68,0,0,0-.17.23.8.8,0,0,0-.08.36c0,.19.15.28.44.28S775.87,36.83,775.87,36.67Z"/><path class="cls-17" d="M778.91,45.65a3.37,3.37,0,0,1,2.94,1.89,9.59,9.59,0,0,1,1.24,4.67l-1.94,3H769.27l-.2-.2v-2.8l.2-.2h1.58V40.21h2.76l-.06,8.3Q777.21,45.65,778.91,45.65ZM773.53,52h7a5.17,5.17,0,0,0-.82-2.3,1.78,1.78,0,0,0-1.48-.82q-1.54,0-4.68,2Z"/><path class="cls-17" d="M788.09,55.21h-2.8v-15h2.8Z"/></g></g></svg>