<?xml version="1.0" encoding="utf-8"?>
<!-- Generator: Adobe Illustrator 21.0.0, SVG Export Plug-In . SVG Version: 6.00 Build 0)  -->
<svg version="1.1" id="Layer_1" xmlns="http://www.w3.org/2000/svg" xmlns:xlink="http://www.w3.org/1999/xlink" x="0px" y="0px"
	 viewBox="0 0 855 919.1" style="enable-background:new 0 0 855 919.1;" xml:space="preserve">
<style type="text/css">
	.st0{fill:#FCE74F;}
	.st1{fill:#DDBE05;}
	.st2{fill:#FCF059;}
	.st3{opacity:0.31;fill:#FFFFFF;enable-background:new    ;}
	.st4{fill:#FFFFFF;}
	.st5{fill:#896C4D;}
	.st6{fill:#F4F0ED;}
	.st7{fill:#010101;}
	.st8{fill:#DDDDDD;}
	.st9{fill:none;stroke:#000000;stroke-width:0.6;stroke-miterlimit:10;}
	.st10{fill:none;stroke:#000000;stroke-width:0.47;stroke-miterlimit:10;}
	.st11{fill:none;stroke:#000000;stroke-width:0.42;stroke-miterlimit:10;}
	.st12{fill:none;stroke:#000000;stroke-width:0.56;stroke-miterlimit:10;}
	.st13{fill:#CAFDFF;}
	.st14{fill:none;stroke:#CAFDFF;stroke-width:5;stroke-miterlimit:10;}
	.st15{fill:none;stroke:#CAFDFF;stroke-miterlimit:10;}
	.st16{fill:#064172;}
</style>
<title>Asset 12</title>
<g id="Layer_2">
	<g id="Layer_1-2">
		<g id="م">
			<path id="ميم" class="st0" d="M599.6,349.1c8.9-9.3,16.5-29.6,34.9-26.8c17.1,3.7,26,23.2,29.8,24.3
				c0.7,4.6-2.3,17.4-3.4,19.3c-4.3-0.6-58.3-3-72,4.5c-3.8,2.6-18.9,10.5-12,25.1c3.8,6.7,13.1,20.8,19,38.7s8.8,34.1,11.1,55.8
				c-0.7,1.2-1.3,5.8-2.3,6c-2.4-2.8-5.7-9.7-7-13c-1.2-8.4-8.3-37.8-10.1-42.4c-5.6-15.9-20.3-37.7-21.4-47.3
				c-1.2-10.1,0-23.5,6.3-30C580.1,356.1,589.5,351.2,599.6,349.1z M640.9,346.4c-7-7-16.3-6.6-18.1-5.7s-5.8,4-8.6,6.6
				C615.1,346.5,639,347.9,640.9,346.4L640.9,346.4z"/>
			<path class="st1" d="M662.9,359.2c-0.2,0.8-1.8,6.6-1.8,6.6s-57-1.6-72,4.5c-13.3,5.8-15.5,19-12,25.1s14.3,23.2,19,38.7
				s10.2,38.3,11.1,55.8c-0.6,2-1.4,4-2.3,6l-2.9-5c0,0-1.4-40-14-69.4c-7.3-14.7-15.8-30.4-15.8-30.4s-7.2-22.6,19.6-29.8
				c7.2-1.9,14.5-3,21.9-3.4C633.4,357.3,660.2,359.6,662.9,359.2z"/>
			<path class="st2" d="M642.4,327.8c0.8,7.5-5.5,11.6-11.4,11.6s-10.4-5.4-10-11.6c0-2.2,4.2-5.9,10.7-5.9S642.4,326.2,642.4,327.8
				z"/>
			<path class="st3" d="M637.5,325.2c0,1.6-2.7,4.7-5.9,4.7s-5.7-3.1-5.7-4.7s2.6-2.9,5.8-2.9S637.5,323.6,637.5,325.2z"/>
			
				<ellipse transform="matrix(0.8841 -0.4673 0.4673 0.8841 -83.5376 342.209)" class="st4" cx="648.1" cy="339.5" rx="3.9" ry="6.8"/>
			<path d="M651.5,337.7c-0.7-1.3-1.6-2.3-2.8-3.2c-1.1-0.8-2.5-1.3-3.7-0.8s-1.6,2.1-1.5,3.5c0.1,1.4,0.5,2.8,1.3,4
				c0.7,1.2,1.6,2.3,2.7,3.1c1.1,0.8,2.5,1.4,3.6,0.8s1.5-2.1,1.5-3.4C652.6,340.4,652.2,339,651.5,337.7z M651.6,337.7
				c0.7,1.3,1.2,2.7,1.4,4.1c0.1,0.8,0.1,1.5-0.1,2.3c-0.2,0.8-0.7,1.5-1.4,1.9c-0.7,0.4-1.6,0.4-2.4,0.1c-0.7-0.2-1.4-0.6-2-1.1
				c-1.1-1-2-2.1-2.7-3.5c-0.6-1.3-1-2.7-1.2-4.2c-0.1-0.7,0-1.5,0.2-2.2c0.2-0.8,0.7-1.4,1.3-1.9c0.7-0.4,1.6-0.4,2.3-0.2
				c0.7,0.2,1.4,0.6,1.9,1.1C650.1,335.2,650.9,336.4,651.6,337.7L651.6,337.7z"/>
			
				<ellipse transform="matrix(0.8841 -0.4673 0.4673 0.8841 -84.1986 342.1313)" class="st5" cx="647.6" cy="340.8" rx="2.4" ry="3.9"/>
			<ellipse transform="matrix(0.8841 -0.4673 0.4673 0.8841 -84.1791 342.1608)" cx="647.7" cy="340.8" rx="0.9" ry="1.5"/>
			<ellipse transform="matrix(0.8841 -0.4673 0.4673 0.8841 -83.8752 341.1942)" class="st6" cx="645.9" cy="339.7" rx="1" ry="1"/>
			
				<ellipse transform="matrix(0.8841 -0.4673 0.4673 0.8841 -84.793 342.9205)" class="st6" cx="648.9" cy="342.4" rx="0.3" ry="0.3"/>
			<path class="st7" d="M649,333.6c0,0-6-2-5.5,5.1C642.7,335.7,643.7,330,649,333.6z"/>
			<path class="st4" d="M649.8,365c0.7,0.3,5.6,1.2,5.8-2c-0.3-4-10.4-2.6-10.4-2.6s-5.1,0.4-4.2,8.6s8.7,10.5,9.9,8.1
				c0,0,5.7,0.2,4.2-4.1C658.9,371.6,653,365.9,649.8,365z"/>
			<path d="M649.8,365c0.5,0.1,1.1,0.2,1.7,0.2c0.6,0,1.1,0,1.7-0.1c0.5-0.1,1.1-0.3,1.5-0.7c0.4-0.4,0.6-0.9,0.6-1.4l0,0
				c-0.1-0.7-0.5-1.3-1.2-1.6c-0.7-0.3-1.4-0.6-2.1-0.7c-1.5-0.2-3.1-0.3-4.6-0.2c-0.8,0-1.6,0.1-2.3,0.1c-0.7,0.1-1.4,0.4-2,0.9
				c-1.2,1-1.9,2.5-2,4c-0.4,3.1,0.4,6.2,2.2,8.8c0.9,1.2,2.1,2.2,3.5,2.8c0.7,0.3,1.4,0.5,2.1,0.5c0.7,0.1,1.3-0.2,1.7-0.7l0.1-0.2
				h0.3c1.1,0.1,2.3-0.2,3.2-0.8c0.4-0.3,0.7-0.7,0.8-1.2c0.1-0.5,0-1.1-0.2-1.6l-0.1-0.3l0.3-0.1c0.4-0.1,0.7-0.3,0.9-0.7
				c0.1-0.4,0.1-0.8,0-1.2c-0.4-0.9-0.9-1.7-1.5-2.3c-0.6-0.7-1.3-1.4-2.1-1.9C651.6,365.8,650.7,365.4,649.8,365z M649.8,365
				c1,0.2,1.9,0.7,2.7,1.2c0.8,0.5,1.6,1.2,2.3,1.9c0.7,0.7,1.3,1.5,1.7,2.5c0.2,0.5,0.2,1.1,0,1.6c-0.3,0.5-0.7,0.9-1.3,1.1
				l0.2-0.4c0.3,0.6,0.3,1.3,0.2,2c-0.1,0.7-0.5,1.3-1.1,1.7c-0.5,0.4-1.2,0.6-1.8,0.7c-0.6,0.1-1.3,0.2-1.9,0.2l0.3-0.2
				c-0.2,0.4-0.6,0.8-1.1,0.9c-0.4,0.1-0.9,0.2-1.3,0.2c-0.8,0-1.6-0.3-2.4-0.6c-1.5-0.7-2.7-1.8-3.6-3.1c-0.9-1.3-1.5-2.8-1.8-4.4
				c-0.3-1.6-0.3-3.1-0.2-4.7c0.1-1.6,0.8-3.1,2-4.3c0.6-0.6,1.4-0.9,2.2-1.1c0.8-0.1,1.6-0.2,2.4-0.3c1.6-0.1,3.2,0,4.8,0.2
				c0.8,0.1,1.6,0.4,2.3,0.8c0.8,0.4,1.3,1.2,1.4,2.1l0,0l0,0c0,0.7-0.3,1.3-0.8,1.7c-0.5,0.4-1.1,0.6-1.7,0.7
				c-0.6,0.1-1.2,0.1-1.8,0C650.9,365.4,650.3,365.2,649.8,365L649.8,365z"/>
			<path class="st8" d="M649.8,365c0,0,8.7,6.7,3.4,7.9c2.3,1.5-0.4,3.6-3.1,3.8c-0.4,0.6-0.5,1-4.1,0.2c3.4,1.8,4.7,0.6,4.8,0.1
				c1.1,0.2,5.7-0.4,4.4-4C657.6,372.4,656.1,367.8,649.8,365z"/>
			<path class="st8" d="M648.7,360.3c0,0,11.1,0.3,1.1,4.6C657.8,366.6,657.4,359.4,648.7,360.3z"/>
			<path d="M655.1,372.9c-0.6,0.2-1.3,0.3-1.9,0.3c-0.7-0.1-1.3-0.3-1.9-0.6c-1.1-0.6-2.1-1.5-2.9-2.5l0,0l0,0c0.9,0.9,1.9,1.5,3,2
				c0.6,0.2,1.2,0.3,1.7,0.4C653.8,372.6,654.4,372.7,655.1,372.9L655.1,372.9L655.1,372.9z"/>
			<path d="M650.9,377c-0.5-0.1-1.1-0.2-1.6-0.5c-0.5-0.3-0.9-0.6-1.3-0.9c-0.4-0.4-0.8-0.7-1.1-1.2c-0.3-0.4-0.5-1-0.6-1.5
				c0.4,0.9,1.1,1.7,2.1,2.2c0.4,0.3,0.9,0.5,1.3,0.8S650.4,376.6,650.9,377L650.9,377z"/>
			<path d="M644.1,350.4c0,0-1.2,0.7-1,1.1c5.2,3.5,15.7,4.5,20,4.3l0.1,0.8c-12.9,0-19.6-4.5-19.9-4.8c-0.5-0.3-0.7,0.4-0.7,1.5
				C641.8,350.7,644.1,350.4,644.1,350.4z"/>
		</g>
		<path id="ميم-2" class="st9" d="M245.1,498.1c-2.4-2.8-5.7-9.7-7-13c-1.2-8.4-8.3-37.8-10.1-42.4
			c-5.6-15.9-20.3-37.7-21.4-47.3c-1.2-10.1,0-23.5,6.3-30c7.5-7.2,16.8-12.1,27-14.2c8.9-9.3,16.5-29.6,34.9-26.8
			c17.1,3.7,26,23.2,29.8,24.3c0.7,4.6-2.3,17.4-3.4,19.3 M217.3,397.5c3.8,6.7,13.1,20.8,19,38.7s8.8,34.1,11.1,55.8l-2.3,6
			 M281.2,348.4c-7-7-16.3-6.6-18.1-5.7s-5.8,4-8.6,6.6C255.4,348.5,279.3,349.9,281.2,348.4L281.2,348.4z"/>
		<path class="st9" d="M245.1,498.1"/>
		<path class="st9" d="M236.3,436.2"/>
		<path class="st9" d="M303.1,361.2c-0.2,0.8-1.8,6.6-1.8,6.6s-57-1.6-72,4.5c-13.3,5.8-15.6,19-12,25.1"/>
		
			<ellipse transform="matrix(0.8841 -0.4673 0.4673 0.8841 -126.1749 174.3456)" class="st4" cx="288.4" cy="341.5" rx="3.9" ry="6.8"/>
		<path d="M291.8,339.7c-0.7-1.3-1.6-2.3-2.8-3.2c-1.1-0.8-2.5-1.3-3.7-0.8s-1.6,2.1-1.5,3.5c0.1,1.4,0.5,2.8,1.3,4
			c0.7,1.2,1.6,2.3,2.7,3.1c1.1,0.8,2.5,1.4,3.6,0.8s1.5-2.1,1.5-3.4C292.8,342.4,292.5,341,291.8,339.7z M291.9,339.7
			c0.7,1.3,1.2,2.7,1.4,4.1c0.1,0.8,0.1,1.5-0.1,2.3c-0.2,0.8-0.7,1.5-1.4,1.9c-0.7,0.4-1.6,0.4-2.4,0.1c-0.7-0.2-1.4-0.6-2-1.1
			c-1.1-1-2-2.1-2.7-3.5c-0.6-1.3-1-2.7-1.2-4.2c-0.1-0.7,0-1.5,0.1-2.2c0.2-0.8,0.7-1.4,1.3-1.9c0.7-0.4,1.6-0.4,2.3-0.2
			c0.7,0.2,1.4,0.6,1.9,1.1C290.3,337.2,291.2,338.4,291.9,339.7L291.9,339.7z"/>
		
			<ellipse transform="matrix(0.8841 -0.4673 0.4673 0.8841 -126.8426 174.2702)" class="st5" cx="287.9" cy="342.8" rx="2.4" ry="3.9"/>
		<ellipse transform="matrix(0.8841 -0.4673 0.4673 0.8841 -126.8164 174.2974)" cx="288" cy="342.8" rx="0.9" ry="1.5"/>
		<ellipse transform="matrix(0.8841 -0.4673 0.4673 0.8841 -126.5125 173.3308)" class="st6" cx="286.2" cy="341.7" rx="1" ry="1"/>
		
			<ellipse transform="matrix(0.8841 -0.4673 0.4673 0.8841 -127.4292 175.0618)" class="st6" cx="289.2" cy="344.4" rx="0.3" ry="0.3"/>
		<path class="st7" d="M289.3,335.6c0,0-6-2-5.5,5.1C283,337.7,284,332,289.3,335.6z"/>
		<path class="st4" d="M290.1,367c0.7,0.3,5.6,1.2,5.8-2c-0.3-4-10.4-2.6-10.4-2.6s-5.1,0.4-4.2,8.6s8.7,10.5,9.9,8.1
			c0,0,5.7,0.2,4.2-4.1C299.2,373.6,293.3,367.9,290.1,367z"/>
		<path d="M290.1,367c0.5,0.1,1.1,0.2,1.7,0.2c0.6,0,1.1,0,1.7-0.1c0.5-0.1,1.1-0.3,1.5-0.7c0.4-0.4,0.6-0.9,0.6-1.4l0,0
			c-0.1-0.7-0.5-1.3-1.2-1.6c-0.7-0.3-1.4-0.6-2.1-0.7c-1.5-0.2-3.1-0.3-4.6-0.2c-0.8,0-1.6,0.1-2.3,0.1c-0.7,0.1-1.4,0.4-2,0.9
			c-1.2,1-1.9,2.5-2,4c-0.4,3.1,0.4,6.2,2.2,8.8c0.9,1.2,2.1,2.2,3.5,2.8c0.7,0.3,1.4,0.5,2.1,0.5c0.7,0.1,1.3-0.2,1.7-0.7l0.1-0.2
			h0.3c1.1,0.1,2.3-0.2,3.2-0.8c0.4-0.3,0.7-0.7,0.8-1.2c0.1-0.5,0-1.1-0.2-1.6l-0.1-0.3l0.3-0.1c0.4-0.1,0.7-0.3,0.9-0.7
			c0.1-0.4,0.1-0.8,0-1.2c-0.3-0.9-0.9-1.7-1.5-2.3c-0.6-0.7-1.3-1.4-2.1-1.9C291.8,367.8,291,367.4,290.1,367z M290,367
			c1,0.2,1.9,0.7,2.7,1.2c0.8,0.5,1.6,1.1,2.3,1.8c0.7,0.7,1.3,1.5,1.7,2.5c0.2,0.5,0.2,1.1,0,1.6c-0.3,0.5-0.7,0.9-1.3,1.1l0.2-0.4
			c0.3,0.6,0.3,1.3,0.2,2c-0.1,0.7-0.5,1.3-1.1,1.7c-0.5,0.4-1.2,0.6-1.8,0.7c-0.6,0.1-1.3,0.2-1.9,0.2l0.4-0.2
			c-0.2,0.4-0.6,0.8-1.1,0.9c-0.4,0.1-0.9,0.2-1.3,0.2c-0.8,0-1.6-0.3-2.4-0.6c-1.5-0.7-2.7-1.8-3.6-3.1c-0.9-1.3-1.5-2.8-1.8-4.4
			c-0.3-1.6-0.3-3.1-0.2-4.7c0.1-1.6,0.8-3.1,2-4.3c0.6-0.6,1.4-0.9,2.2-1.1c0.8-0.1,1.6-0.2,2.4-0.3c1.6-0.1,3.2,0,4.8,0.2
			c0.8,0.1,1.6,0.4,2.3,0.8c0.8,0.4,1.3,1.2,1.4,2.1l0,0l0,0c0,0.7-0.3,1.3-0.8,1.7c-0.5,0.4-1.1,0.6-1.7,0.7
			c-0.6,0.1-1.2,0.1-1.8,0C291.2,367.3,290.6,367.2,290,367L290,367z"/>
		<path class="st8" d="M290.1,367c0,0,8.7,6.7,3.4,7.9c2.3,1.5-0.4,3.6-3.1,3.8c-0.4,0.6-0.5,1-4.1,0.2c3.4,1.8,4.7,0.6,4.8,0.1
			c1.1,0.2,5.7-0.4,4.4-4C297.9,374.4,296.4,369.7,290.1,367z"/>
		<path class="st8" d="M289,362.3c0,0,11.1,0.3,1.1,4.6C298,368.6,297.6,361.4,289,362.3z"/>
		<path d="M295.4,374.9c-0.6,0.2-1.3,0.3-1.9,0.3c-0.7-0.1-1.3-0.3-1.9-0.6c-1.1-0.6-2.1-1.5-2.9-2.5l0,0l0,0c0.9,0.9,1.9,1.5,3,2
			c0.6,0.2,1.2,0.3,1.7,0.4C294.1,374.6,294.7,374.7,295.4,374.9L295.4,374.9L295.4,374.9z"/>
		<path d="M291.1,379c-0.5-0.1-1.1-0.2-1.6-0.5c-0.5-0.3-0.9-0.6-1.3-0.9c-0.4-0.4-0.8-0.7-1.1-1.2c-0.3-0.4-0.5-1-0.6-1.5
			c0.4,0.9,1.1,1.7,2.1,2.2c0.4,0.3,0.9,0.5,1.3,0.8S290.7,378.6,291.1,379L291.1,379z"/>
		<path d="M284.4,352.4c0,0-1.2,0.7-1,1.1c5.2,3.5,15.7,4.5,20,4.3l0.1,0.8c-12.9,0-19.6-4.5-19.9-4.8c-0.5-0.3-0.7,0.4-0.7,1.5
			C282.1,352.7,284.4,352.4,284.4,352.4z"/>
		<g id="فاء">
			<path class="st0" d="M647.2,565.3c0,0-2.4-1.3-4.1,0.2c-2.4,3.5-4.7,7.2-6.7,10.9c0,0-3.9,5.9-0.7,7.9c4.3,2.9,11.5,5.2,11.5,5.2
				s1.4,0.8,3-2.1c3-4.2,6.6-13.3,6.6-13.3s1.6-3.8,0.4-4.7C654.2,567.4,650.8,566,647.2,565.3z"/>
			<path class="st0" d="M692.4,640.6c-1,12.9-2.9,18.4-9.1,26.8c-17.1,25.8-107.3,30-131.2,23.4c-31.3-8.6-36.2-27.7-36.2-36.9
				c0-5.7,0.5-21.5,6.3-34c1.2-1.4,6.1-5.2,6.3,3.6c-0.9,3.3-8.8,21.9,7.4,37.2c30,21.2,127.2,10.9,146-13c0-2.8-0.6-5.5-1.6-8.1
				c-17.2,10.7-38.4,6.4-40.7-6.1c-2.8-14.6,16.1-41.3,24.7-41.3C684.7,592.2,695.3,630.1,692.4,640.6z M660,615.7
				c-3.3,0-8.1,2.9-7.1,6.2c1.7,2.9,16,4.8,18.7,1.5C670.2,620.4,664.9,615.1,660,615.7z"/>
			<path class="st4" d="M640.7,649.4c-0.7,0.3-5.4,1.2-5.5-1.9c0.3-3.8,10-2.5,10-2.5s4.9,0.3,4,8.3s-8.4,10.1-9.5,7.8
				c0,0-5.5,0.2-4.1-4C632,655.8,637.7,650.3,640.7,649.4z"/>
			<path d="M640.8,649.4c-0.5,0.2-1.1,0.3-1.7,0.4c-0.6,0.1-1.1,0.1-1.7,0c-0.6-0.1-1.2-0.3-1.6-0.7c-0.5-0.4-0.7-1-0.8-1.6l0,0l0,0
				c0.1-0.8,0.6-1.6,1.3-2c0.7-0.4,1.4-0.6,2.2-0.8c1.5-0.3,3-0.3,4.6-0.2c0.8,0,1.5,0.1,2.3,0.2c0.8,0.1,1.5,0.5,2.1,1
				c1.1,1.1,1.8,2.5,1.9,4.1c0.4,3-0.2,6.1-1.9,8.7c-0.9,1.3-2.1,2.3-3.5,3c-0.7,0.3-1.5,0.5-2.3,0.6c-0.4,0-0.8,0-1.2-0.2
				c-0.4-0.1-0.8-0.5-1-0.8l0.3,0.2c-0.6,0-1.2,0-1.8-0.2c-0.6-0.1-1.2-0.4-1.7-0.7c-0.5-0.4-0.9-1-1-1.6c-0.1-0.6,0-1.3,0.2-1.8
				l0.2,0.3c-0.5-0.2-0.9-0.5-1.2-1c-0.2-0.5-0.2-1,0-1.5c0.4-0.9,0.9-1.7,1.6-2.4c0.7-0.7,1.4-1.3,2.2-1.8
				C639,650.1,639.8,649.6,640.8,649.4z M640.7,649.4c-0.9,0.4-1.7,0.8-2.4,1.4c-0.7,0.6-1.4,1.2-2.1,1.9c-0.6,0.7-1.1,1.4-1.5,2.3
				c-0.2,0.4-0.2,0.8,0,1.2c0.2,0.3,0.5,0.6,0.9,0.7l0.2,0.1l-0.1,0.3c-0.2,0.5-0.2,1-0.2,1.6c0.1,0.5,0.4,1,0.8,1.2
				c1,0.6,2.1,0.8,3.2,0.8h0.2l0.1,0.2c0.4,0.5,1,0.8,1.7,0.7c0.7,0,1.4-0.2,2.1-0.5c1.3-0.6,2.5-1.6,3.4-2.8
				c1.7-2.5,2.5-5.5,2.1-8.5c-0.1-1.5-0.8-2.9-1.9-3.9c-0.6-0.5-1.3-0.8-2-0.9c-0.7-0.1-1.5-0.1-2.2-0.1c-1.5-0.1-3,0-4.5,0.2
				c-0.7,0.1-1.4,0.3-2.1,0.7c-0.6,0.3-1.1,0.9-1.2,1.6l0,0c0,0.5,0.2,1,0.6,1.4c0.4,0.3,0.9,0.6,1.4,0.7c0.5,0.1,1.1,0.1,1.7,0.1
				C639.6,649.6,640.2,649.5,640.7,649.4L640.7,649.4z"/>
			<path class="st8" d="M640.7,649.4c0,0-8.4,6.4-3.3,7.6c-2.2,1.4,0.4,3.5,3,3.6c0.4,0.6,0.5,1,4,0.2c-3.3,1.8-4.5,0.5-4.6,0.1
				c-1.1,0.2-5.5-0.3-4.2-3.9C633.3,656.6,634.7,652.1,640.7,649.4z"/>
			<path class="st8" d="M641.8,644.9c0,0-10.7,0.2-1.1,4.5C633.1,651,633.5,644,641.8,644.9z"/>
			<path d="M635.7,657c0.6-0.1,1.2-0.2,1.8-0.3c0.6-0.1,1.1-0.2,1.7-0.4c1.1-0.5,2.1-1.1,2.9-2l0,0l0,0c-0.7,1-1.7,1.8-2.8,2.4
				c-0.6,0.3-1.2,0.5-1.8,0.5C636.8,657.3,636.2,657.2,635.7,657L635.7,657L635.7,657z"/>
			<path d="M639.7,661c0.4-0.3,0.8-0.6,1.2-0.9s0.8-0.5,1.3-0.8c0.9-0.5,1.6-1.3,2-2.2l0,0l0,0c-0.1,0.5-0.3,1-0.6,1.4
				c-0.3,0.4-0.7,0.8-1.1,1.1c-0.4,0.4-0.8,0.7-1.3,0.9C640.7,660.8,640.2,660.9,639.7,661L639.7,661L639.7,661z"/>
			<path class="st2" d="M655.1,599c-0.8,7.3,5.7,11.2,11.9,11.2c5.8,0,10.4-4.6,10.4-10.4c0-0.3,0-0.5,0-0.8c0-2.1-4.4-5.6-11.1-5.6
				S655.1,597.5,655.1,599z"/>
			<path class="st3" d="M660.2,596.5c0,1.6,2.8,4.5,6.2,4.5s5.9-3,5.9-4.5s-2.7-2.8-6-2.8S660.2,594.9,660.2,596.5z"/>
			
				<ellipse transform="matrix(0.3869 -0.9221 0.9221 0.3869 -162.0371 976.0773)" class="st4" cx="653" cy="609.9" rx="6.6" ry="3.8"/>
			<path d="M649.4,608.3c0.5-1.3,1.3-2.5,2.2-3.5c0.5-0.5,1.1-0.9,1.8-1.2c1.3-0.6,2.8-0.1,3.5,1.2c0.1,0.1,0.1,0.3,0.2,0.4
				c0.2,0.7,0.4,1.4,0.3,2.1c0,1.4-0.3,2.8-0.8,4.1c-0.5,1.3-1.3,2.5-2.3,3.5c-0.5,0.5-1.1,0.9-1.8,1.2c-0.7,0.3-1.5,0.3-2.2,0
				c-0.7-0.3-1.2-0.9-1.5-1.6c-0.3-0.7-0.4-1.4-0.3-2.1C648.5,611,648.9,609.6,649.4,608.3z M649.5,608.3c-0.5,1.3-0.8,2.6-0.7,4
				c0.1,1.3,0.6,2.7,1.7,3.3s2.5-0.2,3.5-1.1c1-0.9,1.8-2,2.3-3.3c0.6-1.2,0.9-2.6,0.9-4c0-1.3-0.6-2.8-1.8-3.3s-2.5,0.3-3.5,1.1
				C650.8,605.9,650,607.1,649.5,608.3L649.5,608.3z"/>
			
				<ellipse transform="matrix(0.3869 -0.9221 0.9221 0.3869 -163.015 975.4003)" class="st5" cx="652" cy="610.3" rx="3.8" ry="2.3"/>
			<ellipse transform="matrix(0.3869 -0.9221 0.9221 0.3869 -163.0359 975.3148)" cx="651.9" cy="610.3" rx="1.5" ry="0.9"/>
			<ellipse transform="matrix(0.3869 -0.9221 0.9221 0.3869 -160.9228 976.0705)" class="st6" cx="653.5" cy="609" rx="1" ry="1"/>
			
				<ellipse transform="matrix(0.3869 -0.9221 0.9221 0.3869 -165.1915 975.3691)" class="st6" cx="650.9" cy="611.9" rx="0.3" ry="0.3"/>
			<path class="st7" d="M651.5,604.2c0,0,5.6-2.4,5.7,4.4C657.8,605.7,656.3,600.3,651.5,604.2z"/>
			<path d="M658.4,628.1c0,0,1.1,0.6,0.9,1.1c-5,3.4-15.2,4.3-19.3,4.2l-0.1,0.8c12.5,0,18.9-4.4,19.2-4.6s0.7,0.4,0.7,1.4
				C660.5,628.4,658.4,628.1,658.4,628.1z"/>
			<path class="st1" d="M603.5,684.2c-83.5,0-84.5-18.5-84.5-18.5s6.2,32.8,84.5,27.8c86-5.3,87.9-41.5,87.9-44.2
				C689.1,653.5,680.2,679.8,603.5,684.2z"/>
		</g>
		<path class="st10" d="M297.1,565.4c0,0-2.4-1.3-4.1,0.2c-2.4,3.5-4.7,7.2-6.7,10.9c0,0-3.9,5.9-0.7,7.9c4.3,2.9,11.5,5.2,11.5,5.2
			s1.4,0.8,3-2.1c3-4.2,6.6-13.3,6.6-13.3s1.6-3.8,0.4-4.7C304,567.5,300.6,566.1,297.1,565.4z"/>
		<path class="st10" d="M342.3,640.7c-1,12.9-2.9,18.4-9.1,26.8c-17.1,25.8-107.3,30-131.2,23.4c-31.3-8.6-36.1-27.7-36.1-36.9
			c0-5.7,0.5-21.5,6.3-34c1.2-1.4,6.1-5.2,6.3,3.6c-0.9,3.3-8.9,21.9,7.4,37.2c30.1,21.2,127.2,10.9,146-13c0-2.8-0.6-5.5-1.6-8.1
			c-17.2,10.7-38.4,6.4-40.7-6.1c-2.8-14.6,16.1-41.3,24.7-41.3C334.6,592.3,345.1,630.2,342.3,640.7z M309.9,615.8
			c-3.3,0-8.1,2.9-7.1,6.2c1.7,2.9,16,4.8,18.7,1.5C320.1,620.5,314.8,615.2,309.9,615.8z"/>
		<path class="st4" d="M290.6,649.5c-0.7,0.3-5.4,1.2-5.5-1.9c0.3-3.8,10-2.5,10-2.5s4.9,0.3,4,8.3s-8.4,10.1-9.5,7.8
			c0,0-5.5,0.2-4.1-4C281.9,655.9,287.5,650.4,290.6,649.5z"/>
		<path d="M290.6,649.5c-0.5,0.2-1.1,0.3-1.7,0.4c-0.6,0.1-1.1,0.1-1.7,0c-0.6-0.1-1.2-0.3-1.6-0.7c-0.5-0.4-0.7-1-0.8-1.6l0,0l0,0
			c0.1-0.8,0.6-1.6,1.3-2c0.7-0.4,1.4-0.6,2.2-0.8c1.5-0.3,3-0.3,4.6-0.2c0.8,0,1.5,0.1,2.3,0.2c0.8,0.1,1.5,0.5,2.1,1
			c1.1,1.1,1.8,2.5,1.9,4.1c0.4,3-0.2,6.1-1.9,8.7c-0.9,1.3-2.1,2.3-3.5,3c-0.7,0.3-1.5,0.5-2.3,0.6c-0.4,0-0.8,0-1.2-0.2
			c-0.4-0.1-0.8-0.5-1-0.8l0.3,0.2c-0.6,0-1.2,0-1.8-0.2c-0.6-0.1-1.2-0.4-1.7-0.7c-0.5-0.4-0.9-1-1-1.6c-0.1-0.6,0-1.3,0.2-1.8
			l0.2,0.3c-0.5-0.2-0.9-0.5-1.2-1c-0.2-0.5-0.2-1,0-1.5c0.4-0.9,0.9-1.7,1.6-2.4c0.7-0.7,1.4-1.3,2.2-1.8
			C288.8,650.2,289.7,649.8,290.6,649.5z M290.6,649.5c-0.9,0.4-1.7,0.8-2.4,1.4c-0.7,0.6-1.4,1.2-2.1,1.9c-0.6,0.7-1.1,1.4-1.5,2.3
			c-0.2,0.4-0.2,0.8,0,1.2c0.2,0.3,0.5,0.6,0.9,0.7l0.2,0.1l-0.1,0.3c-0.2,0.5-0.2,1-0.2,1.6c0.1,0.5,0.4,1,0.8,1.2
			c1,0.6,2.1,0.8,3.2,0.8h0.2l0.1,0.2c0.4,0.5,1,0.8,1.7,0.7c0.7,0,1.4-0.2,2.1-0.5c1.3-0.6,2.5-1.6,3.4-2.8c1.7-2.5,2.4-5.5,2-8.5
			c-0.1-1.5-0.8-2.9-1.9-3.9c-0.6-0.5-1.3-0.8-2-0.9c-0.7-0.1-1.5-0.1-2.2-0.1c-1.5-0.1-3,0-4.5,0.2c-0.7,0.1-1.4,0.3-2.1,0.7
			c-0.6,0.3-1.1,0.9-1.2,1.6l0,0c0,0.5,0.2,1,0.6,1.4c0.4,0.3,0.9,0.6,1.4,0.7c0.5,0.1,1.1,0.1,1.7,0.1
			C289.4,649.7,290,649.6,290.6,649.5L290.6,649.5z"/>
		<path class="st8" d="M290.6,649.5c0,0-8.4,6.4-3.3,7.6c-2.2,1.4,0.4,3.5,3,3.6c0.4,0.6,0.5,1,4,0.2c-3.3,1.8-4.5,0.5-4.6,0.1
			c-1.1,0.2-5.5-0.3-4.2-3.9C283.1,656.7,284.5,652.2,290.6,649.5z"/>
		<path class="st8" d="M291.7,645c0,0-10.7,0.2-1.1,4.5C283,651.1,283.3,644.1,291.7,645z"/>
		<path d="M285.5,657.2c0.6-0.1,1.2-0.2,1.8-0.3c0.6-0.1,1.1-0.2,1.7-0.4c1.1-0.5,2.1-1.1,2.9-2l0,0l0,0c-0.7,1-1.7,1.8-2.8,2.4
			c-0.6,0.3-1.2,0.5-1.8,0.5C286.7,657.4,286.1,657.4,285.5,657.2L285.5,657.2L285.5,657.2z"/>
		<path d="M289.6,661.1c0.4-0.3,0.8-0.6,1.2-0.9s0.8-0.5,1.3-0.8c0.9-0.5,1.6-1.3,2-2.2l0,0l0,0c-0.1,0.5-0.3,1-0.6,1.4
			c-0.3,0.4-0.7,0.8-1.1,1.1c-0.4,0.4-0.8,0.7-1.3,0.9C290.6,660.9,290.1,661,289.6,661.1L289.6,661.1L289.6,661.1z"/>
		
			<ellipse transform="matrix(0.3869 -0.9221 0.9221 0.3869 -376.8178 653.2493)" class="st4" cx="302.8" cy="610" rx="6.6" ry="3.8"/>
		<path d="M299.3,608.5c0.5-1.3,1.3-2.5,2.2-3.5c0.5-0.5,1.1-0.9,1.8-1.2c1.3-0.6,2.8-0.1,3.5,1.2c0.1,0.1,0.1,0.3,0.2,0.4
			c0.2,0.7,0.4,1.4,0.4,2.1c0,1.4-0.3,2.8-0.8,4.1c-0.5,1.3-1.3,2.5-2.3,3.5c-0.5,0.5-1.1,0.9-1.8,1.2c-0.7,0.3-1.5,0.3-2.2,0
			c-0.7-0.3-1.2-0.9-1.5-1.6c-0.3-0.7-0.4-1.4-0.3-2.1C298.4,611.1,298.7,609.7,299.3,608.5z M299.3,608.5c-0.5,1.3-0.8,2.6-0.7,4
			c0.1,1.3,0.6,2.7,1.7,3.3s2.5-0.2,3.5-1.1c1-0.9,1.8-2,2.3-3.3c0.6-1.2,0.9-2.6,0.9-4c0-1.3-0.6-2.8-1.8-3.3s-2.5,0.3-3.5,1.1
			C300.7,606,299.9,607.2,299.3,608.5L299.3,608.5z"/>
		
			<ellipse transform="matrix(0.3869 -0.9221 0.9221 0.3869 -377.7957 652.5724)" class="st5" cx="301.8" cy="610.4" rx="3.8" ry="2.3"/>
		<ellipse transform="matrix(0.3869 -0.9221 0.9221 0.3869 -377.8166 652.4868)" cx="301.8" cy="610.4" rx="1.5" ry="0.9"/>
		<ellipse transform="matrix(0.3869 -0.9221 0.9221 0.3869 -375.7035 653.2425)" class="st6" cx="303.4" cy="609.1" rx="1" ry="1"/>
		
			<ellipse transform="matrix(0.3869 -0.9221 0.9221 0.3869 -379.983 652.5433)" class="st6" cx="300.7" cy="612" rx="0.3" ry="0.3"/>
		<path class="st7" d="M301.4,604.3c0,0,5.6-2.4,5.7,4.4C307.6,605.8,306.2,600.4,301.4,604.3z"/>
		<path d="M308.2,628.2c0,0,1.1,0.6,0.9,1.1c-5,3.4-15.2,4.3-19.3,4.2l-0.1,0.8c12.5,0,18.9-4.4,19.2-4.6s0.6,0.4,0.6,1.4
			C310.4,628.5,308.2,628.2,308.2,628.2z"/>
		<g id="و">
			<path class="st0" d="M541.1,864.4c0-1,16.8,6.5,37.3,4.7c29.6-3.5,90.4-41.8,70.2-59c-4.3,5.1-10,8.8-16.3,10.8
				c-6.7,1.8-15.4,0.5-19.4-5.4c-6.4-16.6,12-44.1,26-44.1c11.8,2.6,21.2,19.8,24.2,32.2c2.6,32.2-20.6,71.6-74.3,84.6
				C565.5,887,541.1,865.4,541.1,864.4z M632.6,791.4c-2-0.4-8.4,4.4-8.9,6.2c3.2,3.6,14.1,3.8,16.5,0.8
				C640.7,797.2,635.7,792.6,632.6,791.4L632.6,791.4z"/>
			<path class="st2" d="M628.8,777c-0.6,6.4,4.7,9.9,9.7,9.9s8.8-4.6,8.5-9.9c0-1.9-3.6-5-9.1-5S628.8,775.7,628.8,777z"/>
			<path class="st3" d="M633,774.8c0,1.4,2.3,4,5,4s4.8-2.7,4.8-4s-2.2-2.5-4.9-2.5S633,773.4,633,774.8z"/>
			<path class="st4" d="M632.3,816.4c-0.6,0.2-4.7,1-4.9-1.7c0.3-3.4,8.9-2.3,8.9-2.3s4.4,0.3,3.6,7.3s-7.4,9-8.4,6.9
				c0,0-4.9,0.2-3.6-3.5C624.6,822,629.6,817.2,632.3,816.4z"/>
			<path d="M632.3,816.4c-0.5,0.2-1,0.3-1.5,0.3c-0.5,0.1-1,0.1-1.5,0c-0.5-0.1-1-0.3-1.4-0.6c-0.4-0.4-0.7-0.9-0.7-1.4l0,0l0,0
				c0.1-0.7,0.5-1.4,1.2-1.7c0.6-0.3,1.3-0.6,2-0.7c1.3-0.2,2.7-0.3,4-0.2c0.7,0,1.3,0.1,2,0.2c0.7,0.1,1.3,0.5,1.8,0.9
				c1,1,1.6,2.2,1.7,3.6c0.4,2.7-0.2,5.4-1.7,7.7c-0.8,1.1-1.8,2.1-3.1,2.7c-0.6,0.3-1.3,0.5-2,0.5c-0.8,0.1-1.6-0.2-2-0.9l0.3,0.2
				c-0.5,0-1.1,0-1.6-0.2c-0.5-0.1-1.1-0.3-1.5-0.6c-0.5-0.3-0.8-0.8-0.9-1.4c-0.1-0.6,0-1.1,0.2-1.7l0.2,0.3
				c-0.5-0.1-0.8-0.5-1.1-0.9c-0.2-0.4-0.2-0.9,0-1.4c0.3-0.8,0.8-1.5,1.4-2.1c0.6-0.6,1.2-1.1,1.9-1.6
				C630.7,817,631.5,816.6,632.3,816.4z M632.3,816.4c-0.8,0.3-1.5,0.7-2.1,1.2c-0.7,0.5-1.3,1-1.8,1.6c-0.6,0.6-1,1.3-1.3,2
				c-0.1,0.3-0.1,0.7,0,1c0.2,0.3,0.5,0.5,0.8,0.6l0.2,0.1l-0.1,0.3c-0.2,0.4-0.2,0.9-0.2,1.4c0.1,0.4,0.3,0.8,0.7,1.1
				c0.8,0.5,1.8,0.7,2.8,0.7h0.2l0.1,0.2c0.3,0.5,0.9,0.7,1.5,0.6c0.6,0,1.3-0.2,1.8-0.5c1.2-0.5,2.2-1.4,3-2.4
				c1.5-2.2,2.2-4.9,1.8-7.5c-0.1-1.3-0.7-2.5-1.7-3.4c-0.5-0.4-1.1-0.7-1.7-0.8c-0.7-0.1-1.3-0.1-2-0.1c-1.3-0.1-2.6,0-3.9,0.2
				c-0.6,0.1-1.3,0.3-1.8,0.6c-0.5,0.3-0.9,0.8-1,1.4l0,0c0,0.5,0.2,0.9,0.5,1.2c0.4,0.3,0.8,0.5,1.3,0.6c0.5,0.1,1,0.1,1.5,0.1
				C631.3,816.5,631.8,816.5,632.3,816.4L632.3,816.4z"/>
			<path class="st8" d="M632.3,816.4c0,0-7.4,5.7-2.9,6.8c-1.9,1.3,0.3,3.1,2.6,3.2c0.4,0.5,0.4,0.9,3.5,0.2c-2.9,1.6-4,0.5-4,0.1
				c-1,0.2-4.9-0.3-3.7-3.4C625.7,822.7,627,818.8,632.3,816.4z"/>
			<path class="st8" d="M633.3,812.4c0,0-9.4,0.2-1,4C625.5,817.8,625.9,811.6,633.3,812.4z"/>
			<path d="M627.8,823.1c0.5-0.1,1.1-0.2,1.6-0.3c0.5-0.1,1-0.2,1.5-0.3c1-0.4,1.9-1,2.6-1.8l0,0l0,0c-0.6,0.9-1.5,1.6-2.5,2.1
				C630,823.4,628.8,823.5,627.8,823.1L627.8,823.1L627.8,823.1z"/>
			<path d="M631.4,826.6c0.4-0.3,0.7-0.6,1.1-0.8s0.8-0.5,1.1-0.7c0.8-0.4,1.4-1.1,1.7-1.9l0,0l0,0c-0.1,0.5-0.3,0.9-0.5,1.3
				c-0.3,0.4-0.6,0.7-1,1c-0.3,0.3-0.7,0.6-1.1,0.8C632.3,826.5,631.8,826.6,631.4,826.6L631.4,826.6L631.4,826.6z"/>
			
				<ellipse transform="matrix(0.4673 -0.8841 0.8841 0.4673 -362.7208 972.2048)" class="st4" cx="625.4" cy="787.1" rx="5.8" ry="3.4"/>
			<path d="M622.4,785.4c0.6-1.1,1.3-2.1,2.2-2.9c0.5-0.4,1-0.8,1.6-1c1.2-0.5,2.5,0.1,3,1.3c0,0.1,0.1,0.2,0.1,0.4
				c0.1,0.6,0.2,1.2,0.1,1.9c-0.1,1.2-0.5,2.4-1,3.5c-0.5,1.2-1.3,2.2-2.3,3c-0.5,0.4-1.1,0.7-1.7,0.9c-0.7,0.2-1.4,0.2-2-0.1
				c-0.6-0.3-1-0.9-1.2-1.6c-0.2-0.6-0.2-1.3-0.1-1.9C621.4,787.7,621.8,786.5,622.4,785.4z M622.4,785.4c-0.6,1.1-0.9,2.3-0.9,3.5
				c-0.1,1.2,0.3,2.3,1.3,3c1.1,0.4,2.3,0.1,3.1-0.7c0.9-0.7,1.7-1.7,2.3-2.7c0.6-1,1-2.2,1.1-3.4c0.2-1.2-0.3-2.3-1.3-3
				c-1.1-0.3-2.3-0.1-3.2,0.7C623.8,783.5,623,784.4,622.4,785.4L622.4,785.4z"/>
			
				<ellipse transform="matrix(0.4673 -0.8841 0.8841 0.4673 -363.7375 971.5495)" class="st5" cx="624.4" cy="787.6" rx="3.4" ry="2.1"/>
			<ellipse transform="matrix(0.4673 -0.8841 0.8841 0.4673 -363.7534 971.4813)" cx="624.3" cy="787.6" rx="1.3" ry="0.8"/>
			
				<ellipse transform="matrix(0.4673 -0.8841 0.8841 0.4673 -362.1082 972.3372)" class="st6" cx="625.8" cy="786.7" rx="0.8" ry="0.8"/>
			
				<ellipse transform="matrix(0.4673 -0.8841 0.8841 0.4673 -365.5305 971.2981)" class="st6" cx="623.3" cy="789" rx="0.2" ry="0.2"/>
			<path class="st7" d="M624.6,782c0,0,5.1-1.7,4.7,4.3C630,783.8,629.1,778.8,624.6,782z"/>
			<path d="M628,805.7c0,0,1,0.6,0.8,1c-4.5,3-13.4,3.8-17,3.7l-0.1,0.7c11,0,16.7-3.9,17-4.1s0.6,0.3,0.6,1.3
				C629.9,806,628,805.7,628,805.7z"/>
			<path class="st1" d="M594.3,880.3c-23.6,6.7-34.2-1.8-34.2-1.8s3.5,2.7,11,5.4c4.5,1.6,15,5,17.8,4.3c4.1-0.5,9.8-2.7,13.4-4
				c55.1-20.4,62.6-60.5,60.9-80.6C663.3,825.8,654,857.5,594.3,880.3z"/>
		</g>
		<path class="st11" d="M183.7,853.1c0-1,16.8,6.5,37.4,4.7c29.6-3.5,90.4-41.8,70.2-59c-4.3,5.1-10,8.8-16.3,10.8
			c-6.7,1.8-15.4,0.5-19.4-5.4c-6.4-16.6,12-44.1,26-44.1c11.8,2.6,21.2,19.8,24.2,32.2c2.6,32.2-20.6,71.6-74.3,84.6
			C208.1,875.8,183.7,854.1,183.7,853.1z M275.2,780.1c-2-0.4-8.4,4.4-8.9,6.2c3.1,3.6,14.1,3.8,16.5,0.8
			C283.2,785.9,278.3,781.3,275.2,780.1L275.2,780.1z"/>
		<path class="st4" d="M273.9,805.1c-0.6,0.2-4.7,1-4.9-1.7c0.3-3.4,8.9-2.3,8.9-2.3s4.4,0.3,3.6,7.3s-7.4,9-8.4,6.9
			c0,0-4.9,0.2-3.6-3.5C266.1,810.8,271.1,805.9,273.9,805.1z"/>
		<path d="M273.9,805.1c-0.5,0.2-1,0.3-1.5,0.3c-0.5,0.1-1,0.1-1.5,0c-0.5-0.1-1-0.3-1.4-0.6c-0.4-0.4-0.7-0.9-0.7-1.4l0,0l0,0
			c0.1-0.7,0.5-1.4,1.2-1.7c0.6-0.3,1.3-0.6,2-0.7c1.3-0.2,2.7-0.3,4-0.2c0.7,0,1.3,0.1,2,0.2c0.7,0.1,1.3,0.5,1.8,0.9
			c1,1,1.6,2.2,1.7,3.6c0.4,2.7-0.2,5.4-1.7,7.7c-0.8,1.1-1.8,2.1-3.1,2.7c-0.6,0.3-1.3,0.5-2,0.5c-0.8,0.1-1.6-0.2-2-0.9l0.3,0.2
			c-0.5,0-1.1,0-1.6-0.2c-0.5-0.1-1.1-0.3-1.5-0.6c-0.5-0.3-0.8-0.8-0.9-1.4c-0.1-0.6,0-1.1,0.2-1.7l0.2,0.3
			c-0.5-0.1-0.8-0.5-1.1-0.9c-0.2-0.4-0.2-0.9,0-1.4c0.3-0.8,0.8-1.5,1.4-2.1c0.6-0.6,1.2-1.1,1.9-1.6
			C272.2,805.7,273.1,805.3,273.9,805.1z M273.9,805.1c-0.8,0.3-1.5,0.7-2.1,1.2c-0.7,0.5-1.3,1-1.8,1.6c-0.6,0.6-1,1.3-1.3,2
			c-0.1,0.3-0.1,0.7,0,1c0.2,0.3,0.5,0.5,0.8,0.6l0.2,0.1l-0.1,0.3c-0.2,0.4-0.2,0.9-0.2,1.4c0.1,0.4,0.3,0.8,0.7,1.1
			c0.8,0.5,1.8,0.7,2.8,0.7h0.2l0.1,0.2c0.3,0.5,0.9,0.7,1.5,0.6c0.6,0,1.3-0.2,1.8-0.5c1.2-0.5,2.2-1.4,3-2.4
			c1.5-2.2,2.2-4.9,1.8-7.5c-0.1-1.3-0.7-2.5-1.7-3.4c-0.5-0.4-1.1-0.7-1.7-0.8c-0.6-0.1-1.3-0.1-2-0.1c-1.3-0.1-2.6,0-3.9,0.2
			c-0.6,0.1-1.3,0.3-1.8,0.6c-0.5,0.3-0.9,0.8-1,1.4l0,0c0,0.5,0.2,0.9,0.5,1.2c0.4,0.3,0.8,0.5,1.3,0.6c0.5,0.1,1,0.1,1.5,0.1
			C272.9,805.2,273.4,805.2,273.9,805.1L273.9,805.1z"/>
		<path class="st8" d="M273.9,805.1c0,0-7.4,5.7-2.9,6.8c-1.9,1.3,0.3,3.1,2.6,3.2c0.4,0.5,0.4,0.9,3.5,0.2c-2.9,1.6-4,0.5-4,0.1
			c-1,0.2-4.9-0.3-3.7-3.4C267.3,811.5,268.5,807.5,273.9,805.1z"/>
		<path class="st8" d="M274.9,801.1c0,0-9.4,0.2-1,4C267.1,806.5,267.5,800.3,274.9,801.1z"/>
		<path d="M269.4,811.9c0.5-0.1,1.1-0.2,1.6-0.3c0.5-0.1,1-0.2,1.5-0.3c1-0.4,1.9-1,2.6-1.8l0,0l0,0c-0.6,0.9-1.5,1.6-2.5,2.1
			C271.6,812.1,270.4,812.2,269.4,811.9L269.4,811.9L269.4,811.9z"/>
		<path d="M273,815.4c0.4-0.3,0.7-0.6,1.1-0.8s0.8-0.5,1.1-0.7c0.8-0.4,1.4-1.1,1.7-1.9l0,0l0,0c-0.1,0.5-0.3,0.9-0.5,1.3
			c-0.3,0.4-0.6,0.7-1,1c-0.3,0.3-0.7,0.6-1.1,0.8C273.9,815.2,273.4,815.3,273,815.4L273,815.4L273,815.4z"/>
		
			<ellipse transform="matrix(0.4673 -0.8841 0.8841 0.4673 -543.6766 649.2834)" class="st4" cx="267" cy="775.8" rx="5.8" ry="3.4"/>
		<path d="M264,774.2c0.6-1.1,1.3-2.1,2.2-2.9c0.5-0.4,1-0.8,1.6-1c1.2-0.5,2.5,0.1,3,1.3c0,0.1,0.1,0.2,0.1,0.4
			c0.1,0.6,0.2,1.2,0.1,1.9c-0.1,1.2-0.5,2.4-1,3.5c-0.5,1.2-1.3,2.2-2.3,3c-0.5,0.4-1.1,0.7-1.7,0.9c-0.7,0.2-1.4,0.2-2-0.1
			c-0.6-0.3-1-0.9-1.2-1.6c-0.2-0.6-0.2-1.3-0.1-1.9C263,776.4,263.4,775.2,264,774.2z M264,774.2c-0.6,1.1-0.9,2.3-0.9,3.5
			c-0.1,1.2,0.3,2.3,1.3,3c1.1,0.4,2.3,0.1,3.1-0.7c0.9-0.7,1.7-1.7,2.3-2.7c0.6-1,1-2.2,1.1-3.4c0.2-1.2-0.3-2.3-1.3-3
			c-1.1-0.3-2.3-0.1-3.2,0.7C265.4,772.2,264.6,773.1,264,774.2L264,774.2z"/>
		
			<ellipse transform="matrix(0.4673 -0.8841 0.8841 0.4673 -544.7073 648.6246)" class="st5" cx="265.9" cy="776.3" rx="3.4" ry="2.1"/>
		<ellipse transform="matrix(0.4673 -0.8841 0.8841 0.4673 -544.709 648.5599)" cx="265.8" cy="776.3" rx="1.3" ry="0.8"/>
		
			<ellipse transform="matrix(0.4673 -0.8841 0.8841 0.4673 -543.0639 649.4157)" class="st6" cx="267.4" cy="775.4" rx="0.9" ry="0.8"/>
		
			<ellipse transform="matrix(0.4673 -0.8841 0.8841 0.4673 -546.4915 648.3678)" class="st6" cx="264.8" cy="777.7" rx="0.2" ry="0.2"/>
		<path class="st7" d="M266.2,770.7c0,0,5.1-1.7,4.7,4.3C271.5,772.5,270.7,767.6,266.2,770.7z"/>
		<path d="M269.6,794.4c0,0,1,0.6,0.8,1c-4.5,3-13.4,3.8-17,3.7l-0.1,0.7c11,0,16.7-3.9,17-4.1s0.6,0.3,0.6,1.3
			C271.5,794.7,269.6,794.4,269.6,794.4z"/>
		<g id="ب">
			<path class="st0" d="M595.6,260.1c0,0-4.1-4.1-7.2,0s-8.3,12.9-8.3,12.9s-4.8,6-0.2,9s12.7,7.9,12.7,7.9s5.8,2.7,8.4-1.5
				s6.5-12.1,6.5-12.1s3.8-4.3-0.8-7.7S595.6,260.1,595.6,260.1z"/>
			<path class="st0" d="M691.7,177.8c0.1-1.6,0-21.4,0-21.4s0.6-17.3-21.3-17.3c-17,0-20,10.4-20.4,15.1c-0.1,0.9-0.2,1.7-0.2,2.6
				l0.1,5.3v16.6c-0.1,1.2,0,2.4,0.3,3.6c0.2,1.8,0.5,6.1,0.5,9.4c-2.5,8.4-82.9,11-87.9,10.3c-5.7-0.9-23.9-1.7-36.2-14.5
				c-10.2-10.5-1.1-35.6-0.1-39.1c0.4-1.6-1.4-3.4-2.6-3.4c-1.7,0.1-7.2,9.5-10.3,15.6c-1.1,2.1-6.1,17.3-6.1,23.4
				c0,9.9,3.6,31,37.1,40.2c25.6,7,107.3-5.8,127-20.6c10.1-7.5,15.3-12.9,17.8-17.8C690.9,183.5,691.7,180.7,691.7,177.8z"/>
			<path class="st2" d="M653.3,147.1c-1.2,10,8.8,15.5,18.4,15.5s16.8-7.2,16.1-15.5c0-2.9-6.8-7.8-17.2-7.8
				S653.3,144.9,653.3,147.1z"/>
			<path class="st3" d="M661.2,143.6c0,2.2,4.4,6.3,9.6,6.3s9.2-4.1,9.2-6.3s-4.2-3.9-9.3-3.9S661.2,141.4,661.2,143.6z"/>
			<path class="st4" d="M658.5,189.5c-0.5,0.6-4.4,3.9-6.2,1.1c-1.7-3.7,8.1-7.6,8.1-7.6s4.8-2.2,8.1,5.7s-2.6,13.8-4.9,12.2
				c0,0-5.1,3.1-5.9-1.6C653.6,200.1,656,192,658.5,189.5z"/>
			<path d="M658.5,189.5c-0.4,0.5-0.9,0.9-1.4,1.2c-0.5,0.4-1,0.7-1.6,0.9c-0.6,0.2-1.2,0.3-1.9,0.2c-0.6-0.1-1.2-0.5-1.5-1.1l0,0
				l0,0c-0.3-0.8-0.3-1.8,0.2-2.5c0.4-0.7,1-1.3,1.7-1.9c1.3-1,2.7-1.9,4.2-2.6c0.7-0.4,1.5-0.7,2.2-1c0.8-0.3,1.7-0.3,2.5-0.1
				c1.6,0.4,3,1.4,3.9,2.8c2,2.6,3,5.9,2.7,9.2c-0.2,1.7-0.8,3.2-1.7,4.6c-0.5,0.7-1.1,1.3-1.8,1.7c-0.4,0.2-0.8,0.4-1.2,0.5
				c-0.5,0.1-1,0-1.4-0.3h0.3c-0.6,0.3-1.2,0.6-1.8,0.8c-0.6,0.2-1.3,0.3-2,0.2c-0.7-0.1-1.4-0.4-1.8-1c-0.4-0.5-0.7-1.2-0.7-1.8
				l0.3,0.2c-0.6,0.1-1.2,0-1.6-0.3c-0.4-0.4-0.7-0.9-0.8-1.5c-0.1-1,0-2.1,0.3-3.1c0.3-1,0.7-1.9,1.1-2.8
				C657.1,191.1,657.7,190.2,658.5,189.5z M658.5,189.5c-0.6,0.8-1.1,1.6-1.5,2.5c-0.4,0.9-0.8,1.8-1,2.8c-0.3,0.9-0.3,1.9-0.2,2.9
				c0.1,0.4,0.3,0.9,0.6,1.1c0.4,0.2,0.8,0.3,1.2,0.2l0.3-0.1l0.1,0.3c0.1,0.6,0.3,1.1,0.7,1.6c0.3,0.4,0.9,0.7,1.4,0.7
				c1.2,0,2.4-0.3,3.4-0.9l0.2-0.1l0.2,0.1c0.6,0.3,1.4,0.3,2-0.2c0.7-0.4,1.2-0.9,1.7-1.6c0.9-1.3,1.5-2.8,1.7-4.3
				c0.3-3.2-0.6-6.4-2.5-9c-0.9-1.3-2.3-2.3-3.9-2.6c-0.8-0.1-1.6-0.1-2.3,0.2c-0.7,0.3-1.5,0.7-2.2,1c-1.4,0.7-2.8,1.6-4,2.5
				c-0.6,0.5-1.2,1.1-1.6,1.7c-0.4,0.6-0.5,1.4-0.3,2.1l0,0c0.3,0.5,0.7,0.9,1.3,1c0.6,0.1,1.1,0.1,1.7-0.1c0.6-0.2,1.1-0.4,1.6-0.8
				C657.5,190.3,658,190,658.5,189.5L658.5,189.5z"/>
			<path class="st8" d="M658.5,189.5c0,0-4.5,10.4,0.9,8.8c-1.3,2.5,2.1,3.1,4.7,1.9c0.7,0.3,0.9,0.7,3.8-1.9
				c-2.1,3.3-4,2.9-4.2,2.4c-0.9,0.7-5.3,2.5-6-1.5C655.2,200.2,654.2,195.2,658.5,189.5z"/>
			<path class="st8" d="M657.2,184.8c0,0-9.9,5.8,1.3,4.8C652.1,195,648.9,188.3,657.2,184.8z"/>
			<path d="M657.6,199.3c0.5-0.4,1-0.8,1.5-1.2c0.5-0.4,0.9-0.8,1.4-1.3c0.8-1,1.4-2.2,1.7-3.4l0,0l0,0c-0.2,1.3-0.6,2.6-1.4,3.7
				c-0.4,0.6-0.8,1-1.4,1.4C658.9,199,658.3,199.2,657.6,199.3L657.6,199.3L657.6,199.3z"/>
			<path d="M663.5,200.9c0.2-0.5,0.5-1,0.7-1.5s0.5-0.9,0.8-1.4c0.6-0.9,0.8-2,0.7-3.1l0,0l0,0c0.2,0.5,0.2,1.1,0.2,1.7
				c-0.1,0.6-0.3,1.1-0.5,1.6c-0.2,0.5-0.4,1-0.7,1.5C664.3,200.2,663.9,200.6,663.5,200.9L663.5,200.9L663.5,200.9z"/>
			<ellipse class="st4" cx="658.5" cy="161.8" rx="4.1" ry="7"/>
			<path d="M654.4,161.8c0-1.5,0.2-3,0.7-4.4c0.3-0.7,0.7-1.4,1.2-1.9c1-1.2,2.8-1.3,3.9-0.3c0.1,0.1,0.2,0.2,0.3,0.3
				c0.5,0.6,0.9,1.2,1.2,1.9c0.6,1.4,0.9,2.9,0.9,4.4c0.1,1.5-0.2,3-0.8,4.4c-0.3,0.7-0.7,1.4-1.3,1.9c-0.6,0.6-1.4,1-2.2,1
				c-0.8,0-1.6-0.4-2.2-1c-0.5-0.6-0.9-1.2-1.2-1.9C654.6,164.8,654.3,163.3,654.4,161.8z M654.4,161.8c0,1.5,0.3,2.9,1,4.3
				c0.6,1.3,1.7,2.5,3,2.5s2.4-1.3,3-2.5c0.6-1.3,0.9-2.8,1-4.2c0.1-1.5-0.2-2.9-0.8-4.3c-0.6-1.3-1.7-2.6-3.1-2.5s-2.4,1.3-3,2.6
				C654.8,158.9,654.4,160.4,654.4,161.8z"/>
			<ellipse class="st5" cx="657.2" cy="162.2" rx="2.5" ry="4.1"/>
			<ellipse cx="657.1" cy="162.2" rx="1" ry="1.6"/>
			<circle class="st6" cx="658.2" cy="160.3" r="1"/>
			<circle class="st6" cx="656.8" cy="164.3" r="0.3"/>
			<path class="st7" d="M654.7,156.9c0,0,4.5-4.7,7.5,2C661.5,155.8,657.8,151,654.7,156.9z"/>
			<path class="st1" d="M599.6,221.8c-89.5,0-90.5-28.2-90.5-28.2s0,38.1,90.5,37.1c86.1-8.3,92.1-49.9,92.1-52.8
				C689.2,182.3,681.7,217,599.6,221.8z"/>
			<path d="M669.6,171.8c0,0,1.2,0.7,1,1.2c-5.4,3.6-16.2,4.6-20.6,4.5l-0.1,0.8c13.3,0,20.2-4.7,20.5-4.9c0.5-0.4,0.7,0.4,0.7,1.5
				C671.9,172.1,669.6,171.8,669.6,171.8z"/>
		</g>
		<path class="st12" d="M246.3,260.7c0,0-4.1-4.1-7.2,0s-8.3,12.8-8.3,12.8s-4.8,6-0.2,9s12.7,7.9,12.7,7.9s5.8,2.7,8.4-1.5
			s6.5-12.1,6.5-12.1s3.8-4.3-0.9-7.7S246.3,260.7,246.3,260.7z"/>
		<path class="st3" d="M311.8,144.1c0,2.2,4.4,6.3,9.6,6.3s9.1-4.1,9.1-6.3s-4.2-3.9-9.4-3.9S311.8,142,311.8,144.1z"/>
		<path class="st4" d="M309.1,190.1c-0.5,0.6-4.4,3.9-6.2,1.1c-1.7-3.7,8.1-7.6,8.1-7.6s4.8-2.2,8.1,5.7s-2.6,13.8-4.9,12.2
			c0,0-5.1,3.1-5.9-1.6C304.3,200.6,306.7,192.5,309.1,190.1z"/>
		<path d="M309.2,190.1c-0.4,0.5-0.9,0.9-1.4,1.2c-0.5,0.4-1,0.7-1.6,0.9c-0.6,0.2-1.2,0.3-1.9,0.2c-0.6-0.1-1.2-0.5-1.5-1.1l0,0
			l0,0c-0.3-0.8-0.3-1.8,0.2-2.5c0.4-0.7,1-1.3,1.7-1.9c1.3-1,2.7-1.9,4.2-2.6c0.7-0.4,1.5-0.7,2.2-1c0.8-0.3,1.7-0.3,2.5-0.1
			c1.6,0.4,3,1.4,3.9,2.8c2,2.6,3,5.9,2.7,9.2c-0.2,1.7-0.8,3.2-1.7,4.6c-0.5,0.7-1.1,1.3-1.8,1.7c-0.4,0.2-0.8,0.4-1.2,0.5
			c-0.5,0.1-1,0-1.4-0.3h0.3c-0.6,0.3-1.2,0.6-1.8,0.8c-0.6,0.2-1.3,0.3-2,0.2c-0.7-0.1-1.4-0.4-1.8-1c-0.4-0.5-0.7-1.2-0.7-1.8
			l0.3,0.2c-0.6,0.1-1.2,0-1.6-0.3c-0.4-0.4-0.7-0.9-0.8-1.5c-0.1-1,0-2.1,0.3-3.1c0.3-1,0.6-1.9,1.1-2.8
			C307.8,191.6,308.4,190.8,309.2,190.1z M309.2,190.1c-0.6,0.8-1.1,1.6-1.5,2.5c-0.4,0.9-0.8,1.8-1,2.8c-0.3,0.9-0.3,1.9-0.2,2.9
			c0.1,0.4,0.3,0.9,0.6,1.1c0.4,0.2,0.8,0.3,1.2,0.2l0.3-0.1l0.1,0.3c0.1,0.6,0.3,1.1,0.6,1.6c0.3,0.4,0.9,0.7,1.4,0.7
			c1.2,0,2.4-0.3,3.4-0.9l0.2-0.1l0.1,0.1c0.6,0.3,1.4,0.3,2-0.2c0.7-0.4,1.2-0.9,1.7-1.6c0.9-1.3,1.5-2.8,1.7-4.3
			c0.3-3.2-0.6-6.4-2.5-9c-0.9-1.3-2.2-2.3-3.8-2.6c-0.8-0.1-1.6-0.1-2.3,0.2c-0.7,0.3-1.5,0.7-2.2,1c-1.4,0.7-2.8,1.6-4,2.5
			c-0.6,0.5-1.2,1.1-1.6,1.7c-0.4,0.6-0.5,1.4-0.3,2.1l0,0c0.3,0.5,0.7,0.9,1.3,1c0.6,0.1,1.1,0.1,1.7-0.1c0.6-0.2,1.1-0.4,1.6-0.8
			C308.2,190.8,308.7,190.5,309.2,190.1L309.2,190.1z"/>
		<path class="st8" d="M309.1,190.1c0,0-4.5,10.4,0.9,8.8c-1.3,2.5,2.1,3.1,4.7,1.9c0.7,0.3,0.9,0.7,3.8-1.9c-2.1,3.3-4,2.9-4.2,2.4
			c-0.9,0.7-5.4,2.5-6-1.5C305.9,200.7,304.9,195.8,309.1,190.1z"/>
		<path class="st8" d="M307.9,185.3c0,0-9.9,5.8,1.3,4.8C302.8,195.5,299.5,188.8,307.9,185.3z"/>
		<path d="M308.3,199.9c0.5-0.4,1-0.8,1.5-1.2c0.5-0.4,0.9-0.8,1.4-1.3c0.8-1,1.4-2.2,1.7-3.4l0,0l0,0c-0.2,1.3-0.6,2.6-1.4,3.7
			c-0.4,0.6-0.8,1-1.4,1.4C309.6,199.5,308.9,199.8,308.3,199.9L308.3,199.9L308.3,199.9z"/>
		<path d="M314.2,201.5c0.2-0.5,0.5-1,0.7-1.5s0.5-0.9,0.8-1.4c0.6-0.9,0.8-2,0.7-3.1l0,0l0,0c0.2,0.5,0.2,1.1,0.1,1.7
			c-0.1,0.6-0.3,1.1-0.5,1.6c-0.2,0.5-0.4,1-0.7,1.5C315,200.8,314.6,201.2,314.2,201.5L314.2,201.5L314.2,201.5z"/>
		<ellipse class="st4" cx="309.1" cy="162.4" rx="4.1" ry="7"/>
		<path d="M305,162.4c0-1.5,0.2-3,0.7-4.4c0.3-0.7,0.7-1.4,1.2-1.9c1-1.2,2.8-1.3,3.9-0.3c0.1,0.1,0.2,0.2,0.3,0.3
			c0.5,0.6,0.9,1.2,1.2,1.9c0.6,1.4,0.9,2.9,0.9,4.4c0.1,1.5-0.2,3-0.8,4.4c-0.3,0.7-0.7,1.4-1.3,1.9c-0.6,0.6-1.4,1-2.2,1
			c-0.8,0-1.6-0.4-2.2-1c-0.5-0.6-0.9-1.2-1.2-1.9C305.2,165.4,305,163.9,305,162.4z M305.1,162.4c0,1.5,0.3,2.9,1,4.3
			c0.6,1.3,1.7,2.5,3,2.5s2.4-1.3,3-2.5c0.6-1.3,0.9-2.8,1-4.2c0.1-1.5-0.2-2.9-0.8-4.3c-0.6-1.3-1.7-2.6-3.1-2.5s-2.4,1.3-3,2.6
			C305.4,159.5,305.1,160.9,305.1,162.4L305.1,162.4z"/>
		<ellipse class="st5" cx="307.9" cy="162.7" rx="2.5" ry="4.1"/>
		<ellipse cx="307.8" cy="162.7" rx="1" ry="1.6"/>
		<circle class="st6" cx="308.9" cy="160.9" r="1"/>
		<circle class="st6" cx="307.5" cy="164.8" r="0.3"/>
		<path class="st7" d="M305.4,157.4c0,0,4.5-4.7,7.5,2C312.2,156.3,308.5,151.5,305.4,157.4z"/>
		<path class="st12" d="M160.3,197c0.1,0.3,0.2,0.6,0.3,1c2.8,9.7,17.2,34,89.8,33.2c86.1-8.3,92.1-49.9,92.1-52.8
			c0.1-1.6,0-21.4,0-21.4s0.6-17.3-21.3-17.3c-17,0-20,10.4-20.4,15.1c-0.1,0.9-0.2,1.7-0.2,2.6l0.1,5.3v16.6
			c-0.1,1.2,0,2.4,0.3,3.6c0.1,1.8,0.5,6.1,0.5,9.4c-2.5,8.4-82.9,11-87.9,10.3c-5.7-0.9-23.9-1.7-36.2-14.5
			c-10.1-10.5-1.1-35.6-0.1-39.1c0.4-1.6-1.4-3.4-2.6-3.4c-1.7,0.1-7.2,9.5-10.3,15.6c-1.1,2.1-6.1,17.3-6.1,23.4
			C158.1,188.9,158.8,193.1,160.3,197z"/>
		<path d="M320.3,172.4c0,0,1.2,0.7,1,1.2c-5.4,3.6-16.2,4.6-20.6,4.5l-0.1,0.8c13.3,0,20.2-4.7,20.5-4.9c0.5-0.4,0.7,0.4,0.7,1.5
			C322.6,172.7,320.3,172.4,320.3,172.4z"/>
		<rect y="76.6" class="st13" width="10.9" height="841.9"/>
		<rect x="844.1" y="76.6" class="st13" width="10.9" height="841.9"/>
		<rect x="10.9" y="79.6" class="st14" width="833.2" height="220"/>
		<rect x="10.9" y="299" class="st14" width="833.2" height="220"/>
		<rect x="10.3" y="519.5" class="st15" width="833.2" height="220"/>
		<rect x="11.3" y="739.5" class="st14" width="833.2" height="177"/>
		<line class="st14" x1="419.9" y1="917" x2="419.9" y2="78.2"/>
		<rect class="st13" width="855" height="78"/>
	</g>
</g>
<g>
	<path class="st16" d="M78.6,37.3c1-0.2,2.4-0.3,4.3-0.3c2,0,3.4,0.4,4.3,1.1c0.9,0.7,1.5,1.9,1.5,3.3s-0.5,2.6-1.3,3.4
		c-1.1,1-2.7,1.5-4.6,1.5c-0.4,0-0.8,0-1.1-0.1v5.1h-3.2V37.3z M81.8,43.7c0.3,0.1,0.6,0.1,1.1,0.1c1.7,0,2.8-0.9,2.8-2.3
		c0-1.3-0.9-2.1-2.5-2.1c-0.7,0-1.1,0.1-1.3,0.1V43.7z"/>
	<path class="st16" d="M90.5,44.4c0-1.5,0-2.5-0.1-3.4h2.8l0.1,1.9h0.1c0.5-1.5,1.8-2.1,2.8-2.1c0.3,0,0.4,0,0.7,0v3
		c-0.2,0-0.5-0.1-0.9-0.1c-1.2,0-2,0.6-2.2,1.6c0,0.2-0.1,0.5-0.1,0.7v5.2h-3.2V44.4z"/>
	<path class="st16" d="M101.8,38.1c0,0.9-0.7,1.6-1.7,1.6c-1,0-1.7-0.7-1.7-1.6c0-0.9,0.7-1.6,1.7-1.6S101.8,37.2,101.8,38.1z
		 M98.5,51.3V41h3.2v10.3H98.5z"/>
	<path class="st16" d="M104.3,44.3c0-1.3,0-2.4-0.1-3.3h2.8l0.1,1.4h0.1c0.4-0.7,1.5-1.6,3.2-1.6c2.1,0,3.7,1.4,3.7,4.4v6.1h-3.2
		v-5.7c0-1.3-0.5-2.2-1.6-2.2c-0.9,0-1.4,0.6-1.6,1.2c-0.1,0.2-0.1,0.5-0.1,0.8v5.9h-3.2V44.3z"/>
	<path class="st16" d="M120,38V41h2.3v2.4H120v3.7c0,1.2,0.3,1.8,1.3,1.8c0.4,0,0.7,0,0.9-0.1l0,2.4c-0.4,0.2-1.2,0.3-2.1,0.3
		c-1,0-1.9-0.4-2.4-0.9c-0.6-0.6-0.9-1.6-0.9-3v-4.2h-1.4V41h1.4v-2.2L120,38z"/>
	<path class="st16" d="M134.2,51.3l-0.2-1H134c-0.7,0.8-1.7,1.3-2.9,1.3c-2.1,0-3.3-1.5-3.3-3.1c0-2.7,2.4-3.9,6-3.9v-0.1
		c0-0.5-0.3-1.3-1.9-1.3c-1,0-2.2,0.4-2.8,0.8l-0.6-2.1c0.7-0.4,2.1-0.9,4-0.9c3.4,0,4.5,2,4.5,4.4v3.6c0,1,0,1.9,0.1,2.5H134.2z
		 M133.9,46.4c-1.7,0-3,0.4-3,1.6c0,0.8,0.5,1.2,1.3,1.2c0.8,0,1.4-0.5,1.7-1.2c0-0.2,0.1-0.4,0.1-0.5V46.4z"/>
	<path class="st16" d="M139.5,44.3c0-1.3,0-2.4-0.1-3.3h2.8l0.1,1.4h0.1c0.4-0.7,1.5-1.6,3.2-1.6c2.1,0,3.7,1.4,3.7,4.4v6.1H146
		v-5.7c0-1.3-0.5-2.2-1.6-2.2c-0.9,0-1.4,0.6-1.6,1.2c-0.1,0.2-0.1,0.5-0.1,0.8v5.9h-3.2V44.3z"/>
	<path class="st16" d="M161.8,36.3v11.8c0,1.2,0,2.4,0.1,3.1H159l-0.1-1.5h0c-0.7,1.2-1.9,1.7-3.2,1.7c-2.4,0-4.4-2.1-4.4-5.3
		c0-3.5,2.1-5.5,4.6-5.5c1.3,0,2.2,0.4,2.7,1.2h0v-5.6H161.8z M158.6,45.3c0-0.2,0-0.4,0-0.6c-0.2-0.9-0.9-1.6-1.9-1.6
		c-1.4,0-2.2,1.3-2.2,2.9c0,1.7,0.9,2.8,2.2,2.8c0.9,0,1.7-0.6,1.8-1.5c0.1-0.2,0.1-0.5,0.1-0.7V45.3z"/>
	<path class="st16" d="M176.3,51c-0.6,0.3-1.6,0.5-2.9,0.5c-3.3,0-5.4-2-5.4-5.2c0-3,2.1-5.5,5.9-5.5c0.8,0,1.8,0.1,2.4,0.4
		l-0.5,2.4c-0.4-0.2-0.9-0.3-1.8-0.3c-1.7,0-2.8,1.2-2.8,2.9c0,1.9,1.3,2.9,2.8,2.9c0.8,0,1.3-0.1,1.8-0.3L176.3,51z"/>
	<path class="st16" d="M187.9,46c0,3.8-2.7,5.5-5.4,5.5c-3,0-5.3-2-5.3-5.3s2.2-5.4,5.5-5.4C185.8,40.8,187.9,42.9,187.9,46z
		 M180.5,46.1c0,1.8,0.7,3.1,2.1,3.1c1.2,0,2-1.2,2-3.1c0-1.5-0.6-3.1-2-3.1C181.1,43,180.5,44.6,180.5,46.1z"/>
	<path class="st16" d="M189.9,36.3h3.2v14.9h-3.2V36.3z"/>
	<path class="st16" d="M205.8,46c0,3.8-2.7,5.5-5.4,5.5c-3,0-5.3-2-5.3-5.3s2.2-5.4,5.5-5.4C203.7,40.8,205.8,42.9,205.8,46z
		 M198.4,46.1c0,1.8,0.7,3.1,2.1,3.1c1.2,0,2-1.2,2-3.1c0-1.5-0.6-3.1-2-3.1C199,43,198.4,44.6,198.4,46.1z"/>
	<path class="st16" d="M207.8,44.4c0-1.5,0-2.5-0.1-3.4h2.8l0.1,1.9h0.1c0.5-1.5,1.8-2.1,2.8-2.1c0.3,0,0.4,0,0.7,0v3
		c-0.2,0-0.5-0.1-0.9-0.1c-1.2,0-2,0.6-2.2,1.6c0,0.2-0.1,0.5-0.1,0.7v5.2h-3.2V44.4z"/>
	<path class="st16" d="M214.2,49.5c0-1.1,0.8-2,1.9-2s1.9,0.8,1.9,2c0,1.1-0.8,1.9-1.9,1.9C215,51.5,214.2,50.7,214.2,49.5z"/>
</g>
</svg>
