<svg id="Layer_1" data-name="Layer 1" xmlns="http://www.w3.org/2000/svg" viewBox="0 0 38 38">
  <title>harfEldars</title>
  <g>
    <g>
      <path d="M19,37.35A18.35,18.35,0,1,1,37.35,19,18.38,18.38,0,0,1,19,37.35Z" style="fill: #fff"/>
      <path d="M19,1.29A17.71,17.71,0,1,1,1.29,19,17.73,17.73,0,0,1,19,1.29M19,0A19,19,0,1,0,38,19,19,19,0,0,0,19,0Z" style="fill: #40b3c9"/>
    </g>
    <g>
      <path d="M22.41,17.11H14.8V19a10.23,10.23,0,0,1-5.5,1.7,5.81,5.81,0,0,1-4.08-1.43,5.49,5.49,0,0,1-1.56-4.25,10.11,10.11,0,0,1,.68-3.54l2.12-.32.16.16a10.9,10.9,0,0,0-.46,2.84A3.46,3.46,0,0,0,7,16.83a3.94,3.94,0,0,0,2.77.82A9.76,9.76,0,0,0,12,17.39V9.06H14.8V10.4q3.66-2.86,5.36-2.86a3.37,3.37,0,0,1,2.94,1.89,9.59,9.59,0,0,1,1.24,4.67ZM14.8,13.9h7a5.32,5.32,0,0,0-.84-2.3,1.78,1.78,0,0,0-1.48-.82q-1.56,0-4.66,2Zm1.8-7.09L14.84,4.74l2.26-1.86L18.83,5Z" style="fill: #e44827"/>
      <path d="M26.11,23.11l-.34,2.83a7.53,7.53,0,0,1-3.84.64l-.25,1.36a4.46,4.46,0,0,1-2.59.39l1,2.05a7.88,7.88,0,0,1-3.24,3,4.48,4.48,0,0,1-3.31.39A4.23,4.23,0,0,1,11,31.38a7.79,7.79,0,0,1-.73-2.69l1.36-.94.16.06a8.45,8.45,0,0,0,.64,2.13,2.67,2.67,0,0,0,1.49,1.52,3,3,0,0,0,2.2-.37,7.52,7.52,0,0,0,1.47-.94l-2.81-5.77,1.91-.93,1.45,3A4.65,4.65,0,0,0,20,26l-1.21-3.55,1.9-.93,1.11,3.26A10.18,10.18,0,0,0,24.1,24q-.87-1.29-2.56-3.53l1.69-1.36Q25.31,21.87,26.11,23.11Z" style="fill: #40b3c9"/>
      <path d="M34.71,20.87v2a8,8,0,0,1-4,1,4.09,4.09,0,0,1-3-1,3.4,3.4,0,0,1-1-2.55,6,6,0,0,1,.76-2.7A11.74,11.74,0,0,1,29,17a4.28,4.28,0,0,1-1.91-2.73,4.34,4.34,0,0,1,1.64-2.41A4.42,4.42,0,0,1,31.36,11a6.3,6.3,0,0,1,1.6.22v2.36l-.14.11a6.42,6.42,0,0,0-1.68-.18,3.87,3.87,0,0,0-2,.6,3.08,3.08,0,0,0,.74,1.37,2.92,2.92,0,0,0,1.28.81q.86-.22,2.64-.52l.12.09,0,2a37,37,0,0,0-5,1.34,2.13,2.13,0,0,0-.14.76q0,1.6,2.35,1.6a9.8,9.8,0,0,0,3.5-.71ZM30.2,9.73l-1.36-1.6,1.74-1.44,1.33,1.6Z" style="fill: #40b3c9"/>
    </g>
  </g>
</svg>
