<svg id="Layer_1" data-name="Layer 1" xmlns="http://www.w3.org/2000/svg" xmlns:xlink="http://www.w3.org/1999/xlink" viewBox="0 0 128.49 40.15">
  <defs>
    <clipPath id="clip-path">
      <rect x="108.74" y="31.3" width="6.05" height="0.84" style="fill: #fff"/>
    </clipPath>
  </defs>
  <title>Artboard 12</title>
  <g>
    <path d="M97.12,27.13a2.55,2.55,0,1,1,2.54,2.41,2.48,2.48,0,0,1-2.54-2.41M14.7,21a1.54,1.54,0,0,1-.18-1.38c.29-.88,1.06-1.33,2.29-1.33H17a8.59,8.59,0,0,1,2.41.49A2.79,2.79,0,0,1,19,20.66a2.38,2.38,0,0,1-1.7.94,5.6,5.6,0,0,1-.81.06A2.14,2.14,0,0,1,14.7,21m43.4-3.72a3.66,3.66,0,1,1,3.66,3.52,3.59,3.59,0,0,1-3.66-3.52M36.47,13.4a2.55,2.55,0,0,1,2.61,2.16H33.84a2.61,2.61,0,0,1,2.63-2.16M.54.57A1.82,1.82,0,0,0,.06,1.79V23a1.94,1.94,0,0,0,2.12,1.67,2,2,0,0,0,2.11-1.81V15.22L5.63,14l4.51,6.13a4.81,4.81,0,0,0,4.93,4.62h.07A6,6,0,0,0,19.36,23l0,.59s.09,1,1.69,1h.06a2.51,2.51,0,0,0,1.76-.51,1.84,1.84,0,0,0,.56-1.43V19.59h6.19a7.1,7.1,0,0,0,3.06,4.07,8.17,8.17,0,0,0,4.21,1.14,7.1,7.1,0,0,0,5.24-2,2,2,0,0,0-.33-2.34,1.15,1.15,0,0,0-.92-.41,3.54,3.54,0,0,0-1.78.71,4,4,0,0,1-2.33.54,3,3,0,0,1-2.7-1.63h7.42a2.11,2.11,0,0,0,1.89-2.05c0-1.76,0-4.17-2.51-6.21a2.83,2.83,0,0,1,.63-1.87,2.07,2.07,0,0,1,1.58-.6,2.34,2.34,0,0,1,1.56.55,1.9,1.9,0,0,1,.54,1.44v7.3a2.15,2.15,0,0,0,2.24,1.45,1.93,1.93,0,0,0,2.12-1.47V10.9a2.13,2.13,0,0,1,2.27-2,2.08,2.08,0,0,1,2.16,2v6.34h0a7.77,7.77,0,0,0,15.52,0c0-.11,0-.23,0-.34h0V10.79a2.13,2.13,0,0,1,.55-1.39,2.23,2.23,0,0,1,1.67-.59,2.13,2.13,0,0,1,1.59.58A2.5,2.5,0,0,1,73.95,11V32.54a8.7,8.7,0,0,0,2.22,5.56,7.57,7.57,0,0,0,5.59,2c7.58,0,8-6.29,8-7.54V28.92h4.8a5.58,5.58,0,0,0,10.29,0h15.76c.09,0,2.23.16,2.67-1.27,0,0,.34-.81-.37-2.61-.63-1.6-1.65-4.35-1.84-4.88L127.64,17s1.33-.6.67-2.55a2.22,2.22,0,0,0-1.1-1.1,1.84,1.84,0,0,0-1.46.09l-8.39,3.89c-.05,0-1.28.67-1.15,1.6S118,24.12,118.31,25h-5L111,12.46a2.1,2.1,0,0,0-.76-1.29,2.32,2.32,0,0,0-1.79-.36,1.59,1.59,0,0,0-1.15.71c-.73,1.11-.2,3.09-.18,3.17l1.78,10.26h-4.28a5.61,5.61,0,0,0-10,0h-5V23.37a2,2,0,0,0-2-1.55,2.25,2.25,0,0,0-2.14,1.52v9.07a4.55,4.55,0,0,1-1.07,3,4.08,4.08,0,0,1-5.33,0,3.64,3.64,0,0,1-.81-2.52v-23a5.79,5.79,0,0,0-1.44-3.74A4.19,4.19,0,0,0,73.8,4.91h0A5,5,0,0,0,69.49,6.8a2.52,2.52,0,0,0-2.21-1.74c-1.73,0-2.1,1.87-2.1,1.91v3.56a8,8,0,0,0-6.83,0V9.22a4.46,4.46,0,0,0-1.2-3A5,5,0,0,0,53.4,4.91,6,6,0,0,0,48.85,7a4.35,4.35,0,0,0-4.06-2.07,4.52,4.52,0,0,0-4,1.9,2.14,2.14,0,0,0-.56-1.17,2.15,2.15,0,0,0-1.61-.59A2.06,2.06,0,0,0,37,5.65a2.17,2.17,0,0,0-.51,1.5v2.7a6.91,6.91,0,0,0-5.89,3.09,7.33,7.33,0,0,0-1.13,2.61H26.4v-13A2.08,2.08,0,0,0,24.17.69a1.86,1.86,0,0,0-2.08,1.77v9.31c-.63-.77-2.92-2.76-9-1.3a2,2,0,0,0-1.73,2.13,1.31,1.31,0,0,0,.54,1c.78.55,2.18.29,3,.08.92-.25,2.75-.44,3.79.41a2.29,2.29,0,0,1,.77,1.94c-.72-.21-4.26-1.12-7,.31L8.77,11.46,12.4,8.13a1.71,1.71,0,0,0,0-2.41A1.87,1.87,0,0,0,11.06,5a2.47,2.47,0,0,0-1.7.58c-.44.4-4.15,3.89-5,4.69V2.1A2.18,2.18,0,0,0,2.13,0,2.11,2.11,0,0,0,.54.57" style="fill: #fff"/>
    <g>
      <rect x="108.74" y="31.3" width="6.05" height="0.84" style="fill: #fff"/>
      <g style="clip-path: url(#clip-path)">
        <path d="M114.15,31.3h-4.91a.71.71,0,0,0-.37.12.29.29,0,0,0-.12.27c0,.33.4.44.73.44h4.71c.37,0,.59-.15.6-.4a.35.35,0,0,0-.15-.31.89.89,0,0,0-.49-.13" style="fill: #fff"/>
      </g>
    </g>
    <g>
      <path d="M82.08,18.57A2.62,2.62,0,1,0,79.33,16a2.69,2.69,0,0,0,2.75,2.61m0-3.77A1.16,1.16,0,1,1,80.85,16a1.2,1.2,0,0,1,1.23-1.16" style="fill: #fff"/>
      <path d="M82.08,29.17a2.62,2.62,0,1,0-2.75-2.61,2.69,2.69,0,0,0,2.75,2.61" style="fill: #fff"/>
      <path d="M121.26,12.09l-.06,0-4.33,1.94a.68.68,0,0,0-.28.26.29.29,0,0,0,0,.29c.16.29.54.24.83.11l4.06-1.82.15-.06c.33-.15.47-.37.38-.61a.36.36,0,0,0-.27-.23.86.86,0,0,0-.49.08" style="fill: #fff"/>
      <path d="M99.11,16.42h0c0-.94-.83-.67-.86-.67a4.68,4.68,0,0,0-1.2.67Zm.68-.35c.22,1.45-.48,1.53-.79,1.75a39.59,39.59,0,0,1-4.11,2c-.14,0-.22,0-.31,0a.35.35,0,0,1-.07-.55,1.24,1.24,0,0,1,.38-.23,38.06,38.06,0,0,0,3.76-2l-2.72,0s-.54-.05-.24-.56A6.64,6.64,0,0,1,98.28,15a1.16,1.16,0,0,1,1.51,1" style="fill: #fff"/>
    </g>
    <g>
      <path d="M5.13,35.32A1.74,1.74,0,0,1,3.94,37a4,4,0,0,1-1.43.23A3.51,3.51,0,0,1,1.12,37a2,2,0,0,1-.85-.62A1.24,1.24,0,0,1,0,35.67a.58.58,0,0,1,.18-.42.6.6,0,0,1,.44-.18.52.52,0,0,1,.36.12,1.27,1.27,0,0,1,.24.32,1.63,1.63,0,0,0,.55.6,1.66,1.66,0,0,0,.87.2,1.27,1.27,0,0,0,.74-.2.56.56,0,0,0,.29-.46.62.62,0,0,0-.3-.58,3.7,3.7,0,0,0-1-.35,8.12,8.12,0,0,1-1.26-.4,2.07,2.07,0,0,1-.78-.56,1.28,1.28,0,0,1-.29-.85,1.5,1.5,0,0,1,.27-.85,1.84,1.84,0,0,1,.79-.64,3,3,0,0,1,1.26-.24,4.14,4.14,0,0,1,1,.12,2.59,2.59,0,0,1,.77.32,1.6,1.6,0,0,1,.47.45.88.88,0,0,1,.16.48.56.56,0,0,1-.17.42.68.68,0,0,1-.49.16A.6.6,0,0,1,3.79,33a2.62,2.62,0,0,1-.37-.39,1.35,1.35,0,0,0-.4-.35,1.26,1.26,0,0,0-.63-.13,1.22,1.22,0,0,0-.67.17.5.5,0,0,0-.27.43.47.47,0,0,0,.2.39,1.63,1.63,0,0,0,.53.25l.92.24A5,5,0,0,1,4.24,34a1.9,1.9,0,0,1,.67.56A1.24,1.24,0,0,1,5.13,35.32Z" style="fill: #fff"/>
      <path d="M10.58,34.6H7.65a2,2,0,0,0,.21.9,1.38,1.38,0,0,0,1.26.78,1.79,1.79,0,0,0,.49-.06A1.57,1.57,0,0,0,10,36a3.32,3.32,0,0,0,.38-.29l.46-.42a.49.49,0,0,1,.33-.1.54.54,0,0,1,.37.13.45.45,0,0,1,.14.36,1,1,0,0,1-.16.47,1.88,1.88,0,0,1-.48.52,2.74,2.74,0,0,1-.81.41,3.47,3.47,0,0,1-1.12.16,3,3,0,0,1-2.24-.82,3.06,3.06,0,0,1-.8-2.23A3.72,3.72,0,0,1,6.32,33a2.71,2.71,0,0,1,.58-1,2.49,2.49,0,0,1,.93-.62,3.35,3.35,0,0,1,1.23-.22,2.92,2.92,0,0,1,1.51.37,2.44,2.44,0,0,1,.94,1,2.52,2.52,0,0,1,.31,1.2q0,.56-.32.73A2,2,0,0,1,10.58,34.6Zm-2.93-.85h2.71A1.82,1.82,0,0,0,10,32.6,1.24,1.24,0,0,0,9,32.22a1.2,1.2,0,0,0-.92.39A1.93,1.93,0,0,0,7.65,33.75Z" style="fill: #fff"/>
      <path d="M13.07,36.36V29.87a1,1,0,0,1,.2-.68.68.68,0,0,1,.54-.23.71.71,0,0,1,.55.23,1,1,0,0,1,.21.68v6.49a1,1,0,0,1-.21.68.71.71,0,0,1-.55.23.68.68,0,0,1-.53-.24A1,1,0,0,1,13.07,36.36Z" style="fill: #fff"/>
      <path d="M16,31.32h.36v-.45a2.88,2.88,0,0,1,.18-1.12,1.13,1.13,0,0,1,.6-.6A2.92,2.92,0,0,1,18.3,29q1.31,0,1.31.64a.51.51,0,0,1-.14.36.43.43,0,0,1-.32.15l-.3,0-.36,0c-.27,0-.44.08-.52.24a1.62,1.62,0,0,0-.12.68v.36h.37q.85,0,.86.52t-.23.47a1.62,1.62,0,0,1-.63.1h-.37v4a1,1,0,0,1-.21.68.7.7,0,0,1-.55.23.68.68,0,0,1-.53-.23,1,1,0,0,1-.21-.68v-4h-.41a.78.78,0,0,1-.52-.15.49.49,0,0,1-.18-.39Q15.25,31.32,16,31.32Z" style="fill: #fff"/>
      <path d="M25.62,29.95V35.8h3.3a.87.87,0,0,1,.61.19.62.62,0,0,1,.21.48.61.61,0,0,1-.21.48.89.89,0,0,1-.61.18H25a1,1,0,0,1-.77-.24,1.05,1.05,0,0,1-.23-.76V29.95a1.08,1.08,0,0,1,.22-.74A.75.75,0,0,1,24.8,29a.78.78,0,0,1,.59.24A1.06,1.06,0,0,1,25.62,29.95Z" style="fill: #fff"/>
      <path d="M34.88,34.6H32a2,2,0,0,0,.21.9,1.38,1.38,0,0,0,1.26.78,1.79,1.79,0,0,0,.49-.06,1.57,1.57,0,0,0,.43-.2,3.32,3.32,0,0,0,.38-.29l.46-.42a.49.49,0,0,1,.33-.1.54.54,0,0,1,.37.13.45.45,0,0,1,.14.36,1,1,0,0,1-.16.47,1.88,1.88,0,0,1-.48.52,2.74,2.74,0,0,1-.81.41,3.47,3.47,0,0,1-1.12.16,3,3,0,0,1-2.24-.82,3.06,3.06,0,0,1-.8-2.23,3.72,3.72,0,0,1,.2-1.23,2.71,2.71,0,0,1,.58-1,2.49,2.49,0,0,1,.93-.62,3.35,3.35,0,0,1,1.23-.22,2.92,2.92,0,0,1,1.51.37,2.44,2.44,0,0,1,.94,1,2.52,2.52,0,0,1,.31,1.2q0,.56-.32.73A2,2,0,0,1,34.88,34.6ZM32,33.75h2.71a1.82,1.82,0,0,0-.41-1.15,1.24,1.24,0,0,0-.95-.38,1.2,1.2,0,0,0-.92.39A1.93,1.93,0,0,0,32,33.75Z" style="fill: #fff"/>
      <path d="M41.16,36.43a4.64,4.64,0,0,1-1,.63,2.94,2.94,0,0,1-1.14.21A2.15,2.15,0,0,1,38,37a1.66,1.66,0,0,1-.67-.62,1.6,1.6,0,0,1-.24-.85,1.51,1.51,0,0,1,.39-1A2,2,0,0,1,38.51,34l.71-.15,1-.21.87-.23a1.56,1.56,0,0,0-.24-.87,1.07,1.07,0,0,0-.87-.28,1.82,1.82,0,0,0-.86.16,1.39,1.39,0,0,0-.49.48,5.07,5.07,0,0,1-.29.42.48.48,0,0,1-.36.1.64.64,0,0,1-.44-.16.53.53,0,0,1-.18-.41A1.27,1.27,0,0,1,37.6,32a2,2,0,0,1,.87-.61A3.92,3.92,0,0,1,40,31.18a4.18,4.18,0,0,1,1.55.23,1.44,1.44,0,0,1,.8.74,3.23,3.23,0,0,1,.23,1.34q0,.53,0,.89c0,.25,0,.52,0,.82a3,3,0,0,0,.14.88,2.79,2.79,0,0,1,.14.59.55.55,0,0,1-.22.42.73.73,0,0,1-.49.19.66.66,0,0,1-.45-.22A3.22,3.22,0,0,1,41.16,36.43Zm-.1-2.17a7.49,7.49,0,0,1-1,.26l-.87.2a1.19,1.19,0,0,0-.46.25.63.63,0,0,0-.22.51.76.76,0,0,0,.26.58,1,1,0,0,0,.67.24,1.76,1.76,0,0,0,.82-.19,1.3,1.3,0,0,0,.55-.5,2.29,2.29,0,0,0,.2-1.12Z" style="fill: #fff"/>
      <path d="M45.54,35.11v1.25a1,1,0,0,1-.21.68.71.71,0,0,1-.54.23.69.69,0,0,1-.53-.23,1,1,0,0,1-.21-.68V32.2q0-1,.73-1a.61.61,0,0,1,.54.24,1.3,1.3,0,0,1,.18.7,2.61,2.61,0,0,1,.55-.7,1.14,1.14,0,0,1,.75-.24,1.93,1.93,0,0,1,.92.24.7.7,0,0,1,.44.63.59.59,0,0,1-.19.45.59.59,0,0,1-.41.18,1.88,1.88,0,0,1-.4-.1,1.85,1.85,0,0,0-.56-.1.81.81,0,0,0-.54.17,1.11,1.11,0,0,0-.32.51,3.57,3.57,0,0,0-.16.81Q45.54,34.44,45.54,35.11Z" style="fill: #fff"/>
      <path d="M50.33,32v.18a2.62,2.62,0,0,1,.86-.76,2.3,2.3,0,0,1,1.08-.24,2.15,2.15,0,0,1,1.06.26,1.64,1.64,0,0,1,.7.73,1.75,1.75,0,0,1,.19.59,6.2,6.2,0,0,1,0,.81v2.79a1,1,0,0,1-.21.68A.74.74,0,0,1,53,37a1,1,0,0,1-.21-.67v-2.5a2.49,2.49,0,0,0-.21-1.13.84.84,0,0,0-.82-.39,1.21,1.21,0,0,0-.73.24,1.37,1.37,0,0,0-.48.66,4.69,4.69,0,0,0-.11,1.25v1.88a1,1,0,0,1-.21.68.71.71,0,0,1-.55.23.68.68,0,0,1-.53-.24,1,1,0,0,1-.21-.67V32a.94.94,0,0,1,.19-.64.64.64,0,0,1,.51-.21.69.69,0,0,1,.36.09.67.67,0,0,1,.25.28A1,1,0,0,1,50.33,32Z" style="fill: #fff"/>
      <path d="M56.51,30.49A.79.79,0,0,1,56,30.3a.74.74,0,0,1,0-1.07.76.76,0,0,1,.53-.21.78.78,0,0,1,.52.19.66.66,0,0,1,.22.54.68.68,0,0,1-.22.54A.76.76,0,0,1,56.51,30.49ZM57.25,32v4.33A1,1,0,0,1,57,37a.71.71,0,0,1-.54.23A.68.68,0,0,1,56,37a1,1,0,0,1-.21-.67V32.08a1,1,0,0,1,.21-.67.69.69,0,0,1,.53-.22.72.72,0,0,1,.54.22A.87.87,0,0,1,57.25,32Z" style="fill: #fff"/>
      <path d="M60.16,32v.18a2.62,2.62,0,0,1,.86-.76,2.3,2.3,0,0,1,1.08-.24,2.15,2.15,0,0,1,1.06.26,1.64,1.64,0,0,1,.7.73,1.75,1.75,0,0,1,.19.59,6.2,6.2,0,0,1,0,.81v2.79a1,1,0,0,1-.21.68.74.74,0,0,1-1.08,0,1,1,0,0,1-.21-.67v-2.5a2.49,2.49,0,0,0-.21-1.13.84.84,0,0,0-.82-.39,1.21,1.21,0,0,0-.73.24,1.37,1.37,0,0,0-.48.66,4.69,4.69,0,0,0-.11,1.25v1.88A1,1,0,0,1,60,37a.71.71,0,0,1-.55.23A.68.68,0,0,1,59,37a1,1,0,0,1-.21-.67V32a.94.94,0,0,1,.19-.64.64.64,0,0,1,.51-.21.69.69,0,0,1,.36.09.67.67,0,0,1,.25.28A1,1,0,0,1,60.16,32Z" style="fill: #fff"/>
      <path d="M71.09,32.29v4.35a4.58,4.58,0,0,1-.16,1.28,2.06,2.06,0,0,1-.51.89,2.14,2.14,0,0,1-.92.52,5,5,0,0,1-1.41.17,4.09,4.09,0,0,1-1.38-.22,2.38,2.38,0,0,1-.94-.56,1,1,0,0,1-.33-.7.58.58,0,0,1,.19-.45.64.64,0,0,1,.45-.17.74.74,0,0,1,.58.29l.25.3a1.46,1.46,0,0,0,.28.26,1.12,1.12,0,0,0,.38.16,2.17,2.17,0,0,0,.5.05,2,2,0,0,0,.9-.16.93.93,0,0,0,.45-.45,1.83,1.83,0,0,0,.15-.62q0-.33,0-1.07a2.46,2.46,0,0,1-.8.73,2.18,2.18,0,0,1-1.08.25,2.27,2.27,0,0,1-1.31-.38,2.46,2.46,0,0,1-.86-1.08,4,4,0,0,1-.3-1.6,3.8,3.8,0,0,1,.18-1.22A2.56,2.56,0,0,1,66,32a2.24,2.24,0,0,1,.78-.56,2.47,2.47,0,0,1,1-.19,2.35,2.35,0,0,1,1.1.24,2.69,2.69,0,0,1,.87.77V32a.87.87,0,0,1,.19-.6.63.63,0,0,1,.49-.21.58.58,0,0,1,.58.28A1.86,1.86,0,0,1,71.09,32.29Zm-4.34,1.9a2.07,2.07,0,0,0,.4,1.38,1.29,1.29,0,0,0,1,.47,1.34,1.34,0,0,0,.71-.2,1.47,1.47,0,0,0,.54-.6,2.12,2.12,0,0,0,.21-1,2.25,2.25,0,0,0-.4-1.43,1.29,1.29,0,0,0-1.06-.51,1.24,1.24,0,0,0-1,.49A2.19,2.19,0,0,0,66.75,34.18Z" style="fill: #fff"/>
    </g>
  </g>
</svg>
