<svg id="Layer_1" data-name="Layer 1" xmlns="http://www.w3.org/2000/svg" viewBox="0 0 38 38">
  <title>Artboard 34 copy 2</title>
  <g>
    <g>
      <path d="M19,37.35A18.35,18.35,0,1,1,37.35,19,18.38,18.38,0,0,1,19,37.35Z" style="fill: #fff"/>
      <path d="M19,1.29A17.71,17.71,0,1,1,1.29,19,17.73,17.73,0,0,1,19,1.29M19,0A19,19,0,1,0,38,19,19,19,0,0,0,19,0Z" style="fill: #40b3c9"/>
    </g>
    <path d="M21.49,10.53A2.36,2.36,0,0,1,19,12.88a2.3,2.3,0,0,1-2.44-2.35A2.3,2.3,0,0,1,19,8.14,2.36,2.36,0,0,1,21.49,10.53ZM16.63,29.86V14.73h4.7V29.86Z" style="fill: #40b3c9"/>
  </g>
</svg>
