<svg id="Layer_1" data-name="Layer 1" xmlns="http://www.w3.org/2000/svg" viewBox="0 0 214 195">
  <g>
    <g>
      <path d="M92,136.65a1.38,1.38,0,0,1-1-.42,1.35,1.35,0,0,1-.41-1,2.4,2.4,0,0,1,.71-1.62q.71-.78,1.07-.78a1.55,1.55,0,0,1,1,.59,1.8,1.8,0,0,1,0,2.63A1.87,1.87,0,0,1,92,136.65Zm1-1.7a.81.81,0,0,0-.34-.54,1,1,0,0,0-.55-.3s-.08,0-.16.1a1.07,1.07,0,0,0-.22.3.89.89,0,0,0-.11.42q0,.46.62.46a1.11,1.11,0,0,0,.5-.12A.36.36,0,0,0,92.95,134.95Z" style="fill: #666"/>
      <path d="M101.44,140.9v9.62H90.33q-6.31,0-6.31-5.33a9.33,9.33,0,0,1,.55-3l1.66-.34.17.14a12.45,12.45,0,0,0-.36,2.69,3.07,3.07,0,0,0,1.06,2.59,6.46,6.46,0,0,0,3.79.82h8.4V140.9Zm-8,11.47L95,154.29l-2,1.66L91.41,154Z" style="fill: #666"/>
      <path d="M109.68,129.59v1.18l-5.59,2.09v-1.13ZM108.43,133l.89-.38a4.43,4.43,0,0,1,.36,1.58,2,2,0,0,1-.49,1.44,1.56,1.56,0,0,1-1.19.53,1.78,1.78,0,0,1-1.15-.43,1.84,1.84,0,0,1-1.44.74,1.18,1.18,0,0,1-.85-.34,1.38,1.38,0,0,1-.35-1,4.37,4.37,0,0,1,.43-1.58l.79-.22.12.1a3.21,3.21,0,0,0-.34,1.27q0,.53.5.53a.77.77,0,0,0,.64-.41,2.32,2.32,0,0,0,.3-1.22l.77-.31.12.1a4.14,4.14,0,0,1-.12,1.3,1.29,1.29,0,0,0,.77.24.55.55,0,0,0,.36-.14.51.51,0,0,0,.17-.41A3.16,3.16,0,0,0,108.43,133Z" style="fill: #666"/>
      <path d="M109.24,141.69V150q0,5.71-4.37,5.71a4.17,4.17,0,0,1-1.8-.41l-.38-2.09.17-.14a7.15,7.15,0,0,0,2.11.29,1.91,1.91,0,0,0,1.61-.68,3.78,3.78,0,0,0,.53-2.27v-8.71Z" style="fill: #666"/>
      <path d="M117.26,132.69l-5.57,2.11v-1.13l5.57-2.14Z" style="fill: #666"/>
      <path d="M123.55,148.34v1.94l-.24.24h-.67a3.77,3.77,0,0,1-2.83-1.27,8,8,0,0,1-2.32,1,12.57,12.57,0,0,1-2.92.29H112l-.58-2.23.19-.22H115a12.93,12.93,0,0,0,3.65-.43l-.38-.67q-1.68-3.24-3.14-6.55l1.68-1.2H117q1.34,3.17,2.88,6.24a7.06,7.06,0,0,0,1.48,2.14,2.68,2.68,0,0,0,1.69.48h.22Z" style="fill: #666"/>
      <path d="M129.48,130.53l-5.57,2.11v-1.13l5.57-2.14Z" style="fill: #666"/>
      <path d="M127.15,140.9h2.16v9.62h-6l-.34-.34v-1.85l.34-.26h3.84Zm-1.25-2-1.58-1.85,2-1.66,1.42,1.68,2-1.66,1.56,1.85-2,1.66-1.42-1.68Z" style="fill: #666"/>
    </g>
    <g>
      <g>
        <path d="M97.9,102.7a.45.45,0,0,1-.38-.45.6.6,0,0,1,0-.08.46.46,0,0,1,.9.08.41.41,0,0,1,0,.08.46.46,0,0,1-.45.38Z" style="fill: #3d3938"/>
        <path d="M95.08,66.44a.91.91,0,0,1-.92-.71c-2-9.16-3.38-21.67-1.1-29.33a.91.91,0,0,1,1.74.52C93,43,93.42,53.94,95.93,65.34a.91.91,0,0,1-.69,1.08l-.17,0" style="fill: #3d3938"/>
        <polyline points="48.44 39.2 57.24 49.62 75.09 45.17 65.97 34.15 48.44 39.2" style="fill: #318c10"/>
        <path d="M65.58,33.13c-.19,0-16.59,5.05-16.59,5.05a6.72,6.72,0,0,0-2.58,1.44c-.69.85.16,1.18.16,1.18l2.23,14.62,18.1-4.54-3-14.8.26-.07L66,34.15c.31-.7-.21-1-.39-1" style="fill: #6dae44"/>
        <path d="M46.58,40.8h0l-.14-.08a.65.65,0,0,1-.26-.32l17.37-5.08.35.5-17.32,5" style="fill: #77c644"/>
        <path d="M65.58,33.13A20.29,20.29,0,0,0,63.39,35c-.08.14-.17.85.5.82l.2-.06,1.76-1.48.23-.22a.68.68,0,0,0-.5-.92Z" style="fill: #318c10"/>
        <path d="M74.49,44.9,65.84,34.26c.13-.69,0-.87-.25-.88a8.84,8.84,0,0,0-2,1.74c-.18.62.51.55.51.55L67,50s6.43-2.36,7.54-5.06Z" style="fill: #f1f2f2"/>
        <path d="M68.05,49.13a.12.12,0,0,1-.12-.09L64.53,36.59a.12.12,0,0,1,.24-.06L68.17,49a.12.12,0,0,1-.09.15Z" style="fill: #d1d3d4"/>
        <path d="M68.95,47.36a.12.12,0,0,1-.12-.08l-2.63-7.63a.12.12,0,0,1,.23-.08l2.63,7.63a.12.12,0,0,1-.08.16Z" style="fill: #d1d3d4"/>
        <path d="M70.83,47.58a.12.12,0,0,1-.11-.07L65.23,35.94a.12.12,0,0,1,.22-.1l5.49,11.57a.12.12,0,0,1-.06.16Z" style="fill: #d1d3d4"/>
        <path d="M72.14,46.3a.12.12,0,0,1-.1-.06l-4.88-8a.12.12,0,1,1,.21-.13l4.88,8a.12.12,0,0,1,0,.17l-.06,0Z" style="fill: #d1d3d4"/>
        <path d="M73.27,45.54a.12.12,0,0,1-.1-.05L66,35.37a.12.12,0,1,1,.2-.14l7.16,10.12a.12.12,0,0,1,0,.17l-.07,0Z" style="fill: #d1d3d4"/>
        <polygon points="66.92 50.88 67.13 50.83 64.08 35.67 63.89 35.81 66.92 50.88 66.92 50.88" style="fill: #77c644"/>
        <polygon points="75.09 45.17 75.28 44.93 66.08 34.05 65.97 34.15 75.09 45.17 75.09 45.17" style="fill: #77c644"/>
        <path d="M97.08,87.43l-.69,11.38,2.36,13.46s-3.68-2.92-6.18,1.25c-2,3.4,7.91.42,7.91.42L98.61,98.81l1.87-10.34-3.4-1" style="fill: #3d3938"/>
        <path d="M110.55,87.43l-.69,11.38,2.36,13.46s-3.68-2.92-6.18,1.25c-2,3.4,7.91.42,7.91.42l-1.87-15.13,1.87-10.34-3.4-1" style="fill: #3d3938"/>
        <path d="M94.06,53.69q-.1-1.07-.18-2.1h0q.08,1,.18,2.1h0" style="fill: #3d3938"/>
        <path d="M92.29,54.08q-.1-1-.18-2a11.15,11.15,0,0,1,1.77-.47q.08,1,.18,2.1a11.14,11.14,0,0,0-1.77.39" style="fill: #3d3938"/>
        <path d="M121.56,101.06a1,1,0,0,1-.26-1.92c4.69-1.31,7.53-3.29,8.69-6,1.4-3.32.37-7.91-3.22-14.45a1,1,0,0,1,1.71-.94c2.66,4.85,5.45,11.07,3.31,16.15-1.41,3.35-4.67,5.69-10,7.17a1,1,0,0,1-.26,0Z" style="fill: #3d3938"/>
        <path d="M67.6,39.67,68.91,42a224.44,224.44,0,0,1,62-1.53l.28-2.48A226.9,226.9,0,0,0,67.6,39.67Z" style="fill: #faab18"/>
        <path d="M95.29,34.87c-.87-.13-2,.33-2.42,2L95,36.77l0,0a.36.36,0,0,1,.23.15.72.72,0,0,1,.18.57.94.94,0,0,0,.81,1.06h.15a.94.94,0,0,0,.92-.82,2.55,2.55,0,0,0-2-2.84Z" style="fill: #3d3938"/>
        <polyline points="129.57 31.39 133.56 44.42 151.72 47.36 147.68 33.64 129.57 31.39" style="fill: #318c10"/>
        <path d="M147.72,32.55c-.18-.05-17.24-1.88-17.24-1.88a6.72,6.72,0,0,0-2.93.31c-1,.51-.31,1.15-.31,1.15l-3.7,14.32L142,49.39l3.09-14.78.27,0,2.35-1c.56-.53.22-1,0-1.09" style="fill: #6dae44"/>
        <path d="M145.11,34.35l-17.88-2.23-.1-.13a.65.65,0,0,1-.11-.4l18,2.16.12.6" style="fill: #77c644"/>
        <path d="M147.72,32.55a20.3,20.3,0,0,0-2.74.85c-.12.1-.49.71.14.95l.21,0,2.2-.67.3-.12a.68.68,0,0,0-.1-1Z" style="fill: #318c10"/>
        <path d="M151.28,46.88,147.52,33.7c.39-.58.31-.81.12-.91a8.83,8.83,0,0,0-2.54.8c-.41.5.25.71.25.71l-3,14.27s6.84.36,8.92-1.68Z" style="fill: #f1f2f2"/>
        <path d="M143.75,48.25h0a.12.12,0,0,1-.1-.14l1.77-12.79a.12.12,0,0,1,.14-.1.12.12,0,0,1,.1.14l-1.77,12.79a.12.12,0,0,1-.12.11Z" style="fill: #d1d3d4"/>
        <path d="M145.27,47h0a.12.12,0,0,1-.11-.13l.58-8a.12.12,0,0,1,.13-.11.12.12,0,0,1,.11.13l-.58,8a.12.12,0,0,1-.12.11Z" style="fill: #d1d3d4"/>
        <path d="M146.91,47.91a.12.12,0,0,1-.12-.12L146.3,35a.12.12,0,0,1,.12-.13.12.12,0,0,1,.13.12L147,47.78a.12.12,0,0,1-.12.13Z" style="fill: #d1d3d4"/>
        <path d="M148.62,47.25a.12.12,0,0,1-.12-.1l-1.33-9.3a.12.12,0,0,1,.24,0l1.33,9.3a.12.12,0,0,1-.1.14Z" style="fill: #d1d3d4"/>
        <path d="M150,47a.12.12,0,0,1-.12-.1l-2.6-12.11a.12.12,0,0,1,.24-.05l2.6,12.11A.12.12,0,0,1,150,47Z" style="fill: #d1d3d4"/>
        <polygon points="141.97 49.39 142.19 49.43 145.34 34.3 145.12 34.35 141.97 49.39 141.97 49.39" style="fill: #77c644"/>
        <polygon points="151.72 47.36 152 47.22 147.82 33.6 147.68 33.64 151.72 47.36 151.72 47.36" style="fill: #77c644"/>
        <path d="M68.91,42.11A.12.12,0,0,1,68.8,42L67.5,39.73a.12.12,0,0,1,.21-.12L69,41.92a.12.12,0,0,1,0,.17l-.06,0Z" style="fill: #d1d3d4"/>
      </g>
      <g>
        <g>
          <path d="M105.53,81.17a8.31,8.31,0,0,1-8-10.52l.82-2a8.71,8.71,0,0,1,7.53-4.41,8.35,8.35,0,0,1,4.23,1.14l1.67,1.28a8.34,8.34,0,0,1-3.3,13.86l-.7.3a8.26,8.26,0,0,1-2.23.31Z" style="fill: #3f3a3c"/>
          <path d="M105.88,64.53A8.06,8.06,0,0,1,110,65.63l1.64,1.27a8.1,8.1,0,0,1-3.22,13.43l-.72.3a8.11,8.11,0,0,1-6.21-.81,8.06,8.06,0,0,1-3.7-9.1l.81-1.93a8.47,8.47,0,0,1,7.32-4.26m0-.5h0a9,9,0,0,0-4.46,1.23,8.92,8.92,0,0,0-3.27,3.31l-.5,1.17-.33.78v.06a8.56,8.56,0,0,0,8.27,10.83,8.53,8.53,0,0,0,2.26-.3h.06l.37-.16.35-.15A8.54,8.54,0,0,0,112,78.71a8.6,8.6,0,0,0,0-12.16l0,0,0,0-1.64-1.27,0,0,0,0A8.59,8.59,0,0,0,105.88,64Z" style="fill: #fff"/>
        </g>
        <g>
          <path d="M114.2,92.27a7.14,7.14,0,0,1-5-12.19,7.1,7.1,0,0,1,2-1.39,12,12,0,0,1,1-3.45A9.9,9.9,0,0,1,115,70.83l.26-.21a10.45,10.45,0,0,1,2.18-1.47c.52-.24,1-.43,1.51-.61l1-.39a9.26,9.26,0,0,1,3.53-.64,11.49,11.49,0,0,1,2.74.33,8.27,8.27,0,0,1,1.73.64c2.17.58,4.62,2.38,5.1,5,.56,3.11,0,5.4-1.85,7.22a7.73,7.73,0,0,1-2.08,1.47,5.37,5.37,0,0,1,.64,2.52,5.51,5.51,0,0,1-5.44,5.44,5.42,5.42,0,0,1-3.85-1.63,7.08,7.08,0,0,1-1.22,1.63A7.19,7.19,0,0,1,114.2,92.27Z" style="fill: #3f3a3c"/>
          <path d="M123.49,67.75a11.17,11.17,0,0,1,2.68.32,8,8,0,0,1,1.67.62,6.67,6.67,0,0,1,5,4.86c.47,2.61.18,5-1.78,7a7.55,7.55,0,0,1-2.25,1.53,5.1,5.1,0,0,1,.74,2.64,5.17,5.17,0,0,1-9.1,3.38,6.89,6.89,0,1,1-9.06-9.25,11.71,11.71,0,0,1,1-3.52A9.78,9.78,0,0,1,115.17,71a11.71,11.71,0,0,1,2.39-1.65c.87-.4,1.66-.65,2.5-1a9,9,0,0,1,3.43-.62m0-.5a9.51,9.51,0,0,0-3.62.66l-1,.38c-.49.18-1,.37-1.53.62a10.65,10.65,0,0,0-2.24,1.51l-.26.21a10.14,10.14,0,0,0-3,4.53,12.35,12.35,0,0,0-1,3.36A7.32,7.32,0,0,0,109,79.9a7.39,7.39,0,1,0,10.45,10.45,7.32,7.32,0,0,0,1.1-1.41,5.66,5.66,0,0,0,3.79,1.48A5.77,5.77,0,0,0,130,84.73a5.6,5.6,0,0,0-.55-2.41,8,8,0,0,0,1.92-1.4c1.85-1.85,2.48-4.29,1.92-7.44-.49-2.75-3-4.61-5.28-5.24a8.44,8.44,0,0,0-1.73-.64,11.71,11.71,0,0,0-2.8-.34Z" style="fill: #fff"/>
        </g>
        <g>
          <path d="M84.84,70.06a6,6,0,1,1,2.22-11.49A6,6,0,0,1,91,55.16,6,6,0,0,1,92.56,55a6,6,0,0,1,4.27,10.28,6,6,0,0,1-2.65,1.55,6.05,6.05,0,0,1-3.19,0,6.09,6.09,0,0,1-.71-.25,5.93,5.93,0,0,1-1.22,1.78A6,6,0,0,1,84.84,70.06Z" style="fill: #3f3a3c"/>
          <path d="M92.56,55.2a5.76,5.76,0,0,1,5.58,7.3h0a5.77,5.77,0,0,1-4,4,5.8,5.8,0,0,1-3.06,0,6,6,0,0,1-.9-.34,5.72,5.72,0,1,1-3-7.3A5.82,5.82,0,0,1,91,55.4a5.7,5.7,0,0,1,1.51-.2m0-.5a6.2,6.2,0,0,0-1.64.22,6.3,6.3,0,0,0-4,3.33,6.21,6.21,0,1,0,2.3,10.24,6.15,6.15,0,0,0,1.17-1.64l.51.17a6.3,6.3,0,0,0,3.33,0,6.27,6.27,0,0,0,4.37-4.34h0v0a6.27,6.27,0,0,0-6.07-7.93Z" style="fill: #fff"/>
        </g>
        <g>
          <path d="M104.34,68.27a8.31,8.31,0,0,1-8-6.1,8.43,8.43,0,0,1,0-4.42l.82-2a8.71,8.71,0,0,1,7.53-4.41,8.34,8.34,0,0,1,4.23,1.14l1.67,1.28a8.34,8.34,0,0,1-3.3,13.86l-.7.3a8.26,8.26,0,0,1-2.23.31Z" style="fill: #3f3a3c"/>
          <path d="M104.69,51.63a8.05,8.05,0,0,1,4.09,1.11L110.41,54a8.1,8.1,0,0,1-3.22,13.43l-.72.3a8.11,8.11,0,0,1-6.21-.81,8.06,8.06,0,0,1-3.7-9.1l.81-1.93a8.47,8.47,0,0,1,7.32-4.26m0-.5h0a9,9,0,0,0-4.46,1.23,8.93,8.93,0,0,0-3.27,3.31l-.26.62-.56,1.33v.06a8.56,8.56,0,0,0,8.27,10.83,8.53,8.53,0,0,0,2.26-.3h.06l.72-.3a8.54,8.54,0,0,0,3.38-2.08,8.6,8.6,0,0,0,0-12.16l0,0,0,0-1.64-1.27,0,0,0,0a8.58,8.58,0,0,0-4.34-1.17Z" style="fill: #fff"/>
        </g>
        <g>
          <path d="M120.8,87.12a5.78,5.78,0,0,1-3.93-1.56,5.68,5.68,0,0,1-.89-1.08,6.78,6.78,0,0,1-3.78,1.29H112A6.91,6.91,0,0,1,111.78,72h.2a7,7,0,0,1,6.36,4.24,5.76,5.76,0,0,1,2.28-.55h.17A5.73,5.73,0,0,1,121,87.12Z" style="fill: #3f3a3c"/>
          <path d="M112,72.23a6.74,6.74,0,0,1,6.23,4.34,5.48,5.48,0,0,1,2.42-.65h.16a5.48,5.48,0,0,1,.17,11h-.16A5.47,5.47,0,0,1,116,84.12a6.58,6.58,0,0,1-3.86,1.41H112a6.66,6.66,0,0,1-.21-13.31h.2m0-.5h-.21a7.22,7.22,0,0,0-6.94,7.37A7.21,7.21,0,0,0,112,86h.21a7,7,0,0,0,3.71-1.2,6,6,0,0,0,.79.91,6,6,0,0,0,4.1,1.62H121a6,6,0,0,0-.18-12h-.18a6,6,0,0,0-2.14.47A7.22,7.22,0,0,0,112,71.73Z" style="fill: #fff"/>
        </g>
        <g>
          <path d="M82.72,83.75a8.31,8.31,0,0,1-8-6.1,8.41,8.41,0,0,1,0-4.42l.82-2A8.71,8.71,0,0,1,83,66.86,8.36,8.36,0,0,1,87.28,68l1.67,1.28a8.35,8.35,0,0,1,0,11.83,8.34,8.34,0,0,1-3.32,2l-.7.3a8.27,8.27,0,0,1-2.23.31Z" style="fill: #3f3a3c"/>
          <path d="M83.06,67.11a8.07,8.07,0,0,1,4.09,1.11l1.64,1.27a8.1,8.1,0,0,1-3.22,13.43l-.72.3a8.11,8.11,0,0,1-6.21-.81,8.06,8.06,0,0,1-3.7-9.1l.81-1.93a8.47,8.47,0,0,1,7.32-4.26m0-.5h0a9,9,0,0,0-4.46,1.23,8.92,8.92,0,0,0-3.27,3.31l-.5,1.18-.33.77v.06A8.56,8.56,0,0,0,82.72,84a8.53,8.53,0,0,0,2.26-.3H85l.36-.15.36-.15a8.54,8.54,0,0,0,3.38-2.08,8.6,8.6,0,0,0,0-12.16l0,0,0,0-1.64-1.27,0,0,0,0a8.6,8.6,0,0,0-4.34-1.17Z" style="fill: #fff"/>
        </g>
        <g>
          <path d="M125.28,71.88a6.21,6.21,0,0,1-5.88-4.18c-.05-.14-.09-.29-.13-.44l-.09,0a5.84,5.84,0,1,1,3.6-7.43l0,.09.43-.17a6.22,6.22,0,1,1,2,12.1Z" style="fill: #3f3a3c"/>
          <path d="M117.27,56.19a5.58,5.58,0,0,1,5.28,3.76c0,.12.08.24.11.36a5.83,5.83,0,0,1,.67-.28,6,6,0,1,1-3.69,7.59,5.9,5.9,0,0,1-.19-.7l-.35.14a5.59,5.59,0,1,1-1.83-10.87m0-.5h0a6.06,6.06,0,0,0-2,.33,6.09,6.09,0,0,0,2,11.84,6.07,6.07,0,0,0,1.83-.28l.07.2a6.46,6.46,0,0,0,6.12,4.35,6.44,6.44,0,0,0,2.11-.35,6.47,6.47,0,0,0-2.12-12.58,6.44,6.44,0,0,0-2.11.35l-.2.07a6.08,6.08,0,0,0-5.7-3.93Z" style="fill: #fff"/>
        </g>
        <g>
          <path d="M91.6,92.51A6,6,0,0,1,89.25,92a6,6,0,0,1-3.4-3.75h-.11l-.51,0h0a6.24,6.24,0,0,1-5.85-4.08L79,82.45a6.25,6.25,0,0,1,.58-3.24l.85-1.32a6.3,6.3,0,0,1,4.27-2.21l.51,0a6.26,6.26,0,0,1,5.13,2.67,3.83,3.83,0,0,1,2.8-1.61h.31a3.88,3.88,0,0,1,3.1,1.59l.84-.77a7.85,7.85,0,0,1,3.89-1.42l2.07.1A7.89,7.89,0,0,1,107,77.93l1.32,1.44.23.37a9.8,9.8,0,0,1,.79,1.57,18.8,18.8,0,0,1,.46,2.11h0a7.6,7.6,0,0,1-.72,4,7.84,7.84,0,0,1-2.55,3l-1.75.92a7.87,7.87,0,0,1-2.7.49,8.1,8.1,0,0,1-1.44-.13,8.51,8.51,0,0,1-2.58-1,7.62,7.62,0,0,1-1.23-.85h0A7.56,7.56,0,0,1,95,91.28,5.17,5.17,0,0,1,91.6,92.51Z" style="fill: #3f3a3c"/>
          <path d="M85.2,75.91a6,6,0,0,1,5.13,2.88A3.61,3.61,0,0,1,93.15,77h.29a3.63,3.63,0,0,1,3.05,1.71l1.05-1h0a7.57,7.57,0,0,1,3.74-1.35l2,.1a7.6,7.6,0,0,1,3.51,1.67l1.31,1.44a12.09,12.09,0,0,1,1,1.84,19.22,19.22,0,0,1,.48,2.14v-.07a7.43,7.43,0,0,1-.71,3.91,7.53,7.53,0,0,1-2.46,2.9l-1.72.9a7.57,7.57,0,0,1-2.58.46,7.78,7.78,0,0,1-1.39-.13,8.26,8.26,0,0,1-2.5-1,7.55,7.55,0,0,1-1.2-.83l-.19-.17a7.22,7.22,0,0,1-1.93,1.5,5,5,0,0,1-3.28,1.2A5.83,5.83,0,0,1,86,88l-.31,0-.49,0a6,6,0,0,1-5.62-3.92l-.34-1.57,0-.17a6,6,0,0,1,.57-3.08L80.63,78a6,6,0,0,1,4.08-2.1l.49,0m0-.5-.53,0a6.54,6.54,0,0,0-4.42,2.28l0,0,0,0-.49.76-.34.53,0,0v0a6.49,6.49,0,0,0-.61,3.34v.13l0,.1.22,1,.12.56v.07a6.48,6.48,0,0,0,6.09,4.24l.44,0a6.33,6.33,0,0,0,5.93,4.23,5.5,5.5,0,0,0,3.57-1.29,7.8,7.8,0,0,0,1.67-1.23A8.06,8.06,0,0,0,98,91a8.62,8.62,0,0,0,2.61,1,8.29,8.29,0,0,0,1.52.15,8.1,8.1,0,0,0,2.75-.49h0l0,0,1-.54.68-.36,0,0,0,0a8.07,8.07,0,0,0,2.62-3.09,7.84,7.84,0,0,0,.75-4.22h0a12.84,12.84,0,0,0-.47-2.15,9.91,9.91,0,0,0-.81-1.61l-.18-.31,0,0,0,0-1.31-1.44,0,0,0,0A8.13,8.13,0,0,0,103.42,76h-.07l-1-.05-1-.05h-.07a8.09,8.09,0,0,0-4,1.44l0,0,0,0-.48.44-.17.16a4.13,4.13,0,0,0-3.13-1.47h-.33a4.07,4.07,0,0,0-2.78,1.45,6.66,6.66,0,0,0-.93-1,6.52,6.52,0,0,0-4.21-1.54Z" style="fill: #fff"/>
        </g>
        <g>
          <path d="M91.33,81.74h-.5l-1.94-.38-.37-.15a9.73,9.73,0,0,1-1.58-.79A12.49,12.49,0,0,1,85.31,79h0a7.57,7.57,0,0,1-1.83-3.68,7.82,7.82,0,0,1,.25-3.94l.86-1.78a7.84,7.84,0,0,1,3.11-2.75,8.53,8.53,0,0,1,2.66-.75,7.81,7.81,0,0,1,1-.06l.49,0h0a7.5,7.5,0,0,1,.65-2.19,5.45,5.45,0,0,1,4.18-4,6.1,6.1,0,0,1,1.42-.17,6,6,0,0,1,3.55,1.16l.08-.07a6.23,6.23,0,0,1,4.12-1.55h.39a6.25,6.25,0,0,1,3,1l1.25,1.08.14.13a6.24,6.24,0,0,1,1.44,2.93l.1,1.56A6.24,6.24,0,0,1,106,71.8h-.4a6.32,6.32,0,0,1-1.58-.31,3.79,3.79,0,0,1-3.81,3.91A3.92,3.92,0,0,1,99,75.21l-.22,1.12a7.87,7.87,0,0,1-2.28,3.46L94.8,80.93A7.88,7.88,0,0,1,91.33,81.74Z" style="fill: #3f3a3c"/>
          <path d="M105.85,59.45h.38a6,6,0,0,1,2.9,1l1.21,1.05.13.11a6,6,0,0,1,1.38,2.81l.1,1.53a6,6,0,0,1-6,5.61h-.38a6,6,0,0,1-1.88-.43,3.61,3.61,0,0,1-1.18,3.15,3.55,3.55,0,0,1-2.36.88,3.68,3.68,0,0,1-1.34-.25l-.27,1.4h0a7.57,7.57,0,0,1-2.2,3.31l-1.7,1.13a7.59,7.59,0,0,1-3.32.76h-.49l-1.91-.37a12.08,12.08,0,0,1-1.86-.91,19.4,19.4,0,0,1-1.66-1.43l.05,0a7.43,7.43,0,0,1-1.76-3.56,7.53,7.53,0,0,1,.24-3.8l.85-1.75a7.55,7.55,0,0,1,3-2.63,8.27,8.27,0,0,1,2.57-.72,7.63,7.63,0,0,1,1-.06l.47,0,.26,0A7.24,7.24,0,0,1,92.73,64a5.23,5.23,0,0,1,4-3.89,5.79,5.79,0,0,1,4.93,1.07l.23-.21a6,6,0,0,1,4-1.49m0-.5a6.48,6.48,0,0,0-4.22,1.56,6.28,6.28,0,0,0-5-.91,5.74,5.74,0,0,0-4.37,4.21,7.83,7.83,0,0,0-.61,2h-.3a8.18,8.18,0,0,0-1,.07,8.63,8.63,0,0,0-2.69.75,8.1,8.1,0,0,0-3.23,2.82l0,0v0l-.85,1.75v.06a8.06,8.06,0,0,0-.26,4,7.84,7.84,0,0,0,1.91,3.84h0a8.58,8.58,0,0,0,1.67,1.44,10,10,0,0,0,1.62.81l.32.14.05,0h.05l1,.19,1,.19h.06l.52,0a8.12,8.12,0,0,0,3.54-.81l0,0,0,0,.62-.41L96.63,80l0,0,0,0A8.1,8.1,0,0,0,99,76.44v-.07l.17-.85a4.18,4.18,0,0,0,1,.11,4,4,0,0,0,4.05-3.82,6.62,6.62,0,0,0,1.32.22H106A6.5,6.5,0,0,0,112.44,66V65.9l0-.61-.06-.92V64.3a6.49,6.49,0,0,0-1.5-3l0,0,0,0-.07-.06-.06-.05-.6-.52-.62-.54,0,0,0,0a6.49,6.49,0,0,0-3.13-1Z" style="fill: #fff"/>
        </g>
        <g>
          <path d="M116.78,77.95a6.93,6.93,0,0,1-6.44-4.44,5.73,5.73,0,1,1,1.76-9.29,5.67,5.67,0,0,1,.86,1.1,6.79,6.79,0,0,1,3.82-1.18,6.91,6.91,0,0,1,0,13.81Z" style="fill: #3f3a3c"/>
          <path d="M108.05,62.79a5.47,5.47,0,0,1,4.83,2.89,6.58,6.58,0,0,1,3.9-1.29,6.65,6.65,0,1,1-6.3,8.78,5.48,5.48,0,1,1-2.43-10.38m0-.5a6,6,0,1,0,2.16,11.55,7.15,7.15,0,1,0,6.57-9.95A7,7,0,0,0,113,65a5.93,5.93,0,0,0-.76-.93,6,6,0,0,0-4.23-1.75Z" style="fill: #fff"/>
        </g>
        <g>
          <path d="M100,82.78A5.43,5.43,0,0,1,97.22,82a8.4,8.4,0,0,1-3.85-5.92,8.57,8.57,0,0,1,.17-4l.1-.3A5.91,5.91,0,0,1,94.46,70a2.51,2.51,0,0,1,2-.87,2.16,2.16,0,0,1,.86.17,4,4,0,0,1,2,2.53l.05.14c.08.21.16.41.23.62s.16.38.22.55A8.32,8.32,0,0,1,101.23,71a7.25,7.25,0,0,1,1.51-1.21c.16-.09.51-.25.77-.37a2.41,2.41,0,0,1,1.07-.36,6.6,6.6,0,0,1,.89-.06,4.75,4.75,0,0,1,3.62,1.61,5.2,5.2,0,0,1,1.32,1.51l.08.14a9.06,9.06,0,0,1,.54,1.13l.23.51a8.6,8.6,0,0,1,.75,2.14,17.15,17.15,0,0,1,.27,2.49,3.72,3.72,0,0,1-1.1,2.68,3.89,3.89,0,0,1-2.75,1.17,3.82,3.82,0,0,1-3.52-2.35,7,7,0,0,1-3.22,2.44A4.84,4.84,0,0,1,100,82.78Z" style="fill: #3f3a3c"/>
          <path d="M111.76,76.12a10.09,10.09,0,0,0-.88-2.43c-.1-.23-.21-.45-.33-.67.74,1.39-.47-1-.27-.6a4.93,4.93,0,0,0-1.36-1.6,4.62,4.62,0,0,0-4.31-1.47,2.21,2.21,0,0,0-1,.34l-.75.37a7.11,7.11,0,0,0-1.45,1.18,9.41,9.41,0,0,0-1.66,2.52c-.13-.34-.24-.68-.39-1l0-.08c-.08-.25-.18-.5-.28-.74a3.76,3.76,0,0,0-1.87-2.39,2.32,2.32,0,0,0-2.52.62,7.06,7.06,0,0,0-.88,2A8.72,8.72,0,0,0,93.62,76a8.15,8.15,0,0,0,3.73,5.75,5.09,5.09,0,0,0,4.25.49A7.13,7.13,0,0,0,105,79.55a3.58,3.58,0,0,0,7-1A16.88,16.88,0,0,0,111.76,76.12Z" style="fill: #3f3a3c"/>
          <path d="M105.47,69.28a4.51,4.51,0,0,1,3.44,1.53,4.93,4.93,0,0,1,1.36,1.6l0,0s.55,1.08.54,1.08l-.23-.42v0c.11.21.22.43.32.65a10.09,10.09,0,0,1,.88,2.43,16.87,16.87,0,0,1,.27,2.46,3.58,3.58,0,0,1-7,1,7.13,7.13,0,0,1-3.39,2.72,4.62,4.62,0,0,1-1.56.26,5.17,5.17,0,0,1-2.69-.75A8.15,8.15,0,0,1,93.62,76a8.72,8.72,0,0,1,.16-3.88,7.05,7.05,0,0,1,.88-2,2.28,2.28,0,0,1,1.76-.77,1.93,1.93,0,0,1,.76.15,3.76,3.76,0,0,1,1.87,2.39c.1.25.2.49.28.74l0,.08c.15.33.26.67.39,1a9.4,9.4,0,0,1,1.66-2.52A7.11,7.11,0,0,1,102.86,70l.75-.37a2.21,2.21,0,0,1,1-.34,6.42,6.42,0,0,1,.87-.06m0-.5v0a6.91,6.91,0,0,0-.94.07,2.68,2.68,0,0,0-1.15.39l-.76.37a7.46,7.46,0,0,0-1.56,1.26,7.56,7.56,0,0,0-1.24,1.68v0c-.08-.25-.16-.46-.24-.67l0-.13a4.23,4.23,0,0,0-2.14-2.67,2.41,2.41,0,0,0-1-.19,2.76,2.76,0,0,0-2.16,1,6.11,6.11,0,0,0-.86,1.86l-.1.29a8.79,8.79,0,0,0-.18,4.11,8.65,8.65,0,0,0,4,6.1,5.66,5.66,0,0,0,3,.82,5.1,5.1,0,0,0,1.73-.29,7.09,7.09,0,0,0,3.08-2.21,4.06,4.06,0,0,0,3.57,2.14,4.14,4.14,0,0,0,2.93-1.25,4,4,0,0,0,1.17-2.86,17.37,17.37,0,0,0-.28-2.53,8.77,8.77,0,0,0-.76-2.2l-.16-.35-.09-.19a4,4,0,0,0-.54-1.12,5.41,5.41,0,0,0-1.46-1.73,5,5,0,0,0-3.78-1.67Z" style="fill: #fff"/>
        </g>
        <path d="M86.59,84A6,6,0,0,0,92,92.55" style="fill: none;stroke: #fff;stroke-linecap: round;stroke-miterlimit: 10;stroke-width: 0.606730939469471px"/>
        <path d="M120,87.68a5.4,5.4,0,1,0,6.74-7.75" style="fill: none;stroke: #fff;stroke-linecap: round;stroke-miterlimit: 10;stroke-width: 0.5px"/>
        <path d="M92.73,72.32c-1.22-1-2.83-.59-4,.3" style="fill: none;stroke: #fff;stroke-linecap: round;stroke-miterlimit: 10;stroke-width: 0.5px"/>
        <path d="M79.68,72.72a7.41,7.41,0,0,0,3.22,3.34" style="fill: none;stroke: #fff;stroke-linecap: round;stroke-miterlimit: 10;stroke-width: 0.5px"/>
        <path d="M111.82,73.22s1.77-4.09,5.66-3.2" style="fill: none;stroke: #fff;stroke-linecap: round;stroke-miterlimit: 10;stroke-width: 0.5px"/>
        <path d="M104.5,80.5a6.63,6.63,0,0,0,2-4.31" style="fill: none;stroke: #fff;stroke-linecap: round;stroke-miterlimit: 10;stroke-width: 0.5px"/>
        <path d="M90.73,82.15s5.74,6.31,12.62,4.72" style="fill: none;stroke: #fff;stroke-linecap: round;stroke-miterlimit: 10;stroke-width: 0.5px"/>
        <path d="M105.08,56.62A7.57,7.57,0,0,0,103.36,59" style="fill: none;stroke: #fff;stroke-linecap: round;stroke-miterlimit: 10;stroke-width: 0.5px"/>
      </g>
    </g>
  </g>
</svg>
