<svg id="Layer_1" data-name="Layer 1" xmlns="http://www.w3.org/2000/svg" viewBox="0 0 193.09 44.18">
  <title>Artboard 11</title>
  <g>
    <path d="M16.13,12.45c5.08.45,8.51,5.76,8.81,10.52.19,3.15,0,6.43-2.22,8.94C17.32,38-1.09,35.64.05,25.35c.32-2.83,2-4.79,4.12-6.64,1.3-1.08.9.77.69,1.46a12.47,12.47,0,0,0-.08,4.1c.53,5.87,7.51,10.08,12.9,7a4.13,4.13,0,0,0,2.25-3.76.51.51,0,0,0-.53-.4c-3.28.53-8.44-.74-9.6-4.39-1.35-4.18-.16-8.91,4.58-10.1A5.43,5.43,0,0,1,16.13,12.45ZM13.67,6.34c.79,1.43.45,3-.71,3.6A2.86,2.86,0,0,1,9.38,8.43a2.54,2.54,0,0,1,.74-3.6A2.82,2.82,0,0,1,13.67,6.34ZM15,21.89a6,6,0,0,0,4.34,2.35.71.71,0,0,0,.69-.82c-.32-2.12-1.24-8-4.1-8.33C13.11,16,13.91,20,15,21.89ZM19.35,6.34c.77,1.43.45,3-.74,3.6a2.82,2.82,0,0,1-3.54-1.51,2.51,2.51,0,0,1,.71-3.6A2.86,2.86,0,0,1,19.35,6.34Z" style="fill: #fff"/>
    <path d="M33.61,13.27c-1,0-1,.32-.82,1.4,0,3.78,3.65,13.91,1.32,18.09-2.33,3.7-7.06,2.46-9-.82-.13-.19-.18-.5,0-.48.87.11,1.56.82,2.49.82,3.31,0,2.7-4,2.22-6.13-.69-3.23-2.94-11.21-1.8-13s4.47-2.38,5.84-.34C34,13,33.93,13.32,33.61,13.27Z" style="fill: #fff"/>
    <path d="M44,3.64C44.7,8.8,45.33,13.8,46,19c.26,2.25.53,5.16,3.78,4.71v3.75c-2,.19-5.37-.32-6.56-2.09C40.91,22,40.44,7.87,38.74,4.2c-.05-.24-.48-.42-.82-.42s-.32-.37-.24-.53A4.2,4.2,0,0,1,39,2C41.2.26,43.29,1.05,44,3.64Z" style="fill: #fff"/>
    <path d="M49.75,23.74c1.4-.21,2.72-.87,3-2.35-.32-2.22-2-7.83-1-9.36,1.72-2.49,6.4-.42,5.66.45-.26.29-.77.42-.85.63-.55,2.09.56,5,.71,7.4a5.48,5.48,0,0,1-2.22,5.42,12.23,12.23,0,0,1-5.34,1.56Zm6,7.77c.77,1.43.45,3-.74,3.62a2.87,2.87,0,0,1-3.54-1.53,2.53,2.53,0,0,1,.71-3.6A2.89,2.89,0,0,1,55.78,31.51Z" style="fill: #fff"/>
    <path d="M88.6,11.89c.9,4.42-1.9,7.64-4.15,10,1.77,1.59,4.55,2.35,8.3,1.85v3.75c-4.89.48-8.22.08-10.95-3.41-1.88,1.8-4,4.26-5.1,5.39-.5.5-.34.69.13.69,5.5-.05,13.06-.42,16.45,4.6A5.16,5.16,0,0,1,93,40.85c-2.09,2.3-5.84,3.41-10,3.33-5.32-.11-11.5-3-12.67-8.62a18.62,18.62,0,0,1-.08-3c0-.21-.34-.4-.37-.42-4.42-2.12-3.31-3.89-2.72-3.36a10.11,10.11,0,0,0,3.17,1.4c.5.08.66.05.82-.42.58-2,4.42-5.84,7.46-8.36C76.17,19.17,73,18,69.77,16.86c-1-.37-1.3-4.65.56-5.42,3.54-1.51,6.85-1.51,9.78-2.75a12.31,12.31,0,0,1,1.4-.42C84.66,7.32,88,9.2,88.6,11.89ZM74.82,14a23,23,0,0,1,7,5A4.87,4.87,0,0,0,83.18,13c-.74-1.4-2.51-1.14-3.7-.82C77.6,12.61,76.57,13.64,74.82,14ZM75.67,33c0,2.17,0,4.87,1.85,6.45,3,2.59,9.57,4.68,11.4-.61.58-1.64-1.19-3.52-2.38-4.31a16.34,16.34,0,0,0-10.26-1.88C76.06,32.65,75.67,32.73,75.67,33Z" style="fill: #fff"/>
    <path d="M109,25.8v.05a0,0,0,0,1,0,0,6.37,6.37,0,0,1-9-.18c-1.11-1.14-2.7,1.61-7.25,1.85V23.74c2-.08,2.78-.93,2.38-2.8-.69-3.2-.13-8,3.81-9a9.8,9.8,0,0,1,7.59,1.59c3.78,2.49,5.31,8.2,2.67,12.08Zm-8.36-10.29c-1.22,2.27-.48,6.06.77,7.77.34.48,1.93,1.56,2.59,1.22,3.38-1.9,1.38-10.1-2.51-9.65A1.22,1.22,0,0,0,100.64,15.52Z" style="fill: #fff"/>
    <path d="M145,27.49c-2,.21-4.65-.13-5.92-1.4a6.39,6.39,0,0,1-8.81-.34c-.24-.19-.71-.05-.69.26.21,6.56-7.11,6.11-9.94,2.38a.42.42,0,0,1,.26-.56A2.78,2.78,0,0,1,121,28c1.11.29,2.17.61,3.23-.16,2.09-1.48,1.29-4.63,1.16-6.82-.21-3.25-.08-8,3.86-9a9.85,9.85,0,0,1,7.56,1.59c2.38,1.53,4,4.31,4,8.17a4,4,0,0,0,4.23,2ZM130.89,15.65c-1.22,2.25-.45,6,.77,7.77.34.48,1.93,1.56,2.59,1.19,3.41-1.88,1.4-10.08-2.51-9.63A1.2,1.2,0,0,0,130.89,15.65Z" style="fill: #fff"/>
    <path d="M151.24,1.16c.13.11.16.48-.05.56s-.69.42-.66.63c.58,5.26,1.56,10.26,2.35,15.31.53,3.38,3.07,6.56,6.61,6.08v3.75c-4.18-.16-5.79-1-7.22-2.93A12.51,12.51,0,0,1,145,27.49V23.74c1.35,0,4.26-1.08,3.54-3.17-.11-.63-.26-1.24-.37-1.88-1-5.18-1.9-10.13-2.86-15.23C145.23.76,147-.64,149.65.28A4.19,4.19,0,0,1,151.24,1.16Z" style="fill: #fff"/>
    <path d="M179.22,11.92c.71,3.49-.87,6.24-2.7,8.38h0c-.45.56-.92,1.06-1.35,1.51,1.75,1.59,4.52,2.43,8.28,1.93v3.75c-3.81.37-8.38-.34-11.29-3-5.16,1.9-7.51,3-12.69,3V23.74a26.27,26.27,0,0,0,9.76-2.41c-2.43-2.06-5.76-3.33-8.86-4.44-1-.34-1.3-4.65.55-5.42,3.54-1.48,6.85-1.48,9.78-2.75.26-.11,1.11-.34,1.4-.42C175.28,7.35,178.66,9.22,179.22,11.92Zm-13.78,2.14a21.9,21.9,0,0,1,6.64,5.29c1.83-1.51,2.8-4.26,1.72-6.35-.74-1.43-2.51-1.14-3.7-.85C168.22,12.63,167.18,13.66,165.44,14.06Z" style="fill: #fff"/>
    <path d="M187.13,4a2.54,2.54,0,0,1-.71,3.6,2.86,2.86,0,0,1-3.57-1.51,2.54,2.54,0,0,1,.74-3.6A2.83,2.83,0,0,1,187.13,4Zm-3.65,19.73c1.4-.21,2.72-.87,3-2.35-.32-2.22-2-7.83-1-9.36,1.72-2.49,6.4-.42,5.66.45-.26.29-.77.42-.85.63-.55,2.09.56,5,.71,7.4a5.48,5.48,0,0,1-2.22,5.42,12.23,12.23,0,0,1-5.34,1.56ZM192.65,4a2.51,2.51,0,0,1-.71,3.6,2.86,2.86,0,0,1-3.57-1.51,2.54,2.54,0,0,1,.74-3.6A2.82,2.82,0,0,1,192.65,4Z" style="fill: #fff"/>
  </g>
</svg>
