<svg id="Layer_1" data-name="Layer 1" xmlns="http://www.w3.org/2000/svg" xmlns:xlink="http://www.w3.org/1999/xlink" viewBox="0 0 129.4 36.63">
  <defs>
    <clipPath id="clip-path">
      <rect id="_Clipping_Path_" data-name="&lt;Clipping Path&gt;" width="129.4" height="36.63" style="fill: none"/>
    </clipPath>
  </defs>
  <title>Artboard 13</title>
  <g id="_Group_" data-name="&lt;Group&gt;">
    <polygon id="_Path_" data-name="&lt;Path&gt;" points="113.74 11.37 112.03 9.68 104.06 9.68 104.06 11.37 113.74 11.37" style="fill: #c21329"/>
    <polygon id="_Path_2" data-name="&lt;Path&gt;" points="104.06 11.87 104.06 13.58 105.77 11.87 105.77 11.87 104.06 11.87" style="fill: #c21329"/>
    <polygon id="_Path_3" data-name="&lt;Path&gt;" points="110.32 8 109.13 9.2 111.51 9.2 110.32 8" style="fill: #c21329"/>
    <polygon id="_Path_4" data-name="&lt;Path&gt;" points="114.64 25.8 112.31 25.8 113.47 26.97 114.64 25.8" style="fill: #c21329"/>
    <polygon id="_Path_5" data-name="&lt;Path&gt;" points="110.03 23.62 111.73 25.32 119.71 25.32 119.71 23.62 110.03 23.62" style="fill: #c21329"/>
    <polygon id="_Path_6" data-name="&lt;Path&gt;" points="119.71 23.12 119.71 21.42 118 23.12 119.71 23.12" style="fill: #c21329"/>
    <polygon id="_Path_7" data-name="&lt;Path&gt;" points="117.52 12.07 111.88 6.44 111.88 6.44 110.69 7.67 117.52 14.48 117.52 12.07" style="fill: #c21329"/>
    <polygon id="_Path_8" data-name="&lt;Path&gt;" points="106.25 20.51 106.25 22.93 111.87 28.57 113.11 27.32 106.25 20.51" style="fill: #c21329"/>
    <polygon id="_Path_9" data-name="&lt;Path&gt;" points="102.02 18.71 104.99 15.74 104.99 15.74 108.86 11.87 106.45 11.87 101.8 16.52 100.8 17.47 101.8 18.49 102.02 18.71" style="fill: #c21329"/>
    <polygon id="_Path_10" data-name="&lt;Path&gt;" points="102.36 19.05 103.55 20.25 103.55 17.86 102.36 19.05" style="fill: #c21329"/>
    <polygon id="_Path_11" data-name="&lt;Path&gt;" points="106.25 25.32 107.96 25.32 106.26 23.62 106.25 23.62 106.25 25.32" style="fill: #c21329"/>
    <polygon id="_Path_12" data-name="&lt;Path&gt;" points="105.76 19.8 105.77 19.8 105.77 15.65 104.06 17.35 104.06 25.32 105.76 25.32 105.76 19.8" style="fill: #c21329"/>
    <polygon id="_Path_13" data-name="&lt;Path&gt;" points="118 9.68 118 19.35 119.71 17.65 119.71 9.68 118 9.68" style="fill: #c21329"/>
    <polygon id="_Path_14" data-name="&lt;Path&gt;" points="117.52 9.68 115.8 9.68 117.51 11.38 117.52 11.38 117.52 9.68" style="fill: #c21329"/>
    <polygon id="_Path_15" data-name="&lt;Path&gt;" points="121.4 15.95 120.21 14.76 120.21 17.13 121.4 15.95" style="fill: #c21329"/>
    <polygon id="_Path_16" data-name="&lt;Path&gt;" points="121.74 16.29 114.9 23.13 117.31 23.13 121.96 18.49 122.96 17.53 121.96 16.51 121.74 16.29" style="fill: #c21329"/>
    <rect id="_Path_17" data-name="&lt;Path&gt;" x="120.2" y="23.61" width="1.69" height="1.69" style="fill: #264b99"/>
    <rect id="_Path_18" data-name="&lt;Path&gt;" x="94.37" y="26.11" width="1.85" height="1.85" style="fill: #264b99"/>
    <g id="_Clip_Group_" data-name="&lt;Clip Group&gt;">
      <g style="clip-path: url(#clip-path)">
        <path id="_Path_19" data-name="&lt;Path&gt;" d="M99.9,26.11H98.06V28h.51a1.34,1.34,0,0,0,1.34-1.34Z" style="fill: #264b99"/>
        <path id="_Compound_Path_" data-name="&lt;Compound Path&gt;" d="M96.21,31.41H97a1,1,0,0,1,1,1v.83H96.21Zm-1.85,5.22.51-.72a2.15,2.15,0,0,1,1.75-.9H99.9V31.41a1.75,1.75,0,0,0-1.75-1.75H94.37v7Z" style="fill: #264b99"/>
        <path id="_Compound_Path_2" data-name="&lt;Compound Path&gt;" d="M125.69,31h1.94v1.11a.83.83,0,0,1-.83.83h-1.11Zm3.71-2.82V11.63a1,1,0,0,0-1-1h-3.64a1,1,0,0,0-1,1V33h-1.92V30.41a.85.85,0,0,0-.85-.85h-.76V33h-1.63v-1.7a1.7,1.7,0,0,0-1.7-1.7h-1.14a1.15,1.15,0,0,1-.81-.34l-1.53-1.53-1.27,1.23L113.3,30l.81.82a1.5,1.5,0,0,0,1.07.44h1.12a.65.65,0,0,1,.66.66v1h-8v-1.7a1.7,1.7,0,0,0-1.7-1.7h-3.74V20.9l-1.75-1.74V29.92a1.34,1.34,0,0,0,1.34,1.34h3.41a.69.69,0,0,1,.69.69v1h-4.1a1.34,1.34,0,0,0-1.34,1.34V35h25.82a1.77,1.77,0,0,0,1.77-1.77v-4h-3.76V13.38a1,1,0,0,1,1.94,0V28.2Z" style="fill: #264b99"/>
      </g>
    </g>
    <rect id="_Path_20" data-name="&lt;Path&gt;" x="101.87" y="9.69" width="1.69" height="1.69" style="fill: #264b99"/>
    <rect id="_Path_21" data-name="&lt;Path&gt;" x="127.55" y="7.05" width="1.85" height="1.85" style="fill: #264b99"/>
    <g id="_Clip_Group_2" data-name="&lt;Clip Group&gt;">
      <g style="clip-path: url(#clip-path)">
        <path id="_Path_22" data-name="&lt;Path&gt;" d="M123.86,8.89h1.85V7h-.51a1.34,1.34,0,0,0-1.34,1.34Z" style="fill: #264b99"/>
        <path id="_Compound_Path_3" data-name="&lt;Compound Path&gt;" d="M127.55,3.6h-.83a1,1,0,0,1-1-1V1.75h1.85Zm0-3.6h-3.69V3.6a1.75,1.75,0,0,0,1.75,1.75h3.79V1.75A1.75,1.75,0,0,0,127.65,0Z" style="fill: #264b99"/>
        <path id="_Compound_Path_4" data-name="&lt;Compound Path&gt;" d="M98.08,4H96.13V2.87A.83.83,0,0,1,97,2h1.11ZM94.37,6.8V23.37a1,1,0,0,0,1,1H99a1,1,0,0,0,1-1V2h1.92V4.62a.85.85,0,0,0,.85.85h.76V2h1.63v1.7a1.7,1.7,0,0,0,1.7,1.7h1.14a1.15,1.15,0,0,1,.81.34l1.53,1.53,1.27-1.23L110.46,5l-.81-.82a1.5,1.5,0,0,0-1.07-.44h-1.12a.65.65,0,0,1-.66-.66V2h8v1.7a1.7,1.7,0,0,0,1.7,1.7h3.74V14.1L122,15.84V5.08a1.34,1.34,0,0,0-1.34-1.34h-3.41a.69.69,0,0,1-.69-.69V2h4.1A1.34,1.34,0,0,0,122,.7V0H96.13a1.77,1.77,0,0,0-1.77,1.77v4h3.76V21.62a1,1,0,0,1-1.94,0V6.8Z" style="fill: #264b99"/>
        <path id="_Path_23" data-name="&lt;Path&gt;" d="M101.87,8.54h1.69V6.85h-.46a1.23,1.23,0,0,0-1.23,1.23Z" style="fill: #264b99"/>
        <path id="_Path_24" data-name="&lt;Path&gt;" d="M122,26.46h-1.69v1.69h.46A1.23,1.23,0,0,0,122,26.92Z" style="fill: #264b99"/>
        <path id="_Path_25" data-name="&lt;Path&gt;" d="M108.72,16c0-.12-.1-.1-.18-.08a1.22,1.22,0,0,0-.68.53,2.35,2.35,0,0,0-.09,2,3,3,0,0,0,1.38,1.35,3.65,3.65,0,0,0,1.32.29,7.57,7.57,0,0,0,1.11-.06,16.29,16.29,0,0,1-.25,2.82s.11,0,.13.29a.74.74,0,0,1,0-.32,17.79,17.79,0,0,0,.32-2.82,16.25,16.25,0,0,0,3-1.24c.72-.25.17.27.17.27-.19.25-2.94,1.51-3.43,3.84.15-.25.2-.28.29-.33.36-2.24,3.46-3,4.09-3.68a.87.87,0,0,0,0-1.15c-.57-.64-2.36.28-2.36.28a10.31,10.31,0,0,1-1.78.74,6.11,6.11,0,0,0-.54-2.28c-.56-1.11-.1-2,1.12-1.83,0,0,.16.18.25.18s.16-.16.22-.16c.56,0,1.09,0,1.21-.19,0,0,.39-.39-.12-1.43a2.53,2.53,0,0,0-.77-.89s-.7-.51-1.1,0a1.35,1.35,0,0,0,0,1.66,2,2,0,0,0-1.2.29c-.56.44-.93,1.3-.09,2.7a5.9,5.9,0,0,1,.73,2,4.5,4.5,0,0,1-.68.13,5.08,5.08,0,0,1-.71,0,2.31,2.31,0,0,1-1.75-.86,1.75,1.75,0,0,1,.39-2.06" style="fill: #c21329"/>
        <path id="_Path_26" data-name="&lt;Path&gt;" d="M112.32,16.38l-.53.53a.15.15,0,0,0,0,.22l.53.53a.15.15,0,0,0,.22,0l.53-.53a.15.15,0,0,0,0-.22l-.53-.53a.15.15,0,0,0-.22,0" style="fill: #c21329"/>
        <rect id="_Path_27" data-name="&lt;Path&gt;" x="109.37" y="16.55" width="1.05" height="1.05" rx="0.15" ry="0.15" transform="translate(20.11 82.71) rotate(-45)" style="fill: #c21329"/>
        <path id="_Path_28" data-name="&lt;Path&gt;" d="M88,3.68a15.06,15.06,0,0,0-1.05-1.75,8.89,8.89,0,0,1-.26,1c.32.44.58.83.79,1.17a5.45,5.45,0,0,1,.81,2.14,3.73,3.73,0,0,1-.53,2.12,10.5,10.5,0,0,1-1.3,1.82l-1,1.05q-.29.36-.28.43s0,0,0,0a1.39,1.39,0,0,0,.44-.33,14.82,14.82,0,0,0,1.95-2.09A4.74,4.74,0,0,0,88.67,6,7,7,0,0,0,88,3.68" style="fill: #fff"/>
        <path id="_Path_29" data-name="&lt;Path&gt;" d="M83.42,3.68a15.06,15.06,0,0,0-1.05-1.75,8.89,8.89,0,0,1-.26,1c.32.44.58.83.79,1.17a5.45,5.45,0,0,1,.81,2.14,3.73,3.73,0,0,1-.53,2.12,10.5,10.5,0,0,1-1.3,1.82l-1,1.05q-.29.36-.28.43s0,0,0,0a1.39,1.39,0,0,0,.44-.33,14.82,14.82,0,0,0,1.95-2.09A4.74,4.74,0,0,0,84.13,6a7,7,0,0,0-.71-2.36" style="fill: #fff"/>
        <path id="_Path_30" data-name="&lt;Path&gt;" d="M63.4,3.68a15.06,15.06,0,0,0-1.05-1.75,8.88,8.88,0,0,1-.26,1c.32.44.58.83.79,1.17a5.45,5.45,0,0,1,.81,2.14,3.73,3.73,0,0,1-.53,2.12,10.5,10.5,0,0,1-1.3,1.82l-1,1.05q-.29.36-.28.43s0,0,0,0a1.39,1.39,0,0,0,.44-.33A14.75,14.75,0,0,0,63,9.31,4.74,4.74,0,0,0,64.1,6a7,7,0,0,0-.71-2.36" style="fill: #fff"/>
        <path id="_Path_31" data-name="&lt;Path&gt;" d="M58.19,3.68a15.06,15.06,0,0,0-1.05-1.75,8.88,8.88,0,0,1-.26,1c.32.44.58.83.79,1.17a5.45,5.45,0,0,1,.81,2.14A3.73,3.73,0,0,1,58,8.39a10.5,10.5,0,0,1-1.3,1.82l-1,1.05q-.29.36-.28.43s0,0,0,0a1.39,1.39,0,0,0,.44-.33,14.82,14.82,0,0,0,1.95-2.09A4.74,4.74,0,0,0,58.9,6a7,7,0,0,0-.71-2.36" style="fill: #fff"/>
        <path id="_Path_32" data-name="&lt;Path&gt;" d="M38.67,3.68a15.06,15.06,0,0,0-1.05-1.75,8.88,8.88,0,0,1-.26,1c.32.44.58.83.79,1.17A5.45,5.45,0,0,1,39,6.27a3.73,3.73,0,0,1-.53,2.12,10.5,10.5,0,0,1-1.3,1.82l-1,1.05q-.29.36-.28.43s0,0,0,0a1.39,1.39,0,0,0,.44-.33,14.82,14.82,0,0,0,1.95-2.09A4.74,4.74,0,0,0,39.38,6a7,7,0,0,0-.71-2.36" style="fill: #fff"/>
        <path id="_Path_33" data-name="&lt;Path&gt;" d="M80.66,5.62s-.15,0-.32.08l-3,1.57a6.51,6.51,0,0,1-2,.8,3.91,3.91,0,0,1-3-1.43A4.86,4.86,0,0,1,71,4.18q.1-.45,1.44-.94a9.64,9.64,0,0,1,2.92-.57,6.64,6.64,0,0,1,2,.18,1.68,1.68,0,0,0,.37.07,0,0,0,0,0,0,0s-.15-.18-.43-.41a5,5,0,0,0-1.36-.72,5.22,5.22,0,0,0-2-.36,3.76,3.76,0,0,0-2.67,1.22,3.3,3.3,0,0,0-.89,2.5,4.67,4.67,0,0,0,1,2.72,5.34,5.34,0,0,0,1.77,1.52,6.48,6.48,0,0,1-2.91.74,2.64,2.64,0,0,1-1.24-.2A2.73,2.73,0,0,1,68,9l-.66-1.08q-.41-.6-.86-.58a2,2,0,0,0-1.31.84A6.83,6.83,0,0,0,64,10.07l-1,2.66q-.5,1.12-1.15,1.14-1.63.07-1.76-3.68a16.5,16.5,0,0,1,.07-1.91c0-.32,0-.48-.07-.47s-.1.13-.17.38A10,10,0,0,0,59.64,11a7.24,7.24,0,0,0,.67,2.81q.69,1.51,1.61,1.48.62,0,1.14-.93a11.69,11.69,0,0,0,.76-1.88,13,13,0,0,1,.6-1.61q1-1.75,1.91-1.78c.21,0,.41.15.61.47l.71,1.18A2.4,2.4,0,0,0,69,11.83a4.37,4.37,0,0,0,1.21.07h0a9.11,9.11,0,0,0,3.61-1.23l3-1.62q1.86-1,3-1.56a.54.54,0,0,0,.28-.29L80.62,6c.08-.18.09-.29,0-.33" style="fill: #fff"/>
        <path id="_Compound_Path_5" data-name="&lt;Compound Path&gt;" d="M60.92,19.11a1.35,1.35,0,0,1-1.24-.68,2,2,0,0,1,1.11,0c.31.14.46.3.46.48s-.11.19-.33.19m.79-1.9a1.27,1.27,0,0,0-1.12-.64,3.82,3.82,0,0,0-1.62.34,37,37,0,0,1-.83-7.28c-.16-2.95-.24-4.08-.24-4.86,0-.15,0-.19.08-.11q.71.87.71.48a1.67,1.67,0,0,0-.07-.38Q58.52,4.43,58,3T57.4,1.31c0-.1-.08-.15-.12-.15s-.06,0-.1.14a5.89,5.89,0,0,0-.47,1.49A3.47,3.47,0,0,1,57,4.2c0,1.75.08,3,.24,5.31a58.85,58.85,0,0,0,.9,7.79h0a5.45,5.45,0,0,1-2.73,1,2.18,2.18,0,0,1-2-1.41A5.66,5.66,0,0,1,53,15.4q-.1-.69-.49-.69t-.93.66l-1.32,1.68a6.23,6.23,0,0,1-1.84,1.45q-.33.18-1.71.75a2.2,2.2,0,0,0-1,.67h0q-.38.78-.58,1.23a.15.15,0,0,0,0,.06c0,.07.16.12.48.15q2.56.21,5.15.66-2.91,1.74-4.15,1.74h0a1.64,1.64,0,0,1-.9-.2,2.4,2.4,0,0,1-.77-1.65q-.47-2.93-.78-4.57A14.7,14.7,0,0,0,42,11.62c-.11-.14-.18-.11-.23.11s-.09.48-.15.88a2.81,2.81,0,0,0-.07.73,30.09,30.09,0,0,1,1.58,4.31,13,13,0,0,1,.43,2.66,1.32,1.32,0,0,1-.09.56l-.3.44a11,11,0,0,1-2.63,2.6,6.94,6.94,0,0,1-4,1.6q-1.32,0-1.32-1.46a12.57,12.57,0,0,1,.51-2.93,1.78,1.78,0,0,0,.07-.41c0-.05,0-.08,0-.09s-.13.14-.23.42a10.81,10.81,0,0,0-.73,3.83,3.15,3.15,0,0,0,.38,1.61,1.44,1.44,0,0,0,1.33.78,6.69,6.69,0,0,0,3.68-1.37,12.56,12.56,0,0,0,3-2.83,4.67,4.67,0,0,0,.83-2.1q.22,1.6.32,2.14a3.28,3.28,0,0,0,1,2.1,2.18,2.18,0,0,0,1.39.39h0a5.18,5.18,0,0,0,2-.78q2.12-1.17,2.6-1.39A11.78,11.78,0,0,1,56,22.5c.09,0,.16-.07.23-.2l.59-1.24a.44.44,0,0,0,0-.15c0-.07-.16-.11-.47-.11a38.32,38.32,0,0,1-4.89-.41q-2.41-.36-3-.47a19.5,19.5,0,0,0,2.35-2.45q.8-1,1.3-1,.11,0,.26.76A5.11,5.11,0,0,0,53,18.7a2.63,2.63,0,0,0,2.42,1.44h0a6.43,6.43,0,0,0,3.13-1.27,3.83,3.83,0,0,0,.81,1.26,2.08,2.08,0,0,0,1.52.76,1.05,1.05,0,0,0,.93-.57,2.68,2.68,0,0,0,.35-1.44,3.09,3.09,0,0,0-.41-1.69" style="fill: #fff"/>
        <path id="_Compound_Path_6" data-name="&lt;Compound Path&gt;" d="M49.15,5.27a11.15,11.15,0,0,0-2.07,2.57,6.76,6.76,0,0,0,.62.56q.19-.25,1.09-1.76t.55-1.47a.38.38,0,0,0-.19.09M49,12.19a6.41,6.41,0,0,0-1.53-2,7.69,7.69,0,0,0-.83,1.28,7.86,7.86,0,0,0-.72,1.61.59.59,0,0,0,0,.14q0,.51.73.51a2.21,2.21,0,0,0,.84-.24,4.24,4.24,0,0,0,1.34-1c.16-.17.23-.28.19-.35m.48,0a3.56,3.56,0,0,1-.15.88,3.2,3.2,0,0,1-.3.8A3.7,3.7,0,0,1,47.93,15a2.83,2.83,0,0,1-1.49.58q-1,0-1-1.56a6,6,0,0,1,.36-2.07,15.29,15.29,0,0,1,1.13-2.25l-.61-.71a8.22,8.22,0,0,1-3,2.61,1.69,1.69,0,0,1-.4.15h0a2.12,2.12,0,0,1,.43-.45q.78-.73,1.06-1A22,22,0,0,0,46,8.47l-.59-.91A4.74,4.74,0,0,0,45,7.09a.63.63,0,0,1-.17-.44,5,5,0,0,1,.1-.92c.07-.33.12-.49.16-.49a3.51,3.51,0,0,1,.79.48q.67.46,1,.75c.12.1.18.17.18.21s-.1.06-.29.06c-.34,0-.52,0-.52.05a2.78,2.78,0,0,0,.48.64q.63-1,1.75-2.67Q49.54,3.44,50,3.44q.28,0,.28.53A5.43,5.43,0,0,1,50,5.45a7.57,7.57,0,0,1-.55,1.4q-.4.74-1.23,2a6,6,0,0,1,1.11,1.83,4.64,4.64,0,0,1,.19,1.46" style="fill: #fff"/>
        <path id="_Compound_Path_7" data-name="&lt;Compound Path&gt;" d="M22.42,15.93a4.09,4.09,0,0,1,.84-.08A3.09,3.09,0,0,1,25,16.2a12.23,12.23,0,0,0-1.41.73,6.55,6.55,0,0,0-1.18-1M38.36,4.8c0-.15,0-.19.08-.1q.71.85.71.46a1.52,1.52,0,0,0-.07-.37q-.08-.32-.59-1.72t-.62-1.64c0-.1-.08-.15-.12-.15s-.06,0-.1.14a5.6,5.6,0,0,0-.47,1.45,3.29,3.29,0,0,1,.25,1.38c0,.6.15,1.82.43,6s.43,6.53.43,7q0,1.2-.22,1.4a2.33,2.33,0,0,1-1.53.64,1.3,1.3,0,0,1-.85-.25,2.4,2.4,0,0,1-.62-1.36,43.63,43.63,0,0,1-.27-5q-.11-4.5-.33-6.42a29.23,29.23,0,0,0-.89-4.72c0-.13-.08-.19-.12-.19s-.07.06-.12.18a12.13,12.13,0,0,0-.28,1.52q.35,2.18.48,3.37A75.43,75.43,0,0,1,34,15.21a7.61,7.61,0,0,1-.16,2,1.55,1.55,0,0,1-.72.85,2.32,2.32,0,0,1-1.2.31h0q-1.29,0-1.28-1.08a2.3,2.3,0,0,1,.09-.61.7.7,0,0,0,0-.2q0-.17-.11-.17A4.42,4.42,0,0,0,30,17q-.67.77-.75.84a3.56,3.56,0,0,1-2.35.79h0a3,3,0,0,1-2.23-.78q1.38-.62,2.16-.92l.5-1a.79.79,0,0,0,.1-.27q0-.1-.33-.37a5.62,5.62,0,0,0-3.57-1,10.65,10.65,0,0,0-2.44.31q-1.33.31-1.47.64l-.5,1.22a.5.5,0,0,0,0,.19c0,.08,0,.11.1.11a.35.35,0,0,0,.17-.06,1.7,1.7,0,0,1,.9-.19,2.1,2.1,0,0,1,.88.33,4.37,4.37,0,0,1,1.11.88,4.84,4.84,0,0,1-2.6.94,1.29,1.29,0,0,1-.84-.24A2.4,2.4,0,0,1,18.16,17a43.63,43.63,0,0,1-.27-5,45.85,45.85,0,0,0-.33-5.23,35.07,35.07,0,0,0-.89-5.09c0-.13-.08-.19-.12-.19s-.07.06-.12.18a12.17,12.17,0,0,0-.28,1.52c.23,1.45.39,2.94.47,3.73a55.24,55.24,0,0,1,.45,7.57,7.68,7.68,0,0,1-.16,2,1.56,1.56,0,0,1-.72.85,2.32,2.32,0,0,1-1.19.31A1.74,1.74,0,0,1,13.59,17a4.88,4.88,0,0,1-.63-1.2q-.26-.64-.49-.64-.67,0-1.45,1.06a5.5,5.5,0,0,0-1,2.82,2.83,2.83,0,0,0,.16,1h0q.12.4.18.55a4.33,4.33,0,0,0-1.71.59A15.26,15.26,0,0,0,5.46,23.5L3.4,25.35A2.85,2.85,0,0,1,1.63,26a1.08,1.08,0,0,1-.91-.44,1.81,1.81,0,0,1-.31-1.1A7.86,7.86,0,0,1,1,22a10.12,10.12,0,0,0,.55-1.81s0-.06,0-.07-.12.09-.21.27A10.23,10.23,0,0,0,0,24.6a3.06,3.06,0,0,0,.65,2,1.81,1.81,0,0,0,1.44.78,2.89,2.89,0,0,0,1.73-.74L6.39,24.4q2.5-2.08,4.28-2.08a4.28,4.28,0,0,1,2.21.53q.33.2.37,0l.19-1.14a.41.41,0,0,0-.3-.5,5.55,5.55,0,0,1-1.5-.8,5,5,0,0,1-.72-.68,1.37,1.37,0,0,1-.37-.87,2,2,0,0,1,.67-1.24q.62-.68.93-.68c.14,0,.31.21.48.64a4,4,0,0,0,.7,1.2,2.23,2.23,0,0,0,1.67.64h0a2.21,2.21,0,0,0,1.38-.48,2.71,2.71,0,0,0,1-1.82,5.9,5.9,0,0,0,.46,2.24,1.9,1.9,0,0,0,1.81,1h0a3.29,3.29,0,0,0,1.61-.44q.36-.19,1.94-1.31a8.25,8.25,0,0,0,2,1.48,4.41,4.41,0,0,0,1.72.26h0A3.14,3.14,0,0,0,29,19.45a3.93,3.93,0,0,0,1-1.19,2,2,0,0,0,.78,1.47,2,2,0,0,0,1.18.37h0a2.21,2.21,0,0,0,1.38-.48,2.72,2.72,0,0,0,1-1.82A5.88,5.88,0,0,0,34.75,20a1.9,1.9,0,0,0,1.8,1h0a2.07,2.07,0,0,0,1.73-1.23,7.72,7.72,0,0,0,.87-4q0-.87-.39-6.54c-.26-3.77-.39-4.49-.39-4.52" style="fill: #fff"/>
        <path id="_Path_34" data-name="&lt;Path&gt;" d="M45.49,2.55l.26-1c0-.08,0-.12.09-.13a3.18,3.18,0,0,1,.78.32q.7.33.72.41A3.72,3.72,0,0,1,47,3.51c0,.09-.07.11-.13.09q-.62-.32-1.38-.66a8.66,8.66,0,0,1-.29,1c0,.09-.07.12-.13.09q-.7-.38-1.43-.69s0,0,0-.11L43.95,2c0-.08,0-.12.09-.13a2.6,2.6,0,0,1,.66.26,5.31,5.31,0,0,1,.79.42" style="fill: #fff"/>
        <path id="_Path_35" data-name="&lt;Path&gt;" d="M30.3,12.41l.43-.94c0-.07.07-.11.11-.11a3.32,3.32,0,0,1,.72.47c.42.31.63.49.63.55a3.62,3.62,0,0,1-.56,1.27c0,.08-.09.1-.14.06q-.55-.44-1.24-.92a8.42,8.42,0,0,1-.46,1c0,.08-.09.1-.14.06q-.62-.51-1.29-1s0-.05,0-.11l.53-1.18c0-.07.07-.11.11-.11a2.69,2.69,0,0,1,.61.39,5.45,5.45,0,0,1,.7.56" style="fill: #fff"/>
        <path id="_Path_36" data-name="&lt;Path&gt;" d="M14.31,25.51l.43-.94c0-.07.07-.11.11-.11a3.32,3.32,0,0,1,.72.47c.42.31.63.49.63.55a3.62,3.62,0,0,1-.56,1.27c0,.08-.09.1-.14.06q-.55-.44-1.24-.92a8.42,8.42,0,0,1-.46,1c0,.08-.09.1-.14.06q-.62-.51-1.29-1s0-.05,0-.11l.53-1.18c0-.07.07-.11.11-.11a2.69,2.69,0,0,1,.61.39,5.45,5.45,0,0,1,.7.56" style="fill: #fff"/>
        <path id="_Path_37" data-name="&lt;Path&gt;" d="M52.48,11.71l.43-.94c0-.07.07-.11.11-.11a3.32,3.32,0,0,1,.72.47c.42.31.63.49.63.55a3.62,3.62,0,0,1-.56,1.27c0,.08-.09.1-.14.06q-.55-.44-1.24-.92A8.5,8.5,0,0,1,52,13c0,.08-.09.1-.14.06q-.62-.51-1.29-1s0-.05,0-.11l.53-1.18c0-.07.07-.11.11-.11a2.69,2.69,0,0,1,.61.39,5.45,5.45,0,0,1,.7.56" style="fill: #fff"/>
        <path id="_Compound_Path_8" data-name="&lt;Compound Path&gt;" d="M42.17,6.31A1.67,1.67,0,0,1,43,7.7a2.18,2.18,0,0,1-.19.93,1.1,1.1,0,0,1-.95.56c-.37,0-.55-.23-.56-.72,0-.11,0-.22,0-.35a9,9,0,0,1,.56-1.71,4.52,4.52,0,0,0,.38-1.59,3.52,3.52,0,0,0-1.14-2.44.16.16,0,0,1,0-.2l.25-.48s.06,0,.11,0a3.5,3.5,0,0,1,1.09,2.77,5,5,0,0,1-.39,1.84m.56,1.61c0-.18-.28-.44-.87-.8a2.58,2.58,0,0,0-.27,1c0,.19.08.28.25.28a1,1,0,0,0,.49-.16,1.07,1.07,0,0,0,.39-.33" style="fill: #fff"/>
        <path id="_Compound_Path_9" data-name="&lt;Compound Path&gt;" d="M14.4,9.69q0-.34-1.14-1a3,3,0,0,0-.35,1.3q0,.37.32.37a1.38,1.38,0,0,0,.66-.21,1.51,1.51,0,0,0,.52-.43m-.75-2.1A2.2,2.2,0,0,1,14.74,9.4a3,3,0,0,1-.25,1.23,1.48,1.48,0,0,1-1.25.73q-.73,0-.73-.95a2.67,2.67,0,0,1,0-.46,11.37,11.37,0,0,1,.69-2.25,6,6,0,0,0,.48-2.08,4.68,4.68,0,0,0-1.43-3.2.21.21,0,0,1,0-.26l.33-.63q0-.08.14,0a4.59,4.59,0,0,1,1.43,3.63,6.7,6.7,0,0,1-.51,2.41" style="fill: #fff"/>
        <path id="_Path_38" data-name="&lt;Path&gt;" d="M88,21.57q0-.82-.63-8.89T86.76,3.9a3.1,3.1,0,0,0-.26-1.34,5.88,5.88,0,0,1,.37-1.43c0-.1.06-.14.09-.14s.06,0,.1.14.28.71.58,1.57.51,1.45.57,1.66a1.59,1.59,0,0,1,.07.37c0,.07,0,.11-.06.11s-.28-.18-.57-.55q-.05-.06-.06,0a.42.42,0,0,0,0,.14q0,.08.56,7.41t.56,8a15.51,15.51,0,0,1-.47,3.7A4.91,4.91,0,0,1,87,26.1a8.18,8.18,0,0,1-2,.82,2.67,2.67,0,0,1-.55.14s-.05,0-.05,0,.17-.21.51-.48.93-.77,1.65-1.42a5.89,5.89,0,0,0,1.2-1.57,6,6,0,0,0,.23-2" style="fill: #fff"/>
        <path id="_Path_39" data-name="&lt;Path&gt;" d="M63.09,21.87q0-.82-.63-8.89t-.63-8.78a3.08,3.08,0,0,0-.26-1.34,5.9,5.9,0,0,1,.37-1.43c0-.1.06-.14.09-.14s.06,0,.1.14.28.71.58,1.57.51,1.45.57,1.66a1.59,1.59,0,0,1,.07.37c0,.07,0,.11-.06.11S63,5,62.72,4.58q-.05-.06-.06,0a.41.41,0,0,0,0,.14q0,.08.56,7.41t.56,8a15.51,15.51,0,0,1-.47,3.7,4.91,4.91,0,0,1-1.22,2.61,8.18,8.18,0,0,1-2,.82,2.71,2.71,0,0,1-.55.15s-.05,0-.05,0,.17-.21.51-.48.93-.77,1.65-1.42a5.89,5.89,0,0,0,1.2-1.57,6,6,0,0,0,.23-2" style="fill: #fff"/>
        <path id="_Compound_Path_10" data-name="&lt;Compound Path&gt;" d="M85.5,14.09a1.18,1.18,0,0,1-1.09-.6,1.77,1.77,0,0,1,1,0q.4.18.4.42c0,.11-.1.17-.29.17m.69-1.64a1.12,1.12,0,0,0-1-.55,3.52,3.52,0,0,0-1.48.32A22.91,22.91,0,0,1,83,6.37q-.12-2.57-.12-2.48c0-.14,0-.17.07-.09q.62.76.62.42a1.45,1.45,0,0,0-.06-.33q-.07-.29-.52-1.55T82.46.86c0-.09-.07-.13-.1-.13s-.05,0-.09.13a5.15,5.15,0,0,0-.41,1.3,3,3,0,0,1,.22,1.24q0,.51.11,2.8a33,33,0,0,0,.8,6.39h0q-1.6.79-4.07,2.17a21.11,21.11,0,0,0-2.56,1.54h0a10.48,10.48,0,0,0-.44,1.16c-.06.15,0,.22.26.22q1.26,0,4.77.24-1.62.6-2.17.86h0A2.62,2.62,0,0,0,77,21.26a2,2,0,0,1-.56-1q-.95-3.56-2.39-3.56a1.47,1.47,0,0,0-1,.62A2.39,2.39,0,0,0,72.4,19q0,1.42,1.17,1.42h.74q1.12,0,1.12.86,0,.21-1,1.22a14.24,14.24,0,0,1-2.32,1.91,5.15,5.15,0,0,1-2.66,1,2,2,0,0,1-1.79-.82,2.37,2.37,0,0,1-.39-1.37,11,11,0,0,1,.44-2.57,1.51,1.51,0,0,0,.07-.36s0-.07,0-.08-.11.12-.2.37a9.46,9.46,0,0,0-.64,3.35A3.6,3.6,0,0,0,67.5,26a2.13,2.13,0,0,0,1.85.95,6.08,6.08,0,0,0,3.47-1.63A14.53,14.53,0,0,0,75,23.21a2.94,2.94,0,0,0,.72-1.91,2.87,2.87,0,0,0-.55-1.7,1.36,1.36,0,0,0-1-.71h-.68q-.36,0-.36-.17c0-.07.06-.16.18-.26a.65.65,0,0,1,.42-.15,1.78,1.78,0,0,1,1.28.79,3.78,3.78,0,0,1,.78,1.4,6.54,6.54,0,0,0,.71,1.76A3.32,3.32,0,0,0,78,23.46h0a5.41,5.41,0,0,0,2.08.5c.13,0,.2-.06.2-.17l.11-1a.19.19,0,0,0-.11-.23A16.07,16.07,0,0,1,78,21.4c-.28-.19-.42-.37-.42-.54s.41-.3,1.22-.67h0A43.54,43.54,0,0,1,84.88,18c.23-.06.36-.14.39-.23l.34-1.08c0-.15-.08-.23-.37-.23l-6.39-.13h-.28a30,30,0,0,1,4.8-2.47A3.52,3.52,0,0,0,84.09,15a1.86,1.86,0,0,0,1.34.69.92.92,0,0,0,.81-.49,2.35,2.35,0,0,0,.31-1.26,2.63,2.63,0,0,0-.36-1.46" style="fill: #fff"/>
        <path id="_Path_40" data-name="&lt;Path&gt;" d="M67.61,3.32l.79.35c.06,0,.09.06.09.1a3.24,3.24,0,0,1-.34.7c-.23.41-.37.62-.41.63a2.75,2.75,0,0,1-1.07-.45c-.07,0-.09-.08-.06-.13q.33-.54.68-1.22a6.39,6.39,0,0,1-.8-.38c-.07,0-.09-.08-.06-.13q.38-.62.71-1.27s0,0,.09,0l1,.44q.09,0,.09.1a2.67,2.67,0,0,1-.28.59,5.15,5.15,0,0,1-.42.69" style="fill: #fff"/>
        <path id="_Path_41" data-name="&lt;Path&gt;" d="M82.32,22s0,0,0-.09l.47-1c0-.06.06-.09.09-.09a2.92,2.92,0,0,1,.63.41c.37.27.55.43.55.48a3.19,3.19,0,0,1-.49,1.11c0,.07-.08.09-.12.06q-.55-.45-1.13-.84" style="fill: #fff"/>
        <path id="_Path_42" data-name="&lt;Path&gt;" d="M3.5,5.95A10.64,10.64,0,0,0,3,4.3q-.4-1-.56-1a.15.15,0,0,0-.15.08c0,.06-.09.08-.2.08a.83.83,0,0,1-.49-.3c-.2-.2-.3-.36-.3-.47a2.21,2.21,0,0,1,.25-.54c.17-.3.28-.46.32-.46A1.36,1.36,0,0,1,3,2.45a5.48,5.48,0,0,1,.69,2.05c0,.09,0,.14,0,.15s0,0,0,0l.06-.15a20.87,20.87,0,0,1,.48-2.26q.42-1.08.91-1.08c.17,0,.34.12.51.37a1,1,0,0,1,.22.52,1.45,1.45,0,0,1-.08.4c-.07.22-.14.33-.23.33s-.12-.08-.24-.25a.51.51,0,0,0-.39-.25q-.44,0-.82,2.24A6.08,6.08,0,0,1,3.75,5.9a1.91,1.91,0,0,1,.92.53,1.64,1.64,0,0,1,.62.85,1.52,1.52,0,0,1-.15.49q-.17.4-.23.42l-1.08.32a2.11,2.11,0,0,0-.94.56,16.34,16.34,0,0,1,.75,4.82A7.27,7.27,0,0,1,3.5,15.3c0,.17-.07.25-.09.26s-.07-.28-.07-.83A17.87,17.87,0,0,0,3,11.42Q2.6,9.49,2.6,9.2A1.79,1.79,0,0,1,3.1,7.8,2.71,2.71,0,0,1,4,7.37a.76.76,0,0,0-.53-.3c-.08,0-.19.1-.34.31s-.23.31-.25.31,0-.09,0-.26Q3,6.19,3.5,5.95" style="fill: #fff"/>
        <path id="_Path_43" data-name="&lt;Path&gt;" d="M59.08,22.09a1.13,1.13,0,0,0-.55-.31l-.15,0q-.31.14-.38.88c0,.1,0,.15,0,.15s.06-.06.15-.18.15-.18.2-.18a.45.45,0,0,1,.31.18,1.63,1.63,0,0,0-.55.25,1.07,1.07,0,0,0-.3.84q0,.17.22,1.32a10.65,10.65,0,0,1,.22,2c0,.33,0,.49,0,.49s0-.06.05-.16a4.32,4.32,0,0,0,.09-.85A9.73,9.73,0,0,0,58,23.65a1.28,1.28,0,0,1,.56-.33l.64-.19s.07-.09.14-.25a.92.92,0,0,0,.09-.29,1,1,0,0,0-.37-.5" style="fill: #fff"/>
        <path id="_Path_44" data-name="&lt;Path&gt;" d="M25.11,9.19c2.36-.94,3.82-1.49,6.39-2.51.1,0,.16-.05.18,0s0,.08,0,.17a1.66,1.66,0,0,1-.27.53c-2.16.85-3.68,1.48-6.59,2.74a4.48,4.48,0,0,1,.32-.9" style="fill: #fff"/>
        <path id="_Path_45" data-name="&lt;Path&gt;" d="M83.4,26.1a1.88,1.88,0,0,1-1.23.74.59.59,0,0,1-.43-.06.44.44,0,0,1-.21-.32,1.27,1.27,0,0,1,.17-.81l.48-.78c0-.06,0-.09-.05-.1a1.34,1.34,0,0,0-.48,0,.69.69,0,0,0-.29.14h0s0,0,0-.06a.9.9,0,0,1,.15-.39.61.61,0,0,1,.37-.18q.6-.11.65.2a1.28,1.28,0,0,1-.27.74l-.44.7a.54.54,0,0,0-.07.3c0,.17.23.23.59.16A3.73,3.73,0,0,0,83.34,26c.1-.05.16-.07.16-.06s0,.07-.1.16" style="fill: #fff"/>
        <path id="_Path_46" data-name="&lt;Path&gt;" d="M56.2,26.24A1.88,1.88,0,0,1,55,27a.59.59,0,0,1-.43-.06.45.45,0,0,1-.21-.32,1.27,1.27,0,0,1,.17-.81L55,25c0-.06,0-.09-.05-.1a1.34,1.34,0,0,0-.48,0,.68.68,0,0,0-.29.14h0s0,0,0-.06a.9.9,0,0,1,.15-.39.61.61,0,0,1,.37-.18q.6-.11.65.2a1.28,1.28,0,0,1-.27.74l-.44.7a.53.53,0,0,0-.07.3c0,.17.23.23.59.16a3.7,3.7,0,0,0,1.06-.39c.1-.05.16-.07.16-.06s0,.07-.1.16" style="fill: #fff"/>
        <path id="_Compound_Path_11" data-name="&lt;Compound Path&gt;" d="M54.78,5.55a1.26,1.26,0,0,0,0-.55q-.05-.3-.26-.3a.58.58,0,0,0-.26.1c-.11.07-.17.13-.17.19s.22.33.65.56m-.33.81q-.82-.45-.82-1a1.51,1.51,0,0,1,.52-1.11q.52-.5.86-.37c.19.07.29.3.29.67a3.84,3.84,0,0,1-.19,1.12,1.58,1.58,0,0,1,.52.44,1.88,1.88,0,0,1-.37.8,1.62,1.62,0,0,0-.5-.43,5.49,5.49,0,0,1-1.16,1.24,8.09,8.09,0,0,1-1.47,1q-.14.07-1.55.63a1.09,1.09,0,0,1-.29.09s0,0,0,0,.08-.11.25-.23l2.08-1.33a9.41,9.41,0,0,0,1.86-1.5" style="fill: #fff"/>
        <path id="_Path_47" data-name="&lt;Path&gt;" d="M65.68,23.73a2.36,2.36,0,0,1-.4,1.18,4,4,0,0,1-1,1.18,1.09,1.09,0,0,1-.3.19h0a1.18,1.18,0,0,1,.22-.29q1.06-1.24,1.06-1.65t-.34-.39a.55.55,0,0,0-.34.11l-.14.09,0,0s0-.1,0-.21q.17-.85.79-.85t.52.7" style="fill: #fff"/>
        <path id="_Path_48" data-name="&lt;Path&gt;" d="M27.05,23.76a2.81,2.81,0,0,1-.47,1.41,4.82,4.82,0,0,1-1.25,1.41,1.32,1.32,0,0,1-.36.23h0a1.42,1.42,0,0,1,.26-.35q1.26-1.48,1.26-2T26.07,24a.67.67,0,0,0-.41.13l-.17.11-.06,0s0-.12,0-.25q.2-1,.95-1t.62.84" style="fill: #fff"/>
        <path id="_Path_49" data-name="&lt;Path&gt;" d="M10.19,2.73a2.81,2.81,0,0,1-.47,1.41A4.82,4.82,0,0,1,8.46,5.54a1.32,1.32,0,0,1-.36.23h0a1.42,1.42,0,0,1,.26-.35q1.26-1.48,1.26-2c0-.32-.14-.47-.41-.47a.67.67,0,0,0-.41.13l-.17.11-.06,0s0-.12,0-.25q.2-1,.95-1t.62.84" style="fill: #fff"/>
        <path id="_Path_50" data-name="&lt;Path&gt;" d="M53.1,2.05a2.35,2.35,0,0,1-.4,1.18,4,4,0,0,1-1,1.18,1.09,1.09,0,0,1-.3.19h0a1.18,1.18,0,0,1,.22-.29q1.06-1.24,1.06-1.65t-.34-.39a.55.55,0,0,0-.34.11l-.14.09,0,0s0-.1,0-.21q.17-.85.79-.85t.52.7" style="fill: #fff"/>
        <path id="_Path_51" data-name="&lt;Path&gt;" d="M43.85,25.24a2,2,0,0,1-.33,1,3.37,3.37,0,0,1-.88,1,.93.93,0,0,1-.25.16h0a1,1,0,0,1,.18-.25q.89-1,.89-1.39c0-.22-.1-.33-.28-.33a.47.47,0,0,0-.28.09l-.12.08,0,0s0-.08,0-.18c.09-.48.32-.71.66-.71s.44.2.44.59" style="fill: #fff"/>
        <path id="_Path_52" data-name="&lt;Path&gt;" d="M21.34,10.67a1.68,1.68,0,0,1-.28.84,2.87,2.87,0,0,1-.75.84.77.77,0,0,1-.21.14h0a.8.8,0,0,1,.15-.21q.75-.88.75-1.18c0-.19-.08-.28-.24-.28a.4.4,0,0,0-.24.08l-.1.07,0,0,0-.15q.12-.61.56-.61t.37.5" style="fill: #fff"/>
        <path id="_Path_53" data-name="&lt;Path&gt;" d="M76.46,12.22c2.35-1.22,1.3-.75,3.86-2.07.1-.05.16-.07.18-.06s0,.08,0,.18a1.74,1.74,0,0,1-.23.58c-2.15,1.11-1.16.72-4.05,2.33a4.82,4.82,0,0,1,.25-1" style="fill: #fff"/>
        <path id="_Path_54" data-name="&lt;Path&gt;" d="M49,26.47c1.77-.92,1-.56,2.91-1.56.07,0,.12-.05.14,0s0,.06,0,.14a1.3,1.3,0,0,1-.17.44c-1.62.84-.88.55-3.06,1.76a3.64,3.64,0,0,1,.19-.72" style="fill: #fff"/>
        <path id="_Path_55" data-name="&lt;Path&gt;" d="M28.64,26.37c2.69-1.4,1.49-.86,4.42-2.37.11-.06.18-.08.21-.07s0,.09,0,.2a2,2,0,0,1-.27.66c-2.46,1.27-1.33.83-4.64,2.67a5.49,5.49,0,0,1,.28-1.1" style="fill: #fff"/>
        <path id="_Path_56" data-name="&lt;Path&gt;" d="M76.41,25.89a.32.32,0,0,1,.06-.09s0,0,0,0a.17.17,0,0,1,0,.1c-.17.92-.45,1.39-.85,1.39S75,27,75,26.27a5.75,5.75,0,0,1,.74-2.67,1.35,1.35,0,0,1,.22-.35h0a1.83,1.83,0,0,1-.12.39,7.45,7.45,0,0,0-.51,2c0,.52.15.79.45.79s.38-.19.6-.58" style="fill: #fff"/>
        <path id="_Path_57" data-name="&lt;Path&gt;" d="M2.83,18.4a.45.45,0,0,1,.07-.12s0,0,0,0a.25.25,0,0,1,0,.13c-.21,1.25-.55,1.88-1,1.88s-.76-.46-.76-1.39a8.52,8.52,0,0,1,.9-3.62,1.84,1.84,0,0,1,.27-.48,0,0,0,0,1,0,0,2.66,2.66,0,0,1-.14.53,11.11,11.11,0,0,0-.62,2.75c0,.71.19,1.07.54,1.07s.45-.26.72-.79" style="fill: #fff"/>
        <path id="_Compound_Path_12" data-name="&lt;Compound Path&gt;" d="M69.06,16.7a1.52,1.52,0,0,0-.8-.79,3,3,0,0,1-.09.85c.06,0,.35.07.86.14,0,0,.05,0,.06,0s0-.09,0-.19m-1.19,0a1.48,1.48,0,0,0,0-.61c-.06-.23-.15-.35-.27-.35s-.19.07-.33.23a.63.63,0,0,0-.21.34q0,.27.83.39m1.58-.38a.37.37,0,0,1,0,.16,1.83,1.83,0,0,1-.18.72q-.18.41-.36.41a6.2,6.2,0,0,0-1-.19,4.42,4.42,0,0,1-.85,1.18,5.29,5.29,0,0,1-1.15.74c-.13.07-.2.14-.2.22s0,.11.14.14a3.61,3.61,0,0,0,1.4,0q.4,0,1.9-.43c.13,0,.19,0,.19,0a4.5,4.5,0,0,1-.57.46,3.82,3.82,0,0,1-.9.44,4.46,4.46,0,0,1-1.59.34q-.86,0-.86-.6a1.39,1.39,0,0,1,.49-1.06l.82-.62a3.51,3.51,0,0,0,.88-.9q-.91-.17-.91-.74a2.3,2.3,0,0,1,.25-1,.9.9,0,0,1,.07-.86.56.56,0,0,1,.43-.2,1.14,1.14,0,0,1,.55.18,3.18,3.18,0,0,1,1.43,1.55" style="fill: #fff"/>
        <path id="_Compound_Path_13" data-name="&lt;Compound Path&gt;" d="M40.26,19.36a.37.37,0,0,0-.28.14.41.41,0,0,0-.13.26q0,.09.5.31a.86.86,0,0,0,.07-.35c0-.24-.06-.36-.17-.36m1,1.5a.9.9,0,0,1-.31.55,2.49,2.49,0,0,0-.67-.55,5.49,5.49,0,0,1-1.15,1,4.32,4.32,0,0,1-1.15.59,1.44,1.44,0,0,1-.34.07s-.06,0-.06,0,.12-.15.36-.31.72-.51,1.21-.9a9.17,9.17,0,0,0,.77-.65.74.74,0,0,1-.43-.69,1.53,1.53,0,0,1,.34-.86q.34-.47.62-.47.11,0,.24.19a1.06,1.06,0,0,1,.15.59,2.15,2.15,0,0,1-.14.82q.57.45.56.62" style="fill: #fff"/>
        <path id="_Compound_Path_14" data-name="&lt;Compound Path&gt;" d="M72.64,13.61a.32.32,0,0,0-.24.12.35.35,0,0,0-.11.23c0,.05.15.14.44.27a.77.77,0,0,0,.06-.3c0-.21,0-.31-.15-.31m.86,1.32a.78.78,0,0,1-.27.48,2.17,2.17,0,0,0-.59-.48,4.8,4.8,0,0,1-1,.9,3.79,3.79,0,0,1-1,.52,1.25,1.25,0,0,1-.3.07s-.05,0-.05,0,.11-.13.32-.27.63-.45,1.06-.79a7.81,7.81,0,0,0,.67-.57.65.65,0,0,1-.38-.61,1.33,1.33,0,0,1,.29-.75c.2-.28.38-.41.54-.41s.14.06.21.17a.93.93,0,0,1,.13.52,1.9,1.9,0,0,1-.12.72c.33.26.49.44.49.55" style="fill: #fff"/>
        <path id="_Compound_Path_15" data-name="&lt;Compound Path&gt;" d="M28.24,2.12a1.1,1.1,0,0,1-.06.31c-.05.17-.11.26-.18.26s-.09-.07-.19-.2a.39.39,0,0,0-.3-.2q-.34,0-.63,1.74a4.26,4.26,0,0,1-.28,1.07c-.07.14-.14.21-.19.21s-.07-.06-.07-.19A4.39,4.39,0,0,0,26,3.94q-.33-.88-.46-.88c-.06,0-.1,0-.12.06s-.07.06-.15.06A.65.65,0,0,1,24.89,3c-.16-.15-.23-.28-.23-.37a1.71,1.71,0,0,1,.2-.42c.13-.24.21-.35.25-.35a1.06,1.06,0,0,1,.86.61A4.28,4.28,0,0,1,26.5,4c0,.07,0,.11,0,.12s0,0,0,0l0-.12A16.11,16.11,0,0,1,27,2.27q.33-.84.71-.84c.13,0,.26.1.39.29a.79.79,0,0,1,.17.41M26.39,5.61A3.68,3.68,0,0,1,25.22,7,7.86,7.86,0,0,1,23.79,8q-.14.07-1.51.62a1,1,0,0,1-.29.08s0,0,0,0,.08-.11.25-.22q1.13-.68,3.2-2.15a4.93,4.93,0,0,0,.78-.77,2.08,2.08,0,0,1,.38-.43s0,0,0,0a3.09,3.09,0,0,1-.19.52" style="fill: #fff"/>
        <path id="_Compound_Path_16" data-name="&lt;Compound Path&gt;" d="M80.47,3.2c0-.12-.2-.3-.6-.54a1.57,1.57,0,0,0-.18.68c0,.13.06.19.17.19a.71.71,0,0,0,.34-.11.8.8,0,0,0,.27-.22m-.41-1.63c.05-.11.11-.16.18-.16a.06.06,0,0,1,.06.06.11.11,0,0,1,0,0q-.11.28-.21.58a1.15,1.15,0,0,1,.56.95,1.57,1.57,0,0,1-.13.64.78.78,0,0,1-.65.38c-.25,0-.38-.17-.38-.49a1.36,1.36,0,0,1,0-.24,6.05,6.05,0,0,1,.56-1.77" style="fill: #fff"/>
        <path id="_Compound_Path_17" data-name="&lt;Compound Path&gt;" d="M31.23,3.2q0-.18-.6-.54a1.57,1.57,0,0,0-.18.68c0,.13.06.19.17.19A.71.71,0,0,0,31,3.42a.79.79,0,0,0,.27-.22m-.41-1.63c.05-.11.11-.16.18-.16a.05.05,0,0,1,.06.06.12.12,0,0,1,0,0q-.11.28-.21.58a1.15,1.15,0,0,1,.56.95,1.58,1.58,0,0,1-.13.64.77.77,0,0,1-.65.38c-.25,0-.38-.16-.38-.49a1.47,1.47,0,0,1,0-.24,6.07,6.07,0,0,1,.56-1.77" style="fill: #fff"/>
        <path id="_Path_58" data-name="&lt;Path&gt;" d="M21.3,26.21a4.81,4.81,0,0,0,1.56-.57c.15-.07.23-.1.23-.09s0,.1-.15.23a2.72,2.72,0,0,1-1.82,1,.87.87,0,0,1-.63-.11.66.66,0,0,1-.31-.48,3.15,3.15,0,0,1,.42-1.86c-.4,0-.63-.24-.68-.56a1.7,1.7,0,0,1,.33-1c.26-.42.48-.65.67-.68s.11,0,.18.1a.5.5,0,0,1,.11.25.89.89,0,0,1-.11.33C21,23,21,23,21,23a.26.26,0,0,0-.29-.18c-.07,0-.14.09-.23.23a.59.59,0,0,0-.11.33.65.65,0,0,0,.68.22c.1,0,.24-.14.43-.37s.22-.28.33-.44.07,0,.08.1a1.33,1.33,0,0,1-.15.8,5.1,5.1,0,0,0-1.24,1.91.75.75,0,0,0,0,.33c0,.28.34.37.88.28" style="fill: #fff"/>
        <path id="_Path_59" data-name="&lt;Path&gt;" d="M22.6,2.4a2.37,2.37,0,0,1-.44.84,4.54,4.54,0,0,1-.93,1.07A8.43,8.43,0,0,1,19.34,5c-.19.05-.29.07-.29.06l.2-.18a10.71,10.71,0,0,1,1.14-.7,8.33,8.33,0,0,0,1-.66.08.08,0,0,0,0-.06c0-.15-.53-.23-1.59-.23l-.61,0c-.2,0-.29,0-.29,0A.52.52,0,0,1,19.05,3l.38-.68A.8.8,0,0,1,20,2a5.68,5.68,0,0,1,.74,0q1.83,0,1.83.45" style="fill: #fff"/>
        <path id="_Path_60" data-name="&lt;Path&gt;" d="M10,11.42a2.55,2.55,0,0,1-.47.91,4.91,4.91,0,0,1-1,1.16,9.13,9.13,0,0,1-2,.72c-.21.06-.31.08-.31.06l.21-.19a11.55,11.55,0,0,1,1.23-.75,8.92,8.92,0,0,0,1.13-.71.09.09,0,0,0,0-.06q0-.24-1.71-.25l-.66,0c-.21,0-.31,0-.31,0a.57.57,0,0,1,.08-.19l.41-.74A.86.86,0,0,1,7.27,11a5.91,5.91,0,0,1,.79,0q2,0,2,.49" style="fill: #fff"/>
        <path id="_Compound_Path_18" data-name="&lt;Compound Path&gt;" d="M2.36,34.07a16.39,16.39,0,0,1-.5-1.64h0q0,.12-.52,1.64Zm1.36,1.66H2.78a6.14,6.14,0,0,0-.27-1.1H1.16a5.67,5.67,0,0,0-.28,1.1H0q0-.11.68-1.88a14.72,14.72,0,0,0,.69-1.94H2.48a16.08,16.08,0,0,0,.62,1.91,16.76,16.76,0,0,1,.62,1.9" style="fill: #fff"/>
        <path id="_Path_61" data-name="&lt;Path&gt;" d="M6.63,35.09l0,.64H4.17q0-.8,0-2t0-1.82H5q0,.67,0,1.82,0,.88,0,1.4.81,0,1.71,0" style="fill: #fff"/>
        <path id="_Path_62" data-name="&lt;Path&gt;" d="M11.5,35.73h-.85q0-.5-.06-1.68t-.06-1.48h0q0,.18-.16.65t-.47,1.4a5.45,5.45,0,0,0-.35,1.11H8.85a5.59,5.59,0,0,0-.33-1.12q-.33-.93-.44-1.3a7.17,7.17,0,0,1-.16-.74h0q0,.37-.07,1.57t-.07,1.59H7q0-.09.21-1.76t.21-2.06H8.52a6.46,6.46,0,0,0,.36,1.45,6.62,6.62,0,0,1,.36,1.43h0a5.88,5.88,0,0,1,.41-1.44,5.83,5.83,0,0,0,.41-1.45h1.13q0,.61.14,2.17t.14,1.65" style="fill: #fff"/>
        <path id="_Compound_Path_19" data-name="&lt;Compound Path&gt;" d="M15,33.84a1.51,1.51,0,0,0-.31-1,1,1,0,0,0-.77-.38.89.89,0,0,0-.73.38,1.53,1.53,0,0,0-.3,1,1.51,1.51,0,0,0,.31,1,1,1,0,0,0,.77.38.89.89,0,0,0,.73-.39,1.53,1.53,0,0,0,.3-1m.81-.09a2.1,2.1,0,0,1-.55,1.49,1.79,1.79,0,0,1-1.36.59,1.72,1.72,0,0,1-1.3-.54,1.92,1.92,0,0,1-.52-1.38,2.11,2.11,0,0,1,.55-1.49A1.79,1.79,0,0,1,14,31.83a1.73,1.73,0,0,1,1.3.54,1.92,1.92,0,0,1,.52,1.38" style="fill: #fff"/>
        <path id="_Path_63" data-name="&lt;Path&gt;" d="M19.13,31.91l0,.63q-.59,0-1.1,0,0,.55,0,1.23,0,1.06,0,2h-.82q0-.93,0-2c0-.45,0-.86,0-1.23q-.41,0-1.14,0l0-.63Z" style="fill: #fff"/>
        <path id="_Compound_Path_20" data-name="&lt;Compound Path&gt;" d="M21.47,34.07a16.39,16.39,0,0,1-.5-1.64h0a16.93,16.93,0,0,1-.52,1.64Zm1.36,1.66h-.94a6.14,6.14,0,0,0-.27-1.1H20.27a5.67,5.67,0,0,0-.28,1.1h-.88q0-.11.68-1.88a14.72,14.72,0,0,0,.69-1.94h1.11a16.08,16.08,0,0,0,.62,1.91,16.76,16.76,0,0,1,.62,1.9" style="fill: #fff"/>
        <path id="_Path_64" data-name="&lt;Path&gt;" d="M26.36,35.73h-.83q0-1,0-1.68H24.08q0,.64,0,1.68h-.83q0-1,0-2t0-1.82h.83q0,.82,0,1.53h1.49q0-.62,0-1.53h.83q0,.74,0,1.82t0,2" style="fill: #fff"/>
        <path id="_Path_65" data-name="&lt;Path&gt;" d="M28,35.73h-.83q0-.91,0-2t0-1.82H28q0,.74,0,1.82t0,2" style="fill: #fff"/>
        <path id="_Compound_Path_21" data-name="&lt;Compound Path&gt;" d="M31.31,33.82a1.41,1.41,0,0,0-.33-.95,1.24,1.24,0,0,0-1-.39l-.35,0q0,.59,0,1.23t0,1.39a1.91,1.91,0,0,0,.38,0,1.11,1.11,0,0,0,.93-.39,1.51,1.51,0,0,0,.3-1m.8-.13a2.16,2.16,0,0,1-.53,1.45,1.87,1.87,0,0,1-1.5.62l-1.2,0q0-.89,0-2t0-1.82H30.1a2,2,0,0,1,1.53.53,1.83,1.83,0,0,1,.48,1.27" style="fill: #fff"/>
        <path id="_Compound_Path_22" data-name="&lt;Compound Path&gt;" d="M34.73,34.07a16.39,16.39,0,0,1-.5-1.64h0q0,.12-.52,1.64Zm1.36,1.66h-.94a6.14,6.14,0,0,0-.27-1.1H33.52a5.67,5.67,0,0,0-.28,1.1h-.88q0-.11.68-1.88a14.72,14.72,0,0,0,.69-1.94h1.11a16.08,16.08,0,0,0,.62,1.91,16.76,16.76,0,0,1,.62,1.9" style="fill: #fff"/>
        <path id="_Path_66" data-name="&lt;Path&gt;" d="M40.36,35.09l0,.64h-2.5q0-.88,0-2t0-1.82h2.38l0,.64q-.88,0-1.6,0,0,.41,0,1c.41,0,.85,0,1.31,0v.61l-1.31,0q0,.6,0,1.11.8,0,1.71,0" style="fill: #fff"/>
        <path id="_Compound_Path_23" data-name="&lt;Compound Path&gt;" d="M43.43,33.82a1.41,1.41,0,0,0-.33-.95,1.24,1.24,0,0,0-1-.39l-.35,0q0,.59,0,1.23t0,1.39a1.91,1.91,0,0,0,.38,0,1.11,1.11,0,0,0,.93-.39,1.51,1.51,0,0,0,.3-1m.8-.13a2.16,2.16,0,0,1-.53,1.45,1.87,1.87,0,0,1-1.5.62l-1.2,0q0-.89,0-2t0-1.82h1.22a2,2,0,0,1,1.53.53,1.83,1.83,0,0,1,.48,1.27" style="fill: #fff"/>
        <path id="_Path_67" data-name="&lt;Path&gt;" d="M48.05,31.91q0,1,0,2,0,1.95-1.6,1.95a1.54,1.54,0,0,1-1.19-.43,2.29,2.29,0,0,1-.4-1.55q0-1,0-1.94h.83q0,1,0,1.91a2.09,2.09,0,0,0,.21,1.11.84.84,0,0,0,1.28,0,2.16,2.16,0,0,0,.2-1.11q0-.9,0-1.91Z" style="fill: #fff"/>
        <path id="_Path_68" data-name="&lt;Path&gt;" d="M51.57,35l0,.67a3.46,3.46,0,0,1-.82.1,2,2,0,0,1-1.53-.56,1.89,1.89,0,0,1-.53-1.35,2.05,2.05,0,0,1,.56-1.43,2,2,0,0,1,1.53-.61,2.71,2.71,0,0,1,.68.08l-.1.68a2.15,2.15,0,0,0-.66-.11,1,1,0,0,0-.89.38,1.45,1.45,0,0,0-.29.92,1.43,1.43,0,0,0,.34,1,1.2,1.2,0,0,0,1,.4,2.81,2.81,0,0,0,.79-.13" style="fill: #fff"/>
        <path id="_Compound_Path_24" data-name="&lt;Compound Path&gt;" d="M54.12,34.07a16.39,16.39,0,0,1-.5-1.64h0q0,.12-.52,1.64Zm1.36,1.66h-.94a6.14,6.14,0,0,0-.27-1.1H52.92a5.67,5.67,0,0,0-.28,1.1h-.88q0-.11.68-1.88a14.72,14.72,0,0,0,.69-1.94h1.11a16.08,16.08,0,0,0,.62,1.91,16.76,16.76,0,0,1,.62,1.9" style="fill: #fff"/>
        <path id="_Path_69" data-name="&lt;Path&gt;" d="M58.46,31.91l0,.63q-.59,0-1.1,0,0,.55,0,1.23,0,1.06,0,2h-.82q0-.93,0-2c0-.45,0-.86,0-1.23q-.41,0-1.14,0l0-.63Z" style="fill: #fff"/>
        <path id="_Path_70" data-name="&lt;Path&gt;" d="M59.78,35.73h-.83q0-.91,0-2t0-1.82h.83q0,.74,0,1.82t0,2" style="fill: #fff"/>
        <path id="_Compound_Path_25" data-name="&lt;Compound Path&gt;" d="M63.35,33.84a1.51,1.51,0,0,0-.31-1,1,1,0,0,0-.77-.38.89.89,0,0,0-.73.38,1.53,1.53,0,0,0-.3,1,1.51,1.51,0,0,0,.31,1,1,1,0,0,0,.77.38.89.89,0,0,0,.73-.39,1.53,1.53,0,0,0,.3-1m.81-.09a2.1,2.1,0,0,1-.55,1.49,1.79,1.79,0,0,1-1.36.59,1.72,1.72,0,0,1-1.3-.54,1.92,1.92,0,0,1-.52-1.38A2.11,2.11,0,0,1,61,32.42a1.79,1.79,0,0,1,1.36-.59,1.73,1.73,0,0,1,1.3.54,1.92,1.92,0,0,1,.52,1.38" style="fill: #fff"/>
        <path id="_Path_71" data-name="&lt;Path&gt;" d="M68,35.73h-.72a7.19,7.19,0,0,0-.81-1.27,7,7,0,0,1-1-1.66h0A10.35,10.35,0,0,1,65.49,34q0,.72,0,1.77h-.72q0-.91,0-2t0-1.82h.87a5.54,5.54,0,0,0,.72,1.24,7.28,7.28,0,0,1,.89,1.56h0a11.11,11.11,0,0,1-.07-1.17q0-.79,0-1.63H68q0,.73,0,1.82t0,2" style="fill: #fff"/>
        <path id="_Path_72" data-name="&lt;Path&gt;" d="M73.12,35.63a4.86,4.86,0,0,1-1.17.18,2,2,0,0,1-1.53-.55,1.89,1.89,0,0,1-.52-1.34A2,2,0,0,1,72,31.86a3.63,3.63,0,0,1,.83.09l-.1.69a3.28,3.28,0,0,0-.83-.12,1.12,1.12,0,0,0-.92.38,1.44,1.44,0,0,0-.3.93,1.49,1.49,0,0,0,.34,1,1.15,1.15,0,0,0,.94.42,2.58,2.58,0,0,0,.39,0,4.65,4.65,0,0,1,0-.64,4.75,4.75,0,0,0-.06-.71h.83q0,.45,0,.91t0,.89" style="fill: #fff"/>
        <path id="_Compound_Path_26" data-name="&lt;Compound Path&gt;" d="M75.83,33q0-.58-.75-.58a2.61,2.61,0,0,0-.49,0q0,.45,0,1.18h.27q.93,0,.93-.65m1.1,2.7h-.87a5.7,5.7,0,0,0-.52-1.28.68.68,0,0,0-.59-.24h-.33q0,.75,0,1.52h-.82q0-.89,0-2t0-1.82h1.39q1.35,0,1.35.92a1,1,0,0,1-.77,1v0a.92.92,0,0,1,.52.46,10.25,10.25,0,0,1,.6,1.39" style="fill: #fff"/>
        <path id="_Compound_Path_27" data-name="&lt;Compound Path&gt;" d="M80.14,33.84a1.51,1.51,0,0,0-.31-1,1,1,0,0,0-.77-.38.89.89,0,0,0-.73.38,1.53,1.53,0,0,0-.3,1,1.51,1.51,0,0,0,.31,1,1,1,0,0,0,.77.38.89.89,0,0,0,.73-.39,1.53,1.53,0,0,0,.3-1m.81-.09a2.1,2.1,0,0,1-.55,1.49,1.79,1.79,0,0,1-1.36.59,1.72,1.72,0,0,1-1.3-.54,1.92,1.92,0,0,1-.52-1.38,2.11,2.11,0,0,1,.55-1.49,1.79,1.79,0,0,1,1.36-.59,1.73,1.73,0,0,1,1.3.54A1.92,1.92,0,0,1,81,33.75" style="fill: #fff"/>
        <path id="_Path_73" data-name="&lt;Path&gt;" d="M84.77,31.91q0,1,0,2,0,1.95-1.6,1.95A1.54,1.54,0,0,1,82,35.4a2.29,2.29,0,0,1-.4-1.55q0-1,0-1.94h.83q0,1,0,1.91a2.09,2.09,0,0,0,.21,1.11.84.84,0,0,0,1.28,0,2.16,2.16,0,0,0,.2-1.11q0-.9,0-1.91Z" style="fill: #fff"/>
        <path id="_Compound_Path_28" data-name="&lt;Compound Path&gt;" d="M87.58,33.07q0-.63-.83-.63a2.38,2.38,0,0,0-.44,0q0,.55,0,1.26h.17q1.07,0,1.07-.68m.76-.16a1.14,1.14,0,0,1-.52,1,2.32,2.32,0,0,1-1.28.33h-.2q0,.55,0,1.45h-.82q0-.85,0-2t0-1.82H87a1.68,1.68,0,0,1,.94.25.85.85,0,0,1,.38.77" style="fill: #fff"/>
      </g>
    </g>
  </g>
</svg>
