<svg id="Layer_1" data-name="Layer 1" xmlns="http://www.w3.org/2000/svg" viewBox="0 0 563.58 372">
  <title>underConstruction</title>
  <g>
    <g>
      <polygon points="512.53 67.38 512.53 61.78 461.73 52.1 461.73 67.75 512.53 67.38 512.53 67.38" style="fill: #cbd7d6"/>
      <polygon points="282.37 52.1 232.24 58.53 232.24 67.38 282.4 67.38 282.37 52.1 282.37 52.1" style="fill: #cbd7d6"/>
      <polygon points="450.48 337.17 439.27 337.17 439.27 224.71 450.48 224.71 450.48 337.17 450.48 337.17" style="fill: #cbd7d6"/>
      <polygon points="395.35 176.63 98.68 176.63 98.68 149.32 395.35 149.32 395.35 176.63 395.35 176.63" style="fill: #cbd7d6"/>
      <path d="M100.35,175H393.68V151H100.35v24Zm295,3.35H98.68A1.68,1.68,0,0,1,97,176.63V149.32a1.68,1.68,0,0,1,1.68-1.68H395.35a1.68,1.68,0,0,1,1.68,1.68v27.31a1.68,1.68,0,0,1-1.68,1.68Z" style="fill: #44484f"/>
      <path d="M100.35,301.11H393.68V178.31H100.35V301.11Zm295,3.35H98.68A1.68,1.68,0,0,1,97,302.79V176.63A1.68,1.68,0,0,1,98.68,175H395.35a1.68,1.68,0,0,1,1.68,1.68V302.79a1.68,1.68,0,0,1-1.68,1.68Z" style="fill: #44484f"/>
      <path d="M383.1,291.42H304.7a3.06,3.06,0,0,1-3.06-3.06V243.77a3.06,3.06,0,0,1,3.06-3.06h78.4a3.06,3.06,0,0,1,3.06,3.06v44.59a3.06,3.06,0,0,1-3.06,3.06Z" style="fill: #dae585"/>
      <path d="M342,205.18H116.48a1.88,1.88,0,0,1-1.88-1.88V189a1.88,1.88,0,0,1,1.88-1.88H342A1.88,1.88,0,0,1,343.9,189V203.3a1.88,1.88,0,0,1-1.88,1.88Z" style="fill: #4db7e8"/>
      <polygon points="336.92 169.22 324.43 169.22 324.43 156.73 336.92 156.73 336.92 169.22 336.92 169.22" style="fill: #fac215"/>
      <path d="M325.26,168.39h10.82V157.57H325.26v10.82Zm11.66,1.68H324.43a.84.84,0,0,1-.84-.84V156.73a.84.84,0,0,1,.84-.84h12.49a.84.84,0,0,1,.84.84v12.49a.84.84,0,0,1-.84.84Z" style="fill: #44484f"/>
      <polygon points="403.71 322.15 391.22 322.15 391.22 309.65 403.71 309.65 403.71 322.15 403.71 322.15" style="fill: #91d4f4"/>
      <path d="M392.47,320.89h10v-10h-10v10Zm11.24,2.51H391.22a1.26,1.26,0,0,1-1.26-1.26V309.65a1.26,1.26,0,0,1,1.26-1.26h12.49a1.26,1.26,0,0,1,1.26,1.26v12.49a1.26,1.26,0,0,1-1.26,1.26Z" style="fill: #44484f"/>
      <polygon points="188.57 335.98 176.08 335.98 176.08 323.48 188.57 323.48 188.57 335.98 188.57 335.98" style="fill: #fff"/>
      <path d="M177.34,334.72h10v-10h-10v10Zm11.24,2.51H176.08a1.26,1.26,0,0,1-1.26-1.26V323.48a1.26,1.26,0,0,1,1.26-1.26h12.49a1.26,1.26,0,0,1,1.26,1.26V336a1.26,1.26,0,0,1-1.26,1.26Z" style="fill: #44484f"/>
      <polygon points="492.76 247.77 480.26 247.77 480.26 235.28 492.76 235.28 492.76 247.77 492.76 247.77" style="fill: #dae585"/>
      <path d="M481.52,246.51h10v-10h-10v10ZM492.76,249H480.26a1.26,1.26,0,0,1-1.26-1.26V235.27a1.26,1.26,0,0,1,1.26-1.26h12.49a1.26,1.26,0,0,1,1.26,1.26v12.49a1.26,1.26,0,0,1-1.26,1.26Z" style="fill: #44484f"/>
      <polygon points="185.21 73.71 172.72 73.71 172.72 61.22 185.21 61.22 185.21 73.71 185.21 73.71" style="fill: #fac215"/>
      <path d="M174,72.46h10v-10H174v10ZM185.21,75H172.71a1.26,1.26,0,0,1-1.26-1.26V61.22A1.26,1.26,0,0,1,172.71,60h12.49a1.26,1.26,0,0,1,1.26,1.26V73.71A1.26,1.26,0,0,1,185.21,75Z" style="fill: #44484f"/>
      <polygon points="360.81 169.22 348.31 169.22 348.31 156.73 360.81 156.73 360.81 169.22 360.81 169.22" style="fill: #fff"/>
      <path d="M349.15,168.39H360V157.57H349.15v10.82Zm11.66,1.68H348.31a.84.84,0,0,1-.84-.84V156.73a.84.84,0,0,1,.84-.84h12.49a.84.84,0,0,1,.84.84v12.49a.84.84,0,0,1-.84.84Z" style="fill: #44484f"/>
      <polygon points="384.69 169.22 372.2 169.22 372.2 156.73 384.69 156.73 384.69 169.22 384.69 169.22" style="fill: #ef5655"/>
      <path d="M373,168.39h10.82V157.57H373v10.82Zm11.66,1.68H372.2a.84.84,0,0,1-.84-.84V156.73a.84.84,0,0,1,.84-.84h12.49a.84.84,0,0,1,.84.84v12.49a.84.84,0,0,1-.84.84Z" style="fill: #44484f"/>
      <polygon points="84.93 312.65 72.44 312.65 72.44 300.15 84.93 300.15 84.93 312.65 84.93 312.65" style="fill: #ef5655"/>
      <path d="M73.7,311.39h10v-10h-10v10Zm11.24,2.51H72.44a1.26,1.26,0,0,1-1.26-1.26V300.15a1.26,1.26,0,0,1,1.26-1.26H84.93a1.26,1.26,0,0,1,1.26,1.26v12.49a1.26,1.26,0,0,1-1.26,1.26Z" style="fill: #44484f"/>
      <path d="M173.54,274.82H117.35a.84.84,0,0,1,0-1.68h56.18a.84.84,0,1,1,0,1.68Z" style="fill: #44484f"/>
      <path d="M235.67,285.3H117.35a.84.84,0,1,1,0-1.68H235.67a.84.84,0,1,1,0,1.68Z" style="fill: #44484f"/>
      <path d="M193.61,274.82H180.12a.84.84,0,1,1,0-1.68h13.48a.84.84,0,1,1,0,1.68Z" style="fill: #44484f"/>
      <path d="M380.15,266.9H366.67a.84.84,0,0,1,0-1.68h13.48a.84.84,0,1,1,0,1.68Z" style="fill: #44484f"/>
      <path d="M380.15,272.16h-6.74a.84.84,0,1,1,0-1.68h6.74a.84.84,0,1,1,0,1.68Z" style="fill: #44484f"/>
      <path d="M203.45,274.82H198.7a.84.84,0,1,1,0-1.68h4.75a.84.84,0,1,1,0,1.68Z" style="fill: #44484f"/>
      <path d="M441,223h19.11V69.14H441V223Zm20.78,3.35H439.27a1.68,1.68,0,0,1-1.68-1.68V67.47a1.68,1.68,0,0,1,1.68-1.68h22.46a1.68,1.68,0,0,1,1.68,1.68V224.71a1.68,1.68,0,0,1-1.68,1.68Z" style="fill: #44484f"/>
      <path d="M443.32,133.39h14.32l-7.16-7.16-7.16,7.16Zm18.36,3.35H439.27a1.68,1.68,0,0,1-1.18-2.86l11.21-11.21a1.73,1.73,0,0,1,2.37,0l11.21,11.21a1.68,1.68,0,0,1-1.19,2.86Z" style="fill: #44484f"/>
      <path d="M443.32,114.34l7.16,7.16,7.16-7.16Zm7.16,11.21a1.67,1.67,0,0,1-1.18-.49l-11.21-11.21a1.68,1.68,0,0,1,1.18-2.86h22.41a1.68,1.68,0,0,1,1.19,2.86L451.67,125a1.67,1.67,0,0,1-1.19.49Z" style="fill: #44484f"/>
      <path d="M443.32,155.81h14.32l-7.16-7.16-7.16,7.16Zm18.36,3.35H439.27a1.68,1.68,0,0,1-1.18-2.86l11.21-11.21a1.67,1.67,0,0,1,2.37,0l11.21,11.21a1.68,1.68,0,0,1-1.19,2.86Z" style="fill: #44484f"/>
      <path d="M443.32,136.75l7.16,7.16,7.16-7.16ZM450.48,148a1.67,1.67,0,0,1-1.18-.49l-11.21-11.21a1.68,1.68,0,0,1,1.18-2.86h22.41a1.68,1.68,0,0,1,1.19,2.86l-11.21,11.21a1.68,1.68,0,0,1-1.19.49Z" style="fill: #44484f"/>
      <path d="M443.32,178.22h14.32l-7.16-7.16-7.16,7.16Zm18.36,3.35H439.27a1.68,1.68,0,0,1-1.18-2.86L449.3,167.5a1.68,1.68,0,0,1,2.37,0l11.21,11.21a1.68,1.68,0,0,1-1.19,2.86Z" style="fill: #44484f"/>
      <path d="M443.32,159.16l7.16,7.16,7.16-7.16Zm7.16,11.21a1.67,1.67,0,0,1-1.18-.49l-11.21-11.21a1.68,1.68,0,0,1,1.18-2.86h22.41a1.68,1.68,0,0,1,1.19,2.86l-11.21,11.21a1.68,1.68,0,0,1-1.19.49Z" style="fill: #44484f"/>
      <path d="M443.32,200.63h14.32l-7.16-7.16-7.16,7.16ZM461.68,204H439.27a1.68,1.68,0,0,1-1.18-2.86l11.21-11.21a1.68,1.68,0,0,1,2.37,0l11.21,11.21a1.68,1.68,0,0,1-1.19,2.86Z" style="fill: #44484f"/>
      <path d="M443.32,181.57l7.16,7.16,7.16-7.16Zm7.16,11.21a1.67,1.67,0,0,1-1.18-.49l-11.21-11.21a1.68,1.68,0,0,1,1.18-2.86h22.41a1.68,1.68,0,0,1,1.19,2.86l-11.21,11.21a1.68,1.68,0,0,1-1.19.49Z" style="fill: #44484f"/>
      <path d="M443.32,223h14.32l-7.16-7.16L443.32,223Zm18.36,3.35H439.27a1.68,1.68,0,0,1-1.18-2.86l11.21-11.21a1.67,1.67,0,0,1,2.37,0l11.21,11.21a1.68,1.68,0,0,1-1.19,2.86Z" style="fill: #44484f"/>
      <path d="M443.32,204l7.16,7.16,7.16-7.16Zm7.16,11.21a1.68,1.68,0,0,1-1.18-.49l-11.21-11.21a1.68,1.68,0,0,1,1.18-2.86h22.41a1.68,1.68,0,0,1,1.19,2.86l-11.21,11.21a1.68,1.68,0,0,1-1.19.49Z" style="fill: #44484f"/>
      <path d="M443.32,111h14.32l-7.16-7.16L443.32,111Zm18.36,3.35H439.27a1.68,1.68,0,0,1-1.18-2.86l11.21-11.21a1.73,1.73,0,0,1,2.37,0l11.21,11.21a1.68,1.68,0,0,1-1.19,2.86Z" style="fill: #44484f"/>
      <path d="M443.32,91.92l7.16,7.16,7.16-7.16Zm7.16,11.21a1.67,1.67,0,0,1-1.18-.49L438.09,91.43a1.68,1.68,0,0,1,1.18-2.86h22.41a1.68,1.68,0,0,1,1.19,2.86l-11.21,11.21a1.67,1.67,0,0,1-1.19.49Z" style="fill: #44484f"/>
      <path d="M443.32,88.2h14.32L450.48,81l-7.16,7.16Zm18.36,3.35H439.27a1.68,1.68,0,0,1-1.18-2.86L449.3,77.49a1.67,1.67,0,0,1,2.37,0l11.21,11.21a1.68,1.68,0,0,1-1.19,2.86Z" style="fill: #44484f"/>
      <path d="M443.32,69.14l7.16,7.16,7.16-7.16Zm7.16,11.21a1.68,1.68,0,0,1-1.18-.49L438.09,68.65a1.68,1.68,0,0,1,1.18-2.86h22.41a1.68,1.68,0,0,1,1.19,2.86L451.67,79.86a1.68,1.68,0,0,1-1.19.49Z" style="fill: #44484f"/>
      <path d="M443.32,43.3h14.32l-7.16-7.16-7.16,7.16Zm18.36,3.35H439.27a1.68,1.68,0,0,1-1.18-2.86L449.3,32.58a1.73,1.73,0,0,1,2.37,0l11.21,11.21a1.68,1.68,0,0,1-1.19,2.86Z" style="fill: #44484f"/>
      <path d="M443.32,24.24l7.16,7.16,7.16-7.16Zm7.16,11.21A1.67,1.67,0,0,1,449.3,35L438.09,23.75a1.68,1.68,0,0,1,1.18-2.86h22.41a1.68,1.68,0,0,1,1.19,2.86L451.67,35a1.67,1.67,0,0,1-1.19.49Z" style="fill: #44484f"/>
      <path d="M443.32,65.71h14.32l-7.16-7.16-7.16,7.16Zm18.36,3.35H439.27a1.68,1.68,0,0,1-1.18-2.86L449.3,55a1.73,1.73,0,0,1,2.37,0L462.87,66.2a1.68,1.68,0,0,1-1.19,2.86Z" style="fill: #44484f"/>
      <path d="M443.32,46.65l7.16,7.16,7.16-7.16Zm7.16,11.21a1.67,1.67,0,0,1-1.18-.49L438.09,46.16a1.68,1.68,0,0,1,1.18-2.86h22.41a1.68,1.68,0,0,1,1.19,2.86L451.67,57.36a1.67,1.67,0,0,1-1.19.49Z" style="fill: #44484f"/>
      <path d="M423.92,335.49H477V294.83l-16.68-68.44H440.59l-16.68,68.44v40.66Zm54.8,3.35H422.24a1.68,1.68,0,0,1-1.68-1.68V294.63a1.68,1.68,0,0,1,0-.4l17-69.92a1.68,1.68,0,0,1,1.63-1.28h22.41a1.68,1.68,0,0,1,1.63,1.28l17,69.92a1.68,1.68,0,0,1,0,.4v42.54a1.68,1.68,0,0,1-1.68,1.68Z" style="fill: #44484f"/>
      <path d="M461.68,338.84a1.68,1.68,0,0,1-1.68-1.68V224.71a1.68,1.68,0,0,1,3.35,0V337.17a1.68,1.68,0,0,1-1.68,1.68Z" style="fill: #44484f"/>
      <path d="M439.27,338.84a1.68,1.68,0,0,1-1.68-1.68V224.71a1.68,1.68,0,0,1,3.35,0V337.17a1.68,1.68,0,0,1-1.68,1.68Z" style="fill: #44484f"/>
      <path d="M427.25,296.31l23.23,17.49,23.23-17.49Zm0,39.18h46.46L450.48,318l-23.23,17.49Zm51.49,3.35h-56.5a1.68,1.68,0,0,1-1-3l26.46-19.93L421.23,296a1.68,1.68,0,0,1,1-3h56.48a1.68,1.68,0,0,1,1,3L453.27,315.9l26.32,19.83a1.68,1.68,0,0,1-.85,3.12Z" style="fill: #44484f"/>
      <path d="M72.82,90.58a2.91,2.91,0,1,1-3,2.81,2.91,2.91,0,0,1,3-2.81Zm-.31,8.87a6,6,0,1,0-5.75-6.17,6,6,0,0,0,5.75,6.17Z" style="fill: #91d4f4"/>
      <path d="M72.72,91.42a2.07,2.07,0,0,0-.07,4.15h0a2.07,2.07,0,0,0,.14-4.15Zm0,5.83h-.13a3.75,3.75,0,0,1,.13-7.5h.13a3.75,3.75,0,0,1-.13,7.5Zm0-8.88a5.13,5.13,0,0,0-.18,10.25h.18a5.13,5.13,0,0,0,.18-10.25Zm0,11.93h-.24a6.81,6.81,0,1,1,.24,0Z" style="fill: #44484f"/>
      <path d="M73,85a8.38,8.38,0,1,1-8.67,8.08A8.38,8.38,0,0,1,73,85ZM55.58,95.52l4.65.16a12.63,12.63,0,0,0,1.56,4.17L58.38,103a1.86,1.86,0,0,0-.09,2.63l1.18,1.27a1.86,1.86,0,0,0,2.63.09l3.4-3.17h0a12.62,12.62,0,0,0,4.05,1.85l-.16,4.65a1.86,1.86,0,0,0,1.8,1.93l1.74.06a1.86,1.86,0,0,0,1.93-1.8l.16-4.65a12.63,12.63,0,0,0,4.17-1.56h0l3.17,3.4a1.86,1.86,0,0,0,2.63.09l1.27-1.18a1.86,1.86,0,0,0,.09-2.63l-3.17-3.4A12.64,12.64,0,0,0,85,96.55l4.65.16a1.86,1.86,0,0,0,1.93-1.8l.06-1.74a1.86,1.86,0,0,0-1.8-1.93l-4.65-.16a12.63,12.63,0,0,0-1.56-4.17l3.4-3.17a1.86,1.86,0,0,0,.09-2.63L86,79.85a1.86,1.86,0,0,0-2.63-.09l-3.4,3.17a12.64,12.64,0,0,0-4.05-1.85l.16-4.65a1.86,1.86,0,0,0-1.8-1.93l-1.74-.06a1.86,1.86,0,0,0-1.93,1.8l-.16,4.65a12.64,12.64,0,0,0-4.17,1.56L63.09,79A1.86,1.86,0,0,0,60.46,79l-1.27,1.18a1.86,1.86,0,0,0-.09,2.63l3.17,3.4a12.65,12.65,0,0,0-1.85,4.05l-4.65-.16a1.86,1.86,0,0,0-1.93,1.8l-.06,1.74a1.86,1.86,0,0,0,1.8,1.93Z" style="fill: #91d4f4"/>
      <path d="M72.72,85.85a7.55,7.55,0,1,0,.27,0Zm0,16.76H72.4a9.2,9.2,0,1,1,.33,0Zm-7.22.4a.84.84,0,0,1,.48.15,11.77,11.77,0,0,0,3.78,1.73.84.84,0,0,1,.63.84l-.16,4.65a1,1,0,0,0,1,1.06l1.74.06,0,.84v-.84a1,1,0,0,0,1-1l.16-4.65a.84.84,0,0,1,.69-.8,11.75,11.75,0,0,0,3.9-1.46.84.84,0,0,1,1,.15l3.17,3.4a1,1,0,0,0,1.45.05L85.7,106a1,1,0,0,0,.05-1.45l-3.17-3.4a.84.84,0,0,1-.08-1,11.75,11.75,0,0,0,1.73-3.78.81.81,0,0,1,.84-.63l4.65.16h0a1,1,0,0,0,1.06-1l.06-1.74a1,1,0,0,0-1-1.06l-4.65-.16a.84.84,0,0,1-.8-.69,11.76,11.76,0,0,0-1.46-3.9.84.84,0,0,1,.15-1l3.4-3.17a1,1,0,0,0,.05-1.45l-1.18-1.27a1,1,0,0,0-1.45-.05l-3.4,3.17a.84.84,0,0,1-1,.08,11.78,11.78,0,0,0-3.78-1.73.84.84,0,0,1-.63-.84l.16-4.65a1,1,0,0,0-1-1.06l-1.74-.06h0a1,1,0,0,0-1.06,1l-.16,4.65a.84.84,0,0,1-.69.8,11.76,11.76,0,0,0-3.9,1.46.84.84,0,0,1-1-.15l-3.17-3.4A1,1,0,0,0,61,79.57l-1.27,1.18a1,1,0,0,0-.05,1.45l3.17,3.4a.84.84,0,0,1,.08,1,11.78,11.78,0,0,0-1.73,3.79.83.83,0,0,1-.84.63l-4.65-.16h0a1,1,0,0,0-1.06,1l-.06,1.74a1,1,0,0,0,1,1.06l4.65.16a.84.84,0,0,1,.8.69,11.76,11.76,0,0,0,1.46,3.9.84.84,0,0,1-.15,1L59,103.64a1,1,0,0,0-.05,1.45l1.18,1.27a1,1,0,0,0,.75.33h0a1,1,0,0,0,.7-.28l3.4-3.17a.84.84,0,0,1,.57-.23ZM73,113.18h-.1l-1.74-.06a2.7,2.7,0,0,1-2.6-2.79l.14-4a13.4,13.4,0,0,1-3.1-1.42l-2.92,2.72a2.69,2.69,0,0,1-1.84.73h0a2.71,2.71,0,0,1-2-.86l-1.18-1.27a2.7,2.7,0,0,1,.13-3.82l2.92-2.72a13.43,13.43,0,0,1-1.2-3.19l-4-.14a2.7,2.7,0,0,1-2.6-2.79L53,91.83a2.69,2.69,0,0,1,2.7-2.61h.1l4,.14a13.45,13.45,0,0,1,1.42-3.1l-2.72-2.92a2.7,2.7,0,0,1,.13-3.82l1.27-1.18a2.78,2.78,0,0,1,3.82.13l2.72,2.92a13.39,13.39,0,0,1,3.19-1.2l.14-4a2.69,2.69,0,0,1,2.7-2.61h.1l1.74.06a2.7,2.7,0,0,1,2.6,2.79l-.14,4a13.44,13.44,0,0,1,3.1,1.42l2.92-2.72a2.78,2.78,0,0,1,3.82.13l1.18,1.27a2.7,2.7,0,0,1-.13,3.82l-2.92,2.72a13.44,13.44,0,0,1,1.2,3.19l4,.14a2.7,2.7,0,0,1,2.6,2.79L92.45,95a2.69,2.69,0,0,1-2.7,2.61h-.1l-4-.14a13.42,13.42,0,0,1-1.42,3.1L87,103.44a2.7,2.7,0,0,1-.13,3.82l-1.27,1.18a2.78,2.78,0,0,1-3.82-.13L79,105.38a13.4,13.4,0,0,1-3.19,1.19l-.14,4a2.69,2.69,0,0,1-2.7,2.61Z" style="fill: #44484f"/>
      <path d="M98.91,103a4.39,4.39,0,1,1-4.19,4.57A4.39,4.39,0,0,1,98.91,103Zm-8.67,6.2,2.43-.11a6.62,6.62,0,0,0,1,2.11L92,113a1,1,0,0,0,.06,1.38l.67.61a1,1,0,0,0,1.38-.06l1.65-1.79h0a6.62,6.62,0,0,0,2.19.8l.11,2.43a1,1,0,0,0,1,.93l.91,0a1,1,0,0,0,.93-1l-.11-2.43a6.6,6.6,0,0,0,2.11-1h0l1.79,1.65a1,1,0,0,0,1.38-.06l.61-.67a1,1,0,0,0-.06-1.38l-1.79-1.65a6.61,6.61,0,0,0,.8-2.19l2.43-.11a1,1,0,0,0,.93-1l0-.91a1,1,0,0,0-1-.93l-2.43.11a6.61,6.61,0,0,0-1-2.11l1.65-1.79a1,1,0,0,0-.06-1.38l-.67-.61a1,1,0,0,0-1.38.06l-1.65,1.79a6.61,6.61,0,0,0-2.19-.8l-.11-2.43a1,1,0,0,0-1-.93l-.91,0a1,1,0,0,0-.93,1l.11,2.43a6.61,6.61,0,0,0-2.11,1l-1.79-1.65a1,1,0,0,0-1.38.06l-.61.67a1,1,0,0,0,.06,1.38L93.35,104a6.61,6.61,0,0,0-.8,2.19l-2.43.11a1,1,0,0,0-.93,1l0,.91a1,1,0,0,0,1,.93Z" style="fill: #cbd7d6"/>
      <path d="M99.11,103.79h-.16a3.55,3.55,0,0,0,.15,7.09h.16a3.55,3.55,0,0,0-.15-7.09Zm0,8.77a5.2,5.2,0,1,1,.23,0Zm-3.33-.31a.84.84,0,0,1,.42.11,5.76,5.76,0,0,0,1.91.7.84.84,0,0,1,.69.79l.11,2.43a.14.14,0,0,0,.14.13v0l.91,0a.15.15,0,0,0,.13-.14l-.11-2.43a.84.84,0,0,1,.62-.85,5.76,5.76,0,0,0,1.85-.86.84.84,0,0,1,1,.07l1.79,1.65a.12.12,0,0,0,.19,0l.61-.67a.14.14,0,0,0,0-.19l-1.79-1.65a.84.84,0,0,1-.16-1,5.77,5.77,0,0,0,.7-1.91.84.84,0,0,1,.79-.69l2.43-.11a.14.14,0,0,0,.13-.14l0-.91a.14.14,0,0,0-.14-.13l-2.44.11a.85.85,0,0,1-.85-.62,5.74,5.74,0,0,0-.86-1.85.84.84,0,0,1,.07-1l1.65-1.79V101l-.67-.61a.12.12,0,0,0-.19,0l-1.65,1.79a.84.84,0,0,1-1,.16,5.75,5.75,0,0,0-1.91-.7.84.84,0,0,1-.69-.79l-.11-2.43a.14.14,0,0,0-.14-.13l-.92,0a.14.14,0,0,0-.13.14l.1,2.43a.84.84,0,0,1-.62.85,5.75,5.75,0,0,0-1.85.86.84.84,0,0,1-1-.07l-1.79-1.65a.12.12,0,0,0-.19,0l-.61.67a.14.14,0,0,0,0,.19l1.79,1.64a.84.84,0,0,1,.16,1,5.76,5.76,0,0,0-.7,1.91.84.84,0,0,1-.79.69l-2.43.11a.15.15,0,0,0-.13.14l0,.91a.14.14,0,0,0,.14.13l2.44-.11a.85.85,0,0,1,.85.62,5.76,5.76,0,0,0,.86,1.85.84.84,0,0,1-.07,1l-1.65,1.79v.19l.67.62a.12.12,0,0,0,.19,0l1.65-1.79a.84.84,0,0,1,.62-.27ZM99,118.1a1.81,1.81,0,0,1-1.81-1.73l-.08-1.79a7.4,7.4,0,0,1-1.2-.44l-1.21,1.32a1.87,1.87,0,0,1-2.56.11l-.67-.61a1.81,1.81,0,0,1-.11-2.56l1.21-1.32a7.48,7.48,0,0,1-.54-1.16l-1.79.08h0a1.83,1.83,0,0,1-1.89-1.73l0-.91a1.81,1.81,0,0,1,1.73-1.89l1.79-.08a7.45,7.45,0,0,1,.44-1.2L91,103a1.82,1.82,0,0,1-.11-2.56l.61-.67a1.87,1.87,0,0,1,2.56-.11l1.32,1.21a7.45,7.45,0,0,1,1.16-.54l-.08-1.79a1.81,1.81,0,0,1,1.73-1.89l.91,0h0A1.83,1.83,0,0,1,101,98.32l.08,1.79a7.42,7.42,0,0,1,1.2.44l1.21-1.32a1.87,1.87,0,0,1,2.56-.11l.67.61a1.81,1.81,0,0,1,.11,2.56l-1.21,1.32a7.33,7.33,0,0,1,.54,1.16l1.79-.08h0a1.82,1.82,0,0,1,1.89,1.73l0,.91a1.81,1.81,0,0,1-1.73,1.89l-1.79.08a7.39,7.39,0,0,1-.44,1.2l1.32,1.21a1.82,1.82,0,0,1,.11,2.56l-.61.67a1.87,1.87,0,0,1-2.56.11l-1.32-1.21a7.35,7.35,0,0,1-1.16.54l.08,1.79a1.81,1.81,0,0,1-1.73,1.89l-.91,0Z" style="fill: #44484f"/>
      <path d="M561.9,350.72H1.68a1.68,1.68,0,1,1,0-3.35H561.9a1.68,1.68,0,0,1,0,3.35Z" style="fill: #44484f"/>
      <path d="M421.37,361.33H155.78a1.68,1.68,0,1,1,0-3.35H421.37a1.68,1.68,0,0,1,0,3.35Z" style="fill: #44484f"/>
      <path d="M119.56,372H89.83a1.68,1.68,0,1,1,0-3.35h29.72a1.68,1.68,0,1,1,0,3.35Z" style="fill: #44484f"/>
      <path d="M182.33,372H170.06a1.68,1.68,0,1,1,0-3.35h12.27a1.68,1.68,0,1,1,0,3.35Z" style="fill: #44484f"/>
      <path d="M260,372H200.9a1.68,1.68,0,1,1,0-3.35H260a1.68,1.68,0,0,1,0,3.35Z" style="fill: #44484f"/>
      <path d="M355.42,372h-25a1.68,1.68,0,1,1,0-3.35h25a1.68,1.68,0,0,1,0,3.35Z" style="fill: #44484f"/>
      <path d="M284.07,65.71H510.85V57.52L461.5,46.65H284.07V65.71Zm228.45,3.35H282.4a1.68,1.68,0,0,1-1.68-1.68V45a1.68,1.68,0,0,1,1.68-1.68H461.69a1.69,1.69,0,0,1,.36,0l50.84,11.2a1.68,1.68,0,0,1,1.31,1.64V67.38a1.67,1.67,0,0,1-1.67,1.68Z" style="fill: #44484f"/>
      <path d="M461.68,69.06A1.68,1.68,0,0,1,460,67.38V23L450.5,5.22,441,23V45a1.68,1.68,0,1,1-3.35,0V22.56a1.67,1.67,0,0,1,.2-.79L449,.88A1.68,1.68,0,0,1,450.5,0h0A1.67,1.67,0,0,1,452,.88l11.18,20.89a1.68,1.68,0,0,1,.2.79V67.38a1.68,1.68,0,0,1-1.68,1.68Z" style="fill: #44484f"/>
      <path d="M439.27,69.06a1.68,1.68,0,0,1-1.68-1.68V45A1.68,1.68,0,1,1,441,45V67.38a1.68,1.68,0,0,1-1.68,1.68Z" style="fill: #44484f"/>
      <path d="M420.91,65.71h14.32l-7.16-7.16-7.16,7.16Zm18.36,3.35H416.86a1.68,1.68,0,0,1-1.18-2.86L426.88,55a1.73,1.73,0,0,1,2.37,0L440.46,66.2a1.68,1.68,0,0,1-1.19,2.86Z" style="fill: #44484f"/>
      <path d="M420.91,46.65l7.16,7.16,7.16-7.16Zm7.16,11.21a1.67,1.67,0,0,1-1.19-.49L415.68,46.16a1.68,1.68,0,0,1,1.18-2.86h22.41a1.68,1.68,0,0,1,1.19,2.86L429.25,57.36a1.67,1.67,0,0,1-1.18.49Z" style="fill: #44484f"/>
      <path d="M416.86,69.06a1.68,1.68,0,0,1-1.68-1.68V45a1.68,1.68,0,1,1,3.35,0V67.38a1.68,1.68,0,0,1-1.68,1.68Z" style="fill: #44484f"/>
      <path d="M398.5,65.71h14.32l-7.16-7.16-7.16,7.16Zm18.36,3.35H394.45a1.68,1.68,0,0,1-1.19-2.86L404.47,55a1.73,1.73,0,0,1,2.37,0L418,66.2a1.68,1.68,0,0,1-1.18,2.86Z" style="fill: #44484f"/>
      <path d="M398.5,46.65l7.16,7.16,7.16-7.16Zm7.16,11.21a1.67,1.67,0,0,1-1.19-.49L393.27,46.16a1.68,1.68,0,0,1,1.19-2.86h22.41A1.68,1.68,0,0,1,418,46.16L406.84,57.36a1.67,1.67,0,0,1-1.18.49Z" style="fill: #44484f"/>
      <path d="M394.45,69.06a1.68,1.68,0,0,1-1.68-1.68V45a1.68,1.68,0,1,1,3.35,0V67.38a1.68,1.68,0,0,1-1.68,1.68Z" style="fill: #44484f"/>
      <path d="M376.09,65.71h14.32l-7.16-7.16-7.16,7.16Zm18.37,3.35H372a1.68,1.68,0,0,1-1.19-2.86L382.06,55a1.73,1.73,0,0,1,2.37,0L395.64,66.2a1.68,1.68,0,0,1-1.18,2.86Z" style="fill: #44484f"/>
      <path d="M376.09,46.65l7.16,7.16,7.16-7.16Zm7.16,11.21a1.67,1.67,0,0,1-1.19-.49L370.86,46.16A1.68,1.68,0,0,1,372,43.3h22.41a1.68,1.68,0,0,1,1.18,2.86L384.43,57.36a1.67,1.67,0,0,1-1.18.49Z" style="fill: #44484f"/>
      <path d="M372,69.06a1.68,1.68,0,0,1-1.68-1.68V45a1.68,1.68,0,1,1,3.35,0V67.38A1.68,1.68,0,0,1,372,69.06Z" style="fill: #44484f"/>
      <path d="M353.68,65.71H368l-7.16-7.16-7.16,7.16ZM372,69.06H349.63a1.68,1.68,0,0,1-1.18-2.86L359.65,55A1.73,1.73,0,0,1,362,55L373.23,66.2A1.68,1.68,0,0,1,372,69.06Z" style="fill: #44484f"/>
      <path d="M353.68,46.65l7.16,7.16L368,46.65Zm7.16,11.21a1.67,1.67,0,0,1-1.19-.49L348.45,46.16a1.68,1.68,0,0,1,1.18-2.86H372a1.68,1.68,0,0,1,1.18,2.86L362,57.36a1.67,1.67,0,0,1-1.18.49Z" style="fill: #44484f"/>
      <path d="M349.63,69.06A1.68,1.68,0,0,1,348,67.38V45a1.68,1.68,0,1,1,3.35,0V67.38a1.68,1.68,0,0,1-1.68,1.68Z" style="fill: #44484f"/>
      <path d="M331.27,65.71h14.32l-7.16-7.16-7.16,7.16Zm18.36,3.35H327.22A1.68,1.68,0,0,1,326,66.2L337.24,55a1.73,1.73,0,0,1,2.37,0L350.82,66.2a1.68,1.68,0,0,1-1.19,2.86Z" style="fill: #44484f"/>
      <path d="M331.27,46.65l7.16,7.16,7.16-7.16Zm7.16,11.21a1.67,1.67,0,0,1-1.18-.49L326,46.16a1.68,1.68,0,0,1,1.18-2.86h22.41a1.68,1.68,0,0,1,1.19,2.86L339.61,57.36a1.67,1.67,0,0,1-1.19.49Z" style="fill: #44484f"/>
      <path d="M327.22,69.06a1.68,1.68,0,0,1-1.68-1.68V45a1.68,1.68,0,0,1,3.35,0V67.38a1.68,1.68,0,0,1-1.68,1.68Z" style="fill: #44484f"/>
      <path d="M308.86,65.71h14.32L316,58.55l-7.16,7.16Zm18.36,3.35H304.81a1.68,1.68,0,0,1-1.19-2.86L314.83,55a1.73,1.73,0,0,1,2.37,0L328.41,66.2a1.68,1.68,0,0,1-1.19,2.86Z" style="fill: #44484f"/>
      <path d="M308.86,46.65,316,53.81l7.16-7.16ZM316,57.85a1.67,1.67,0,0,1-1.18-.49L303.62,46.16a1.68,1.68,0,0,1,1.19-2.86h22.41a1.68,1.68,0,0,1,1.19,2.86L317.2,57.36a1.67,1.67,0,0,1-1.19.49Z" style="fill: #44484f"/>
      <path d="M304.81,69.06a1.68,1.68,0,0,1-1.68-1.68V45a1.68,1.68,0,0,1,3.35,0V67.38a1.68,1.68,0,0,1-1.68,1.68Z" style="fill: #44484f"/>
      <path d="M286.44,65.71h14.32l-7.16-7.16-7.16,7.16Zm18.37,3.35H282.4a1.68,1.68,0,0,1-1.19-2.86L292.42,55a1.72,1.72,0,0,1,2.37,0L306,66.2a1.68,1.68,0,0,1-1.18,2.86Z" style="fill: #44484f"/>
      <path d="M286.44,46.65l7.16,7.16,7.16-7.16Zm7.16,11.21a1.67,1.67,0,0,1-1.18-.49L281.21,46.16a1.68,1.68,0,0,1,1.19-2.86h22.41A1.68,1.68,0,0,1,306,46.16L294.79,57.36a1.67,1.67,0,0,1-1.18.49Z" style="fill: #44484f"/>
      <path d="M282.4,69.06a1.68,1.68,0,0,1-1.68-1.68V45a1.68,1.68,0,1,1,3.35,0V67.38a1.68,1.68,0,0,1-1.68,1.68Z" style="fill: #44484f"/>
      <path d="M233.92,65.71h46.8V46.89L233.92,53.4V65.71Zm48.48,3.35H232.24a1.68,1.68,0,0,1-1.68-1.68V51.94A1.68,1.68,0,0,1,232,50.28l50.16-7A1.68,1.68,0,0,1,284.08,45V67.38a1.68,1.68,0,0,1-1.68,1.68Z" style="fill: #44484f"/>
      <path d="M484.88,74.73h26V69.42h-26v5.31Zm27.65,3.35H483.2a1.68,1.68,0,0,1-1.68-1.68V67.75a1.68,1.68,0,0,1,1.68-1.68h29.33a1.67,1.67,0,0,1,1.67,1.68v8.66a1.68,1.68,0,0,1-1.67,1.68Z" style="fill: #44484f"/>
      <polygon points="486.51 349.04 414.45 349.04 414.45 337.17 486.51 337.17 486.51 349.04 486.51 349.04" style="fill: #4db7e8"/>
      <path d="M416.12,347.37h68.71v-8.52H416.12v8.52Zm70.39,3.35H414.45a1.68,1.68,0,0,1-1.68-1.68V337.17a1.68,1.68,0,0,1,1.68-1.68h72.06a1.68,1.68,0,0,1,1.68,1.68V349a1.68,1.68,0,0,1-1.68,1.68Z" style="fill: #44484f"/>
      <path d="M387.43,241.66a.84.84,0,0,1-.59-1.43l2.15-2.15L386.91,236a.84.84,0,0,1,1.19-1.18l2.68,2.68a.84.84,0,0,1,0,1.18L388,241.42a.83.83,0,0,1-.59.25Z" style="fill: #44484f"/>
      <path d="M106.52,241.66a.83.83,0,0,1-.59-.25l-2.75-2.75a.84.84,0,0,1,0-1.18l2.68-2.68A.84.84,0,0,1,107,236L105,238.08l2.15,2.15a.84.84,0,0,1-.59,1.43Z" style="fill: #44484f"/>
      <polygon points="52.85 344.07 31.2 344.07 37.89 314.78 46.16 314.78 52.85 344.07 52.85 344.07" style="fill: #ef5655"/>
      <path d="M33.3,342.39H50.75l-5.93-25.94h-5.6L33.3,342.39Zm19.57,3.35H31.2a1.68,1.68,0,0,1-1.63-2l6.7-29.29a1.68,1.68,0,0,1,1.63-1.3h8.27a1.68,1.68,0,0,1,1.63,1.3l6.64,29.07a1.68,1.68,0,0,1-1.57,2.28Z" style="fill: #44484f"/>
      <polygon points="33.69 333.15 50.36 333.15 48.3 324.14 35.75 324.14 33.69 333.15 33.69 333.15" style="fill: #fff"/>
      <path d="M35.8,331.47H48.26L47,325.82H37.09l-1.29,5.66Zm14.56,3.35H33.69a1.68,1.68,0,0,1-1.63-2l2.06-9a1.68,1.68,0,0,1,1.63-1.3H48.3a1.68,1.68,0,0,1,1.63,1.3l2.06,9a1.68,1.68,0,0,1-1.63,2Z" style="fill: #44484f"/>
      <polygon points="56.17 349.04 27.89 349.04 27.89 344.07 56.17 344.07 56.17 349.04 56.17 349.04" style="fill: #ef5655"/>
      <path d="M29.56,347.37H54.49v-1.62H29.56v1.62Zm26.6,3.35H27.89A1.68,1.68,0,0,1,26.21,349v-5a1.68,1.68,0,0,1,1.68-1.68H56.17a1.68,1.68,0,0,1,1.68,1.68v5a1.68,1.68,0,0,1-1.68,1.68Z" style="fill: #44484f"/>
      <polygon points="366.76 344.33 373.76 323.84 399.32 339.64 396.65 347.47 366.76 344.33 366.76 344.33" style="fill: #ef5655"/>
      <path d="M369,342.89l26.47,2.78,1.81-5.3-22.63-14L369,342.89Zm27.62,6.26h-.18L366.59,346a1.68,1.68,0,0,1-1.41-2.21l7-20.5a1.68,1.68,0,0,1,2.47-.88l25.56,15.81a1.68,1.68,0,0,1,.7,2L398.23,348a1.68,1.68,0,0,1-1.58,1.13Z" style="fill: #44484f"/>
      <polygon points="383.29 329.73 377.9 345.5 387.09 346.46 391.15 334.59 383.29 329.73 383.29 329.73" style="fill: #fff"/>
      <path d="M380.17,344.05l5.77.61,3.19-9.35-4.93-3.05-4,11.79Zm6.93,4.09h-.18l-9.19-1a1.68,1.68,0,0,1-1.41-2.21l5.39-15.77a1.68,1.68,0,0,1,2.47-.88l7.86,4.86a1.68,1.68,0,0,1,.7,2L388.68,347a1.68,1.68,0,0,1-1.59,1.13Z" style="fill: #44484f"/>
      <polygon points="360.99 345.86 370.13 319.1 374.83 320.7 365.69 347.47 360.99 345.86 360.99 345.86" style="fill: #ef5655"/>
      <path d="M363.11,344.82l1.53.52,8.06-23.59-1.53-.52-8.06,23.59Zm2.58,4.33a1.67,1.67,0,0,1-.54-.09l-4.71-1.61a1.67,1.67,0,0,1-1-2.13l9.14-26.76a1.67,1.67,0,0,1,2.13-1l4.7,1.61a1.68,1.68,0,0,1,1,2.13L367.28,348a1.68,1.68,0,0,1-1.59,1.14Z" style="fill: #44484f"/>
      <path d="M78.63,196.7a14.84,14.84,0,1,1-14.84-14.84A14.84,14.84,0,0,1,78.63,196.7Z" style="fill: #fac215"/>
      <path d="M63.78,183.11A13.59,13.59,0,1,0,77.37,196.7a13.6,13.6,0,0,0-13.59-13.59Zm0,29.69a16.1,16.1,0,1,1,16.1-16.1,16.12,16.12,0,0,1-16.1,16.1Z" style="fill: #44484f"/>
      <path d="M61.73,202.84A.84.84,0,0,1,61,201.7L65,191.09a.84.84,0,1,1,1.56.6l-4.1,10.61a.84.84,0,0,1-.78.54Z" style="fill: #44484f"/>
      <path d="M67.26,200.42a.84.84,0,0,1-.37-1.59l4.29-2.13-4.29-2.13a.84.84,0,1,1,.75-1.5l5.76,2.87a.84.84,0,0,1,.46.75.88.88,0,0,1-.46.78l-5.76,2.87a.84.84,0,0,1-.37.09Z" style="fill: #44484f"/>
      <path d="M60.3,200.42a.84.84,0,0,1-.37-.09l-5.76-2.87a.84.84,0,0,1-.46-.75.88.88,0,0,1,.46-.78l5.76-2.87a.84.84,0,1,1,.75,1.5l-4.29,2.13,4.29,2.13a.84.84,0,0,1-.37,1.59Z" style="fill: #44484f"/>
      <path d="M348.48,329.73a14.84,14.84,0,1,1-14.84-14.84,14.84,14.84,0,0,1,14.84,14.84Z" style="fill: #91d4f4"/>
      <path d="M333.63,316.14a13.59,13.59,0,1,0,13.59,13.59,13.6,13.6,0,0,0-13.59-13.59Zm0,29.69a16.1,16.1,0,1,1,16.1-16.1,16.12,16.12,0,0,1-16.1,16.1Z" style="fill: #44484f"/>
      <path d="M329.14,335.87a.82.82,0,0,1-.3-.06.84.84,0,0,1-.48-1.08l4.1-10.61a.84.84,0,0,1,1.56.6l-4.1,10.61a.84.84,0,0,1-.78.54Z" style="fill: #44484f"/>
      <path d="M334,335.87a.83.83,0,0,1-.3-.06.84.84,0,0,1-.48-1.08l4.1-10.61a.84.84,0,0,1,1.56.6l-4.1,10.61a.84.84,0,0,1-.78.54Z" style="fill: #44484f"/>
      <path d="M504.5,212.61a1.25,1.25,0,0,1-.89-.37l-6.9-6.9a1.26,1.26,0,0,1,1.78-1.78l6.9,6.9a1.26,1.26,0,0,1-.89,2.15Z" style="fill: #44484f"/>
      <path d="M497.6,212.61a1.26,1.26,0,0,1-.89-2.15l6.9-6.9a1.26,1.26,0,1,1,1.78,1.78l-6.9,6.9a1.25,1.25,0,0,1-.89.37Z" style="fill: #44484f"/>
      <path d="M45.48,264.16a1.25,1.25,0,0,1-.89-.37l-6.9-6.9a1.26,1.26,0,0,1,1.78-1.78l6.9,6.9a1.26,1.26,0,0,1-.89,2.15Z" style="fill: #44484f"/>
      <path d="M38.58,264.16a1.26,1.26,0,0,1-.89-2.15l6.9-6.9a1.26,1.26,0,0,1,1.78,1.78l-6.9,6.9a1.25,1.25,0,0,1-.89.37Z" style="fill: #44484f"/>
      <path d="M270.34,333.35a1.25,1.25,0,0,1-.89-.37l-6.9-6.9a1.26,1.26,0,1,1,1.78-1.78l6.9,6.9a1.26,1.26,0,0,1-.89,2.15Z" style="fill: #44484f"/>
      <path d="M263.43,333.35a1.26,1.26,0,0,1-.89-2.15l6.9-6.9a1.26,1.26,0,0,1,1.78,1.78l-6.9,6.9a1.25,1.25,0,0,1-.89.37Z" style="fill: #44484f"/>
      <path d="M173.54,103.56a1.26,1.26,0,0,1-1.26-1.26V92.54a1.26,1.26,0,1,1,2.51,0v9.76a1.26,1.26,0,0,1-1.26,1.26Z" style="fill: #44484f"/>
      <path d="M178.42,98.68h-9.76a1.26,1.26,0,0,1,0-2.51h9.76a1.26,1.26,0,0,1,0,2.51Z" style="fill: #44484f"/>
      <path d="M532.07,330.56a1.26,1.26,0,0,1-1.26-1.26v-9.76a1.26,1.26,0,0,1,2.51,0v9.76a1.26,1.26,0,0,1-1.26,1.26Z" style="fill: #44484f"/>
      <path d="M537,325.68h-9.76a1.26,1.26,0,0,1,0-2.51H537a1.26,1.26,0,0,1,0,2.51Z" style="fill: #44484f"/>
      <path d="M395.36,151h-.22L247,131.16,98.9,151a1.68,1.68,0,0,1-.44-3.32l148.34-19.86a1.68,1.68,0,0,1,.44,0l148.34,19.86a1.68,1.68,0,0,1-.22,3.34Z" style="fill: #44484f"/>
      <path d="M247,98.45a1.68,1.68,0,0,1-1.68-1.68V67.38a1.68,1.68,0,0,1,3.35,0V96.78A1.68,1.68,0,0,1,247,98.45Z" style="fill: #44484f"/>
      <polygon points="250.8 114.41 243.12 114.41 243.12 96.78 250.8 96.78 250.8 114.41 250.8 114.41" style="fill: #4db7e8"/>
      <path d="M244.79,112.73h4.33V98.45h-4.33v14.28Zm6,3.35h-7.68a1.68,1.68,0,0,1-1.68-1.68V96.78a1.68,1.68,0,0,1,1.68-1.68h7.68a1.68,1.68,0,0,1,1.68,1.68v17.63a1.68,1.68,0,0,1-1.68,1.68Z" style="fill: #44484f"/>
      <path d="M247.22,136.61a9.32,9.32,0,0,1-1.68-18.49v-3.71a1.68,1.68,0,1,1,3.35,0v5.24a1.68,1.68,0,0,1-1.68,1.68,6,6,0,1,0,6,6,1.68,1.68,0,0,1,3.35,0,9.33,9.33,0,0,1-9.32,9.32Z" style="fill: #44484f"/>
      <path d="M489.94,118.52h-2.81a1.26,1.26,0,0,1,0-2.51h2.81a1.26,1.26,0,1,1,0,2.51Z" style="fill: #44484f"/>
      <path d="M496.23,118.52h-2.81a1.26,1.26,0,1,1,0-2.51h2.81a1.26,1.26,0,0,1,0,2.51Z" style="fill: #44484f"/>
      <path d="M513.64,118.52H499.7a1.26,1.26,0,1,1,0-2.51h13.94a1.26,1.26,0,0,1,0,2.51Z" style="fill: #44484f"/>
      <path d="M86.08,166H83.27a1.26,1.26,0,0,1,0-2.51h2.81a1.26,1.26,0,0,1,0,2.51Z" style="fill: #44484f"/>
      <path d="M79.8,166H77a1.26,1.26,0,0,1,0-2.51H79.8a1.26,1.26,0,0,1,0,2.51Z" style="fill: #44484f"/>
      <path d="M73.51,166H59.58a1.26,1.26,0,1,1,0-2.51H73.51a1.26,1.26,0,1,1,0,2.51Z" style="fill: #44484f"/>
      <path d="M512.53,57.85a1.66,1.66,0,0,1-1.1-.42L450.06,3.52,282.82,46.59a1.68,1.68,0,1,1-.84-3.25L450.09.05a1.68,1.68,0,0,1,1.52.36l62,54.5a1.68,1.68,0,0,1-1.1,2.94Z" style="fill: #44484f"/>
      <path d="M120.23,324.73a1.25,1.25,0,0,1-.89-.37L115,320a1.26,1.26,0,1,1,1.78-1.78l3.44,3.44,8.5-8.5A1.26,1.26,0,1,1,130.5,315l-9.39,9.39a1.25,1.25,0,0,1-.89.37Z" style="fill: #44484f"/>
      <path d="M134,325.4h-4.43a1.26,1.26,0,1,1,0-2.51H134a1.26,1.26,0,1,1,0,2.51Z" style="fill: #44484f"/>
      <path d="M156.79,325.4h-18.5a1.26,1.26,0,1,1,0-2.51h18.5a1.26,1.26,0,0,1,0,2.51Z" style="fill: #44484f"/>
      <path d="M367.13,113a1.25,1.25,0,0,1-.89-.37l-4.33-4.33a1.26,1.26,0,1,1,1.78-1.78l3.44,3.44,8.5-8.5a1.26,1.26,0,0,1,1.78,1.78L368,112.59a1.25,1.25,0,0,1-.89.37Z" style="fill: #44484f"/>
      <path d="M380.95,113.63h-4.43a1.26,1.26,0,1,1,0-2.51h4.43a1.26,1.26,0,1,1,0,2.51Z" style="fill: #44484f"/>
      <path d="M403.69,113.63h-18.5a1.26,1.26,0,0,1,0-2.51h18.5a1.26,1.26,0,0,1,0,2.51Z" style="fill: #44484f"/>
      <path d="M301.64,326.45H277.33a1.26,1.26,0,0,1,0-2.51h24.31a1.26,1.26,0,0,1,0,2.51Z" style="fill: #44484f"/>
      <path d="M291.09,333.35H277.33a1.26,1.26,0,0,1,0-2.51h13.76a1.26,1.26,0,0,1,0,2.51Z" style="fill: #44484f"/>
      <polygon points="70.14 245.11 60.3 245.11 60.3 235.28 70.14 235.28 70.14 245.11 70.14 245.11" style="fill: #91d4f4"/>
      <polygon points="421.78 162.4 411.94 162.4 411.94 152.56 421.78 152.56 421.78 162.4 421.78 162.4" style="fill: #ef5655"/>
      <path d="M514.5,317.92a3.6,3.6,0,1,1-3.6-3.6,3.59,3.59,0,0,1,3.6,3.6Z" style="fill: #4db7e8"/>
      <path d="M11.11,162.4a3.6,3.6,0,1,1-3.6-3.6,3.6,3.6,0,0,1,3.6,3.6Z" style="fill: #cbd7d6"/>
      <path d="M521.69,179.89a3.6,3.6,0,1,1-3.6-3.6,3.6,3.6,0,0,1,3.6,3.6Z" style="fill: #dae585"/>
      <path d="M483.86,146.09a3.6,3.6,0,1,1-3.6-3.6,3.6,3.6,0,0,1,3.6,3.6Z" style="fill: #fac215"/>
    </g>
    <g>
      <path d="M157.25,250.55l.49,3.94a39.71,39.71,0,0,1-8.06.75h-7.3v-4.16H146a7.75,7.75,0,0,1-1.68-4.69,13,13,0,0,1,1.37-5.62,11.34,11.34,0,0,1,6.07-1.5,16.4,16.4,0,0,1,4.47.66l0,3.72-.18.18a25.6,25.6,0,0,0-4.74-.44,11.9,11.9,0,0,0-3.14.4,9.08,9.08,0,0,0-.27,2.21,7.8,7.8,0,0,0,1.86,5.09A44.06,44.06,0,0,0,157.25,250.55Z" style="fill: #44484f"/>
      <path d="M173.1,251.26v3.5l-.44.49H164V222h4v28.69h4.69Z" style="fill: #44484f"/>
      <path d="M209,251.21v3.59l-.44.44h-.84a7.4,7.4,0,0,1-5.14-2.39l-1.5,2.39a19.62,19.62,0,0,1-10.18-2.57l-1.73,2.57a14.25,14.25,0,0,1-8.28-2.43l-.35,2.43h-7.88l-.44-.35v-3.81l.44-.35h4.69l1.59-11.2h4l-1.51,10a16.59,16.59,0,0,0,6.46,1.24l1.42-11.2h4L192,249.62a26.75,26.75,0,0,0,7.75,1.11q-.8-6.2-1.86-12l4-.88q1.2,6.73,1.86,11.87a7.12,7.12,0,0,0,4.16,1.06h.66Zm-22-16.16-2.88-3.41,3.63-3.05,2.83,3.41Zm3.41-5.89-2.79-3.36,3.54-3L194,226.2Zm.09,2.52,3.63-3,2.83,3.41-3.59,3Z" style="fill: #44484f"/>
      <path d="M215.65,237.49h4v17.75H208.56l-.62-.62v-3.41l.62-.49h7.08Zm1.42-3.54-2.92-3.45,3.72-3.05,2.88,3.45Z" style="fill: #44484f"/>
      <path d="M241.55,240.76A44.78,44.78,0,0,1,247.92,251l-1.86,4.21h-19.7l-1.5-3.9.09-.49a39.65,39.65,0,0,0,11.25-9l.62-.75a111.14,111.14,0,0,0-11.33-10.27v-.35l2.83-2.52a106.87,106.87,0,0,1,10.54,9.74,26,26,0,0,0,1.64-10.18V222h3.94v4.87Q244.42,235.9,241.55,240.76Zm-7,23.6.35,2.26a19.48,19.48,0,0,1-4.87.53h-4.29v-2.48l2.21.09a3.7,3.7,0,0,1-.84-2.26,6.63,6.63,0,0,1,.8-3.14,10.08,10.08,0,0,1,3.36-.58,11.45,11.45,0,0,1,2.61.31l-.22,2.21a22.11,22.11,0,0,0-2.74-.18,8.91,8.91,0,0,0-1.46.13,3.56,3.56,0,0,0-.09,1,3.77,3.77,0,0,0,.89,2.57,12.87,12.87,0,0,0,4.07-.53Zm4.69-20.5-.4.49a29.94,29.94,0,0,1-8.41,6.6h13.64A42.59,42.59,0,0,0,239.24,243.86Z" style="fill: #44484f"/>
      <path d="M257,255.24h-4V222h4Z" style="fill: #44484f"/>
      <path d="M310.26,251.21v3.59l-.44.44H309q-2.61,0-5.31-2.61L302,255.24H284.49q-11.65,0-11.64-9.83a17.78,17.78,0,0,1,1-5.58l3.05-.62.31.27a23,23,0,0,0-.66,5,5.66,5.66,0,0,0,1.95,4.78q1.95,1.51,7,1.51H301V238.95h4v10.71a7.12,7.12,0,0,0,4.16,1.06h.66Zm-24-14.7-2.92-3.41,3.67-3.05,2.61,3.1,3.67-3.05,2.88,3.41-3.67,3.05-2.61-3.1Z" style="fill: #44484f"/>
      <path d="M338.1,251.17v3.72l-.44.35h-3.72a7.78,7.78,0,0,1-6.6-3.63,60.53,60.53,0,0,1-7.33,2.75,24.33,24.33,0,0,1-6.75.89h-3.45l-.62-.62v-3.28l.62-.62h3.76a33,33,0,0,0,3.36-.16,16.86,16.86,0,0,0,3.28-.71l2.52-.8q.75-.24,3.14-1.26l3.05-1.28a58.68,58.68,0,0,0-6.53-4.1,10.3,10.3,0,0,0-4.63-1.08,14,14,0,0,0-4.65.84l-.4-.22v-3.9a15.27,15.27,0,0,1,5.58-1.28,11.77,11.77,0,0,1,6.15,2.08,98.57,98.57,0,0,1,9.12,6.82l-1,3.67-1.86.8a7.4,7.4,0,0,0,3.19.58h3.76Z" style="fill: #44484f"/>
      <path d="M344.75,237.49h4v17.75H337.66l-.62-.62v-3.41l.62-.49h7.08Zm-2.3-3.63-2.92-3.41,3.67-3.05,2.61,3.1,3.67-3.05,2.88,3.41-3.67,3.05-2.61-3.1Z" style="fill: #44484f"/>
    </g>
  </g>
</svg>
